<?xml version="1.0" standalone="no"?>
<!DOCTYPE svg PUBLIC "-//W3C//DTD SVG 20010904//EN"
 "http://www.w3.org/TR/2001/REC-SVG-20010904/DTD/svg10.dtd">
<svg version="1.0" xmlns="http://www.w3.org/2000/svg"
 width="468pt" height="93pt" viewBox="0 0 468 93"
 preserveAspectRatio="xMidYMid meet">
<metadata>
Created by potrace 1.8, written by Peter Selinger 2001-2007
</metadata>
<g transform="translate(0,93) scale(0.022565,-0.022565)"
fill="#000000" stroke="none">
<path d="M6436 3621 c-188 -298 -296 -479 -296 -495 l0 -26 255 0 255 0 0
-130 c0 -151 2 -148 -111 -157 -64 -5 -69 -8 -69 -29 l0 -24 240 0 240 0 0 24
c0 22 -5 24 -72 30 -106 10 -108 13 -108 163 l0 123 100 0 c100 0 100 0 100
25 0 25 0 25 -100 25 l-100 0 -2 467 c-3 423 -5 468 -19 471 -12 2 -97 -124
-313 -467z m221 -468 c-2 -2 -110 -2 -239 -1 l-235 3 236 377 236 377 3 -376
c1 -207 1 -378 -1 -380z"/>
<path d="M8786 3621 c-188 -298 -296 -479 -296 -495 l0 -26 255 0 255 0 0
-130 c0 -151 2 -148 -111 -157 -64 -5 -69 -8 -69 -29 l0 -24 240 0 240 0 0 24
c0 22 -5 24 -72 30 -106 10 -108 13 -108 163 l0 123 100 0 c100 0 100 0 100
25 0 25 0 25 -100 25 l-100 0 -2 467 c-3 423 -5 468 -19 471 -12 2 -97 -124
-313 -467z m221 -468 c-2 -2 -110 -2 -239 -1 l-235 3 236 377 236 377 3 -376
c1 -207 1 -378 -1 -380z"/>
<path d="M4073 4066 c-136 -43 -237 -177 -250 -331 -4 -51 -2 -64 17 -87 16
-22 30 -28 59 -28 49 0 81 32 81 82 0 42 -36 78 -76 78 -71 0 34 173 134 221
62 30 158 31 222 2 176 -78 223 -325 104 -542 -50 -90 -95 -146 -334 -418
-143 -161 -210 -245 -210 -260 l0 -23 350 0 350 0 5 23 c5 22 45 272 45 282 0
3 -8 5 -18 5 -15 0 -20 -14 -31 -75 -20 -123 -1 -116 -316 -113 l-270 3 258
259 c142 143 276 286 297 319 108 161 104 361 -10 490 -88 101 -277 153 -407
113z"/>
<path d="M11265 4066 c-116 -37 -224 -131 -287 -251 -63 -120 -89 -229 -95
-390 -15 -438 141 -710 399 -692 225 15 385 249 348 509 -28 193 -161 338
-325 355 -107 11 -195 -37 -256 -141 l-30 -51 4 125 c6 139 22 214 69 309 60
124 156 191 272 191 75 0 110 -11 149 -48 33 -32 34 -42 4 -42 -56 0 -82 -86
-38 -122 32 -25 67 -23 96 7 63 62 -8 207 -118 240 -61 18 -137 18 -192 1z
m106 -528 c86 -48 120 -133 126 -319 9 -226 -26 -345 -119 -406 -36 -24 -52
-28 -113 -28 -93 0 -137 27 -183 112 -64 121 -80 358 -33 484 62 165 194 229
322 157z"/>
<path d="M13625 4066 c-116 -37 -224 -131 -287 -251 -63 -120 -89 -229 -95
-390 -15 -438 141 -710 399 -692 225 15 385 249 348 509 -28 193 -161 338
-325 355 -107 11 -195 -37 -256 -141 l-30 -51 4 125 c6 139 22 214 69 309 60
124 156 191 272 191 75 0 110 -11 149 -48 33 -32 34 -42 4 -42 -56 0 -82 -86
-38 -122 32 -25 67 -23 96 7 63 62 -8 207 -118 240 -61 18 -137 18 -192 1z
m106 -528 c86 -48 120 -133 126 -319 9 -226 -26 -345 -119 -406 -36 -24 -52
-28 -113 -28 -93 0 -137 27 -183 112 -64 121 -80 358 -33 484 62 165 194 229
322 157z"/>
<path d="M15853 4062 c-150 -54 -230 -168 -221 -316 7 -111 45 -167 181 -265
l59 -43 -63 -36 c-76 -45 -169 -133 -196 -187 -33 -63 -45 -141 -33 -204 41
-216 309 -339 545 -250 83 31 184 131 211 209 28 81 25 180 -8 250 -34 76 -71
115 -177 190 -50 35 -91 66 -91 70 0 3 19 15 43 28 106 56 190 162 203 254 15
112 -59 230 -178 283 -82 37 -200 44 -275 17z m209 -42 c89 -25 178 -135 178
-220 0 -100 -74 -216 -176 -276 l-43 -25 -118 80 c-147 100 -145 98 -177 145
-30 45 -36 128 -12 174 27 51 94 104 155 123 38 11 151 10 193 -1z m-2 -709
c74 -51 146 -104 158 -119 87 -100 81 -233 -14 -324 -65 -62 -124 -83 -234
-83 -84 0 -102 3 -152 28 -192 94 -221 326 -62 491 51 53 133 108 154 102 8
-2 76 -45 150 -95z"/>
<path d="M274 3601 c-23 -11 -60 -35 -82 -55 -48 -44 -146 -191 -137 -205 12
-21 32 -11 60 29 73 105 147 142 272 138 l81 -3 -37 -120 c-45 -142 -87 -251
-170 -438 -65 -148 -72 -180 -42 -197 82 -43 106 9 232 507 l64 253 113 0
c103 0 113 -2 108 -17 -16 -50 -58 -243 -71 -325 -28 -172 -13 -360 32 -410
21 -24 54 -23 87 3 30 23 33 51 12 106 -57 149 -66 345 -25 580 l11 62 145 3
c130 3 146 5 159 22 17 24 18 58 2 74 -9 9 -110 12 -393 12 -350 0 -383 -2
-421 -19z"/>
<path d="M5304 3326 c-26 -26 -34 -42 -34 -71 0 -52 53 -105 105 -105 29 0 45
8 71 34 70 70 24 176 -77 176 -22 0 -41 -10 -65 -34z"/>
<path d="M7654 3326 c-26 -26 -34 -42 -34 -71 0 -52 53 -105 105 -105 29 0 45
8 71 34 70 70 24 176 -77 176 -22 0 -41 -10 -65 -34z"/>
<path d="M10014 3326 c-26 -26 -34 -42 -34 -71 0 -52 53 -105 105 -105 29 0
45 8 71 34 70 70 24 176 -77 176 -22 0 -41 -10 -65 -34z"/>
<path d="M12364 3326 c-26 -26 -34 -42 -34 -71 0 -52 53 -105 105 -105 29 0
45 8 71 34 70 70 24 176 -77 176 -22 0 -41 -10 -65 -34z"/>
<path d="M14714 3326 c-26 -26 -34 -42 -34 -71 0 -52 53 -105 105 -105 29 0
45 8 71 34 70 70 24 176 -77 176 -22 0 -41 -10 -65 -34z"/>
<path d="M17064 3326 c-26 -26 -34 -42 -34 -71 0 -52 53 -105 105 -105 29 0
45 8 71 34 70 70 24 176 -77 176 -22 0 -41 -10 -65 -34z"/>
<path d="M18504 3326 c-26 -26 -34 -42 -34 -71 0 -52 53 -105 105 -105 29 0
45 8 71 34 70 70 24 176 -77 176 -22 0 -41 -10 -65 -34z"/>
<path d="M19944 3326 c-26 -26 -34 -42 -34 -71 0 -52 53 -105 105 -105 29 0
45 8 71 34 70 70 24 176 -77 176 -22 0 -41 -10 -65 -34z"/>
<path d="M1839 2104 c-9 -11 -10 -20 -2 -32 9 -16 63 -17 604 -20 327 -1 604
0 617 3 24 6 29 34 10 53 -9 9 -159 12 -614 12 -537 0 -603 -2 -615 -16z"/>
<path d="M0 1905 l0 -45 590 0 590 0 0 45 0 45 -590 0 -590 0 0 -45z"/>
<path d="M3742 1908 l3 -43 8498 -3 8497 -2 0 45 0 45 -8501 0 -8500 0 3 -42z"/>
<path d="M1839 1744 c-9 -11 -10 -20 -2 -32 9 -16 63 -17 613 -20 437 -1 607
1 616 9 19 15 18 45 -2 53 -9 3 -285 6 -614 6 -533 0 -599 -2 -611 -16z"/>
<path d="M13306 1368 c-3 -13 -15 -86 -26 -163 -11 -77 -23 -150 -26 -162 -3
-17 0 -23 14 -23 15 0 22 15 35 78 10 42 22 84 27 92 8 13 57 16 321 18 l312
4 -19 -29 c-10 -16 -69 -103 -130 -193 -61 -91 -127 -194 -146 -230 -87 -158
-162 -407 -174 -574 -10 -135 6 -176 67 -176 59 0 65 18 72 215 11 280 44 452
111 583 14 26 90 144 171 262 91 134 145 222 143 235 -3 19 -12 20 -333 25
-338 5 -375 10 -375 45 0 25 -39 18 -44 -7z"/>
<path d="M15656 1368 c-3 -13 -15 -86 -26 -163 -11 -77 -23 -150 -26 -162 -3
-17 0 -23 14 -23 15 0 22 15 35 78 10 42 22 84 27 92 8 13 57 16 321 18 l312
4 -19 -29 c-10 -16 -69 -103 -130 -193 -61 -91 -127 -194 -146 -230 -87 -158
-162 -407 -174 -574 -10 -135 6 -176 67 -176 59 0 65 18 72 215 11 280 44 452
111 583 14 26 90 144 171 262 91 134 145 222 143 235 -3 19 -12 20 -333 25
-338 5 -375 10 -375 45 0 25 -39 18 -44 -7z"/>
<path d="M466 901 c-188 -298 -296 -479 -296 -495 l0 -26 255 0 255 0 0 -130
c0 -151 2 -148 -111 -157 -64 -5 -69 -8 -69 -29 l0 -24 240 0 240 0 0 24 c0
22 -5 24 -72 30 -106 10 -108 13 -108 163 l0 123 100 0 c100 0 100 0 100 25 0
25 0 25 -100 25 l-100 0 -2 467 c-3 423 -5 468 -19 471 -12 2 -97 -124 -313
-467z m221 -468 c-2 -2 -110 -2 -239 -1 l-235 3 236 377 236 377 3 -376 c1
-207 1 -378 -1 -380z"/>
<path d="M4078 1341 c-101 -33 -161 -82 -197 -161 -22 -48 -27 -110 -11 -140
15 -28 67 -43 99 -27 41 19 55 58 37 101 -14 34 -23 39 -79 48 -29 5 44 83
107 115 55 28 155 41 221 29 46 -9 110 -66 127 -114 20 -59 14 -187 -12 -257
-43 -112 -128 -175 -240 -175 -59 0 -90 -9 -90 -26 0 -11 21 -14 93 -14 100
-1 149 -14 201 -54 74 -56 118 -214 97 -353 -24 -164 -111 -253 -245 -253
-119 0 -252 69 -303 158 l-25 42 30 0 c46 0 86 39 86 83 0 93 -124 117 -160
31 -13 -31 -13 -42 1 -96 19 -74 43 -114 95 -162 167 -151 443 -137 590 30
174 198 85 492 -174 575 l-68 22 38 15 c142 56 239 188 239 328 0 61 -4 77
-30 119 -79 128 -266 187 -427 136z"/>
<path d="M6438 1341 c-101 -33 -161 -82 -197 -161 -22 -48 -27 -110 -11 -140
15 -28 67 -43 99 -27 41 19 55 58 37 101 -14 34 -23 39 -79 48 -29 5 44 83
107 115 55 28 155 41 221 29 46 -9 110 -66 127 -114 20 -59 14 -187 -12 -257
-43 -112 -128 -175 -240 -175 -59 0 -90 -9 -90 -26 0 -11 21 -14 93 -14 100
-1 149 -14 201 -54 74 -56 118 -214 97 -353 -24 -164 -111 -253 -245 -253
-119 0 -252 69 -303 158 l-25 42 30 0 c46 0 86 39 86 83 0 93 -124 117 -160
31 -13 -31 -13 -42 1 -96 19 -74 43 -114 95 -162 167 -151 443 -137 590 30
174 198 85 492 -174 575 l-68 22 38 15 c142 56 239 188 239 328 0 61 -4 77
-30 119 -79 128 -266 187 -427 136z"/>
<path d="M8640 1025 c0 -267 3 -335 13 -335 7 0 29 20 50 44 43 52 120 92 195
101 103 13 190 -55 228 -180 21 -72 29 -247 15 -329 -43 -245 -250 -341 -445
-207 -45 31 -100 106 -111 154 -7 25 -5 27 22 27 47 0 73 25 73 71 0 75 -74
106 -127 53 -23 -23 -25 -31 -20 -85 11 -124 95 -246 206 -298 76 -35 197 -36
284 -2 71 28 163 110 201 181 97 178 67 419 -69 553 -72 71 -123 91 -225 92
-96 0 -149 -19 -213 -75 l-37 -32 0 221 c0 122 3 221 8 221 4 0 32 -7 62 -15
125 -34 264 -8 367 69 115 85 123 124 17 81 -134 -54 -283 -54 -418 0 -35 14
-66 25 -69 25 -4 0 -7 -151 -7 -335z"/>
<path d="M10990 1025 c0 -267 3 -335 13 -335 7 0 29 20 50 44 43 52 120 92
195 101 103 13 190 -55 228 -180 21 -72 29 -247 15 -329 -43 -245 -250 -341
-445 -207 -45 31 -100 106 -111 154 -7 25 -5 27 22 27 47 0 73 25 73 71 0 75
-74 106 -127 53 -23 -23 -25 -31 -20 -85 11 -124 95 -246 206 -298 76 -35 197
-36 284 -2 71 28 163 110 201 181 97 178 67 419 -69 553 -72 71 -123 91 -225
92 -96 0 -149 -19 -213 -75 l-37 -32 0 221 c0 122 3 221 8 221 4 0 32 -7 62
-15 125 -34 264 -8 367 69 115 85 123 124 17 81 -134 -54 -283 -54 -418 0 -35
14 -66 25 -69 25 -4 0 -7 -151 -7 -335z"/>
<path d="M5304 606 c-26 -26 -34 -42 -34 -71 0 -52 53 -105 105 -105 29 0 45
8 71 34 70 70 24 176 -77 176 -22 0 -41 -10 -65 -34z"/>
<path d="M7654 606 c-26 -26 -34 -42 -34 -71 0 -52 53 -105 105 -105 29 0 45
8 71 34 70 70 24 176 -77 176 -22 0 -41 -10 -65 -34z"/>
<path d="M10014 606 c-26 -26 -34 -42 -34 -71 0 -52 53 -105 105 -105 29 0 45
8 71 34 70 70 24 176 -77 176 -22 0 -41 -10 -65 -34z"/>
<path d="M12364 606 c-26 -26 -34 -42 -34 -71 0 -52 53 -105 105 -105 29 0 45
8 71 34 70 70 24 176 -77 176 -22 0 -41 -10 -65 -34z"/>
<path d="M14714 606 c-26 -26 -34 -42 -34 -71 0 -52 53 -105 105 -105 29 0 45
8 71 34 70 70 24 176 -77 176 -22 0 -41 -10 -65 -34z"/>
<path d="M17064 606 c-26 -26 -34 -42 -34 -71 0 -52 53 -105 105 -105 29 0 45
8 71 34 70 70 24 176 -77 176 -22 0 -41 -10 -65 -34z"/>
<path d="M18504 606 c-26 -26 -34 -42 -34 -71 0 -52 53 -105 105 -105 29 0 45
8 71 34 70 70 24 176 -77 176 -22 0 -41 -10 -65 -34z"/>
<path d="M19944 606 c-26 -26 -34 -42 -34 -71 0 -52 53 -105 105 -105 29 0 45
8 71 34 70 70 24 176 -77 176 -22 0 -41 -10 -65 -34z"/>
</g>
</svg>
