<?xml version="1.0" standalone="no"?>
<!DOCTYPE svg PUBLIC "-//W3C//DTD SVG 20010904//EN"
 "http://www.w3.org/TR/2001/REC-SVG-20010904/DTD/svg10.dtd">
<svg version="1.0" xmlns="http://www.w3.org/2000/svg"
 width="468pt" height="246pt" viewBox="0 0 468 246"
 preserveAspectRatio="xMidYMid meet">
<metadata>
Created by potrace 1.8, written by Peter Selinger 2001-2007
</metadata>
<g transform="translate(0,246) scale(0.024580,-0.024580)"
fill="#000000" stroke="none">
<path d="M10651 9972 c-16 -30 6 -42 79 -42 36 0 72 -5 80 -10 13 -8 -5 -89
-125 -566 -86 -343 -148 -569 -160 -588 -27 -41 -73 -66 -134 -73 -54 -6 -77
-23 -67 -48 5 -13 34 -15 213 -13 l208 3 0 25 c0 23 -5 26 -55 32 -42 5 -60
13 -77 33 -13 14 -23 33 -23 42 0 23 271 1096 279 1105 4 4 119 -272 256 -613
138 -342 256 -624 263 -627 7 -2 17 -1 22 4 5 5 76 277 159 604 94 370 158
604 169 620 28 37 73 60 131 67 54 6 77 23 67 48 -5 13 -34 15 -213 13 l-208
-3 0 -25 c0 -23 5 -26 53 -31 29 -4 60 -13 68 -20 41 -34 40 -43 -82 -533 -81
-324 -120 -466 -126 -456 -6 8 -105 251 -221 540 l-212 525 -167 3 c-155 2
-168 1 -177 -16z"/>
<path d="M12115 9228 c-28 -29 -91 -56 -152 -64 -43 -5 -53 -10 -53 -25 0 -12
7 -19 18 -19 19 0 106 22 135 35 16 7 17 -15 17 -379 0 -442 9 -406 -99 -406
-54 0 -61 -2 -61 -20 0 -19 7 -20 206 -20 190 0 205 1 202 18 -3 14 -17 18
-76 22 -50 3 -76 10 -82 20 -6 9 -10 189 -10 438 0 447 0 447 -45 400z"/>
<path d="M740 8574 c-48 -21 -107 -80 -135 -135 -27 -53 -54 -150 -80 -291
l-19 -97 -90 -3 c-90 -3 -91 -3 -91 -28 0 -24 2 -25 83 -28 53 -2 82 -7 82
-14 0 -6 -30 -169 -66 -362 -122 -653 -140 -724 -195 -771 -36 -29 -76 -32
-125 -9 l-35 17 38 17 c60 27 81 92 43 130 -48 48 -137 2 -146 -75 -15 -117
151 -187 264 -112 83 54 159 211 208 428 19 86 108 542 138 712 l7 37 104 0
c89 0 106 3 113 18 19 36 5 42 -105 42 -95 0 -104 2 -99 18 3 9 17 78 31 152
49 253 53 266 91 300 38 33 78 38 129 16 l30 -14 -26 -10 c-15 -6 -36 -23 -48
-38 -65 -82 32 -156 111 -85 28 25 33 36 33 74 0 53 -21 81 -80 108 -48 22
-118 24 -165 3z"/>
<path d="M1729 7884 c-9 -11 -10 -20 -2 -32 9 -16 63 -17 604 -20 327 -1 604
0 617 3 24 6 29 34 10 53 -9 9 -159 12 -614 12 -537 0 -603 -2 -615 -16z"/>
<path d="M3630 7690 l0 -40 7705 0 7705 0 0 40 0 40 -7705 0 -7705 0 0 -40z"/>
<path d="M1729 7524 c-9 -11 -10 -20 -2 -32 9 -16 63 -17 613 -20 437 -1 607
1 616 9 19 15 18 45 -2 53 -9 3 -285 6 -614 6 -533 0 -599 -2 -611 -16z"/>
<path d="M12951 7222 c-16 -30 6 -42 79 -42 36 0 72 -5 80 -10 13 -8 -5 -89
-125 -566 -86 -343 -148 -569 -160 -588 -27 -41 -73 -66 -134 -73 -54 -6 -77
-23 -67 -48 5 -13 34 -15 213 -13 l208 3 0 25 c0 23 -5 26 -55 32 -42 5 -60
13 -77 33 -13 14 -23 33 -23 42 0 23 271 1096 279 1105 4 4 119 -272 256 -613
138 -342 256 -624 263 -627 7 -2 17 -1 22 4 5 5 76 277 159 604 94 370 158
604 169 620 28 37 73 60 131 67 54 6 77 23 67 48 -5 13 -34 15 -213 13 l-208
-3 0 -25 c0 -23 5 -26 53 -31 29 -4 60 -13 68 -20 41 -34 40 -43 -82 -533 -81
-324 -120 -466 -126 -456 -6 8 -105 251 -221 540 l-212 525 -167 3 c-155 2
-168 1 -177 -16z"/>
<path d="M14295 6476 c-83 -38 -134 -111 -142 -206 -4 -44 -2 -60 12 -73 46
-46 121 16 86 71 -5 8 -22 17 -39 20 l-31 7 20 45 c11 24 28 53 37 63 29 32
89 57 136 57 120 0 195 -86 196 -222 0 -128 -37 -191 -265 -448 -85 -96 -155
-183 -155 -192 0 -17 18 -18 244 -18 l243 0 17 106 c9 59 15 109 12 111 -12
12 -25 -11 -31 -55 -11 -80 -1 -77 -215 -80 -182 -3 -191 -2 -182 15 6 10 85
91 176 181 177 174 221 228 242 300 31 102 12 184 -61 259 -80 82 -200 106
-300 59z"/>
<path d="M4054 5785 c-13 -34 3 -45 69 -45 117 0 120 53 -42 -596 -78 -313
-146 -581 -152 -595 -14 -36 -48 -49 -123 -49 -67 0 -94 -15 -82 -45 5 -13 55
-15 379 -15 342 0 381 2 452 20 419 107 727 597 625 994 -45 175 -153 288
-317 331 -85 22 -801 22 -809 0z m798 -77 c159 -74 217 -240 173 -499 -55
-328 -203 -560 -420 -659 -91 -42 -149 -50 -345 -50 -154 0 -180 2 -180 15 0
38 295 1192 309 1208 14 17 32 18 211 15 187 -3 197 -4 252 -30z"/>
<path d="M7032 5548 c-9 -9 -12 -88 -12 -295 l0 -283 -286 -2 c-255 -3 -288
-5 -297 -20 -8 -12 -7 -21 2 -32 12 -14 51 -16 297 -16 l284 0 0 -279 c0 -154
3 -286 6 -295 7 -19 35 -21 52 -4 9 9 12 88 12 295 l0 283 279 0 c154 0 286 3
295 6 9 3 16 16 16 29 0 13 -7 26 -16 29 -9 3 -141 6 -295 6 l-279 0 0 283 c0
283 -3 307 -35 307 -6 0 -16 -5 -23 -12z"/>
<path d="M5575 5038 c-28 -29 -91 -56 -152 -64 -43 -5 -53 -10 -53 -25 0 -12
7 -19 18 -19 19 0 106 22 135 35 16 7 17 -15 17 -379 0 -442 9 -406 -99 -406
-54 0 -61 -2 -61 -20 0 -19 7 -20 206 -20 190 0 205 1 202 18 -3 14 -17 18
-76 22 -50 3 -76 10 -82 20 -6 9 -10 189 -10 438 0 447 0 447 -45 400z"/>
<path d="M8230 4940 l0 -40 5405 0 5405 0 0 40 0 40 -5405 0 -5405 0 0 -40z"/>
<path d="M15251 4472 c-16 -30 6 -42 79 -42 36 0 72 -5 80 -10 13 -8 -5 -89
-125 -566 -86 -343 -148 -569 -160 -588 -27 -41 -73 -66 -134 -73 -54 -6 -77
-23 -67 -48 5 -13 34 -15 213 -13 l208 3 0 25 c0 23 -5 26 -55 32 -42 5 -60
13 -77 33 -13 14 -23 33 -23 42 0 23 271 1096 279 1105 4 4 119 -272 256 -613
138 -342 256 -624 263 -627 7 -2 17 -1 22 4 5 5 76 277 159 604 94 370 158
604 169 620 28 37 73 60 131 67 54 6 77 23 67 48 -5 13 -34 15 -213 13 l-208
-3 0 -25 c0 -23 5 -26 53 -31 29 -4 60 -13 68 -20 41 -34 40 -43 -82 -533 -81
-324 -120 -466 -126 -456 -6 8 -105 251 -221 540 l-212 525 -167 3 c-155 2
-168 1 -177 -16z"/>
<path d="M16630 3741 c-97 -32 -160 -103 -160 -180 0 -53 60 -80 93 -43 32 35
18 78 -27 90 l-27 7 21 28 c63 80 226 98 279 30 66 -83 36 -260 -53 -318 -13
-9 -52 -19 -87 -23 -91 -10 -91 -32 1 -32 97 0 141 -24 176 -97 24 -48 26 -62
22 -147 -3 -82 -7 -99 -32 -136 -54 -82 -150 -98 -258 -44 -39 20 -109 90 -97
97 2 1 18 9 34 17 24 13 31 23 33 53 3 32 -1 39 -23 49 -35 16 -77 0 -85 -32
-4 -14 -1 -48 6 -75 9 -39 23 -60 64 -97 63 -59 135 -83 221 -75 226 20 331
281 173 427 -41 37 -64 51 -129 74 -18 7 -17 9 12 21 50 21 120 92 139 141 38
100 1 200 -92 244 -50 25 -160 36 -204 21z"/>
<path d="M8654 3035 c-13 -34 3 -45 69 -45 117 0 120 53 -42 -596 -78 -313
-146 -581 -152 -595 -14 -36 -48 -49 -123 -49 -67 0 -94 -15 -82 -45 5 -13 55
-15 379 -15 342 0 381 2 452 20 419 107 727 597 625 994 -45 175 -153 288
-317 331 -85 22 -801 22 -809 0z m798 -77 c159 -74 217 -240 173 -499 -55
-328 -203 -560 -420 -659 -91 -42 -149 -50 -345 -50 -154 0 -180 2 -180 15 0
38 295 1192 309 1208 14 17 32 18 211 15 187 -3 197 -4 252 -30z"/>
<path d="M11632 2798 c-9 -9 -12 -88 -12 -295 l0 -283 -286 -2 c-255 -3 -288
-5 -297 -20 -8 -12 -7 -21 2 -32 12 -14 51 -16 297 -16 l284 0 0 -279 c0 -154
3 -286 6 -295 7 -19 35 -21 52 -4 9 9 12 88 12 295 l0 283 279 0 c154 0 286 3
295 6 9 3 16 16 16 29 0 13 -7 26 -16 29 -9 3 -141 6 -295 6 l-279 0 0 283 c0
283 -3 307 -35 307 -6 0 -16 -5 -23 -12z"/>
<path d="M10055 2286 c-83 -38 -134 -111 -142 -206 -4 -44 -2 -60 12 -73 46
-46 121 16 86 71 -5 8 -22 17 -39 20 l-31 7 20 45 c11 24 28 53 37 63 29 32
89 57 136 57 120 0 195 -86 196 -222 0 -128 -37 -191 -265 -448 -85 -96 -155
-183 -155 -192 0 -17 18 -18 244 -18 l243 0 17 106 c9 59 15 109 12 111 -12
12 -25 -11 -31 -55 -11 -80 -1 -77 -215 -80 -182 -3 -191 -2 -182 15 6 10 85
91 176 181 177 174 221 228 242 300 31 102 12 184 -61 259 -80 82 -200 106
-300 59z"/>
<path d="M12820 2190 l0 -40 3110 0 3110 0 0 40 0 40 -3110 0 -3110 0 0 -40z"/>
<path d="M13254 1675 c-13 -34 3 -45 69 -45 117 0 120 53 -42 -596 -78 -313
-146 -581 -152 -595 -14 -36 -48 -49 -123 -49 -67 0 -94 -15 -82 -45 5 -13 55
-15 379 -15 342 0 381 2 452 20 419 107 727 597 625 994 -45 175 -153 288
-317 331 -85 22 -801 22 -809 0z m798 -77 c159 -74 217 -240 173 -499 -55
-328 -203 -560 -420 -659 -91 -42 -149 -50 -345 -50 -154 0 -180 2 -180 15 0
38 295 1192 309 1208 14 17 32 18 211 15 187 -3 197 -4 252 -30z"/>
<path d="M16222 1438 c-9 -9 -12 -88 -12 -295 l0 -283 -286 -2 c-255 -3 -288
-5 -297 -20 -8 -12 -7 -21 2 -32 12 -14 51 -16 297 -16 l284 0 0 -279 c0 -154
3 -286 6 -295 7 -19 35 -21 52 -4 9 9 12 88 12 295 l0 283 279 0 c154 0 286 3
295 6 9 3 16 16 16 29 0 13 -7 26 -16 29 -9 3 -141 6 -295 6 l-279 0 0 283 c0
283 -3 307 -35 307 -6 0 -16 -5 -23 -12z"/>
<path d="M14680 941 c-97 -32 -160 -103 -160 -180 0 -53 60 -80 93 -43 32 35
18 78 -27 90 l-27 7 21 28 c63 80 226 98 279 30 66 -83 36 -260 -53 -318 -13
-9 -52 -19 -87 -23 -91 -10 -91 -32 1 -32 97 0 141 -24 176 -97 24 -48 26 -62
22 -147 -3 -82 -7 -99 -32 -136 -54 -82 -150 -98 -258 -44 -39 20 -109 90 -97
97 2 1 18 9 34 17 24 13 31 23 33 53 3 32 -1 39 -23 49 -35 16 -77 0 -85 -32
-4 -14 -1 -48 6 -75 9 -39 23 -60 64 -97 63 -59 135 -83 221 -75 226 20 331
281 173 427 -41 37 -64 51 -129 74 -18 7 -17 9 12 21 50 21 120 92 139 141 38
100 1 200 -92 244 -50 25 -160 36 -204 21z"/>
<path d="M17608 490 c-27 -27 -30 -36 -25 -72 7 -52 33 -78 85 -85 36 -5 45
-2 72 25 41 42 42 92 1 133 -41 41 -91 40 -133 -1z"/>
<path d="M18148 490 c-27 -27 -30 -36 -25 -72 7 -52 33 -78 85 -85 36 -5 45
-2 72 25 41 42 42 92 1 133 -41 41 -91 40 -133 -1z"/>
<path d="M18688 490 c-27 -27 -30 -36 -25 -72 7 -52 33 -78 85 -85 36 -5 45
-2 72 25 41 42 42 92 1 133 -41 41 -91 40 -133 -1z"/>
</g>
</svg>
