<?xml version="1.0" standalone="no"?>
<!DOCTYPE svg PUBLIC "-//W3C//DTD SVG 20010904//EN"
 "http://www.w3.org/TR/2001/REC-SVG-20010904/DTD/svg10.dtd">
<svg version="1.0" xmlns="http://www.w3.org/2000/svg"
 width="468pt" height="41pt" viewBox="0 0 468 41"
 preserveAspectRatio="xMidYMid meet">
<metadata>
Created by potrace 1.8, written by Peter Selinger 2001-2007
</metadata>
<g transform="translate(0,41) scale(0.095902,-0.095902)"
fill="#000000" stroke="none">
<path d="M166 379 c-3 -18 -4 -34 -2 -36 2 -3 7 10 11 27 4 17 5 34 2 36 -2 3
-7 -10 -11 -27z"/>
<path d="M580 195 l0 -195 23 1 c16 1 18 2 5 6 -16 4 -18 22 -18 188 0 166 2
184 18 188 13 4 11 5 -5 6 l-23 1 0 -195z"/>
<path d="M1368 338 c24 -45 27 -64 27 -143 0 -79 -3 -98 -27 -143 -34 -65 -28
-68 9 -5 26 44 28 57 28 148 0 91 -2 104 -28 148 -37 63 -43 60 -9 -5z"/>
<path d="M1848 373 c-41 -47 -53 -87 -53 -178 0 -93 19 -151 60 -185 10 -8 6
3 -9 24 -55 82 -56 239 -1 320 26 39 27 47 3 19z"/>
<path d="M3228 373 c-41 -47 -53 -87 -53 -178 0 -93 19 -151 60 -185 10 -8 6
3 -9 24 -55 82 -56 239 -1 320 26 39 27 47 3 19z"/>
<path d="M4198 343 c24 -43 27 -58 27 -148 0 -90 -3 -105 -27 -148 -15 -26
-23 -45 -17 -42 5 4 19 25 32 48 19 35 22 58 22 142 0 84 -3 107 -22 142 -13
23 -27 44 -32 48 -6 3 2 -16 17 -42z"/>
<path d="M4623 383 c15 -4 17 -22 17 -188 0 -166 -2 -184 -17 -188 -14 -4 -12
-5 5 -6 l22 -1 0 195 0 195 -22 -1 c-17 -1 -19 -2 -5 -6z"/>
<path d="M130 376 c0 -3 5 -8 10 -11 6 -3 10 -1 10 4 0 6 -4 11 -10 11 -5 0
-10 -2 -10 -4z"/>
<path d="M1210 360 c0 -11 -3 -20 -7 -20 -5 0 -9 -16 -10 -36 -2 -46 1 -42 20
24 9 28 12 52 6 52 -5 0 -9 -9 -9 -20z"/>
<path d="M2582 329 c-17 -70 -9 -73 10 -4 8 30 12 55 8 55 -3 0 -12 -23 -18
-51z"/>
<path d="M2748 329 c22 -43 26 -66 26 -134 0 -68 -4 -91 -26 -134 -20 -42 -22
-48 -7 -35 25 23 49 105 49 169 0 64 -24 146 -49 169 -15 13 -13 7 7 -35z"/>
<path d="M4044 363 c0 -10 -3 -36 -7 -58 -4 -25 -3 -32 2 -20 13 33 23 95 14
95 -5 0 -9 -8 -9 -17z"/>
<path d="M87 263 c-14 -59 -29 -128 -32 -153 -4 -25 -12 -53 -17 -64 -7 -13
-7 -16 1 -12 5 4 15 23 21 44 17 60 61 285 56 289 -2 2 -15 -44 -29 -104z"/>
<path d="M191 356 c-1 -11 2 -17 5 -13 3 3 4 12 1 19 -3 8 -6 5 -6 -6z"/>
<path d="M815 346 c-50 -75 -47 -245 5 -308 17 -20 16 -17 -3 22 -31 64 -32
206 -1 268 24 46 23 55 -1 18z"/>
<path d="M1268 310 c-3 -17 -2 -33 2 -35 3 -2 7 12 8 31 3 42 -4 45 -10 4z"/>
<path d="M4000 325 c-6 -8 -10 -21 -8 -31 2 -11 7 -6 15 15 13 34 11 38 -7 16z"/>
<path d="M4098 309 c-3 -16 -1 -32 3 -34 4 -3 9 9 11 26 3 16 1 32 -3 34 -4 3
-9 -9 -11 -26z"/>
<path d="M1157 323 c-4 -3 -7 -16 -6 -27 0 -19 1 -19 10 3 10 24 8 36 -4 24z"/>
<path d="M2537 323 c-4 -3 -7 -16 -6 -27 0 -19 1 -19 10 3 10 24 8 36 -4 24z"/>
<path d="M2651 323 c-1 -6 -4 -20 -7 -30 -5 -17 -5 -17 6 0 6 10 9 23 6 30 -3
9 -5 9 -5 0z"/>
<path d="M286 249 c-19 -80 -23 -108 -17 -104 10 6 34 115 27 122 -3 3 -7 -5
-10 -18z"/>
<path d="M676 249 c-19 -80 -23 -108 -17 -104 10 6 34 115 27 122 -3 3 -7 -5
-10 -18z"/>
<path d="M1692 238 c-16 -49 -25 -104 -17 -96 7 7 35 121 30 126 -2 2 -8 -12
-13 -30z"/>
<path d="M2214 253 c0 -10 -3 -36 -7 -58 l-6 -40 14 40 c16 46 18 75 7 75 -4
0 -8 -8 -8 -17z"/>
<path d="M3575 257 c18 -14 19 -18 6 -39 -13 -21 -13 -22 3 -9 22 19 17 55 -9
59 -20 4 -20 4 0 -11z"/>
<path d="M3670 250 c0 -11 -3 -20 -7 -20 -5 0 -9 -16 -10 -36 -2 -46 1 -42 20
24 9 28 12 52 6 52 -5 0 -9 -9 -9 -20z"/>
<path d="M4774 253 c0 -10 -3 -36 -7 -58 l-6 -40 14 40 c16 46 18 75 7 75 -4
0 -8 -8 -8 -17z"/>
<path d="M3060 205 c-6 -31 -9 -59 -7 -62 3 -2 11 21 17 52 6 31 9 59 7 62 -3
2 -11 -21 -17 -52z"/>
<path d="M1041 228 c-1 -21 -7 -28 -28 -31 l-28 -4 27 -2 c19 -1 28 -7 31 -23
l4 -23 2 23 c1 15 8 22 24 23 l22 2 -22 4 c-14 3 -23 13 -26 31 l-4 27 -2 -27z"/>
<path d="M1541 228 c-1 -21 -6 -28 -23 -29 l-23 -2 23 -4 c14 -3 22 -12 23
-26 2 -22 2 -22 6 1 3 14 12 22 26 23 l22 2 -22 4 c-14 3 -23 13 -26 31 l-4
27 -2 -27z"/>
<path d="M2051 228 c-1 -21 -6 -28 -23 -29 l-23 -2 23 -4 c14 -3 22 -12 23
-26 2 -22 2 -22 6 1 3 14 12 22 26 23 l22 2 -22 4 c-14 3 -23 13 -26 31 l-4
27 -2 -27z"/>
<path d="M2411 228 c-1 -21 -6 -28 -23 -29 l-23 -2 23 -4 c14 -3 22 -12 23
-26 2 -22 2 -22 6 1 3 16 12 22 31 23 l27 2 -27 4 c-20 3 -28 11 -31 31 l-4
27 -2 -27z"/>
<path d="M2921 228 c-1 -21 -7 -28 -28 -31 l-28 -4 27 -2 c19 -1 28 -7 31 -23
l4 -23 2 23 c1 15 8 22 24 23 l22 2 -22 4 c-14 3 -23 13 -26 31 l-4 27 -2 -27z"/>
<path d="M3431 228 c-1 -21 -6 -28 -23 -29 l-23 -2 23 -4 c14 -3 22 -12 23
-26 2 -22 2 -22 6 1 3 14 12 22 26 23 l22 2 -22 4 c-14 3 -23 13 -26 31 l-4
27 -2 -27z"/>
<path d="M3871 228 c-1 -21 -6 -28 -23 -29 l-23 -2 23 -4 c14 -3 22 -12 23
-26 2 -22 2 -22 6 1 3 14 12 22 26 23 l22 2 -22 4 c-14 3 -23 13 -26 31 l-4
27 -2 -27z"/>
<path d="M4371 228 c-1 -21 -6 -28 -23 -29 l-23 -2 23 -4 c14 -3 22 -12 23
-26 2 -22 2 -22 6 1 3 14 12 22 26 23 l22 2 -22 4 c-14 3 -23 13 -26 31 l-4
27 -2 -27z"/>
<path d="M916 199 c-8 -42 0 -50 9 -9 4 17 5 34 2 36 -2 3 -7 -10 -11 -27z"/>
<path d="M1923 194 c-2 -42 0 -41 15 4 8 24 8 32 -1 32 -7 0 -13 -16 -14 -36z"/>
<path d="M2268 199 c-3 -16 -1 -32 3 -34 4 -3 9 9 11 26 3 16 1 32 -3 34 -4 3
-9 -9 -11 -26z"/>
<path d="M3306 199 c-8 -42 0 -50 9 -9 4 17 5 34 2 36 -2 3 -7 -10 -11 -27z"/>
<path d="M4833 192 c-1 -37 -1 -37 8 -7 4 16 5 33 1 37 -4 4 -8 -10 -9 -30z"/>
<path d="M413 213 c15 -2 39 -2 55 0 15 2 2 4 -28 4 -30 0 -43 -2 -27 -4z"/>
<path d="M877 213 c-4 -3 -7 -16 -6 -27 0 -19 1 -19 10 3 10 24 8 36 -4 24z"/>
<path d="M1887 213 c-4 -3 -7 -16 -6 -27 0 -19 1 -19 10 3 10 24 8 36 -4 24z"/>
<path d="M2167 213 c-4 -3 -7 -16 -6 -27 0 -19 1 -19 10 3 10 24 8 36 -4 24z"/>
<path d="M3267 213 c-4 -3 -7 -16 -6 -27 0 -19 1 -19 10 3 10 24 8 36 -4 24z"/>
<path d="M3617 213 c-4 -3 -7 -16 -6 -27 0 -19 1 -19 10 3 10 24 8 36 -4 24z"/>
<path d="M3731 213 c-1 -6 -4 -20 -7 -30 -5 -17 -5 -17 6 0 6 10 9 23 6 30 -3
9 -5 9 -5 0z"/>
<path d="M4727 213 c-4 -3 -7 -16 -6 -27 0 -19 1 -19 10 3 10 24 8 36 -4 24z"/>
<path d="M1188 193 c23 -2 61 -2 85 0 23 2 4 4 -43 4 -47 0 -66 -2 -42 -4z"/>
<path d="M2568 193 c23 -2 61 -2 85 0 23 2 4 4 -43 4 -47 0 -66 -2 -42 -4z"/>
<path d="M4017 193 c23 -2 64 -2 90 0 26 2 8 3 -42 3 -49 0 -71 -1 -48 -3z"/>
<path d="M413 183 c15 -2 39 -2 55 0 15 2 2 4 -28 4 -30 0 -43 -2 -27 -4z"/>
<path d="M3565 170 l-30 -8 33 -1 c17 0 32 4 32 9 0 6 -1 9 -2 9 -2 -1 -16 -5
-33 -9z"/>
<path d="M1240 151 c12 -8 13 -16 3 -43 -11 -30 -11 -31 3 -13 18 24 15 57 -6
62 -13 4 -13 3 0 -6z"/>
<path d="M2618 153 c9 -3 12 -14 9 -30 -3 -16 -1 -21 5 -15 14 14 6 47 -12 48
-11 1 -11 0 -2 -3z"/>
<path d="M4044 145 c-4 -9 -4 -19 0 -22 3 -4 6 1 6 10 0 18 25 23 35 7 3 -5 0
-20 -6 -32 -11 -21 -11 -22 5 -9 23 20 17 55 -12 59 -13 2 -25 -3 -28 -13z"/>
<path d="M2581 136 c-1 -11 2 -17 5 -13 3 3 4 12 1 19 -3 8 -6 5 -6 -6z"/>
<path d="M122 45 c0 -17 2 -24 5 -18 2 7 2 21 0 30 -3 10 -5 5 -5 -12z"/>
<path d="M1230 60 l-25 -8 28 -1 c15 -1 27 4 27 9 0 6 -1 10 -2 9 -2 -1 -14
-5 -28 -9z"/>
<path d="M2583 58 c-2 -5 10 -8 26 -8 17 0 31 3 31 8 0 4 -12 7 -26 7 -14 0
-28 -3 -31 -7z"/>
<path d="M91 46 c-1 -11 2 -17 5 -13 3 3 4 12 1 19 -3 8 -6 5 -6 -6z"/>
<path d="M4053 53 c9 -2 25 -2 35 0 9 3 1 5 -18 5 -19 0 -27 -2 -17 -5z"/>
</g>
</svg>
