<?xml version="1.0" standalone="no"?>
<!DOCTYPE svg PUBLIC "-//W3C//DTD SVG 20010904//EN"
 "http://www.w3.org/TR/2001/REC-SVG-20010904/DTD/svg10.dtd">
<svg version="1.0" xmlns="http://www.w3.org/2000/svg"
 width="468pt" height="88pt" viewBox="0 0 468 88"
 preserveAspectRatio="xMidYMid meet">
<metadata>
Created by potrace 1.8, written by Peter Selinger 2001-2007
</metadata>
<g transform="translate(0,88) scale(0.248936,-0.248936)"
fill="#000000" stroke="none">
<path d="M1134 313 c0 -10 -3 -36 -7 -58 -4 -25 -3 -32 2 -20 13 33 23 95 14
95 -5 0 -9 -8 -9 -17z"/>
<path d="M971 288 c-1 -21 -6 -28 -23 -29 l-23 -2 23 -4 c14 -3 22 -12 23 -26
2 -22 2 -22 6 1 3 14 12 22 26 23 l22 2 -22 4 c-14 3 -23 13 -26 31 l-4 27 -2
-27z"/>
<path d="M1590 264 c0 -21 4 -45 9 -53 5 -8 7 5 4 35 -7 61 -13 70 -13 18z"/>
<path d="M1763 260 c0 -25 2 -35 4 -22 2 12 2 32 0 45 -2 12 -4 2 -4 -23z"/>
<path d="M701 249 c-7 -22 -10 -43 -7 -46 2 -3 10 14 16 37 15 55 7 63 -9 9z"/>
<path d="M742 260 c0 -19 2 -27 5 -17 2 9 2 25 0 35 -3 9 -5 1 -5 -18z"/>
<path d="M1090 275 c-6 -8 -10 -21 -8 -31 2 -11 7 -6 15 15 13 34 11 38 -7 16z"/>
<path d="M1188 260 c-3 -17 -2 -33 2 -35 3 -2 7 12 8 31 3 42 -4 45 -10 4z"/>
<path d="M1282 260 c0 -19 2 -27 5 -17 2 9 2 25 0 35 -3 9 -5 1 -5 -18z"/>
<path d="M1520 275 c-6 -8 -10 -21 -8 -31 2 -11 7 -6 15 15 13 34 11 38 -7 16z"/>
<path d="M1550 249 c-7 -24 -14 -48 -17 -54 -4 -7 -2 -7 5 0 11 11 34 87 27
93 -2 2 -9 -16 -15 -39z"/>
<path d="M1673 252 c-1 -37 -1 -37 8 -7 4 16 5 33 1 37 -4 4 -8 -10 -9 -30z"/>
<path d="M667 273 c-4 -3 -7 -16 -6 -27 0 -19 1 -19 10 3 10 24 8 36 -4 24z"/>
<path d="M831 273 c-1 -6 -4 -20 -7 -30 -5 -17 -5 -17 6 0 6 10 9 23 6 30 -3
9 -5 9 -5 0z"/>
<path d="M1373 253 c15 -2 39 -2 55 0 15 2 2 4 -28 4 -30 0 -43 -2 -27 -4z"/>
<path d="M33 165 c-5 -30 -6 -55 -2 -55 4 0 10 17 13 38 4 20 9 45 12 55 3 9
1 17 -4 17 -5 0 -13 -25 -19 -55z"/>
<path d="M107 200 c3 -11 0 -34 -6 -52 -10 -30 -9 -31 4 -14 17 22 20 72 6 80
-5 4 -7 -3 -4 -14z"/>
<path d="M230 154 c0 -21 4 -45 9 -53 5 -8 7 5 4 35 -7 61 -13 70 -13 18z"/>
<path d="M403 150 c0 -25 2 -35 4 -22 2 12 2 32 0 45 -2 12 -4 2 -4 -23z"/>
<path d="M160 165 c-6 -8 -10 -21 -8 -31 2 -11 7 -6 15 15 13 34 11 38 -7 16z"/>
<path d="M190 139 c-7 -24 -14 -48 -17 -54 -4 -7 -2 -7 5 0 11 11 34 87 27 93
-2 2 -9 -16 -15 -39z"/>
<path d="M313 142 c-1 -37 -1 -37 8 -7 4 16 5 33 1 37 -4 4 -8 -10 -9 -30z"/>
<path d="M1822 160 c-7 -11 -12 -25 -12 -32 1 -7 8 0 16 15 18 33 14 46 -4 17z"/>
<path d="M1854 148 c-4 -18 -8 -35 -9 -38 0 -3 -4 -12 -10 -20 -7 -13 -6 -13
7 -2 15 12 34 79 25 89 -3 2 -9 -11 -13 -29z"/>
<path d="M503 163 c15 -2 39 -2 55 0 15 2 2 4 -28 4 -30 0 -43 -2 -27 -4z"/>
<path d="M927 153 c155 -2 411 -2 570 0 158 1 32 2 -282 2 -314 0 -443 -1
-288 -2z"/>
<path d="M503 133 c15 -2 39 -2 55 0 15 2 2 4 -28 4 -30 0 -43 -2 -27 -4z"/>
<path d="M1194 93 c0 -10 -3 -36 -7 -58 l-6 -40 14 40 c16 46 18 75 7 75 -4 0
-8 -8 -8 -17z"/>
<path d="M1248 39 c-3 -16 -1 -32 3 -34 4 -3 9 9 11 26 3 16 1 32 -3 34 -4 3
-9 -9 -11 -26z"/>
<path d="M1147 53 c-4 -3 -7 -16 -6 -27 0 -19 1 -19 10 3 10 24 8 36 -4 24z"/>
</g>
</svg>
