<?xml version="1.0" standalone="no"?>
<!DOCTYPE svg PUBLIC "-//W3C//DTD SVG 20010904//EN"
 "http://www.w3.org/TR/2001/REC-SVG-20010904/DTD/svg10.dtd">
<svg version="1.0" xmlns="http://www.w3.org/2000/svg"
 width="468pt" height="221pt" viewBox="0 0 468 221"
 preserveAspectRatio="xMidYMid meet">
<metadata>
Created by potrace 1.8, written by Peter Selinger 2001-2007
</metadata>
<g transform="translate(0,221) scale(0.325000,-0.325000)"
fill="#000000" stroke="none">
<path d="M461 644 c-19 -24 -21 -40 -21 -143 0 -89 -4 -122 -15 -139 -14 -19
-14 -24 0 -51 11 -22 15 -61 15 -149 0 -105 2 -121 20 -140 27 -28 36 -28 16
0 -12 17 -16 50 -16 144 0 105 -3 125 -19 145 -19 23 -19 24 0 48 16 20 19 41
19 145 0 94 4 127 16 144 21 31 10 28 -15 -4z"/>
<path d="M1377 613 c-9 -9 -9 -91 1 -96 4 -3 7 19 7 49 0 30 0 54 -1 54 0 0
-4 -3 -7 -7z"/>
<path d="M1415 565 c0 -29 3 -51 8 -48 4 2 7 24 7 48 0 24 -3 46 -7 48 -5 3
-8 -19 -8 -48z"/>
<path d="M979 599 c-4 -75 -3 -89 6 -89 10 0 11 88 1 98 -3 3 -6 -1 -7 -9z"/>
<path d="M1220 580 c8 -5 20 -10 25 -10 6 0 3 5 -5 10 -8 5 -19 10 -25 10 -5
0 -3 -5 5 -10z"/>
<path d="M713 542 c-1 -37 -1 -37 8 -7 4 16 5 33 1 37 -4 4 -8 -10 -9 -30z"/>
<path d="M935 545 c0 -19 3 -35 8 -35 4 0 7 16 7 35 0 19 -3 35 -7 35 -5 0 -8
-16 -8 -35z"/>
<path d="M1098 549 c-3 -16 -1 -32 3 -34 4 -3 9 9 11 26 3 16 1 32 -3 34 -4 3
-9 -9 -11 -26z"/>
<path d="M1280 550 c0 -5 5 -10 10 -10 6 0 10 5 10 10 0 6 -4 10 -10 10 -5 0
-10 -4 -10 -10z"/>
<path d="M1220 520 c-8 -5 -10 -10 -5 -10 6 0 17 5 25 10 8 5 11 10 5 10 -5 0
-17 -5 -25 -10z"/>
<path d="M13 340 c0 -47 2 -66 4 -42 2 23 2 61 0 85 -2 23 -4 4 -4 -43z"/>
<path d="M143 340 c0 -47 2 -66 4 -42 2 23 2 61 0 85 -2 23 -4 4 -4 -43z"/>
<path d="M1377 393 c-9 -9 -9 -91 1 -96 4 -3 7 19 7 49 0 30 0 54 -1 54 0 0
-4 -3 -7 -7z"/>
<path d="M1415 345 c0 -29 3 -51 8 -48 4 2 7 24 7 48 0 24 -3 46 -7 48 -5 3
-8 -19 -8 -48z"/>
<path d="M687 383 c-9 -9 -9 -71 1 -76 4 -3 7 15 7 39 0 24 0 44 -1 44 0 0 -4
-3 -7 -7z"/>
<path d="M735 345 c0 -24 3 -41 8 -38 9 6 9 70 0 76 -5 3 -8 -14 -8 -38z"/>
<path d="M979 379 c-4 -75 -3 -89 6 -89 10 0 11 88 1 98 -3 3 -6 -1 -7 -9z"/>
<path d="M68 339 c-3 -16 -1 -32 3 -34 4 -3 9 9 11 26 3 16 1 32 -3 34 -4 3
-9 -9 -11 -26z"/>
<path d="M243 353 c15 -2 39 -2 55 0 15 2 2 4 -28 4 -30 0 -43 -2 -27 -4z"/>
<path d="M935 325 c0 -19 3 -35 8 -35 4 0 7 16 7 35 0 19 -3 35 -7 35 -5 0 -8
-16 -8 -35z"/>
<path d="M1098 329 c-3 -16 -1 -32 3 -34 4 -3 9 9 11 26 3 16 1 32 -3 34 -4 3
-9 -9 -11 -26z"/>
<path d="M1233 343 c15 -2 39 -2 55 0 15 2 2 4 -28 4 -30 0 -43 -2 -27 -4z"/>
<path d="M243 323 c15 -2 39 -2 55 0 15 2 2 4 -28 4 -30 0 -43 -2 -27 -4z"/>
<path d="M1233 313 c15 -2 39 -2 55 0 15 2 2 4 -28 4 -30 0 -43 -2 -27 -4z"/>
<path d="M1377 183 c-9 -9 -9 -91 1 -96 4 -3 7 19 7 49 0 30 0 54 -1 54 0 0
-4 -3 -7 -7z"/>
<path d="M1415 135 c0 -29 3 -51 8 -48 4 2 7 24 7 48 0 24 -3 46 -7 48 -5 3
-8 -19 -8 -48z"/>
<path d="M979 169 c-4 -75 -3 -89 6 -89 10 0 11 88 1 98 -3 3 -6 -1 -7 -9z"/>
<path d="M678 119 c-3 -16 -1 -32 3 -34 4 -3 9 9 11 26 3 16 1 32 -3 34 -4 3
-9 -9 -11 -26z"/>
<path d="M935 115 c0 -19 3 -35 8 -35 4 0 7 16 7 35 0 19 -3 35 -7 35 -5 0 -8
-16 -8 -35z"/>
<path d="M1098 119 c-3 -16 -1 -32 3 -34 4 -3 9 9 11 26 3 16 1 32 -3 34 -4 3
-9 -9 -11 -26z"/>
<path d="M1250 140 c-8 -5 -10 -10 -5 -10 6 0 17 5 25 10 8 5 11 10 5 10 -5 0
-17 -5 -25 -10z"/>
<path d="M553 113 c15 -2 39 -2 55 0 15 2 2 4 -28 4 -30 0 -43 -2 -27 -4z"/>
<path d="M1250 100 c8 -5 20 -10 25 -10 6 0 3 5 -5 10 -8 5 -19 10 -25 10 -5
0 -3 -5 5 -10z"/>
</g>
</svg>
