<?xml version="1.0" standalone="no"?>
<!DOCTYPE svg PUBLIC "-//W3C//DTD SVG 20010904//EN"
 "http://www.w3.org/TR/2001/REC-SVG-20010904/DTD/svg10.dtd">
<svg version="1.0" xmlns="http://www.w3.org/2000/svg"
 width="468pt" height="121pt" viewBox="0 0 468 121"
 preserveAspectRatio="xMidYMid meet">
<metadata>
Created by potrace 1.8, written by Peter Selinger 2001-2007
</metadata>
<g transform="translate(0,121) scale(0.020791,-0.020791)"
fill="#000000" stroke="none">
<path d="M1228 5761 c-62 -7 -73 -13 -65 -36 4 -10 20 -15 46 -15 22 0 42 -4
46 -9 3 -5 -31 -155 -76 -333 -89 -355 -93 -393 -49 -483 61 -127 215 -124
340 6 159 166 174 437 27 508 -24 12 -57 21 -73 21 -37 0 -103 -31 -128 -59
-11 -11 -22 -21 -26 -21 -4 0 16 94 45 210 29 115 50 212 47 215 -6 6 -53 5
-134 -4z m247 -395 c13 -13 27 -41 31 -62 15 -82 -41 -304 -99 -390 -61 -91
-143 -121 -191 -69 -45 49 -47 117 -6 285 35 143 60 188 127 231 58 36 105 38
138 5z"/>
<path d="M7 4193 c-4 -3 -7 -21 -7 -39 0 -27 86 -151 525 -751 289 -395 523
-724 520 -731 -2 -7 -235 -283 -517 -613 -282 -330 -517 -608 -522 -616 -4 -8
-4 -19 1 -24 5 -5 500 -8 1208 -7 l1200 3 117 310 c65 171 118 313 118 318 0
4 -10 7 -23 7 -18 0 -28 -11 -46 -47 -85 -177 -286 -313 -546 -369 -192 -42
-277 -46 -1034 -51 -613 -4 -732 -3 -725 9 4 7 227 270 494 583 267 314 495
583 507 599 18 22 20 32 12 47 -8 16 -887 1223 -922 1267 -9 11 116 13 714 9
771 -5 793 -6 993 -58 223 -57 408 -183 496 -337 27 -47 40 -61 58 -62 13 0
22 4 20 10 -1 5 -55 131 -118 280 l-115 270 -1201 0 c-660 0 -1204 -3 -1207
-7z"/>
<path d="M4809 3748 c-122 -118 -215 -271 -273 -449 -56 -172 -71 -278 -71
-494 0 -215 15 -322 70 -491 60 -184 146 -328 267 -446 50 -50 88 -72 88 -52
0 3 -26 36 -57 74 -191 226 -283 524 -283 915 0 389 86 672 276 906 35 43 64
81 64 84 0 18 -35 -2 -81 -47z"/>
<path d="M6247 3794 c-4 -4 14 -30 40 -58 212 -234 318 -592 300 -1011 -17
-374 -112 -646 -298 -849 -52 -57 -51 -83 0 -47 82 58 190 204 257 345 91 192
128 376 128 631 0 392 -109 698 -329 923 -68 69 -84 80 -98 66z"/>
<path d="M11099 3748 c-122 -118 -215 -271 -273 -449 -56 -172 -71 -278 -71
-494 0 -215 15 -322 70 -491 60 -184 146 -328 267 -446 50 -50 88 -72 88 -52
0 3 -26 36 -57 74 -191 226 -283 524 -283 915 0 389 86 672 276 906 35 43 64
81 64 84 0 18 -35 -2 -81 -47z"/>
<path d="M12397 3794 c-4 -4 14 -30 40 -58 212 -234 318 -592 300 -1011 -17
-374 -112 -646 -298 -849 -52 -57 -51 -83 0 -47 82 58 190 204 257 345 91 192
128 376 128 631 0 392 -109 698 -329 923 -68 69 -84 80 -98 66z"/>
<path d="M20979 3748 c-122 -118 -215 -271 -273 -449 -56 -172 -71 -278 -71
-494 0 -215 15 -322 70 -491 60 -184 146 -328 267 -446 50 -50 88 -72 88 -52
0 3 -26 36 -57 74 -191 226 -283 524 -283 915 0 389 86 672 276 906 35 43 64
81 64 84 0 18 -35 -2 -81 -47z"/>
<path d="M22077 3794 c-4 -4 14 -30 40 -58 212 -234 318 -592 300 -1011 -17
-374 -112 -646 -298 -849 -52 -57 -51 -83 0 -47 82 58 190 204 257 345 91 192
128 376 128 631 0 392 -109 698 -329 923 -68 69 -84 80 -98 66z"/>
<path d="M3940 3694 c-48 -21 -107 -80 -135 -135 -27 -53 -54 -150 -80 -291
l-19 -97 -90 -3 c-90 -3 -91 -3 -91 -28 0 -24 2 -25 83 -28 53 -2 82 -7 82
-14 0 -6 -30 -169 -66 -362 -122 -653 -140 -724 -195 -771 -36 -29 -76 -32
-125 -9 l-35 17 38 17 c60 27 81 92 43 130 -48 48 -137 2 -146 -75 -15 -117
151 -187 264 -112 83 54 159 211 208 428 19 86 108 542 138 712 l7 37 104 0
c89 0 106 3 113 18 19 36 5 42 -105 42 -95 0 -104 2 -99 18 3 9 17 78 31 152
49 253 53 266 91 300 38 33 78 38 129 16 l30 -14 -26 -10 c-15 -6 -36 -23 -48
-38 -65 -82 32 -156 111 -85 28 25 33 36 33 74 0 53 -21 81 -80 108 -48 22
-118 24 -165 3z"/>
<path d="M10240 3694 c-48 -21 -107 -80 -135 -135 -27 -53 -54 -150 -80 -291
l-19 -97 -90 -3 c-90 -3 -91 -3 -91 -28 0 -24 2 -25 83 -28 53 -2 82 -7 82
-14 0 -6 -30 -169 -66 -362 -122 -653 -140 -724 -195 -771 -36 -29 -76 -32
-125 -9 l-35 17 38 17 c60 27 81 92 43 130 -48 48 -137 2 -146 -75 -15 -117
151 -187 264 -112 83 54 159 211 208 428 19 86 108 542 138 712 l7 37 104 0
c89 0 106 3 113 18 19 36 5 42 -105 42 -95 0 -104 2 -99 18 3 9 17 78 31 152
49 253 53 266 91 300 38 33 78 38 129 16 l30 -14 -26 -10 c-15 -6 -36 -23 -48
-38 -65 -82 32 -156 111 -85 28 25 33 36 33 74 0 53 -21 81 -80 108 -48 22
-118 24 -165 3z"/>
<path d="M20110 3694 c-48 -21 -107 -80 -135 -135 -27 -53 -54 -150 -80 -291
l-19 -97 -90 -3 c-90 -3 -91 -3 -91 -28 0 -24 2 -25 83 -28 53 -2 82 -7 82
-14 0 -6 -30 -169 -66 -362 -122 -653 -140 -724 -195 -771 -36 -29 -76 -32
-125 -9 l-35 17 38 17 c60 27 81 92 43 130 -48 48 -137 2 -146 -75 -15 -117
151 -187 264 -112 83 54 159 211 208 428 19 86 108 542 138 712 l7 37 104 0
c89 0 106 3 113 18 19 36 5 42 -105 42 -95 0 -104 2 -99 18 3 9 17 78 31 152
49 253 53 266 91 300 38 33 78 38 129 16 l30 -14 -26 -10 c-15 -6 -36 -23 -48
-38 -65 -82 32 -156 111 -85 28 25 33 36 33 74 0 53 -21 81 -80 108 -48 22
-118 24 -165 3z"/>
<path d="M21435 3678 c-92 -9 -123 -24 -112 -52 5 -11 20 -16 52 -16 55 0 85
-14 85 -39 0 -10 -50 -218 -111 -462 -105 -422 -110 -448 -107 -529 14 -308
285 -387 518 -150 152 154 224 397 170 571 -24 80 -69 135 -134 165 -93 43
-193 22 -285 -61 -23 -21 -41 -33 -41 -27 0 5 33 139 73 298 41 159 72 295 70
302 -5 14 -44 14 -178 0z m319 -549 c38 -30 56 -71 62 -142 11 -122 -66 -409
-140 -520 -112 -168 -268 -183 -312 -29 -27 90 -11 201 67 494 19 72 132 185
207 208 48 15 89 11 116 -11z"/>
<path d="M14142 3418 c-9 -9 -12 -88 -12 -295 l0 -283 -286 -2 c-255 -3 -288
-5 -297 -20 -8 -12 -7 -21 2 -32 12 -14 51 -16 297 -16 l284 0 0 -279 c0 -154
3 -286 6 -295 7 -19 35 -21 52 -4 9 9 12 88 12 295 l0 283 279 0 c154 0 286 3
295 6 9 3 16 16 16 29 0 13 -7 26 -16 29 -9 3 -141 6 -295 6 l-279 0 0 283 c0
283 -3 307 -35 307 -6 0 -16 -5 -23 -12z"/>
<path d="M18082 3418 c-9 -9 -12 -88 -12 -295 l0 -283 -286 -2 c-255 -3 -288
-5 -297 -20 -8 -12 -7 -21 2 -32 12 -14 51 -16 297 -16 l284 0 0 -279 c0 -154
3 -286 6 -295 7 -19 35 -21 52 -4 9 9 12 88 12 295 l0 283 279 0 c154 0 286 3
295 6 9 3 16 16 16 29 0 13 -7 26 -16 29 -9 3 -141 6 -295 6 l-279 0 0 283 c0
283 -3 307 -35 307 -6 0 -16 -5 -23 -12z"/>
<path d="M5184 3180 c-34 -13 -81 -75 -104 -137 -32 -86 -49 -157 -40 -167 19
-19 38 6 54 69 26 104 62 172 103 193 34 19 61 14 79 -13 26 -40 14 -120 -71
-463 -47 -192 -75 -323 -71 -337 8 -32 50 -43 85 -24 24 13 33 40 101 309 82
321 97 357 182 443 107 107 261 129 302 42 34 -71 14 -197 -70 -436 -68 -197
-70 -209 -50 -263 40 -103 153 -137 247 -73 61 41 139 174 150 257 3 19 0 25
-15 25 -14 0 -24 -14 -38 -55 -47 -138 -118 -220 -191 -220 -66 0 -64 70 9
282 111 328 119 426 43 513 -92 105 -314 76 -432 -55 l-45 -49 -12 43 c-26 93
-132 150 -216 116z"/>
<path d="M11718 3166 c-160 -66 -288 -226 -338 -423 -51 -199 6 -374 141 -433
96 -41 197 -15 296 77 l51 48 21 -45 c29 -65 78 -95 154 -95 58 0 60 1 102 47
32 36 49 67 69 130 34 109 36 133 12 133 -14 0 -23 -17 -42 -83 -13 -46 -31
-97 -40 -114 -38 -73 -107 -101 -138 -56 -29 40 -18 114 60 425 41 167 74 315
72 330 -2 20 -11 30 -31 37 -34 12 -53 2 -83 -42 l-22 -32 -25 39 c-52 78
-154 100 -259 57z m180 -36 c36 -22 67 -68 82 -119 8 -29 0 -71 -46 -255 -30
-122 -62 -235 -71 -253 -20 -43 -113 -130 -165 -153 -67 -30 -114 -26 -153 13
-73 73 -71 207 6 462 47 155 107 246 193 295 60 35 108 38 154 10z"/>
<path d="M7509 3004 c-9 -11 -10 -20 -2 -32 9 -16 63 -17 604 -20 327 -1 604
0 617 3 24 6 29 34 10 53 -9 9 -159 12 -614 12 -537 0 -603 -2 -615 -16z"/>
<path d="M7509 2644 c-9 -11 -10 -20 -2 -32 9 -16 63 -17 613 -20 437 -1 607
1 616 9 19 15 18 45 -2 53 -9 3 -285 6 -614 6 -533 0 -599 -2 -611 -16z"/>
<path d="M15528 2470 c-27 -27 -30 -36 -25 -72 7 -52 33 -78 85 -85 36 -5 45
-2 72 25 41 42 42 92 1 133 -41 41 -91 40 -133 -1z"/>
<path d="M16068 2470 c-27 -27 -30 -36 -25 -72 7 -52 33 -78 85 -85 36 -5 45
-2 72 25 41 42 42 92 1 133 -41 41 -91 40 -133 -1z"/>
<path d="M16608 2470 c-27 -27 -30 -36 -25 -72 7 -52 33 -78 85 -85 36 -5 45
-2 72 25 41 42 42 92 1 133 -41 41 -91 40 -133 -1z"/>
<path d="M181 614 c-31 -28 -81 -141 -81 -184 0 -41 27 -19 39 33 24 93 59
147 96 147 30 0 45 -19 45 -55 0 -17 -27 -139 -59 -270 -60 -246 -63 -275 -23
-275 40 0 51 25 102 230 52 208 71 254 129 308 70 65 164 82 200 36 36 -46 25
-122 -48 -341 -23 -67 -38 -129 -35 -140 20 -63 56 -93 111 -93 59 0 128 66
158 149 32 92 6 97 -30 6 -40 -98 -127 -158 -154 -107 -12 23 -10 35 46 207
74 226 69 316 -20 358 -77 37 -168 16 -243 -54 l-52 -50 -7 29 c-9 42 -55 83
-102 89 -34 4 -45 1 -72 -23z"/>
<path d="M2172 615 c-181 -84 -288 -365 -198 -519 61 -104 174 -114 271 -25
l42 38 15 -33 c17 -34 68 -66 108 -66 30 0 74 25 93 53 12 19 57 147 57 163 0
2 -7 4 -15 4 -8 0 -20 -19 -29 -48 -23 -80 -54 -131 -81 -138 -77 -19 -78 25
-10 290 31 120 55 230 53 245 -2 22 -8 26 -33 26 -22 0 -33 -6 -40 -22 -12
-28 -21 -29 -35 -2 -17 30 -70 59 -110 59 -19 0 -59 -11 -88 -25z m151 -26
c52 -40 54 -78 12 -255 -41 -178 -61 -216 -133 -264 -107 -71 -183 -11 -168
132 14 133 68 290 119 347 56 61 124 77 170 40z"/>
<path d="M947 507 c-14 -36 0 -37 439 -35 421 3 429 3 429 23 0 20 -8 20 -431
23 -355 2 -433 0 -437 -11z"/>
<path d="M947 257 c-14 -36 0 -37 439 -35 421 3 429 3 429 23 0 20 -8 20 -431
23 -355 2 -433 0 -437 -11z"/>
</g>
</svg>
