<?xml version="1.0" standalone="no"?>
<!DOCTYPE svg PUBLIC "-//W3C//DTD SVG 20010904//EN"
 "http://www.w3.org/TR/2001/REC-SVG-20010904/DTD/svg10.dtd">
<svg version="1.0" xmlns="http://www.w3.org/2000/svg"
 width="468pt" height="82pt" viewBox="0 0 468 82"
 preserveAspectRatio="xMidYMid meet">
<metadata>
Created by potrace 1.8, written by Peter Selinger 2001-2007
</metadata>
<g transform="translate(0,82) scale(0.272093,-0.272093)"
fill="#000000" stroke="none">
<path d="M943 252 c-1 -37 -1 -37 8 -7 4 16 5 33 1 37 -4 4 -8 -10 -9 -30z"/>
<path d="M1658 259 c-3 -16 -1 -32 3 -34 4 -3 9 9 11 26 3 16 1 32 -3 34 -4 3
-9 -9 -11 -26z"/>
<path d="M555 209 c-4 -6 -4 -13 -1 -16 3 -4 6 -1 6 5 0 7 7 12 15 12 8 0 15
-7 15 -16 0 -8 4 -13 10 -9 5 3 7 12 3 20 -6 17 -39 20 -48 4z"/>
<path d="M1241 198 c-7 -11 -8 -17 -2 -13 7 4 11 -4 11 -19 0 -20 -5 -26 -22
-27 -18 -1 -19 -2 -5 -6 9 -2 15 -9 12 -14 -4 -5 2 -9 13 -9 16 0 18 6 14 53
-2 28 -5 53 -6 54 -1 1 -8 -7 -15 -19z"/>
<path d="M1566 193 c-6 -14 -5 -15 5 -6 7 7 10 15 7 18 -3 3 -9 -2 -12 -12z"/>
<path d="M90 150 c-7 -17 -10 -33 -8 -36 3 -2 11 9 18 26 7 17 10 33 8 36 -3
2 -11 -9 -18 -26z"/>
<path d="M142 143 c-6 -20 -7 -32 -2 -27 10 10 25 64 18 64 -3 0 -10 -16 -16
-37z"/>
<path d="M186 149 c-8 -42 0 -50 9 -9 4 17 5 34 2 36 -2 3 -7 -10 -11 -27z"/>
<path d="M278 149 c-3 -16 -1 -32 3 -34 4 -3 9 9 11 26 3 16 1 32 -3 34 -4 3
-9 -9 -11 -26z"/>
<path d="M740 150 c-7 -17 -10 -33 -8 -36 3 -2 11 9 18 26 7 17 10 33 8 36 -3
2 -11 -9 -18 -26z"/>
<path d="M792 143 c-6 -20 -7 -32 -2 -27 10 10 25 64 18 64 -3 0 -10 -16 -16
-37z"/>
<path d="M836 149 c-8 -42 0 -50 9 -9 4 17 5 34 2 36 -2 3 -7 -10 -11 -27z"/>
<path d="M1400 150 c-7 -17 -10 -33 -8 -36 3 -2 11 9 18 26 7 17 10 33 8 36
-3 2 -11 -9 -18 -26z"/>
<path d="M1446 147 c-7 -34 0 -50 9 -21 4 10 10 26 15 35 5 10 4 16 -5 16 -7
0 -16 -14 -19 -30z"/>
<path d="M21 163 c-1 -7 8 -17 19 -23 14 -7 20 -7 20 0 0 5 -6 10 -14 10 -8 0
-17 6 -19 13 -4 9 -6 9 -6 0z"/>
<path d="M413 163 c15 -2 39 -2 55 0 15 2 2 4 -28 4 -30 0 -43 -2 -27 -4z"/>
<path d="M578 164 c17 -8 15 -44 -2 -44 -8 0 -16 3 -18 8 -3 4 -4 3 -3 -3 1
-5 13 -10 26 -10 19 0 24 5 24 25 0 17 -6 25 -20 27 -11 2 -14 0 -7 -3z"/>
<path d="M671 163 c-1 -7 8 -17 19 -23 14 -7 20 -7 20 0 0 5 -6 10 -14 10 -8
0 -17 6 -19 13 -4 9 -6 9 -6 0z"/>
<path d="M1331 163 c-1 -7 8 -17 19 -23 14 -7 20 -7 20 0 0 5 -6 10 -14 10 -8
0 -17 6 -19 13 -4 9 -6 9 -6 0z"/>
<path d="M1497 156 c-4 -10 -7 -25 -6 -34 0 -11 4 -9 10 7 5 13 8 29 6 35 -2
5 -6 2 -10 -8z"/>
<path d="M923 153 c15 -2 37 -2 50 0 12 2 0 4 -28 4 -27 0 -38 -2 -22 -4z"/>
<path d="M1643 153 c15 -2 37 -2 50 0 12 2 0 4 -28 4 -27 0 -38 -2 -22 -4z"/>
<path d="M1073 143 c15 -2 39 -2 55 0 15 2 2 4 -28 4 -30 0 -43 -2 -27 -4z"/>
<path d="M413 133 c15 -2 39 -2 55 0 15 2 2 4 -28 4 -30 0 -43 -2 -27 -4z"/>
<path d="M925 99 c-4 -6 -4 -13 -1 -16 3 -4 6 -1 6 5 0 7 7 12 15 12 8 0 15
-7 15 -16 0 -8 4 -13 10 -9 5 3 7 12 3 20 -6 17 -39 20 -48 4z"/>
<path d="M1645 99 c-4 -6 -4 -13 -1 -16 3 -4 6 -1 6 5 0 7 7 12 15 12 8 0 15
-7 15 -16 0 -8 4 -13 10 -9 5 3 7 12 3 20 -6 17 -39 20 -48 4z"/>
<path d="M948 54 c17 -8 15 -44 -2 -44 -8 0 -16 3 -18 8 -3 4 -4 3 -3 -3 1 -5
13 -10 26 -10 19 0 24 5 24 25 0 17 -6 25 -20 27 -11 2 -14 0 -7 -3z"/>
<path d="M1668 54 c17 -8 15 -44 -2 -44 -8 0 -16 3 -18 8 -3 4 -4 3 -3 -3 1
-5 13 -10 26 -10 19 0 24 5 24 25 0 17 -6 25 -20 27 -11 2 -14 0 -7 -3z"/>
</g>
</svg>
