<?xml version="1.0" standalone="no"?>
<!DOCTYPE svg PUBLIC "-//W3C//DTD SVG 20010904//EN"
 "http://www.w3.org/TR/2001/REC-SVG-20010904/DTD/svg10.dtd">
<svg version="1.0" xmlns="http://www.w3.org/2000/svg"
 width="468pt" height="227pt" viewBox="0 0 468 227"
 preserveAspectRatio="xMidYMid meet">
<metadata>
Created by potrace 1.8, written by Peter Selinger 2001-2007
</metadata>
<g transform="translate(0,227) scale(0.027068,-0.027068)"
fill="#000000" stroke="none">
<path d="M5815 8335 c-127 -77 -261 -199 -341 -311 -57 -80 -128 -230 -156
-330 l-23 -79 -6 -1340 c-4 -1006 -9 -1354 -18 -1395 -56 -252 -146 -416 -315
-577 -126 -120 -126 -126 -10 -221 119 -98 242 -294 293 -468 51 -172 51 -178
51 -1534 0 -1196 1 -1270 19 -1355 55 -263 215 -496 450 -653 98 -66 121 -76
167 -70 26 3 29 7 32 43 2 39 0 41 -76 101 -161 125 -274 308 -329 533 -15 59
-17 212 -23 1406 -5 1336 -5 1340 -27 1417 -78 277 -225 485 -455 645 l-57 40
57 39 c85 58 234 206 292 290 66 95 122 216 157 335 l27 94 6 1340 5 1340 28
100 c55 201 173 385 320 500 75 59 77 61 75 100 -3 39 -4 40 -43 43 -31 2 -53
-5 -100 -33z"/>
<path d="M11925 7666 c-62 -29 -107 -76 -137 -141 -20 -44 -23 -69 -26 -212
l-4 -163 -79 0 c-78 0 -79 0 -79 -25 0 -25 1 -25 80 -25 l80 0 0 -356 c0 -217
-4 -363 -10 -374 -7 -13 -26 -21 -65 -25 -49 -7 -55 -10 -55 -31 l0 -24 200 0
200 0 0 24 c0 21 -5 24 -67 29 -40 4 -73 13 -82 22 -14 14 -16 66 -19 375 l-3
360 116 0 115 0 0 25 0 25 -116 0 -116 0 4 168 c3 147 6 173 26 217 47 102
114 143 187 115 l27 -10 -26 -21 c-32 -25 -35 -70 -6 -99 44 -44 115 -10 113
55 -3 99 -140 147 -258 91z"/>
<path d="M16803 7596 c-209 -68 -306 -316 -290 -736 10 -258 52 -395 152 -496
98 -100 217 -129 342 -83 179 68 273 292 273 654 0 344 -84 561 -246 641 -66
32 -167 41 -231 20z m145 -28 c70 -18 134 -86 161 -173 32 -103 44 -280 38
-540 -8 -294 -28 -397 -93 -482 -55 -73 -168 -99 -249 -57 -130 67 -174 262
-162 729 6 251 20 338 62 411 31 53 81 95 132 111 50 15 56 15 111 1z"/>
<path d="M11234 7577 c-55 -47 -20 -137 53 -137 39 0 83 37 83 70 0 76 -80
115 -136 67z"/>
<path d="M14540 7325 c-6 -8 -9 -22 -6 -32 4 -13 167 -93 523 -257 285 -131
522 -242 526 -246 4 -4 -81 -48 -190 -99 -109 -50 -346 -161 -528 -245 -295
-136 -330 -155 -330 -176 0 -57 9 -54 591 215 307 142 567 265 577 273 9 8 17
20 17 27 0 7 -8 19 -17 27 -20 17 -1124 528 -1140 528 -6 0 -16 -7 -23 -15z"/>
<path d="M8465 7147 c-89 -43 -185 -166 -211 -270 -6 -26 -4 -28 15 -25 16 2
28 18 45 60 77 188 261 283 329 169 29 -49 21 -123 -38 -362 -73 -293 -105
-362 -182 -395 -39 -17 -79 -18 -122 -3 l-32 11 31 19 c50 31 65 94 30 129
-29 29 -74 25 -112 -9 -28 -25 -33 -36 -33 -76 0 -40 5 -51 32 -75 54 -49 142
-63 211 -35 43 19 74 45 113 98 l28 38 16 -35 c52 -109 198 -147 310 -82 56
33 128 114 159 179 33 67 37 102 13 102 -13 0 -25 -17 -41 -57 -62 -153 -192
-247 -286 -208 -78 32 -79 115 -4 413 60 240 76 284 119 336 48 56 103 71 178
50 l38 -10 -33 -22 c-60 -41 -61 -128 -2 -143 39 -10 75 6 102 46 62 92 -38
191 -180 178 -59 -6 -119 -46 -156 -104 -15 -24 -29 -43 -32 -43 -3 0 -14 19
-26 42 -47 96 -175 134 -279 84z"/>
<path d="M13045 7147 c-89 -43 -185 -166 -211 -270 -6 -26 -4 -28 15 -25 16 2
28 18 45 60 77 188 261 283 329 169 29 -49 21 -123 -38 -362 -73 -293 -105
-362 -182 -395 -39 -17 -79 -18 -122 -3 l-32 11 31 19 c50 31 65 94 30 129
-29 29 -74 25 -112 -9 -28 -25 -33 -36 -33 -76 0 -40 5 -51 32 -75 54 -49 142
-63 211 -35 43 19 74 45 113 98 l28 38 16 -35 c52 -109 198 -147 310 -82 56
33 128 114 159 179 33 67 37 102 13 102 -13 0 -25 -17 -41 -57 -62 -153 -192
-247 -286 -208 -78 32 -79 115 -4 413 60 240 76 284 119 336 48 56 103 71 178
50 l38 -10 -33 -22 c-60 -41 -61 -128 -2 -143 39 -10 75 6 102 46 62 92 -38
191 -180 178 -59 -6 -119 -46 -156 -104 -15 -24 -29 -43 -32 -43 -3 0 -14 19
-26 42 -47 96 -175 134 -279 84z"/>
<path d="M11230 7149 c-95 -11 -102 -14 -98 -41 2 -19 11 -24 52 -29 31 -3 53
-12 62 -24 11 -15 14 -84 14 -343 0 -196 -4 -331 -10 -342 -7 -13 -26 -21 -65
-25 -49 -7 -55 -10 -55 -31 l0 -24 180 0 180 0 0 24 c0 21 -6 24 -56 31 -46 5
-57 10 -65 31 -5 14 -9 191 -9 405 l0 379 -27 -1 c-16 -1 -62 -5 -103 -10z"/>
<path d="M21 5166 c-8 -10 -10 -275 -9 -986 3 -914 4 -973 20 -984 13 -8 23
-8 35 0 17 11 18 70 21 984 1 711 -1 976 -9 986 -6 8 -19 14 -29 14 -10 0 -23
-6 -29 -14z"/>
<path d="M1681 5166 c-8 -10 -10 -275 -9 -986 3 -914 4 -973 21 -984 12 -8 22
-8 35 0 16 11 17 70 20 984 1 711 -1 976 -9 986 -6 8 -19 14 -29 14 -10 0 -23
-6 -29 -14z"/>
<path d="M11925 5036 c-62 -29 -107 -76 -137 -141 -20 -44 -23 -69 -26 -212
l-4 -163 -79 0 c-78 0 -79 0 -79 -25 0 -25 1 -25 80 -25 l80 0 0 -356 c0 -217
-4 -363 -10 -374 -7 -13 -26 -21 -65 -25 -49 -7 -55 -10 -55 -31 l0 -24 200 0
200 0 0 24 c0 21 -5 24 -67 29 -40 4 -73 13 -82 22 -14 14 -16 66 -19 375 l-3
360 116 0 115 0 0 25 0 25 -116 0 -116 0 4 168 c3 147 6 173 26 217 47 102
114 143 187 115 l27 -10 -26 -21 c-32 -25 -35 -70 -6 -99 44 -44 115 -10 113
55 -3 99 -140 147 -258 91z"/>
<path d="M8493 4966 c-209 -68 -306 -316 -290 -736 10 -258 52 -395 152 -496
98 -100 217 -129 342 -83 179 68 273 292 273 654 0 344 -84 561 -246 641 -66
32 -167 41 -231 20z m145 -28 c70 -18 134 -86 161 -173 32 -103 44 -280 38
-540 -8 -294 -28 -397 -93 -482 -55 -73 -168 -99 -249 -57 -130 67 -174 262
-162 729 6 251 20 338 62 411 31 53 81 95 132 111 50 15 56 15 111 1z"/>
<path d="M16723 4966 c-209 -68 -306 -316 -290 -736 10 -258 52 -395 152 -496
98 -100 217 -129 342 -83 179 68 273 292 273 654 0 344 -84 561 -246 641 -66
32 -167 41 -231 20z m145 -28 c70 -18 134 -86 161 -173 32 -103 44 -280 38
-540 -8 -294 -28 -397 -93 -482 -55 -73 -168 -99 -249 -57 -130 67 -174 262
-162 729 6 251 20 338 62 411 31 53 81 95 132 111 50 15 56 15 111 1z"/>
<path d="M11234 4947 c-55 -47 -20 -137 53 -137 39 0 83 37 83 70 0 76 -80
115 -136 67z"/>
<path d="M655 4547 c-89 -43 -185 -166 -211 -270 -6 -26 -4 -28 15 -25 16 2
28 18 45 60 77 188 261 283 329 169 29 -49 21 -123 -38 -362 -73 -293 -105
-362 -182 -395 -39 -17 -79 -18 -122 -3 l-32 11 31 19 c50 31 65 94 30 129
-29 29 -74 25 -112 -9 -28 -25 -33 -36 -33 -76 0 -40 5 -51 32 -75 54 -49 142
-63 211 -35 43 19 74 45 113 98 l28 38 16 -35 c52 -109 198 -147 310 -82 56
33 128 114 159 179 33 67 37 102 13 102 -13 0 -25 -17 -41 -57 -62 -153 -192
-247 -286 -208 -78 32 -79 115 -4 413 60 240 76 284 119 336 48 56 103 71 178
50 l38 -10 -33 -22 c-60 -41 -61 -128 -2 -143 39 -10 75 6 102 46 62 92 -38
191 -180 178 -59 -6 -119 -46 -156 -104 -15 -24 -29 -43 -32 -43 -3 0 -14 19
-26 42 -47 96 -175 134 -279 84z"/>
<path d="M13045 4517 c-89 -43 -185 -166 -211 -270 -6 -26 -4 -28 15 -25 16 2
28 18 45 60 77 188 261 283 329 169 29 -49 21 -123 -38 -362 -73 -293 -105
-362 -182 -395 -39 -17 -79 -18 -122 -3 l-32 11 31 19 c50 31 65 94 30 129
-29 29 -74 25 -112 -9 -28 -25 -33 -36 -33 -76 0 -40 5 -51 32 -75 54 -49 142
-63 211 -35 43 19 74 45 113 98 l28 38 16 -35 c52 -109 198 -147 310 -82 56
33 128 114 159 179 33 67 37 102 13 102 -13 0 -25 -17 -41 -57 -62 -153 -192
-247 -286 -208 -78 32 -79 115 -4 413 60 240 76 284 119 336 48 56 103 71 178
50 l38 -10 -33 -22 c-60 -41 -61 -128 -2 -143 39 -10 75 6 102 46 62 92 -38
191 -180 178 -59 -6 -119 -46 -156 -104 -15 -24 -29 -43 -32 -43 -3 0 -14 19
-26 42 -47 96 -175 134 -279 84z"/>
<path d="M11230 4519 c-95 -11 -102 -14 -98 -41 2 -19 11 -24 52 -29 31 -3 53
-12 62 -24 11 -15 14 -84 14 -343 0 -196 -4 -331 -10 -342 -7 -13 -26 -21 -65
-25 -49 -7 -55 -10 -55 -31 l0 -24 180 0 180 0 0 24 c0 21 -6 24 -56 31 -46 5
-57 10 -65 31 -5 14 -9 191 -9 405 l0 379 -27 -1 c-16 -1 -62 -5 -103 -10z"/>
<path d="M2639 4384 c-9 -11 -10 -20 -2 -32 9 -16 63 -17 604 -20 327 -1 604
0 617 3 24 6 29 34 10 53 -9 9 -159 12 -614 12 -537 0 -603 -2 -615 -16z"/>
<path d="M14469 4354 c-9 -11 -10 -20 -2 -32 9 -16 63 -17 604 -20 327 -1 604
0 617 3 24 6 29 34 10 53 -9 9 -159 12 -614 12 -537 0 -603 -2 -615 -16z"/>
<path d="M2639 4024 c-9 -11 -10 -20 -2 -32 9 -16 63 -17 613 -20 437 -1 607
1 616 9 19 15 18 45 -2 53 -9 3 -285 6 -614 6 -533 0 -599 -2 -611 -16z"/>
<path d="M14469 3994 c-9 -11 -10 -20 -2 -32 9 -16 63 -17 613 -20 437 -1 607
1 616 9 19 15 18 45 -2 53 -9 3 -285 6 -614 6 -533 0 -599 -2 -611 -16z"/>
<path d="M11925 2406 c-62 -29 -107 -76 -137 -141 -20 -44 -23 -69 -26 -212
l-4 -163 -79 0 c-78 0 -79 0 -79 -25 0 -25 1 -25 80 -25 l80 0 0 -356 c0 -217
-4 -363 -10 -374 -7 -13 -26 -21 -65 -25 -49 -7 -55 -10 -55 -31 l0 -24 200 0
200 0 0 24 c0 21 -5 24 -67 29 -40 4 -73 13 -82 22 -14 14 -16 66 -19 375 l-3
360 116 0 115 0 0 25 0 25 -116 0 -116 0 4 168 c3 147 6 173 26 217 47 102
114 143 187 115 l27 -10 -26 -21 c-32 -25 -35 -70 -6 -99 44 -44 115 -10 113
55 -3 99 -140 147 -258 91z"/>
<path d="M16803 2336 c-209 -68 -306 -316 -290 -736 10 -258 52 -395 152 -496
98 -100 217 -129 342 -83 179 68 273 292 273 654 0 344 -84 561 -246 641 -66
32 -167 41 -231 20z m145 -28 c70 -18 134 -86 161 -173 32 -103 44 -280 38
-540 -8 -294 -28 -397 -93 -482 -55 -73 -168 -99 -249 -57 -130 67 -174 262
-162 729 6 251 20 338 62 411 31 53 81 95 132 111 50 15 56 15 111 1z"/>
<path d="M11234 2317 c-55 -47 -20 -137 53 -137 39 0 83 37 83 70 0 76 -80
115 -136 67z"/>
<path d="M15125 1826 c-302 -140 -560 -262 -572 -271 -28 -19 -29 -37 -5 -57
9 -8 269 -131 576 -273 581 -267 591 -271 591 -214 0 21 -50 46 -524 266 -289
134 -526 244 -527 246 -2 1 234 113 523 247 289 134 528 251 531 258 6 18 -10
46 -29 49 -8 2 -261 -112 -564 -251z"/>
<path d="M8185 1887 c-89 -43 -185 -166 -211 -270 -6 -26 -4 -28 15 -25 16 2
28 18 45 60 77 188 261 283 329 169 29 -49 21 -123 -38 -362 -73 -293 -105
-362 -182 -395 -39 -17 -79 -18 -122 -3 l-32 11 31 19 c50 31 65 94 30 129
-29 29 -74 25 -112 -9 -28 -25 -33 -36 -33 -76 0 -40 5 -51 32 -75 54 -49 142
-63 211 -35 43 19 74 45 113 98 l28 38 16 -35 c52 -109 198 -147 310 -82 56
33 128 114 159 179 33 67 37 102 13 102 -13 0 -25 -17 -41 -57 -62 -153 -192
-247 -286 -208 -78 32 -79 115 -4 413 60 240 76 284 119 336 48 56 103 71 178
50 l38 -10 -33 -22 c-60 -41 -61 -128 -2 -143 39 -10 75 6 102 46 62 92 -38
191 -180 178 -59 -6 -119 -46 -156 -104 -15 -24 -29 -43 -32 -43 -3 0 -14 19
-26 42 -47 96 -175 134 -279 84z"/>
<path d="M13045 1887 c-89 -43 -185 -166 -211 -270 -6 -26 -4 -28 15 -25 16 2
28 18 45 60 77 188 261 283 329 169 29 -49 21 -123 -38 -362 -73 -293 -105
-362 -182 -395 -39 -17 -79 -18 -122 -3 l-32 11 31 19 c50 31 65 94 30 129
-29 29 -74 25 -112 -9 -28 -25 -33 -36 -33 -76 0 -40 5 -51 32 -75 54 -49 142
-63 211 -35 43 19 74 45 113 98 l28 38 16 -35 c52 -109 198 -147 310 -82 56
33 128 114 159 179 33 67 37 102 13 102 -13 0 -25 -17 -41 -57 -62 -153 -192
-247 -286 -208 -78 32 -79 115 -4 413 60 240 76 284 119 336 48 56 103 71 178
50 l38 -10 -33 -22 c-60 -41 -61 -128 -2 -143 39 -10 75 6 102 46 62 92 -38
191 -180 178 -59 -6 -119 -46 -156 -104 -15 -24 -29 -43 -32 -43 -3 0 -14 19
-26 42 -47 96 -175 134 -279 84z"/>
<path d="M11230 1889 c-95 -11 -102 -14 -98 -41 2 -19 11 -24 52 -29 31 -3 53
-12 62 -24 11 -15 14 -84 14 -343 0 -196 -4 -331 -10 -342 -7 -13 -26 -21 -65
-25 -49 -7 -55 -10 -55 -31 l0 -24 180 0 180 0 0 24 c0 21 -6 24 -56 31 -46 5
-57 10 -65 31 -5 14 -9 191 -9 405 l0 379 -27 -1 c-16 -1 -62 -5 -103 -10z"/>
<path d="M6476 1554 c-9 -8 -16 -19 -16 -24 0 -5 7 -16 16 -24 14 -14 79 -16
601 -14 545 3 587 4 597 21 8 12 8 22 0 35 -10 16 -52 17 -597 20 -522 2 -587
0 -601 -14z"/>
</g>
</svg>
