<?xml version="1.0" standalone="no"?>
<!DOCTYPE svg PUBLIC "-//W3C//DTD SVG 20010904//EN"
 "http://www.w3.org/TR/2001/REC-SVG-20010904/DTD/svg10.dtd">
<svg version="1.0" xmlns="http://www.w3.org/2000/svg"
 width="468pt" height="112pt" viewBox="0 0 468 112"
 preserveAspectRatio="xMidYMid meet">
<metadata>
Created by potrace 1.8, written by Peter Selinger 2001-2007
</metadata>
<g transform="translate(0,112) scale(0.021972,-0.021972)"
fill="#000000" stroke="none">
<path d="M18767 4726 c-114 -178 -207 -333 -207 -345 0 -21 4 -21 180 -21
l180 0 0 -84 c0 -103 -9 -116 -81 -116 -42 0 -49 -3 -49 -20 0 -19 7 -20 171
-20 157 0 170 1 167 18 -2 12 -16 18 -53 22 -28 3 -56 9 -62 13 -9 6 -13 37
-13 98 l0 89 70 0 c63 0 70 2 70 20 0 18 -7 20 -70 20 l-70 0 0 325 c0 264 -2
325 -13 325 -8 0 -107 -146 -220 -324z m150 -323 c-2 -2 -77 -2 -165 -1 l-161
3 162 257 162 256 3 -255 c1 -141 1 -258 -1 -260z"/>
<path d="M6999 4778 c-122 -118 -215 -271 -273 -449 -56 -172 -71 -278 -71
-494 0 -215 15 -322 70 -491 60 -184 146 -328 267 -446 50 -50 88 -72 88 -52
0 3 -26 36 -57 74 -191 226 -283 524 -283 915 0 389 86 672 276 906 35 43 64
81 64 84 0 18 -35 -2 -81 -47z"/>
<path d="M11049 4778 c-122 -118 -215 -271 -273 -449 -56 -172 -71 -278 -71
-494 0 -215 15 -322 70 -491 60 -184 146 -328 267 -446 50 -50 88 -72 88 -52
0 3 -26 36 -57 74 -191 226 -283 524 -283 915 0 389 86 672 276 906 35 43 64
81 64 84 0 18 -35 -2 -81 -47z"/>
<path d="M15109 4778 c-122 -118 -215 -271 -273 -449 -56 -172 -71 -278 -71
-494 0 -215 15 -322 70 -491 60 -184 146 -328 267 -446 50 -50 88 -72 88 -52
0 3 -26 36 -57 74 -191 226 -283 524 -283 915 0 389 86 672 276 906 35 43 64
81 64 84 0 18 -35 -2 -81 -47z"/>
<path d="M19277 4824 c-4 -4 14 -30 40 -58 212 -234 318 -592 300 -1011 -17
-374 -112 -646 -298 -849 -52 -57 -51 -83 0 -47 82 58 190 204 257 345 91 192
128 376 128 631 0 392 -109 698 -329 923 -68 69 -84 80 -98 66z"/>
<path d="M19987 4824 c-4 -4 14 -30 40 -58 212 -234 318 -592 300 -1011 -17
-374 -112 -646 -298 -849 -52 -57 -51 -83 0 -47 82 58 190 204 257 345 91 192
128 376 128 631 0 392 -109 698 -329 923 -68 69 -84 80 -98 66z"/>
<path d="M20687 4824 c-4 -4 14 -30 40 -58 212 -234 318 -592 300 -1011 -17
-374 -112 -646 -298 -849 -52 -57 -51 -83 0 -47 82 58 190 204 257 345 91 192
128 376 128 631 0 392 -109 698 -329 923 -68 69 -84 80 -98 66z"/>
<path d="M3566 4201 c-188 -298 -296 -479 -296 -495 l0 -26 255 0 255 0 0
-130 c0 -151 2 -148 -111 -157 -64 -5 -69 -8 -69 -29 l0 -24 240 0 240 0 0 24
c0 22 -5 24 -72 30 -106 10 -108 13 -108 163 l0 123 100 0 c100 0 100 0 100
25 0 25 0 25 -100 25 l-100 0 -2 467 c-3 423 -5 468 -19 471 -12 2 -97 -124
-313 -467z m221 -468 c-2 -2 -110 -2 -239 -1 l-235 3 236 377 236 377 3 -376
c1 -207 1 -378 -1 -380z"/>
<path d="M190 4325 c0 -267 3 -335 13 -335 7 0 29 20 50 44 43 52 120 92 195
101 103 13 190 -55 228 -180 21 -72 29 -247 15 -329 -43 -245 -250 -341 -445
-207 -45 31 -100 106 -111 154 -7 25 -5 27 22 27 47 0 73 25 73 71 0 75 -74
106 -127 53 -23 -23 -25 -31 -20 -85 11 -124 95 -246 206 -298 76 -35 197 -36
284 -2 71 28 163 110 201 181 97 178 67 419 -69 553 -72 71 -123 91 -225 92
-96 0 -149 -19 -213 -75 l-37 -32 0 221 c0 122 3 221 8 221 4 0 32 -7 62 -15
125 -34 264 -8 367 69 115 85 123 124 17 81 -134 -54 -283 -54 -418 0 -35 14
-66 25 -69 25 -4 0 -7 -151 -7 -335z"/>
<path d="M7503 4646 c-136 -43 -237 -177 -250 -331 -4 -51 -2 -64 17 -87 16
-22 30 -28 59 -28 49 0 81 32 81 82 0 42 -36 78 -76 78 -71 0 34 173 134 221
62 30 158 31 222 2 176 -78 223 -325 104 -542 -50 -90 -95 -146 -334 -418
-143 -161 -210 -245 -210 -260 l0 -23 350 0 350 0 5 23 c5 22 45 272 45 282 0
3 -8 5 -18 5 -15 0 -20 -14 -31 -75 -20 -123 -1 -116 -316 -113 l-270 3 258
259 c142 143 276 286 297 319 108 161 104 361 -10 490 -88 101 -277 153 -407
113z"/>
<path d="M11568 4641 c-101 -33 -161 -82 -197 -161 -22 -48 -27 -110 -11 -140
15 -28 67 -43 99 -27 41 19 55 58 37 101 -14 34 -23 39 -79 48 -29 5 44 83
107 115 55 28 155 41 221 29 46 -9 110 -66 127 -114 20 -59 14 -187 -12 -257
-43 -112 -128 -175 -240 -175 -59 0 -90 -9 -90 -26 0 -11 21 -14 93 -14 100
-1 149 -14 201 -54 74 -56 118 -214 97 -353 -24 -164 -111 -253 -245 -253
-119 0 -252 69 -303 158 l-25 42 30 0 c46 0 86 39 86 83 0 93 -124 117 -160
31 -13 -31 -13 -42 1 -96 19 -74 43 -114 95 -162 167 -151 443 -137 590 30
174 198 85 492 -174 575 l-68 22 38 15 c142 56 239 188 239 328 0 61 -4 77
-30 119 -79 128 -266 187 -427 136z"/>
<path d="M15745 4646 c-116 -37 -224 -131 -287 -251 -63 -120 -89 -229 -95
-390 -15 -438 141 -710 399 -692 225 15 385 249 348 509 -28 193 -161 338
-325 355 -107 11 -195 -37 -256 -141 l-30 -51 4 125 c6 139 22 214 69 309 60
124 156 191 272 191 75 0 110 -11 149 -48 33 -32 34 -42 4 -42 -56 0 -82 -86
-38 -122 32 -25 67 -23 96 7 63 62 -8 207 -118 240 -61 18 -137 18 -192 1z
m106 -528 c86 -48 120 -133 126 -319 9 -226 -26 -345 -119 -406 -36 -24 -52
-28 -113 -28 -93 0 -137 27 -183 112 -64 121 -80 358 -33 484 62 165 194 229
322 157z"/>
<path d="M2052 4448 c-9 -9 -12 -88 -12 -295 l0 -283 -286 -2 c-255 -3 -288
-5 -297 -20 -8 -12 -7 -21 2 -32 12 -14 51 -16 297 -16 l284 0 0 -279 c0 -154
3 -286 6 -295 7 -19 35 -21 52 -4 9 9 12 88 12 295 l0 283 279 0 c154 0 286 3
295 6 9 3 16 16 16 29 0 13 -7 26 -16 29 -9 3 -141 6 -295 6 l-279 0 0 283 c0
283 -3 307 -35 307 -6 0 -16 -5 -23 -12z"/>
<path d="M5282 4448 c-9 -9 -12 -88 -12 -295 l0 -283 -286 -2 c-255 -3 -288
-5 -297 -20 -8 -12 -7 -21 2 -32 12 -14 51 -16 297 -16 l284 0 0 -279 c0 -154
3 -286 6 -295 7 -19 35 -21 52 -4 9 9 12 88 12 295 l0 283 279 0 c154 0 286 3
295 6 9 3 16 16 16 29 0 13 -7 26 -16 29 -9 3 -141 6 -295 6 l-279 0 0 283 c0
283 -3 307 -35 307 -6 0 -16 -5 -23 -12z"/>
<path d="M17332 4448 c-9 -9 -12 -88 -12 -295 l0 -283 -286 -2 c-255 -3 -288
-5 -297 -20 -8 -12 -7 -21 2 -32 12 -14 51 -16 297 -16 l284 0 0 -279 c0 -154
3 -286 6 -295 7 -19 35 -21 52 -4 9 9 12 88 12 295 l0 283 279 0 c154 0 286 3
295 6 9 3 16 16 16 29 0 13 -7 26 -16 29 -9 3 -141 6 -295 6 l-279 0 0 283 c0
283 -3 307 -35 307 -6 0 -16 -5 -23 -12z"/>
<path d="M8706 3864 c-9 -8 -16 -19 -16 -24 0 -5 7 -16 16 -24 14 -14 79 -16
601 -14 545 3 587 4 597 21 8 12 8 22 0 35 -10 16 -52 17 -597 20 -522 2 -587
0 -601 -14z"/>
<path d="M12766 3864 c-9 -8 -16 -19 -16 -24 0 -5 7 -16 16 -24 14 -14 79 -16
601 -14 545 3 587 4 597 21 8 12 8 22 0 35 -10 16 -52 17 -597 20 -522 2 -587
0 -601 -14z"/>
<path d="M18530 3835 l0 -45 320 0 320 0 0 45 0 45 -320 0 -320 0 0 -45z"/>
<path d="M18660 3342 c0 -136 4 -233 10 -237 5 -3 17 6 26 20 46 70 181 103
240 59 15 -11 36 -36 46 -55 43 -84 49 -264 11 -351 -56 -125 -205 -151 -311
-54 -22 19 -68 95 -60 100 2 1 17 6 33 12 24 7 31 16 33 41 3 25 -2 35 -22 49
-24 15 -28 15 -51 0 -51 -34 -26 -145 50 -222 83 -83 188 -96 297 -37 101 55
154 160 146 292 -8 123 -78 230 -173 261 -57 19 -139 7 -196 -29 l-49 -30 0
150 0 151 33 -9 c17 -4 66 -8 107 -8 61 1 84 6 125 27 49 26 113 83 104 93 -3
3 -31 -4 -62 -15 -70 -25 -203 -27 -262 -4 -83 32 -75 54 -75 -204z"/>
<path d="M0 2370 l0 -40 10650 0 10650 0 0 40 0 40 -10650 0 -10650 0 0 -40z"/>
<path d="M5959 1948 c-122 -118 -215 -271 -273 -449 -56 -172 -71 -278 -71
-494 0 -215 15 -322 70 -491 60 -184 146 -328 267 -446 50 -50 88 -72 88 -52
0 3 -26 36 -57 74 -191 226 -283 524 -283 915 0 389 86 672 276 906 35 43 64
81 64 84 0 18 -35 -2 -81 -47z"/>
<path d="M10497 1994 c-4 -4 14 -30 40 -58 212 -234 318 -592 300 -1011 -17
-374 -112 -646 -298 -849 -52 -57 -51 -83 0 -47 82 58 190 204 257 345 91 192
128 376 128 631 0 392 -109 698 -329 923 -68 69 -84 80 -98 66z"/>
<path d="M11639 1948 c-122 -118 -215 -271 -273 -449 -56 -172 -71 -278 -71
-494 0 -215 15 -322 70 -491 60 -184 146 -328 267 -446 50 -50 88 -72 88 -52
0 3 -26 36 -57 74 -191 226 -283 524 -283 915 0 389 86 672 276 906 35 43 64
81 64 84 0 18 -35 -2 -81 -47z"/>
<path d="M16177 1994 c-4 -4 14 -30 40 -58 212 -234 318 -592 300 -1011 -17
-374 -112 -646 -298 -849 -52 -57 -51 -83 0 -47 82 58 190 204 257 345 91 192
128 376 128 631 0 392 -109 698 -329 923 -68 69 -84 80 -98 66z"/>
<path d="M15306 1838 c-3 -13 -15 -86 -26 -163 -11 -77 -23 -150 -26 -162 -3
-17 0 -23 14 -23 15 0 22 15 35 78 10 42 22 84 27 92 8 13 57 16 321 18 l312
4 -19 -29 c-10 -16 -69 -103 -130 -193 -61 -91 -127 -194 -146 -230 -87 -158
-162 -407 -174 -574 -10 -135 6 -176 67 -176 59 0 65 18 72 215 11 280 44 452
111 583 14 26 90 144 171 262 91 134 145 222 143 235 -3 19 -12 20 -333 25
-338 5 -375 10 -375 45 0 25 -39 18 -44 -7z"/>
<path d="M4858 1811 c-101 -33 -161 -82 -197 -161 -22 -48 -27 -110 -11 -140
15 -28 67 -43 99 -27 41 19 55 58 37 101 -14 34 -23 39 -79 48 -29 5 44 83
107 115 55 28 155 41 221 29 46 -9 110 -66 127 -114 20 -59 14 -187 -12 -257
-43 -112 -128 -175 -240 -175 -59 0 -90 -9 -90 -26 0 -11 21 -14 93 -14 100
-1 149 -14 201 -54 74 -56 118 -214 97 -353 -24 -164 -111 -253 -245 -253
-119 0 -252 69 -303 158 l-25 42 30 0 c46 0 86 39 86 83 0 93 -124 117 -160
31 -13 -31 -13 -42 1 -96 19 -74 43 -114 95 -162 167 -151 443 -137 590 30
174 198 85 492 -174 575 l-68 22 38 15 c142 56 239 188 239 328 0 61 -4 77
-30 119 -79 128 -266 187 -427 136z"/>
<path d="M6605 1816 c-116 -37 -224 -131 -287 -251 -63 -120 -89 -229 -95
-390 -15 -438 141 -710 399 -692 225 15 385 249 348 509 -28 193 -161 338
-325 355 -107 11 -195 -37 -256 -141 l-30 -51 4 125 c6 139 22 214 69 309 60
124 156 191 272 191 75 0 110 -11 149 -48 33 -32 34 -42 4 -42 -56 0 -82 -86
-38 -122 32 -25 67 -23 96 7 63 62 -8 207 -118 240 -61 18 -137 18 -192 1z
m106 -528 c86 -48 120 -133 126 -319 9 -226 -26 -345 -119 -406 -36 -24 -52
-28 -113 -28 -93 0 -137 27 -183 112 -64 121 -80 358 -33 484 62 165 194 229
322 157z"/>
<path d="M9823 1816 c-136 -43 -237 -177 -250 -331 -4 -51 -2 -64 17 -87 16
-22 30 -28 59 -28 49 0 81 32 81 82 0 42 -36 78 -76 78 -71 0 34 173 134 221
62 30 158 31 222 2 176 -78 223 -325 104 -542 -50 -90 -95 -146 -334 -418
-143 -161 -210 -245 -210 -260 l0 -23 350 0 350 0 5 23 c5 22 45 272 45 282 0
3 -8 5 -18 5 -15 0 -20 -14 -31 -75 -20 -123 -1 -116 -316 -113 l-270 3 258
259 c142 143 276 286 297 319 108 161 104 361 -10 490 -88 101 -277 153 -407
113z"/>
<path d="M12143 1816 c-136 -43 -237 -177 -250 -331 -4 -51 -2 -64 17 -87 16
-22 30 -28 59 -28 49 0 81 32 81 82 0 42 -36 78 -76 78 -71 0 34 173 134 221
62 30 158 31 222 2 176 -78 223 -325 104 -542 -50 -90 -95 -146 -334 -418
-143 -161 -210 -245 -210 -260 l0 -23 350 0 350 0 5 23 c5 22 45 272 45 282 0
3 -8 5 -18 5 -15 0 -20 -14 -31 -75 -20 -123 -1 -116 -316 -113 l-270 3 258
259 c142 143 276 286 297 319 108 161 104 361 -10 490 -88 101 -277 153 -407
113z"/>
<path d="M7666 1034 c-9 -8 -16 -19 -16 -24 0 -5 7 -16 16 -24 14 -14 79 -16
601 -14 545 3 587 4 597 21 8 12 8 22 0 35 -10 16 -52 17 -597 20 -522 2 -587
0 -601 -14z"/>
<path d="M13346 1034 c-9 -8 -16 -19 -16 -24 0 -5 7 -16 16 -24 14 -14 79 -16
601 -14 545 3 587 4 597 21 8 12 8 22 0 35 -10 16 -52 17 -597 20 -522 2 -587
0 -601 -14z"/>
</g>
</svg>
