<?xml version="1.0" standalone="no"?>
<!DOCTYPE svg PUBLIC "-//W3C//DTD SVG 20010904//EN"
 "http://www.w3.org/TR/2001/REC-SVG-20010904/DTD/svg10.dtd">
<svg version="1.0" xmlns="http://www.w3.org/2000/svg"
 width="468pt" height="100pt" viewBox="0 0 468 100"
 preserveAspectRatio="xMidYMid meet">
<metadata>
Created by potrace 1.8, written by Peter Selinger 2001-2007
</metadata>
<g transform="translate(0,100) scale(0.024375,-0.024375)"
fill="#000000" stroke="none">
<path d="M1650 4048 c-52 -45 -131 -79 -218 -92 -72 -11 -77 -13 -77 -36 0
-24 3 -25 50 -21 44 3 125 24 178 46 16 7 17 -22 17 -528 0 -303 -4 -546 -9
-560 -12 -32 -27 -37 -138 -44 -89 -6 -93 -7 -93 -30 l0 -23 295 0 295 0 0 25
c0 24 -3 25 -57 26 -77 0 -151 13 -166 28 -9 9 -13 167 -17 623 -3 395 -9 612
-15 614 -5 2 -26 -11 -45 -28z"/>
<path d="M7260 4048 c-52 -45 -131 -79 -218 -92 -72 -11 -77 -13 -77 -36 0
-24 3 -25 50 -21 44 3 125 24 178 46 16 7 17 -22 17 -528 0 -303 -4 -546 -9
-560 -12 -32 -27 -37 -138 -44 -89 -6 -93 -7 -93 -30 l0 -23 295 0 295 0 0 25
c0 24 -3 25 -57 26 -77 0 -151 13 -166 28 -9 9 -13 167 -17 623 -3 395 -9 612
-15 614 -5 2 -26 -11 -45 -28z"/>
<path d="M13330 4048 c-52 -45 -131 -79 -218 -92 -72 -11 -77 -13 -77 -36 0
-24 3 -25 50 -21 44 3 125 24 178 46 16 7 17 -22 17 -528 0 -303 -4 -546 -9
-560 -12 -32 -27 -37 -138 -44 -89 -6 -93 -7 -93 -30 l0 -23 295 0 295 0 0 25
c0 24 -3 25 -57 26 -77 0 -151 13 -166 28 -9 9 -13 167 -17 623 -3 395 -9 612
-15 614 -5 2 -26 -11 -45 -28z"/>
<path d="M4422 2518 c-9 -9 -12 -88 -12 -295 l0 -283 -286 -2 c-255 -3 -288
-5 -297 -20 -8 -12 -7 -21 2 -32 12 -14 51 -16 297 -16 l284 0 0 -279 c0 -154
3 -286 6 -295 7 -19 35 -21 52 -4 9 9 12 88 12 295 l0 283 279 0 c154 0 286 3
295 6 9 3 16 16 16 29 0 13 -7 26 -16 29 -9 3 -141 6 -295 6 l-279 0 0 283 c0
283 -3 307 -35 307 -6 0 -16 -5 -23 -12z"/>
<path d="M10032 2518 c-9 -9 -12 -88 -12 -295 l0 -283 -286 -2 c-255 -3 -288
-5 -297 -20 -8 -12 -7 -21 2 -32 12 -14 51 -16 297 -16 l284 0 0 -279 c0 -154
3 -286 6 -295 7 -19 35 -21 52 -4 9 9 12 88 12 295 l0 283 279 0 c154 0 286 3
295 6 9 3 16 16 16 29 0 13 -7 26 -16 29 -9 3 -141 6 -295 6 l-279 0 0 283 c0
283 -3 307 -35 307 -6 0 -16 -5 -23 -12z"/>
<path d="M16552 2518 c-9 -9 -12 -88 -12 -295 l0 -283 -286 -2 c-255 -3 -288
-5 -297 -20 -8 -12 -7 -21 2 -32 12 -14 51 -16 297 -16 l284 0 0 -279 c0 -154
3 -286 6 -295 7 -19 35 -21 52 -4 9 9 12 88 12 295 l0 283 279 0 c154 0 286 3
295 6 9 3 16 16 16 29 0 13 -7 26 -16 29 -9 3 -141 6 -295 6 l-279 0 0 283 c0
283 -3 307 -35 307 -6 0 -16 -5 -23 -12z"/>
<path d="M4 1936 c-3 -8 -4 -27 -2 -43 l3 -28 1635 0 1635 0 0 40 0 40 -1633
3 c-1402 2 -1633 0 -1638 -12z"/>
<path d="M5614 1936 c-3 -8 -4 -27 -2 -43 l3 -28 1635 0 1635 0 0 40 0 40
-1633 3 c-1402 2 -1633 0 -1638 -12z"/>
<path d="M11230 1905 l0 -45 2088 2 2087 3 3 43 3 42 -2090 0 -2091 0 0 -45z"/>
<path d="M17938 1570 c-27 -27 -30 -36 -25 -72 7 -52 33 -78 85 -85 36 -5 45
-2 72 25 41 42 42 92 1 133 -41 41 -91 40 -133 -1z"/>
<path d="M18478 1570 c-27 -27 -30 -36 -25 -72 7 -52 33 -78 85 -85 36 -5 45
-2 72 25 41 42 42 92 1 133 -41 41 -91 40 -133 -1z"/>
<path d="M19018 1570 c-27 -27 -30 -36 -25 -72 7 -52 33 -78 85 -85 36 -5 45
-2 72 25 41 42 42 92 1 133 -41 41 -91 40 -133 -1z"/>
<path d="M8116 1368 c-3 -13 -15 -86 -26 -163 -11 -77 -23 -150 -26 -162 -3
-17 0 -23 14 -23 15 0 22 15 35 78 10 42 22 84 27 92 8 13 57 16 321 18 l312
4 -19 -29 c-10 -16 -69 -103 -130 -193 -61 -91 -127 -194 -146 -230 -87 -158
-162 -407 -174 -574 -10 -135 6 -176 67 -176 59 0 65 18 72 215 11 280 44 452
111 583 14 26 90 144 171 262 91 134 145 222 143 235 -3 19 -12 20 -333 25
-338 5 -375 10 -375 45 0 25 -39 18 -44 -7z"/>
<path d="M480 1328 c-52 -45 -131 -79 -218 -92 -72 -11 -77 -13 -77 -36 0 -24
3 -25 50 -21 44 3 125 24 178 46 16 7 17 -22 17 -528 0 -303 -4 -546 -9 -560
-12 -32 -27 -37 -138 -44 -89 -6 -93 -7 -93 -30 l0 -23 295 0 295 0 0 25 c0
24 -3 25 -57 26 -77 0 -151 13 -166 28 -9 9 -13 167 -17 623 -3 395 -9 612
-15 614 -5 2 -26 -11 -45 -28z"/>
<path d="M2698 1341 c-101 -33 -161 -82 -197 -161 -22 -48 -27 -110 -11 -140
15 -28 67 -43 99 -27 41 19 55 58 37 101 -14 34 -23 39 -79 48 -29 5 44 83
107 115 55 28 155 41 221 29 46 -9 110 -66 127 -114 20 -59 14 -187 -12 -257
-43 -112 -128 -175 -240 -175 -59 0 -90 -9 -90 -26 0 -11 21 -14 93 -14 100
-1 149 -14 201 -54 74 -56 118 -214 97 -353 -24 -164 -111 -253 -245 -253
-119 0 -252 69 -303 158 l-25 42 30 0 c46 0 86 39 86 83 0 93 -124 117 -160
31 -13 -31 -13 -42 1 -96 19 -74 43 -114 95 -162 167 -151 443 -137 590 30
174 198 85 492 -174 575 l-68 22 38 15 c142 56 239 188 239 328 0 61 -4 77
-30 119 -79 128 -266 187 -427 136z"/>
<path d="M5810 1025 c0 -267 3 -335 13 -335 7 0 29 20 50 44 43 52 120 92 195
101 103 13 190 -55 228 -180 21 -72 29 -247 15 -329 -43 -245 -250 -341 -445
-207 -45 31 -100 106 -111 154 -7 25 -5 27 22 27 47 0 73 25 73 71 0 75 -74
106 -127 53 -23 -23 -25 -31 -20 -85 11 -124 95 -246 206 -298 76 -35 197 -36
284 -2 71 28 163 110 201 181 97 178 67 419 -69 553 -72 71 -123 91 -225 92
-96 0 -149 -19 -213 -75 l-37 -32 0 221 c0 122 3 221 8 221 4 0 32 -7 62 -15
125 -34 264 -8 367 69 115 85 123 124 17 81 -134 -54 -283 -54 -418 0 -35 14
-66 25 -69 25 -4 0 -7 -151 -7 -335z"/>
<path d="M11589 1345 c-296 -95 -383 -536 -150 -758 154 -147 360 -127 462 47
l31 51 -6 -130 c-9 -250 -83 -407 -221 -471 -88 -42 -217 -29 -278 26 l-32 29
27 1 c30 0 68 41 68 72 0 27 -45 68 -75 68 -35 0 -75 -42 -75 -77 1 -42 33
-105 69 -136 47 -39 130 -60 212 -55 176 13 326 152 399 371 41 122 54 228 47
392 -12 290 -94 477 -242 552 -62 32 -167 40 -236 18z m197 -54 c72 -44 116
-135 135 -277 27 -207 -19 -379 -121 -453 -47 -34 -108 -47 -171 -36 -57 10
-118 68 -155 148 -28 61 -29 66 -29 237 0 142 3 185 18 226 21 61 75 127 126
154 50 26 154 27 197 1z"/>
<path d="M14050 1328 c-52 -45 -131 -79 -218 -92 -72 -11 -77 -13 -77 -36 0
-24 3 -25 50 -21 44 3 125 24 178 46 16 7 17 -22 17 -528 0 -303 -4 -546 -9
-560 -12 -32 -27 -37 -138 -44 -89 -6 -93 -7 -93 -30 l0 -23 295 0 295 0 0 25
c0 24 -3 25 -57 26 -77 0 -151 13 -166 28 -9 9 -13 167 -17 623 -3 395 -9 612
-15 614 -5 2 -26 -11 -45 -28z"/>
<path d="M14960 1328 c-52 -45 -131 -79 -218 -92 -72 -11 -77 -13 -77 -36 0
-24 3 -25 50 -21 44 3 125 24 178 46 16 7 17 -22 17 -528 0 -303 -4 -546 -9
-560 -12 -32 -27 -37 -138 -44 -89 -6 -93 -7 -93 -30 l0 -23 295 0 295 0 0 25
c0 24 -3 25 -57 26 -77 0 -151 13 -166 28 -9 9 -13 167 -17 623 -3 395 -9 612
-15 614 -5 2 -26 -11 -45 -28z"/>
<path d="M1564 606 c-26 -26 -34 -42 -34 -71 0 -52 53 -105 105 -105 29 0 45
8 71 34 70 70 24 176 -77 176 -22 0 -41 -10 -65 -34z"/>
<path d="M7174 606 c-26 -26 -34 -42 -34 -71 0 -52 53 -105 105 -105 29 0 45
8 71 34 70 70 24 176 -77 176 -22 0 -41 -10 -65 -34z"/>
<path d="M12784 606 c-26 -26 -34 -42 -34 -71 0 -52 53 -105 105 -105 29 0 45
8 71 34 70 70 24 176 -77 176 -22 0 -41 -10 -65 -34z"/>
</g>
</svg>
