<?xml version="1.0" standalone="no"?>
<!DOCTYPE svg PUBLIC "-//W3C//DTD SVG 20010904//EN"
 "http://www.w3.org/TR/2001/REC-SVG-20010904/DTD/svg10.dtd">
<svg version="1.0" xmlns="http://www.w3.org/2000/svg"
 width="468pt" height="390pt" viewBox="0 0 468 390"
 preserveAspectRatio="xMidYMid meet">
<metadata>
Created by potrace 1.8, written by Peter Selinger 2001-2007
</metadata>
<g transform="translate(0,390) scale(0.039065,-0.039065)"
fill="#000000" stroke="none">
<path d="M5301 9952 c-16 -30 6 -42 79 -42 36 0 72 -5 80 -10 13 -8 -5 -89
-125 -566 -86 -343 -148 -569 -160 -588 -27 -41 -73 -66 -134 -73 -54 -6 -77
-23 -67 -48 5 -13 34 -15 213 -13 l208 3 0 25 c0 23 -5 26 -55 32 -42 5 -60
13 -77 33 -13 14 -23 33 -23 42 0 23 271 1096 279 1105 4 4 119 -272 256 -613
138 -342 256 -624 263 -627 7 -2 17 -1 22 4 5 5 76 277 159 604 94 370 158
604 169 620 28 37 73 60 131 67 54 6 77 23 67 48 -5 13 -34 15 -213 13 l-208
-3 0 -25 c0 -23 5 -26 53 -31 29 -4 60 -13 68 -20 41 -34 40 -43 -82 -533 -81
-324 -120 -466 -126 -456 -6 8 -105 251 -221 540 l-212 525 -167 3 c-155 2
-168 1 -177 -16z"/>
<path d="M6765 9208 c-28 -29 -91 -56 -152 -64 -43 -5 -53 -10 -53 -25 0 -12
7 -19 18 -19 19 0 106 22 135 35 16 7 17 -15 17 -379 0 -442 9 -406 -99 -406
-54 0 -61 -2 -61 -20 0 -19 7 -20 206 -20 190 0 205 1 202 18 -3 14 -17 18
-76 22 -50 3 -76 10 -82 20 -6 9 -10 189 -10 438 0 447 0 447 -45 400z"/>
<path d="M0 7670 l0 -40 5985 0 5985 0 0 40 0 40 -5985 0 -5985 0 0 -40z"/>
<path d="M7601 7202 c-16 -30 6 -42 79 -42 36 0 72 -5 80 -10 13 -8 -5 -89
-125 -566 -86 -343 -148 -569 -160 -588 -27 -41 -73 -66 -134 -73 -54 -6 -77
-23 -67 -48 5 -13 34 -15 213 -13 l208 3 0 25 c0 23 -5 26 -55 32 -42 5 -60
13 -77 33 -13 14 -23 33 -23 42 0 23 271 1096 279 1105 4 4 119 -272 256 -613
138 -342 256 -624 263 -627 7 -2 17 -1 22 4 5 5 76 277 159 604 94 370 158
604 169 620 28 37 73 60 131 67 54 6 77 23 67 48 -5 13 -34 15 -213 13 l-208
-3 0 -25 c0 -23 5 -26 53 -31 29 -4 60 -13 68 -20 41 -34 40 -43 -82 -533 -81
-324 -120 -466 -126 -456 -6 8 -105 251 -221 540 l-212 525 -167 3 c-155 2
-168 1 -177 -16z"/>
<path d="M8945 6456 c-83 -38 -134 -111 -142 -206 -4 -44 -2 -60 12 -73 46
-46 121 16 86 71 -5 8 -22 17 -39 20 l-31 7 20 45 c11 24 28 53 37 63 29 32
89 57 136 57 120 0 195 -86 196 -222 0 -128 -37 -191 -265 -448 -85 -96 -155
-183 -155 -192 0 -17 18 -18 244 -18 l243 0 17 106 c9 59 15 109 12 111 -12
12 -25 -11 -31 -55 -11 -80 -1 -77 -215 -80 -182 -3 -191 -2 -182 15 6 10 85
91 176 181 177 174 221 228 242 300 31 102 12 184 -61 259 -80 82 -200 106
-300 59z"/>
<path d="M424 5765 c-13 -34 3 -45 69 -45 117 0 120 53 -42 -596 -78 -313
-146 -581 -152 -595 -14 -36 -48 -49 -123 -49 -67 0 -94 -15 -82 -45 5 -13 55
-15 379 -15 342 0 381 2 452 20 419 107 727 597 625 994 -45 175 -153 288
-317 331 -85 22 -801 22 -809 0z m798 -77 c159 -74 217 -240 173 -499 -55
-328 -203 -560 -420 -659 -91 -42 -149 -50 -345 -50 -154 0 -180 2 -180 15 0
38 295 1192 309 1208 14 17 32 18 211 15 187 -3 197 -4 252 -30z"/>
<path d="M3402 5528 c-9 -9 -12 -88 -12 -295 l0 -283 -286 -2 c-255 -3 -288
-5 -297 -20 -8 -12 -7 -21 2 -32 12 -14 51 -16 297 -16 l284 0 0 -279 c0 -154
3 -286 6 -295 7 -19 35 -21 52 -4 9 9 12 88 12 295 l0 283 279 0 c154 0 286 3
295 6 9 3 16 16 16 29 0 13 -7 26 -16 29 -9 3 -141 6 -295 6 l-279 0 0 283 c0
283 -3 307 -35 307 -6 0 -16 -5 -23 -12z"/>
<path d="M1945 5018 c-28 -29 -91 -56 -152 -64 -43 -5 -53 -10 -53 -25 0 -12
7 -19 18 -19 19 0 106 22 135 35 16 7 17 -15 17 -379 0 -442 9 -406 -99 -406
-54 0 -61 -2 -61 -20 0 -19 7 -20 206 -20 190 0 205 1 202 18 -3 14 -17 18
-76 22 -50 3 -76 10 -82 20 -6 9 -10 189 -10 438 0 447 0 447 -45 400z"/>
<path d="M4590 4920 l0 -40 3690 0 3690 0 0 40 0 40 -3690 0 -3690 0 0 -40z"/>
<path d="M9531 4452 c-16 -30 6 -42 79 -42 36 0 72 -5 80 -10 13 -8 -5 -89
-125 -566 -86 -343 -148 -569 -160 -588 -27 -41 -73 -66 -134 -73 -54 -6 -77
-23 -67 -48 5 -13 34 -15 213 -13 l208 3 0 25 c0 23 -5 26 -55 32 -42 5 -60
13 -77 33 -13 14 -23 33 -23 42 0 23 271 1096 279 1105 4 4 119 -272 256 -613
138 -342 256 -624 263 -627 7 -2 17 -1 22 4 5 5 76 277 159 604 94 370 158
604 169 620 28 37 73 60 131 67 54 6 77 23 67 48 -5 13 -34 15 -213 13 l-208
-3 0 -25 c0 -23 5 -26 53 -31 29 -4 60 -13 68 -20 41 -34 40 -43 -82 -533 -81
-324 -120 -466 -126 -456 -6 8 -105 251 -221 540 l-212 525 -167 3 c-155 2
-168 1 -177 -16z"/>
<path d="M10975 3750 c-12 -19 6 -30 48 -30 81 0 82 23 -27 -417 -55 -219
-104 -408 -109 -420 -11 -24 -34 -33 -93 -33 -28 0 -44 -5 -48 -15 -3 -9 0
-18 7 -21 7 -2 91 -3 187 -2 157 3 175 5 178 21 3 14 -4 17 -45 17 -87 0 -87
-9 -12 272 8 31 28 51 111 118 56 44 106 76 110 72 9 -9 178 -407 178 -420 0
-20 -32 -42 -60 -42 -29 0 -50 -27 -27 -36 7 -2 80 -3 162 -2 133 3 150 5 153
21 3 13 -3 17 -26 17 -45 0 -61 9 -79 44 -22 43 -214 499 -211 501 2 1 73 56
158 121 196 150 243 180 310 197 35 9 56 20 58 31 3 14 -12 16 -132 16 -129 0
-136 -1 -136 -20 0 -11 6 -20 14 -20 24 0 39 -26 27 -49 -11 -20 -580 -466
-586 -459 -8 8 118 474 131 488 8 8 40 17 72 20 42 4 57 9 57 20 0 13 -28 15
-182 18 -116 1 -184 -1 -188 -8z"/>
<path d="M7892 2778 c-9 -9 -12 -88 -12 -295 l0 -283 -286 -2 c-255 -3 -288
-5 -297 -20 -8 -12 -7 -21 2 -32 12 -14 51 -16 297 -16 l284 0 0 -279 c0 -154
3 -286 6 -295 7 -19 35 -21 52 -4 9 9 12 88 12 295 l0 283 279 0 c154 0 286 3
295 6 9 3 16 16 16 29 0 13 -7 26 -16 29 -9 3 -141 6 -295 6 l-279 0 0 283 c0
283 -3 307 -35 307 -6 0 -16 -5 -23 -12z"/>
<path d="M9080 2170 l0 -40 1445 0 1445 0 0 40 0 40 -1445 0 -1445 0 0 -40z"/>
<path d="M4902 1877 c-47 -50 -10 -137 58 -137 41 0 80 39 80 80 0 69 -91 107
-138 57z"/>
<path d="M5622 1847 c-47 -50 -10 -137 58 -137 41 0 80 39 80 80 0 69 -91 107
-138 57z"/>
<path d="M6332 1817 c-47 -50 -10 -137 58 -137 41 0 80 39 80 80 0 69 -91 107
-138 57z"/>
<path d="M9504 1655 c-13 -34 3 -45 69 -45 117 0 120 53 -42 -596 -78 -313
-146 -581 -152 -595 -14 -36 -48 -49 -123 -49 -67 0 -94 -15 -82 -45 5 -13 55
-15 379 -15 342 0 381 2 452 20 419 107 727 597 625 994 -45 175 -153 288
-317 331 -85 22 -801 22 -809 0z m798 -77 c159 -74 217 -240 173 -499 -55
-328 -203 -560 -420 -659 -91 -42 -149 -50 -345 -50 -154 0 -180 2 -180 15 0
38 295 1192 309 1208 14 17 32 18 211 15 187 -3 197 -4 252 -30z"/>
<path d="M10995 950 c-12 -19 6 -30 48 -30 81 0 82 23 -27 -417 -55 -219 -104
-408 -109 -420 -11 -24 -34 -33 -93 -33 -28 0 -44 -5 -48 -15 -3 -9 0 -18 7
-21 7 -2 91 -3 187 -2 157 3 175 5 178 20 3 15 -4 18 -45 18 -87 0 -87 -9 -12
272 8 31 28 51 111 118 56 44 106 76 110 72 9 -9 178 -407 178 -420 0 -20 -32
-42 -60 -42 -29 0 -50 -27 -27 -36 7 -2 80 -3 162 -2 133 3 150 5 153 21 3 13
-3 17 -26 17 -45 0 -61 9 -79 44 -22 43 -214 499 -211 501 2 1 73 56 158 121
196 150 243 180 310 197 35 9 56 20 58 31 3 14 -12 16 -132 16 -129 0 -136 -1
-136 -20 0 -11 6 -20 14 -20 24 0 39 -26 27 -49 -11 -20 -580 -466 -586 -459
-8 8 118 474 131 488 8 8 40 17 72 20 42 4 57 9 57 20 0 13 -28 15 -182 18
-116 1 -184 -1 -188 -8z"/>
</g>
</svg>
