<?xml version="1.0" standalone="no"?>
<!DOCTYPE svg PUBLIC "-//W3C//DTD SVG 20010904//EN"
 "http://www.w3.org/TR/2001/REC-SVG-20010904/DTD/svg10.dtd">
<svg version="1.0" xmlns="http://www.w3.org/2000/svg"
 width="468pt" height="237pt" viewBox="0 0 468 237"
 preserveAspectRatio="xMidYMid meet">
<metadata>
Created by potrace 1.8, written by Peter Selinger 2001-2007
</metadata>
<g transform="translate(0,237) scale(0.288889,-0.288889)"
fill="#000000" stroke="none">
<path d="M920 806 c0 -10 49 -110 49 -101 2 18 -33 105 -41 105 -4 0 -8 -2 -8
-4z"/>
<path d="M1023 715 c-1 -22 1 -32 4 -23 2 10 2 28 0 40 -2 13 -4 5 -4 -17z"/>
<path d="M52 668 c-16 -49 -25 -104 -17 -96 7 7 35 121 30 126 -2 2 -8 -12
-13 -30z"/>
<path d="M173 643 c15 -2 39 -2 55 0 15 2 2 4 -28 4 -30 0 -43 -2 -27 -4z"/>
<path d="M643 623 c180 -2 474 -2 655 0 180 1 32 2 -328 2 -360 0 -508 -1
-327 -2z"/>
<path d="M173 613 c15 -2 39 -2 55 0 15 2 2 4 -28 4 -30 0 -43 -2 -27 -4z"/>
<path d="M1120 586 c0 -10 49 -110 49 -101 2 18 -33 105 -41 105 -4 0 -8 -2
-8 -4z"/>
<path d="M1235 522 c4 -8 -2 -23 -16 -38 l-22 -24 29 1 c18 1 22 3 11 6 -18 5
-18 6 -1 24 14 16 15 22 4 32 -10 9 -11 9 -5 -1z"/>
<path d="M356 431 c-3 -22 -9 -46 -12 -55 -3 -9 -2 -16 3 -16 5 0 14 25 20 55
5 30 6 55 3 55 -4 0 -10 -18 -14 -39z"/>
<path d="M421 452 c10 -16 10 -26 1 -48 -15 -32 -8 -45 8 -14 14 26 9 72 -8
78 -11 3 -11 0 -1 -16z"/>
<path d="M601 428 c-1 -21 -6 -28 -23 -29 l-23 -2 23 -4 c14 -3 22 -12 23 -26
2 -22 2 -22 6 1 3 14 12 22 26 23 l22 2 -22 4 c-14 3 -23 13 -26 31 l-4 27 -2
-27z"/>
<path d="M473 375 c-1 -22 1 -32 4 -23 2 10 2 28 0 40 -2 13 -4 5 -4 -17z"/>
<path d="M938 403 c128 -2 335 -2 460 0 125 1 20 2 -233 2 -253 0 -355 -1
-227 -2z"/>
<path d="M1320 366 c0 -10 49 -110 49 -101 2 18 -33 105 -41 105 -4 0 -8 -2
-8 -4z"/>
<path d="M1436 243 c-6 -14 -5 -15 5 -6 7 7 10 15 7 18 -3 3 -9 -2 -12 -12z"/>
<path d="M748 195 c-8 -30 -12 -55 -8 -55 4 0 14 25 22 55 8 30 12 55 8 55 -4
0 -14 -25 -22 -55z"/>
<path d="M818 238 c15 -19 9 -52 -17 -83 -10 -13 -7 -12 12 4 31 28 35 62 10
82 -16 13 -17 12 -5 -3z"/>
<path d="M991 208 c-1 -21 -6 -28 -23 -29 l-23 -2 23 -4 c14 -3 22 -12 23 -26
2 -22 2 -22 6 1 3 16 12 22 31 23 l27 2 -27 4 c-20 3 -28 11 -31 31 l-4 27 -2
-27z"/>
<path d="M874 170 c0 -13 4 -16 10 -10 7 7 7 13 0 20 -6 6 -10 3 -10 -10z"/>
<path d="M1238 183 c73 -2 190 -2 260 0 70 1 10 3 -133 3 -143 0 -200 -2 -127
-3z"/>
<path d="M1141 89 c-14 -64 -7 -77 9 -18 6 24 13 50 15 57 2 6 0 12 -4 12 -5
0 -14 -23 -20 -51z"/>
<path d="M1210 124 c11 -18 10 -26 -4 -54 -16 -33 -16 -33 4 -15 24 22 26 58
3 76 -15 13 -15 12 -3 -7z"/>
<path d="M858 123 c6 -2 18 -2 25 0 6 3 1 5 -13 5 -14 0 -19 -2 -12 -5z"/>
<path d="M1391 98 c-1 -21 -6 -28 -23 -29 l-23 -2 23 -4 c14 -3 22 -12 23 -26
2 -22 2 -22 6 1 3 14 12 22 26 23 l22 2 -22 4 c-14 3 -23 13 -26 31 l-4 27 -2
-27z"/>
<path d="M1276 23 c-6 -14 -5 -15 5 -6 7 7 10 15 7 18 -3 3 -9 -2 -12 -12z"/>
</g>
</svg>
