<?xml version="1.0" standalone="no"?>
<!DOCTYPE svg PUBLIC "-//W3C//DTD SVG 20010904//EN"
 "http://www.w3.org/TR/2001/REC-SVG-20010904/DTD/svg10.dtd">
<svg version="1.0" xmlns="http://www.w3.org/2000/svg"
 width="468pt" height="32pt" viewBox="0 0 468 32"
 preserveAspectRatio="xMidYMid meet">
<metadata>
Created by potrace 1.8, written by Peter Selinger 2001-2007
</metadata>
<g transform="translate(0,32) scale(0.014643,-0.014643)"
fill="#000000" stroke="none">
<path d="M27955 2126 c-83 -38 -134 -111 -142 -206 -4 -44 -2 -60 12 -73 46
-46 121 16 86 71 -5 8 -22 17 -39 20 l-31 7 20 45 c11 24 28 53 37 63 29 32
89 57 136 57 120 0 195 -86 196 -222 0 -128 -37 -191 -265 -448 -85 -96 -155
-183 -155 -192 0 -17 18 -18 244 -18 l243 0 17 106 c9 59 15 109 12 111 -12
12 -25 -11 -31 -55 -11 -80 -1 -77 -215 -80 -182 -3 -191 -2 -182 15 6 10 85
91 176 181 177 174 221 228 242 300 31 102 12 184 -61 259 -80 82 -200 106
-300 59z"/>
<path d="M1486 1998 c-8 -13 -202 -412 -431 -888 -229 -476 -418 -866 -419
-867 0 -1 -82 176 -180 393 -98 216 -184 398 -191 404 -18 15 -255 -161 -255
-190 0 -30 19 -24 84 25 33 25 63 42 66 38 4 -5 91 -195 194 -423 104 -228
195 -425 202 -437 9 -14 24 -23 40 -23 28 0 17 -24 634 1257 l315 653 543 0
542 0 0 40 0 40 -565 0 -565 0 -14 -22z"/>
<path d="M6035 1779 c-99 -11 -107 -14 -103 -41 3 -20 11 -24 55 -28 29 -3 58
-11 65 -18 17 -17 24 -1171 8 -1202 -8 -14 -26 -21 -70 -26 -55 -6 -60 -9 -60
-30 l0 -24 190 0 190 0 0 24 c0 21 -6 24 -54 30 -30 4 -60 13 -66 21 -8 9 -10
94 -8 287 l3 273 27 52 c39 73 91 120 154 139 89 26 165 -2 200 -72 17 -35 19
-67 22 -346 2 -205 0 -314 -7 -327 -9 -15 -26 -22 -71 -27 -55 -6 -60 -9 -60
-30 l0 -24 190 0 190 0 0 24 c0 21 -6 24 -54 30 -30 4 -59 13 -64 19 -6 7 -12
135 -15 312 -2 204 -8 313 -16 340 -19 59 -87 120 -151 135 -64 15 -154 8
-206 -16 -47 -23 -107 -81 -133 -131 l-20 -38 -1 353 0 352 -27 -1 c-16 -1
-64 -5 -108 -10z"/>
<path d="M12585 1779 c-99 -11 -107 -14 -103 -41 3 -20 11 -24 55 -28 29 -3
58 -11 65 -18 17 -17 24 -1171 8 -1202 -8 -14 -26 -21 -70 -26 -55 -6 -60 -9
-60 -30 l0 -24 190 0 190 0 0 24 c0 21 -6 24 -54 30 -30 4 -60 13 -66 21 -8 9
-10 94 -8 287 l3 273 27 52 c39 73 91 120 154 139 89 26 165 -2 200 -72 17
-35 19 -67 22 -346 2 -205 0 -314 -7 -327 -9 -15 -26 -22 -71 -27 -55 -6 -60
-9 -60 -30 l0 -24 190 0 190 0 0 24 c0 21 -6 24 -54 30 -30 4 -59 13 -64 19
-6 7 -12 135 -15 312 -2 204 -8 313 -16 340 -19 59 -87 120 -151 135 -64 15
-154 8 -206 -16 -47 -23 -107 -81 -133 -131 l-20 -38 -1 353 0 352 -27 -1
c-16 -1 -64 -5 -108 -10z"/>
<path d="M14905 1779 c-99 -11 -107 -14 -103 -41 3 -20 11 -24 55 -28 29 -3
58 -11 65 -18 17 -17 24 -1171 8 -1202 -8 -14 -26 -21 -70 -26 -55 -6 -60 -9
-60 -30 l0 -24 190 0 190 0 0 24 c0 21 -6 24 -54 30 -30 4 -60 13 -66 21 -8 9
-10 94 -8 287 l3 273 27 52 c39 73 91 120 154 139 89 26 165 -2 200 -72 17
-35 19 -67 22 -346 2 -205 0 -314 -7 -327 -9 -15 -26 -22 -71 -27 -55 -6 -60
-9 -60 -30 l0 -24 190 0 190 0 0 24 c0 21 -6 24 -54 30 -30 4 -59 13 -64 19
-6 7 -12 135 -15 312 -2 204 -8 313 -16 340 -19 59 -87 120 -151 135 -64 15
-154 8 -206 -16 -47 -23 -107 -81 -133 -131 l-20 -38 -1 353 0 352 -27 -1
c-16 -1 -64 -5 -108 -10z"/>
<path d="M25860 1784 c-8 -1 -50 -6 -93 -9 -77 -7 -78 -7 -75 -33 3 -23 8 -27
38 -30 65 -5 78 -11 89 -43 7 -20 11 -124 11 -276 l0 -245 -56 51 c-127 116
-314 106 -455 -26 -62 -57 -94 -107 -120 -180 -77 -224 20 -478 219 -571 47
-22 71 -27 137 -27 96 0 155 25 222 92 l43 42 0 -70 0 -70 113 6 c135 8 139 9
135 37 -3 20 -11 24 -57 30 -29 3 -58 11 -65 18 -8 8 -12 189 -14 660 l-2 650
-28 -1 c-15 -1 -34 -3 -42 -5z m-170 -565 c49 -26 74 -48 104 -93 l26 -39 0
-239 c0 -272 -2 -280 -74 -346 -61 -56 -107 -75 -182 -75 -113 -1 -194 70
-237 207 -18 58 -22 95 -22 201 1 145 15 209 64 286 72 114 211 157 321 98z"/>
<path d="M22023 1716 c-209 -68 -306 -316 -290 -736 10 -258 52 -395 152 -496
98 -100 217 -129 342 -83 179 68 273 292 273 654 0 344 -84 561 -246 641 -66
32 -167 41 -231 20z m145 -28 c70 -18 134 -86 161 -173 32 -103 44 -280 38
-540 -8 -294 -28 -397 -93 -482 -55 -73 -168 -99 -249 -57 -130 67 -174 262
-162 729 6 251 20 338 62 411 31 53 81 95 132 111 50 15 56 15 111 1z"/>
<path d="M19730 1660 c-7 -13 -7 -26 -1 -37 5 -10 247 -130 540 -268 292 -137
531 -252 531 -255 -1 -3 -239 -117 -531 -255 -293 -138 -535 -258 -540 -267
-12 -23 5 -58 29 -57 29 0 1164 543 1176 562 8 12 8 22 0 34 -12 19 -1148 563
-1176 563 -10 0 -22 -9 -28 -20z"/>
<path d="M5430 1593 c-1 -169 -90 -319 -200 -338 -25 -4 -40 -12 -40 -21 0
-11 18 -14 84 -14 l85 0 4 -322 c4 -362 6 -376 72 -444 86 -90 228 -84 293 11
36 51 52 120 52 217 0 81 -2 88 -20 88 -19 0 -20 -7 -20 -96 0 -115 -13 -165
-56 -210 -26 -29 -38 -34 -75 -34 -54 0 -82 18 -112 73 -21 41 -22 52 -25 380
l-3 337 140 0 141 0 0 25 0 25 -140 0 -140 0 0 185 c0 178 -1 185 -20 185 -17
0 -20 -7 -20 -47z"/>
<path d="M14300 1593 c-1 -169 -90 -319 -200 -338 -25 -4 -40 -12 -40 -21 0
-11 18 -14 84 -14 l85 0 4 -322 c4 -362 6 -376 72 -444 86 -90 228 -84 293 11
36 51 52 120 52 217 0 81 -2 88 -20 88 -19 0 -20 -7 -20 -96 0 -115 -13 -165
-56 -210 -26 -29 -38 -34 -75 -34 -54 0 -82 18 -112 73 -21 41 -22 52 -25 380
l-3 337 140 0 141 0 0 25 0 25 -140 0 -140 0 0 185 c0 178 -1 185 -20 185 -17
0 -20 -7 -20 -47z"/>
<path d="M16930 1593 c-1 -169 -90 -319 -200 -338 -25 -4 -40 -12 -40 -21 0
-11 18 -14 84 -14 l85 0 4 -322 c4 -362 6 -376 72 -444 86 -90 228 -84 293 11
36 51 52 120 52 217 0 81 -2 88 -20 88 -19 0 -20 -7 -20 -96 0 -115 -13 -165
-56 -210 -26 -29 -38 -34 -75 -34 -54 0 -82 18 -112 73 -21 41 -22 52 -25 380
l-3 337 140 0 141 0 0 25 0 25 -140 0 -140 0 0 185 c0 178 -1 185 -20 185 -17
0 -20 -7 -20 -47z"/>
<path d="M1855 1267 c-89 -43 -185 -166 -211 -270 -6 -26 -4 -28 15 -25 16 2
28 18 45 60 77 188 261 283 329 169 29 -49 21 -123 -38 -362 -73 -293 -105
-362 -182 -395 -39 -17 -79 -18 -122 -3 l-32 11 31 19 c50 31 65 94 30 129
-29 29 -74 25 -112 -9 -28 -25 -33 -36 -33 -76 0 -40 5 -51 32 -75 54 -49 142
-63 211 -35 43 19 74 45 113 98 l28 38 16 -35 c52 -109 198 -147 310 -82 56
33 128 114 159 179 33 67 37 102 13 102 -13 0 -25 -17 -41 -57 -62 -153 -192
-247 -286 -208 -78 32 -79 115 -4 413 60 240 76 284 119 336 48 56 103 71 178
50 l38 -10 -33 -22 c-60 -41 -61 -128 -2 -143 39 -10 75 6 102 46 62 92 -38
191 -180 178 -59 -6 -119 -46 -156 -104 -15 -24 -29 -43 -32 -43 -3 0 -14 19
-26 42 -47 96 -175 134 -279 84z"/>
<path d="M7213 1270 c-293 -105 -365 -545 -127 -770 81 -77 149 -105 254 -105
102 0 157 22 222 87 67 67 111 169 76 176 -10 2 -18 -2 -18 -8 0 -21 -51 -114
-78 -144 -63 -67 -194 -96 -277 -62 -55 23 -120 91 -148 154 -28 61 -47 157
-47 234 l0 48 293 2 292 3 -3 63 c-7 119 -62 231 -140 286 -82 57 -202 71
-299 36z m197 -35 c33 -17 74 -62 95 -103 18 -37 45 -151 45 -194 l0 -28 -241
0 -241 0 6 48 c23 161 95 267 198 292 39 10 103 3 138 -15z"/>
<path d="M8532 1269 c-52 -26 -113 -103 -146 -185 -33 -81 -36 -109 -12 -109
14 0 24 13 36 50 48 141 121 225 194 225 37 0 60 -40 51 -87 -3 -21 -36 -125
-72 -232 -50 -148 -66 -213 -70 -271 -7 -94 13 -162 60 -208 86 -84 249 -81
340 5 32 31 32 30 11 -51 -51 -201 -198 -366 -327 -366 -50 0 -99 21 -125 55
-29 36 -28 45 4 45 35 0 94 59 94 94 0 65 -77 86 -132 37 -31 -27 -33 -34 -33
-93 0 -55 4 -70 28 -101 43 -57 79 -72 173 -72 72 0 87 3 156 37 94 47 200
154 246 249 22 44 65 199 137 486 58 233 105 434 105 448 0 57 -90 59 -115 2
-8 -17 -49 -169 -91 -337 -41 -168 -84 -318 -94 -335 -28 -45 -70 -81 -120
-104 -86 -39 -156 -21 -184 49 -34 87 -15 210 74 460 41 115 50 154 47 189
-12 111 -132 173 -235 120z"/>
<path d="M10144 1269 c-136 -43 -201 -177 -143 -296 37 -77 120 -120 307 -159
105 -22 162 -56 191 -116 25 -52 27 -95 6 -145 -34 -81 -95 -116 -205 -117
-143 -1 -214 62 -263 234 -17 57 -30 86 -41 88 -14 3 -16 -16 -16 -177 0 -201
5 -213 53 -136 16 25 31 45 34 45 2 0 21 -14 42 -31 95 -76 270 -79 378 -6
116 78 139 258 47 365 -45 53 -113 86 -229 112 -173 38 -236 78 -251 155 -9
51 25 115 79 146 36 21 55 24 138 24 87 0 99 -2 136 -27 49 -32 88 -107 98
-186 6 -42 10 -52 24 -50 14 3 16 22 19 142 3 163 -4 180 -50 123 l-31 -38
-21 20 c-55 52 -192 66 -302 30z"/>
<path d="M12005 1272 c-263 -91 -367 -450 -204 -704 119 -185 370 -235 518
-102 69 62 127 180 94 191 -7 3 -23 -19 -37 -51 -54 -121 -129 -176 -240 -176
-193 0 -315 216 -279 498 27 212 119 322 269 322 73 0 146 -32 192 -84 39 -44
40 -56 7 -56 -34 0 -65 -33 -65 -70 0 -40 31 -70 73 -70 52 0 71 27 65 94 -13
162 -216 269 -393 208z"/>
<path d="M16090 1281 c-111 -36 -191 -135 -193 -237 0 -55 23 -84 70 -84 40 0
73 30 73 65 0 31 -41 75 -70 75 -26 0 -25 13 4 56 34 50 81 82 142 94 146 30
254 -83 254 -265 l0 -62 -77 -7 c-160 -14 -283 -58 -358 -127 -59 -54 -86
-107 -92 -178 -7 -86 23 -136 112 -181 63 -32 75 -35 159 -35 74 0 98 4 131
22 40 21 88 67 118 112 l16 23 12 -41 c7 -25 28 -55 51 -76 47 -43 106 -48
159 -12 52 34 72 85 73 186 1 74 -1 86 -16 89 -16 3 -18 -5 -18 -71 0 -94 -7
-130 -32 -156 -25 -28 -79 -28 -104 0 -17 19 -19 44 -25 303 -4 196 -9 294
-19 324 -33 104 -148 183 -275 188 -38 2 -81 0 -95 -5z m280 -514 c0 -143 -14
-204 -61 -260 -78 -95 -217 -111 -295 -33 -62 62 -66 155 -10 251 48 81 151
137 284 154 37 5 70 9 75 10 4 0 7 -54 7 -122z"/>
<path d="M18212 1269 c-52 -26 -113 -103 -146 -185 -33 -81 -36 -109 -12 -109
14 0 24 13 36 50 48 141 121 225 194 225 37 0 60 -40 51 -87 -3 -21 -36 -125
-72 -232 -50 -148 -66 -213 -70 -271 -7 -94 13 -162 60 -208 86 -84 249 -81
340 5 32 31 32 30 11 -51 -51 -201 -198 -366 -327 -366 -50 0 -99 21 -125 55
-29 36 -28 45 4 45 35 0 94 59 94 94 0 65 -77 86 -132 37 -31 -27 -33 -34 -33
-93 0 -55 4 -70 28 -101 43 -57 79 -72 173 -72 72 0 87 3 156 37 94 47 200
154 246 249 22 44 65 199 137 486 58 233 105 434 105 448 0 57 -90 59 -115 2
-8 -17 -49 -169 -91 -337 -41 -168 -84 -318 -94 -335 -28 -45 -70 -81 -120
-104 -86 -39 -156 -21 -184 49 -34 87 -15 210 74 460 41 115 50 154 47 189
-12 111 -132 173 -235 120z"/>
<path d="M23510 1281 c-111 -36 -191 -135 -193 -237 0 -55 23 -84 70 -84 40 0
73 30 73 65 0 31 -41 75 -70 75 -26 0 -25 13 4 56 34 50 81 82 142 94 146 30
254 -83 254 -265 l0 -62 -77 -7 c-160 -14 -283 -58 -358 -127 -59 -54 -86
-107 -92 -178 -7 -86 23 -136 112 -181 63 -32 75 -35 159 -35 74 0 98 4 131
22 40 21 88 67 118 112 l16 23 12 -41 c7 -25 28 -55 51 -76 47 -43 106 -48
159 -12 52 34 72 85 73 186 1 74 -1 86 -16 89 -16 3 -18 -5 -18 -71 0 -94 -7
-130 -32 -156 -25 -28 -79 -28 -104 0 -17 19 -19 44 -25 303 -4 196 -9 294
-19 324 -33 104 -148 183 -275 188 -38 2 -81 0 -95 -5z m280 -514 c0 -143 -14
-204 -61 -260 -78 -95 -217 -111 -295 -33 -62 62 -66 155 -10 251 48 81 151
137 284 154 37 5 70 9 75 10 4 0 7 -54 7 -122z"/>
<path d="M26962 1269 c-52 -26 -113 -103 -146 -185 -33 -81 -36 -109 -12 -109
14 0 24 13 36 50 48 141 121 225 194 225 37 0 60 -40 51 -87 -3 -21 -36 -125
-72 -232 -50 -148 -66 -213 -70 -271 -7 -94 13 -162 60 -208 86 -84 249 -81
340 5 32 31 32 30 11 -51 -51 -201 -198 -366 -327 -366 -50 0 -99 21 -125 55
-29 36 -28 45 4 45 35 0 94 59 94 94 0 65 -77 86 -132 37 -31 -27 -33 -34 -33
-93 0 -55 4 -70 28 -101 43 -57 79 -72 173 -72 72 0 87 3 156 37 94 47 200
154 246 249 22 44 65 199 137 486 58 233 105 434 105 448 0 57 -90 59 -115 2
-8 -17 -49 -169 -91 -337 -41 -168 -84 -318 -94 -335 -28 -45 -70 -81 -120
-104 -86 -39 -156 -21 -184 49 -34 87 -15 210 74 460 41 115 50 154 47 189
-12 111 -132 173 -235 120z"/>
<path d="M31275 1267 c-89 -43 -185 -166 -211 -270 -6 -26 -4 -28 15 -25 16 2
28 18 45 60 77 188 261 283 329 169 29 -49 21 -123 -38 -362 -73 -293 -105
-362 -182 -395 -39 -17 -79 -18 -122 -3 l-32 11 31 19 c50 31 65 94 30 129
-29 29 -74 25 -112 -9 -28 -25 -33 -36 -33 -76 0 -40 5 -51 32 -75 54 -49 142
-63 211 -35 43 19 74 45 113 98 l28 38 16 -35 c52 -109 198 -147 310 -82 56
33 128 114 159 179 33 67 37 102 13 102 -13 0 -25 -17 -41 -57 -62 -153 -192
-247 -286 -208 -78 32 -79 115 -4 413 60 240 76 284 119 336 48 56 102 71 179
50 l39 -11 -32 -19 c-51 -31 -66 -94 -31 -129 30 -30 76 -26 111 9 24 25 29
38 29 79 0 44 -4 54 -30 76 -66 55 -179 60 -250 11 -22 -15 -53 -47 -68 -71
-15 -24 -29 -43 -32 -43 -3 0 -14 19 -26 42 -47 96 -175 134 -279 84z"/>
<path d="M10805 1269 c-99 -11 -107 -14 -103 -41 3 -20 11 -24 55 -28 29 -3
58 -11 65 -18 10 -10 14 -91 18 -325 5 -341 7 -347 68 -404 46 -43 90 -56 187
-57 81 -1 95 2 137 27 48 28 83 67 112 122 15 29 16 27 16 -64 l0 -94 68 6
c37 4 91 7 120 7 51 0 52 0 52 30 0 29 -2 30 -43 30 -23 0 -53 7 -65 16 l-22
15 0 395 0 395 -82 -7 c-147 -12 -163 -16 -163 -44 0 -23 5 -25 52 -30 29 -3
58 -11 65 -18 10 -10 13 -77 13 -280 l0 -267 -29 -63 c-18 -38 -45 -77 -68
-97 -68 -58 -175 -68 -248 -24 -58 36 -60 50 -60 459 l0 370 -32 -1 c-18 -1
-69 -5 -113 -10z"/>
<path d="M24255 1269 c-97 -10 -105 -13 -105 -38 0 -17 9 -22 51 -27 93 -12
89 3 89 -370 0 -200 -4 -333 -10 -344 -7 -14 -26 -21 -70 -26 -55 -6 -60 -9
-60 -30 l0 -24 190 0 190 0 0 24 c0 21 -6 24 -54 30 -30 4 -60 13 -66 21 -8 9
-10 94 -8 287 l3 273 27 52 c39 73 91 120 154 139 89 26 165 -2 200 -72 17
-35 19 -67 22 -346 2 -205 0 -314 -7 -327 -9 -15 -26 -22 -71 -27 -55 -6 -60
-9 -60 -30 l0 -24 190 0 190 0 0 24 c0 21 -6 24 -54 30 -30 4 -59 13 -64 19
-6 7 -12 135 -15 312 -2 196 -8 313 -16 337 -16 50 -54 94 -105 121 -57 30
-192 31 -251 2 -49 -24 -108 -82 -134 -132 l-20 -38 -1 98 0 97 -27 -1 c-16
-1 -64 -5 -108 -10z"/>
<path d="M3279 1104 c-9 -11 -10 -20 -2 -32 9 -16 63 -17 604 -20 327 -1 604
0 617 3 24 6 29 34 10 53 -9 9 -159 12 -614 12 -537 0 -603 -2 -615 -16z"/>
<path d="M29049 1104 c-9 -11 -10 -20 -2 -32 9 -16 63 -17 604 -20 327 -1 604
0 617 3 24 6 29 34 10 53 -9 9 -159 12 -614 12 -537 0 -603 -2 -615 -16z"/>
<path d="M3279 744 c-9 -11 -10 -20 -2 -32 9 -16 63 -17 613 -20 437 -1 607 1
616 9 19 15 18 45 -2 53 -9 3 -285 6 -614 6 -533 0 -599 -2 -611 -16z"/>
<path d="M29049 744 c-9 -11 -10 -20 -2 -32 9 -16 63 -17 613 -20 437 -1 607
1 616 9 19 15 18 45 -2 53 -9 3 -285 6 -614 6 -533 0 -599 -2 -611 -16z"/>
<path d="M19736 204 c-9 -8 -16 -19 -16 -24 0 -5 7 -16 16 -24 14 -14 82 -16
598 -16 439 0 585 3 594 12 18 18 14 46 -7 58 -13 6 -217 10 -595 10 -509 0
-576 -2 -590 -16z"/>
</g>
</svg>
