<?xml version="1.0" standalone="no"?>
<!DOCTYPE svg PUBLIC "-//W3C//DTD SVG 20010904//EN"
 "http://www.w3.org/TR/2001/REC-SVG-20010904/DTD/svg10.dtd">
<svg version="1.0" xmlns="http://www.w3.org/2000/svg"
 width="468pt" height="96pt" viewBox="0 0 468 96"
 preserveAspectRatio="xMidYMid meet">
<metadata>
Created by potrace 1.8, written by Peter Selinger 2001-2007
</metadata>
<g transform="translate(0,96) scale(0.281928,-0.281928)"
fill="#000000" stroke="none">
<path d="M130 330 c-10 -6 -11 -10 -2 -10 7 0 12 -15 12 -39 0 -22 -5 -42 -12
-44 -7 -3 -4 -6 7 -6 18 -1 20 4 17 42 -5 66 -5 68 -22 57z"/>
<path d="M620 330 c-10 -6 -11 -10 -2 -10 7 0 12 -15 12 -39 0 -22 -5 -42 -12
-44 -7 -3 -4 -6 7 -6 18 -1 20 4 17 42 -5 66 -5 68 -22 57z"/>
<path d="M1151 340 c-1 -3 -3 -29 -4 -58 -2 -46 0 -52 18 -52 13 0 16 3 8 8
-6 4 -13 30 -16 57 -2 28 -4 48 -6 45z"/>
<path d="M381 188 c-1 -21 -6 -28 -23 -29 l-23 -2 23 -4 c14 -3 22 -12 23 -26
2 -22 2 -22 6 1 3 14 12 22 26 23 l22 2 -22 4 c-14 3 -23 13 -26 31 l-4 27 -2
-27z"/>
<path d="M871 188 c-1 -21 -6 -28 -23 -29 l-23 -2 23 -4 c14 -3 22 -12 23 -26
2 -22 2 -22 6 1 3 14 12 22 26 23 l22 2 -22 4 c-14 3 -23 13 -26 31 l-4 27 -2
-27z"/>
<path d="M1431 188 c-1 -21 -6 -28 -23 -29 l-23 -2 23 -4 c14 -3 22 -12 23
-26 2 -22 2 -22 6 1 3 16 12 22 31 23 l27 2 -27 4 c-20 3 -28 11 -31 31 l-4
27 -2 -27z"/>
<path d="M78 153 c40 -2 103 -2 140 0 37 2 4 3 -73 3 -77 0 -107 -2 -67 -3z"/>
<path d="M563 153 c37 -2 97 -2 135 0 37 2 6 3 -68 3 -74 0 -105 -1 -67 -3z"/>
<path d="M1062 153 c48 -2 129 -2 180 0 51 1 12 3 -87 3 -99 0 -141 -2 -93 -3z"/>
<path d="M41 120 c-1 -3 -3 -29 -4 -58 -2 -46 0 -52 18 -52 13 0 16 3 8 8 -6
4 -13 30 -16 57 -2 28 -4 48 -6 45z"/>
<path d="M215 109 c-4 -6 -4 -13 -1 -16 3 -4 6 -1 6 5 0 7 7 12 15 12 8 0 15
-7 15 -16 0 -8 4 -13 10 -9 5 3 7 12 3 20 -6 17 -39 20 -48 4z"/>
<path d="M511 85 c1 -24 3 -25 6 -7 2 12 11 22 18 22 8 0 16 3 18 8 3 4 -6 7
-19 7 -20 0 -24 -5 -23 -30z"/>
<path d="M700 108 c0 -4 14 -8 30 -8 17 0 30 2 30 4 0 2 -13 6 -30 8 -16 3
-30 1 -30 -4z"/>
<path d="M1002 108 c-13 -13 -16 -44 -4 -52 4 -2 8 7 7 22 0 18 6 28 18 30 16
3 18 -2 15 -40 -3 -38 -6 -43 -26 -42 -16 0 -20 -2 -12 -10 21 -21 45 8 45 55
0 46 -18 62 -43 37z"/>
<path d="M1200 110 c-10 -6 -11 -10 -2 -10 7 0 12 -15 12 -39 0 -22 -5 -42
-12 -44 -7 -3 1 -6 17 -6 17 0 25 3 18 7 -6 4 -13 29 -15 54 -2 39 -6 46 -18
38z"/>
<path d="M1280 110 c-10 -6 -11 -10 -2 -10 7 0 12 -15 12 -39 0 -22 -5 -42
-12 -44 -7 -3 -4 -6 7 -6 18 -1 20 4 17 42 -5 66 -5 68 -22 57z"/>
<path d="M548 51 c2 -19 -1 -31 -10 -34 -9 -3 -9 -4 2 -3 17 1 26 44 13 57 -6
6 -8 -2 -5 -20z"/>
<path d="M238 64 c17 -8 15 -44 -2 -44 -8 0 -16 3 -18 8 -3 4 -4 3 -3 -3 1 -5
13 -10 26 -10 19 0 24 5 24 25 0 17 -6 25 -20 27 -11 2 -14 0 -7 -3z"/>
<path d="M135 50 c-3 -5 -1 -10 4 -10 6 0 11 5 11 10 0 6 -2 10 -4 10 -3 0 -8
-4 -11 -10z"/>
<path d="M620 51 c0 -6 5 -11 10 -11 6 0 10 2 10 4 0 3 -4 8 -10 11 -5 3 -10
1 -10 -4z"/>
<path d="M1110 51 c0 -6 5 -11 10 -11 6 0 10 2 10 4 0 3 -4 8 -10 11 -5 3 -10
1 -10 -4z"/>
<path d="M722 30 c0 -14 2 -19 5 -12 2 6 2 18 0 25 -3 6 -5 1 -5 -13z"/>
</g>
</svg>
