<?xml version="1.0" standalone="no"?>
<!DOCTYPE svg PUBLIC "-//W3C//DTD SVG 20010904//EN"
 "http://www.w3.org/TR/2001/REC-SVG-20010904/DTD/svg10.dtd">
<svg version="1.0" xmlns="http://www.w3.org/2000/svg"
 width="468pt" height="83pt" viewBox="0 0 468 83"
 preserveAspectRatio="xMidYMid meet">
<metadata>
Created by potrace 1.8, written by Peter Selinger 2001-2007
</metadata>
<g transform="translate(0,83) scale(0.022685,-0.022685)"
fill="#000000" stroke="none">
<path d="M11315 3607 c-89 -43 -185 -166 -211 -270 -6 -26 -4 -28 15 -25 16 2
28 18 45 60 77 188 261 283 329 169 29 -49 21 -123 -38 -362 -73 -293 -105
-362 -182 -395 -39 -17 -79 -18 -122 -3 l-32 11 31 19 c50 31 65 94 30 129
-29 29 -74 25 -112 -9 -28 -25 -33 -36 -33 -76 0 -40 5 -51 32 -75 54 -49 142
-63 211 -35 43 19 74 45 113 98 l28 38 16 -35 c52 -109 198 -147 310 -82 56
33 128 114 159 179 33 67 37 102 13 102 -13 0 -25 -17 -41 -57 -62 -153 -192
-247 -286 -208 -78 32 -79 115 -4 413 60 240 76 284 119 336 48 56 103 71 178
50 l38 -10 -33 -22 c-60 -41 -61 -128 -2 -143 39 -10 75 6 102 46 62 92 -38
191 -180 178 -59 -6 -119 -46 -156 -104 -15 -24 -29 -43 -32 -43 -3 0 -14 19
-26 42 -47 96 -175 134 -279 84z"/>
<path d="M19845 3607 c-89 -43 -185 -166 -211 -270 -6 -26 -4 -28 15 -25 16 2
28 18 45 60 77 188 261 283 329 169 29 -49 21 -123 -38 -362 -73 -293 -105
-362 -182 -395 -39 -17 -79 -18 -122 -3 l-32 11 31 19 c50 31 65 94 30 129
-29 29 -74 25 -112 -9 -28 -25 -33 -36 -33 -76 0 -40 5 -51 32 -75 54 -49 142
-63 211 -35 43 19 74 45 113 98 l28 38 16 -35 c52 -109 198 -147 310 -82 56
33 128 114 159 179 33 67 37 102 13 102 -13 0 -25 -17 -41 -57 -62 -153 -192
-247 -286 -208 -78 32 -79 115 -4 413 60 240 76 284 119 336 48 56 103 71 178
50 l38 -10 -33 -22 c-60 -41 -61 -128 -2 -143 39 -10 75 6 102 46 62 92 -38
191 -180 178 -59 -6 -119 -46 -156 -104 -15 -24 -29 -43 -32 -43 -3 0 -14 19
-26 42 -47 96 -175 134 -279 84z"/>
<path d="M18770 3141 c-97 -32 -160 -103 -160 -180 0 -53 60 -80 93 -43 32 35
18 78 -27 90 l-27 7 21 28 c63 80 226 98 279 30 66 -83 36 -260 -53 -318 -13
-9 -52 -19 -87 -23 -91 -10 -91 -32 1 -32 97 0 141 -24 176 -97 24 -48 26 -62
22 -147 -3 -82 -7 -99 -32 -136 -54 -82 -150 -98 -258 -44 -39 20 -109 90 -97
97 2 1 18 9 34 17 24 13 31 23 33 53 3 32 -1 39 -23 49 -35 16 -77 0 -85 -32
-4 -14 -1 -48 6 -75 9 -39 23 -60 64 -97 63 -59 135 -83 221 -75 226 20 331
281 173 427 -41 37 -64 51 -129 74 -18 7 -17 9 12 21 50 21 120 92 139 141 38
100 1 200 -92 244 -50 25 -160 36 -204 21z"/>
<path d="M14866 2261 c-188 -298 -296 -479 -296 -495 l0 -26 255 0 255 0 0
-130 c0 -151 2 -148 -111 -157 -64 -5 -69 -8 -69 -29 l0 -24 240 0 240 0 0 24
c0 22 -5 24 -72 30 -106 10 -108 13 -108 163 l0 123 100 0 c100 0 100 0 100
25 0 25 0 25 -100 25 l-100 0 -2 467 c-3 423 -5 468 -19 471 -12 2 -97 -124
-313 -467z m221 -468 c-2 -2 -110 -2 -239 -1 l-235 3 236 377 236 377 3 -376
c1 -207 1 -378 -1 -380z"/>
<path d="M6978 2701 c-101 -33 -161 -82 -197 -161 -22 -48 -27 -110 -11 -140
15 -28 67 -43 99 -27 41 19 55 58 37 101 -14 34 -23 39 -79 48 -29 5 44 83
107 115 55 28 155 41 221 29 46 -9 110 -66 127 -114 20 -59 14 -187 -12 -257
-43 -112 -128 -175 -240 -175 -59 0 -90 -9 -90 -26 0 -11 21 -14 93 -14 100
-1 149 -14 201 -54 74 -56 118 -214 97 -353 -24 -164 -111 -253 -245 -253
-119 0 -252 69 -303 158 l-25 42 30 0 c46 0 86 39 86 83 0 93 -124 117 -160
31 -13 -31 -13 -42 1 -96 19 -74 43 -114 95 -162 167 -151 443 -137 590 30
174 198 85 492 -174 575 l-68 22 38 15 c142 56 239 188 239 328 0 61 -4 77
-30 119 -79 128 -266 187 -427 136z"/>
<path d="M1260 2697 c-14 -7 -33 -29 -44 -51 -18 -37 -18 -38 1 -64 36 -48
109 -38 139 20 19 37 18 64 -6 88 -23 23 -54 25 -90 7z"/>
<path d="M9240 2697 c-14 -7 -33 -29 -44 -51 -18 -37 -18 -38 1 -64 36 -48
109 -38 139 20 19 37 18 64 -6 88 -23 23 -54 25 -90 7z"/>
<path d="M17140 2697 c-14 -7 -33 -29 -44 -51 -18 -37 -18 -38 1 -64 36 -48
109 -38 139 20 19 37 18 64 -6 88 -23 23 -54 25 -90 7z"/>
<path d="M376 2263 c-97 -29 -167 -96 -201 -192 -20 -58 -19 -107 4 -158 26
-57 79 -89 187 -114 112 -26 152 -45 181 -88 29 -43 29 -83 -1 -146 -47 -100
-123 -140 -266 -140 -108 1 -156 19 -205 77 l-28 33 37 6 c47 8 75 35 82 81
11 67 -62 103 -118 58 -35 -27 -51 -72 -46 -125 7 -61 45 -107 115 -142 53
-26 67 -28 168 -28 91 1 120 5 170 25 163 64 263 270 192 394 -38 66 -82 94
-197 122 -57 14 -117 32 -132 40 -29 15 -58 61 -58 92 0 39 49 117 91 144 90
58 233 47 299 -24 26 -28 26 -48 0 -48 -28 0 -70 -44 -70 -73 0 -13 8 -31 18
-40 59 -54 141 36 118 128 -12 46 -73 103 -129 120 -63 19 -147 18 -211 -2z"/>
<path d="M1052 2259 c-52 -26 -113 -103 -146 -185 -33 -81 -36 -109 -12 -109
14 0 24 13 36 50 36 105 88 183 141 210 69 36 117 1 104 -77 -4 -24 -50 -158
-103 -298 -80 -212 -97 -265 -97 -312 0 -60 17 -94 66 -131 33 -24 98 -32 142
-18 54 18 115 84 153 165 43 90 54 146 30 146 -9 0 -20 -10 -25 -22 -46 -118
-67 -162 -96 -196 -58 -67 -126 -81 -154 -31 -21 37 -3 103 105 384 115 298
117 347 22 418 -40 30 -114 33 -166 6z"/>
<path d="M1694 2270 c-34 -13 -81 -75 -104 -137 -32 -86 -49 -157 -40 -167 19
-19 38 6 54 69 26 104 62 172 103 193 34 19 61 14 79 -13 26 -40 14 -120 -71
-463 -47 -192 -75 -323 -71 -337 8 -32 50 -43 85 -24 24 13 33 40 101 309 82
321 97 357 182 443 107 107 261 129 302 42 34 -71 14 -197 -70 -436 -68 -197
-70 -209 -50 -263 40 -103 153 -137 247 -73 61 41 139 174 150 257 3 19 0 25
-15 25 -14 0 -24 -14 -38 -55 -47 -138 -118 -220 -191 -220 -66 0 -64 70 9
282 111 328 119 426 43 513 -92 105 -314 76 -432 -55 l-45 -49 -12 43 c-26 93
-132 150 -216 116z"/>
<path d="M3325 2257 c-89 -43 -185 -166 -211 -270 -6 -26 -4 -28 15 -25 16 2
28 18 45 60 77 188 261 283 329 169 29 -49 21 -123 -38 -362 -73 -293 -105
-362 -182 -395 -39 -17 -79 -18 -122 -3 l-32 11 31 19 c50 31 65 94 30 129
-29 29 -74 25 -112 -9 -28 -25 -33 -36 -33 -76 0 -40 5 -51 32 -75 54 -49 142
-63 211 -35 43 19 74 45 113 98 l28 38 16 -35 c52 -109 198 -147 310 -82 56
33 128 114 159 179 33 67 37 102 13 102 -13 0 -25 -17 -41 -57 -62 -153 -192
-247 -286 -208 -78 32 -79 115 -4 413 60 240 76 284 119 336 48 56 103 71 178
50 l38 -10 -33 -22 c-60 -41 -61 -128 -2 -143 39 -10 75 6 102 46 62 92 -38
191 -180 178 -59 -6 -119 -46 -156 -104 -15 -24 -29 -43 -32 -43 -3 0 -14 19
-26 42 -47 96 -175 134 -279 84z"/>
<path d="M8356 2263 c-97 -29 -167 -96 -201 -192 -20 -58 -19 -107 4 -158 26
-57 79 -89 187 -114 112 -26 152 -45 181 -88 29 -43 29 -83 -1 -146 -47 -100
-123 -140 -266 -140 -108 1 -156 19 -205 77 l-28 33 37 6 c47 8 75 35 82 81
11 67 -62 103 -118 58 -35 -27 -51 -72 -46 -125 7 -61 45 -107 115 -142 53
-26 67 -28 168 -28 91 1 120 5 170 25 163 64 263 270 192 394 -38 66 -82 94
-197 122 -57 14 -117 32 -132 40 -29 15 -58 61 -58 92 0 39 49 117 91 144 90
58 233 47 299 -24 26 -28 26 -48 0 -48 -28 0 -70 -44 -70 -73 0 -13 8 -31 18
-40 59 -54 141 36 118 128 -12 46 -73 103 -129 120 -63 19 -147 18 -211 -2z"/>
<path d="M9032 2259 c-52 -26 -113 -103 -146 -185 -33 -81 -36 -109 -12 -109
14 0 24 13 36 50 36 105 88 183 141 210 69 36 117 1 104 -77 -4 -24 -50 -158
-103 -298 -80 -212 -97 -265 -97 -312 0 -60 17 -94 66 -131 33 -24 98 -32 142
-18 54 18 115 84 153 165 43 90 54 146 30 146 -9 0 -20 -10 -25 -22 -46 -118
-67 -162 -96 -196 -58 -67 -126 -81 -154 -31 -21 37 -3 103 105 384 115 298
117 347 22 418 -40 30 -114 33 -166 6z"/>
<path d="M9674 2270 c-34 -13 -81 -75 -104 -137 -32 -86 -49 -157 -40 -167 19
-19 38 6 54 69 26 104 62 172 103 193 34 19 61 14 79 -13 26 -40 14 -120 -71
-463 -47 -192 -75 -323 -71 -337 8 -32 50 -43 85 -24 24 13 33 40 101 309 82
321 97 357 182 443 107 107 261 129 302 42 34 -71 14 -197 -70 -436 -68 -197
-70 -209 -50 -263 40 -103 153 -137 247 -73 61 41 139 174 150 257 3 19 0 25
-15 25 -14 0 -24 -14 -38 -55 -47 -138 -118 -220 -191 -220 -66 0 -64 70 9
282 111 328 119 426 43 513 -92 105 -314 76 -432 -55 l-45 -49 -12 43 c-26 93
-132 150 -216 116z"/>
<path d="M16256 2263 c-97 -29 -167 -96 -201 -192 -20 -58 -19 -107 4 -158 26
-57 79 -89 187 -114 112 -26 152 -45 181 -88 29 -43 29 -83 -1 -146 -47 -100
-123 -140 -266 -140 -108 1 -156 19 -205 77 l-28 33 37 6 c47 8 75 35 82 81
11 67 -62 103 -118 58 -35 -27 -51 -72 -46 -125 7 -61 45 -107 115 -142 53
-26 67 -28 168 -28 91 1 120 5 170 25 163 64 263 270 192 394 -38 66 -82 94
-197 122 -57 14 -117 32 -132 40 -29 15 -58 61 -58 92 0 39 49 117 91 144 90
58 233 47 299 -24 26 -28 26 -48 0 -48 -28 0 -70 -44 -70 -73 0 -13 8 -31 18
-40 59 -54 141 36 118 128 -12 46 -73 103 -129 120 -63 19 -147 18 -211 -2z"/>
<path d="M16932 2259 c-52 -26 -113 -103 -146 -185 -33 -81 -36 -109 -12 -109
14 0 24 13 36 50 36 105 88 183 141 210 69 36 117 1 104 -77 -4 -24 -50 -158
-103 -298 -80 -212 -97 -265 -97 -312 0 -60 17 -94 66 -131 33 -24 98 -32 142
-18 54 18 115 84 153 165 43 90 54 146 30 146 -9 0 -20 -10 -25 -22 -46 -118
-67 -162 -96 -196 -58 -67 -126 -81 -154 -31 -21 37 -3 103 105 384 115 298
117 347 22 418 -40 30 -114 33 -166 6z"/>
<path d="M17564 2270 c-34 -13 -81 -75 -104 -137 -32 -86 -49 -157 -40 -167
19 -19 38 6 54 69 26 104 62 172 103 193 34 19 61 14 79 -13 26 -40 14 -120
-71 -463 -47 -192 -75 -323 -71 -337 8 -32 50 -43 85 -24 24 13 33 40 101 309
82 321 97 357 182 443 107 107 261 129 302 42 34 -71 14 -197 -70 -436 -68
-197 -70 -209 -50 -263 40 -103 153 -137 247 -73 61 41 139 174 150 257 3 19
0 25 -15 25 -14 0 -24 -14 -38 -55 -47 -138 -118 -220 -191 -220 -66 0 -64 70
9 282 111 328 119 426 43 513 -92 105 -314 76 -432 -55 l-45 -49 -12 43 c-26
93 -132 150 -216 116z"/>
<path d="M4749 2094 c-9 -11 -10 -20 -2 -32 9 -16 63 -17 604 -20 327 -1 604
0 617 3 24 6 29 34 10 53 -9 9 -159 12 -614 12 -537 0 -603 -2 -615 -16z"/>
<path d="M10972 1903 l3 -38 555 0 555 0 3 38 3 37 -561 0 -561 0 3 -37z"/>
<path d="M12716 1924 c-9 -8 -16 -19 -16 -24 0 -5 7 -16 16 -24 14 -14 79 -16
601 -14 545 3 587 4 597 21 8 12 8 22 0 35 -10 16 -52 17 -597 20 -522 2 -587
0 -601 -14z"/>
<path d="M19512 1903 l3 -38 555 0 555 0 3 38 3 37 -561 0 -561 0 3 -37z"/>
<path d="M4749 1734 c-9 -11 -10 -20 -2 -32 9 -16 63 -17 613 -20 437 -1 607
1 616 9 19 15 18 45 -2 53 -9 3 -285 6 -614 6 -533 0 -599 -2 -611 -16z"/>
<path d="M11408 1341 c-101 -33 -161 -82 -197 -161 -22 -48 -27 -110 -11 -140
15 -28 67 -43 99 -27 41 19 55 58 37 101 -14 34 -23 39 -79 48 -29 5 44 83
107 115 55 28 155 41 221 29 46 -9 110 -66 127 -114 20 -59 14 -187 -12 -257
-43 -112 -128 -175 -240 -175 -59 0 -90 -9 -90 -26 0 -11 21 -14 93 -14 100
-1 149 -14 201 -54 74 -56 118 -214 97 -353 -24 -164 -111 -253 -245 -253
-119 0 -252 69 -303 158 l-25 42 30 0 c46 0 86 39 86 83 0 93 -124 117 -160
31 -13 -31 -13 -42 1 -96 19 -74 43 -114 95 -162 167 -151 443 -137 590 30
174 198 85 492 -174 575 l-68 22 38 15 c142 56 239 188 239 328 0 61 -4 77
-30 119 -79 128 -266 187 -427 136z"/>
<path d="M19948 1341 c-101 -33 -161 -82 -197 -161 -22 -48 -27 -110 -11 -140
15 -28 67 -43 99 -27 41 19 55 58 37 101 -14 34 -23 39 -79 48 -29 5 44 83
107 115 55 28 155 41 221 29 46 -9 110 -66 127 -114 20 -59 14 -187 -12 -257
-43 -112 -128 -175 -240 -175 -59 0 -90 -9 -90 -26 0 -11 21 -14 93 -14 100
-1 149 -14 201 -54 74 -56 118 -214 97 -353 -24 -164 -111 -253 -245 -253
-119 0 -252 69 -303 158 l-25 42 30 0 c46 0 86 39 86 83 0 93 -124 117 -160
31 -13 -31 -13 -42 1 -96 19 -74 43 -114 95 -162 167 -151 443 -137 590 30
174 198 85 492 -174 575 l-68 22 38 15 c142 56 239 188 239 328 0 61 -4 77
-30 119 -79 128 -266 187 -427 136z"/>
</g>
</svg>
