<?xml version="1.0" standalone="no"?>
<!DOCTYPE svg PUBLIC "-//W3C//DTD SVG 20010904//EN"
 "http://www.w3.org/TR/2001/REC-SVG-20010904/DTD/svg10.dtd">
<svg version="1.0" xmlns="http://www.w3.org/2000/svg"
 width="468pt" height="44pt" viewBox="0 0 468 44"
 preserveAspectRatio="xMidYMid meet">
<metadata>
Created by potrace 1.8, written by Peter Selinger 2001-2007
</metadata>
<g transform="translate(0,44) scale(0.125469,-0.125469)"
fill="#000000" stroke="none">
<path d="M34 323 c-1 -10 -4 -36 -7 -58 -6 -35 -5 -34 8 10 17 58 18 65 7 65
-4 0 -8 -8 -8 -17z"/>
<path d="M66 269 c-8 -42 0 -50 9 -9 4 17 5 34 2 36 -2 3 -7 -10 -11 -27z"/>
<path d="M120 160 c0 -44 3 -80 8 -80 4 0 7 36 7 80 0 44 -3 80 -7 80 -5 0 -8
-36 -8 -80z"/>
<path d="M3715 160 c0 -44 3 -80 8 -80 4 0 7 36 7 80 0 44 -3 80 -7 80 -5 0
-8 -36 -8 -80z"/>
<path d="M521 208 c-7 -11 -8 -17 -2 -13 7 4 11 -4 11 -19 0 -20 -5 -26 -22
-27 -18 -1 -19 -2 -5 -6 9 -2 15 -9 12 -14 -4 -5 2 -9 13 -9 16 0 18 6 14 53
-2 28 -5 53 -6 54 -1 1 -8 -7 -15 -19z"/>
<path d="M904 215 c-4 -9 -4 -19 0 -22 3 -4 6 1 6 10 0 18 25 23 35 7 3 -5 0
-20 -6 -32 -11 -21 -11 -22 5 -9 23 20 17 55 -12 59 -13 2 -25 -3 -28 -13z"/>
<path d="M1339 219 c-1 -8 0 -26 1 -41 1 -20 -4 -27 -22 -31 l-23 -4 23 -2
c13 0 20 -5 17 -11 -3 -5 0 -10 8 -10 10 0 13 12 9 53 -4 51 -11 75 -13 46z"/>
<path d="M1748 223 c9 -3 12 -14 9 -30 -3 -16 -1 -21 5 -15 14 14 6 47 -12 48
-11 1 -11 0 -2 -3z"/>
<path d="M2478 223 c9 -3 12 -14 9 -30 -3 -16 -1 -21 5 -15 14 14 6 47 -12 48
-11 1 -11 0 -2 -3z"/>
<path d="M3040 192 c0 -36 -3 -42 -22 -43 l-23 -2 23 -4 c12 -2 20 -9 17 -14
-4 -5 0 -9 8 -9 10 0 13 12 9 53 -5 64 -12 75 -12 19z"/>
<path d="M1711 206 c-1 -11 2 -17 5 -13 3 3 4 12 1 19 -3 8 -6 5 -6 -6z"/>
<path d="M2441 206 c-1 -11 2 -17 5 -13 3 3 4 12 1 19 -3 8 -6 5 -6 -6z"/>
<path d="M381 188 c-1 -21 -6 -28 -23 -29 l-23 -2 23 -4 c14 -3 22 -12 23 -26
2 -22 2 -22 6 1 3 14 12 22 26 23 l22 2 -22 4 c-14 3 -23 13 -26 31 l-4 27 -2
-27z"/>
<path d="M791 188 c-1 -21 -6 -28 -23 -29 l-23 -2 23 -4 c14 -3 22 -12 23 -26
2 -22 2 -22 6 1 3 14 12 22 26 23 l22 2 -22 4 c-14 3 -23 13 -26 31 l-4 27 -2
-27z"/>
<path d="M1191 188 c-1 -21 -6 -28 -23 -29 l-23 -2 23 -4 c14 -3 22 -12 23
-26 2 -22 2 -22 6 1 3 16 12 22 31 23 l27 2 -27 4 c-20 3 -28 11 -31 31 l-4
27 -2 -27z"/>
<path d="M1601 188 c-1 -21 -6 -28 -23 -29 l-23 -2 23 -4 c14 -3 22 -12 23
-26 2 -22 2 -22 6 1 3 14 12 22 26 23 l22 2 -22 4 c-14 3 -23 13 -26 31 l-4
27 -2 -27z"/>
<path d="M2011 188 c-1 -21 -6 -28 -23 -29 l-23 -2 23 -4 c14 -3 22 -12 23
-26 2 -22 2 -22 6 1 3 14 12 22 26 23 l22 2 -22 4 c-14 3 -23 13 -26 31 l-4
27 -2 -27z"/>
<path d="M2331 188 c-1 -21 -6 -28 -23 -29 l-23 -2 23 -4 c14 -3 22 -12 23
-26 2 -22 2 -22 6 1 3 14 12 22 26 23 l22 2 -22 4 c-14 3 -23 13 -26 31 l-4
27 -2 -27z"/>
<path d="M2891 188 c-1 -21 -6 -28 -23 -29 l-23 -2 23 -4 c14 -3 22 -12 23
-26 2 -22 2 -22 6 1 3 14 12 22 26 23 l22 2 -22 4 c-14 3 -23 13 -26 31 l-4
27 -2 -27z"/>
<path d="M3451 188 c-1 -21 -6 -28 -23 -29 l-23 -2 23 -4 c14 -3 22 -12 23
-26 2 -22 2 -22 6 1 3 16 12 22 31 23 l27 2 -27 4 c-20 3 -28 11 -31 31 l-4
27 -2 -27z"/>
<path d="M175 160 c-4 -17 -5 -34 -2 -36 2 -3 7 10 11 27 8 42 0 50 -9 9z"/>
<path d="M211 154 c-6 -21 -9 -40 -6 -42 2 -2 8 13 14 34 6 21 9 40 6 42 -2 2
-8 -13 -14 -34z"/>
<path d="M585 160 c-4 -17 -5 -34 -2 -36 2 -3 7 10 11 27 8 42 0 50 -9 9z"/>
<path d="M626 178 c-3 -7 -9 -29 -15 -48 -7 -19 -7 -30 -2 -25 10 11 32 85 25
85 -3 0 -6 -6 -8 -12z"/>
<path d="M986 164 c-4 -14 -5 -28 -3 -31 3 -2 8 8 11 23 4 14 5 28 3 31 -3 2
-8 -8 -11 -23z"/>
<path d="M1021 149 c-7 -22 -10 -43 -7 -46 2 -3 10 14 16 37 15 55 7 63 -9 9z"/>
<path d="M1395 160 c-4 -17 -5 -34 -2 -36 2 -3 7 10 11 27 8 42 0 50 -9 9z"/>
<path d="M1431 154 c-6 -21 -9 -40 -6 -42 2 -2 8 13 14 34 6 21 9 40 6 42 -2
2 -8 -13 -14 -34z"/>
<path d="M1805 160 c-4 -17 -5 -34 -2 -36 2 -3 7 10 11 27 8 42 0 50 -9 9z"/>
<path d="M1846 178 c-3 -7 -9 -29 -15 -48 -7 -19 -7 -30 -2 -25 10 11 32 85
25 85 -3 0 -6 -6 -8 -12z"/>
<path d="M2535 160 c-4 -17 -5 -34 -2 -36 2 -3 7 10 11 27 8 42 0 50 -9 9z"/>
<path d="M2576 178 c-3 -7 -9 -29 -15 -48 -7 -19 -7 -30 -2 -25 10 11 32 85
25 85 -3 0 -6 -6 -8 -12z"/>
<path d="M3095 160 c-4 -17 -5 -34 -2 -36 2 -3 7 10 11 27 8 42 0 50 -9 9z"/>
<path d="M3136 178 c-3 -7 -9 -29 -15 -48 -7 -19 -7 -30 -2 -25 10 11 32 85
25 85 -3 0 -6 -6 -8 -12z"/>
<path d="M3576 164 c-4 -14 -5 -28 -3 -31 3 -2 8 8 11 23 4 14 5 28 3 31 -3 2
-8 -8 -11 -23z"/>
<path d="M3611 149 c-7 -22 -10 -43 -7 -46 2 -3 10 14 16 37 15 55 7 63 -9 9z"/>
<path d="M28 163 c12 -2 32 -2 45 0 12 2 2 4 -23 4 -25 0 -35 -2 -22 -4z"/>
<path d="M663 135 c-1 -22 1 -32 4 -23 2 10 2 28 0 40 -2 13 -4 5 -4 -17z"/>
<path d="M1074 150 c0 -13 4 -16 10 -10 7 7 7 13 0 20 -6 6 -10 3 -10 -10z"/>
<path d="M1893 135 c-1 -22 1 -32 4 -23 2 10 2 28 0 40 -2 13 -4 5 -4 -17z"/>
<path d="M2774 150 c0 -13 4 -16 10 -10 7 7 7 13 0 20 -6 6 -10 3 -10 -10z"/>
<path d="M3323 135 c-1 -22 1 -32 4 -23 2 10 2 28 0 40 -2 13 -4 5 -4 -17z"/>
<path d="M1489 158 c-5 -9 -4 -56 1 -52 5 6 8 54 3 54 -2 0 -4 -1 -4 -2z"/>
<path d="M231 136 c-1 -11 2 -17 5 -13 3 3 4 12 1 19 -3 8 -6 5 -6 -6z"/>
<path d="M271 136 c-1 -11 2 -17 5 -13 3 3 4 12 1 19 -3 8 -6 5 -6 -6z"/>
<path d="M2601 136 c-1 -11 2 -17 5 -13 3 3 4 12 1 19 -3 8 -6 5 -6 -6z"/>
<path d="M2631 143 c-1 -6 -4 -20 -7 -30 -5 -17 -5 -17 6 0 6 10 9 23 6 30 -3
9 -5 9 -5 0z"/>
<path d="M3162 130 c0 -14 2 -19 5 -12 2 6 2 18 0 25 -3 6 -5 1 -5 -13z"/>
<path d="M3192 125 c0 -16 2 -24 5 -18 2 7 2 21 0 30 -3 10 -5 5 -5 -12z"/>
<path d="M3642 124 c-1 -13 0 -24 2 -24 7 0 14 40 7 44 -4 3 -8 -6 -9 -20z"/>
<path d="M1713 128 c-2 -5 10 -8 26 -8 17 0 31 3 31 8 0 4 -12 7 -26 7 -14 0
-28 -3 -31 -7z"/>
<path d="M2443 128 c-2 -5 10 -8 26 -8 17 0 31 3 31 8 0 4 -12 7 -26 7 -14 0
-28 -3 -31 -7z"/>
<path d="M913 123 c9 -2 25 -2 35 0 9 3 1 5 -18 5 -19 0 -27 -2 -17 -5z"/>
<path d="M2683 123 c9 -2 25 -2 35 0 9 3 1 5 -18 5 -19 0 -27 -2 -17 -5z"/>
<path d="M3243 123 c9 -2 25 -2 35 0 9 3 1 5 -18 5 -19 0 -27 -2 -17 -5z"/>
<path d="M59 114 c15 -8 14 -20 -5 -38 -14 -15 -14 -16 0 -16 9 0 16 -8 16
-20 0 -20 -33 -29 -43 -12 -2 4 -3 3 -2 -3 1 -5 11 -11 23 -13 21 -3 48 29 34
43 -4 4 -7 18 -7 32 0 15 -6 27 -13 29 -8 2 -9 1 -3 -2z"/>
<path d="M1058 103 c6 -2 18 -2 25 0 6 3 1 5 -13 5 -14 0 -19 -2 -12 -5z"/>
<path d="M2758 103 c6 -2 18 -2 25 0 6 3 1 5 -13 5 -14 0 -19 -2 -12 -5z"/>
</g>
</svg>
