<?xml version="1.0" standalone="no"?>
<!DOCTYPE svg PUBLIC "-//W3C//DTD SVG 20010904//EN"
 "http://www.w3.org/TR/2001/REC-SVG-20010904/DTD/svg10.dtd">
<svg version="1.0" xmlns="http://www.w3.org/2000/svg"
 width="468pt" height="40pt" viewBox="0 0 468 40"
 preserveAspectRatio="xMidYMid meet">
<metadata>
Created by potrace 1.8, written by Peter Selinger 2001-2007
</metadata>
<g transform="translate(0,40) scale(0.007909,-0.007909)"
fill="#000000" stroke="none">
<path d="M2068 5031 c-62 -7 -73 -13 -65 -36 4 -10 20 -15 46 -15 22 0 42 -4
46 -9 3 -5 -31 -155 -76 -333 -89 -355 -93 -393 -49 -483 61 -127 215 -124
340 6 159 166 174 437 27 508 -24 12 -57 21 -73 21 -37 0 -103 -31 -128 -59
-11 -11 -22 -21 -26 -21 -4 0 16 94 45 210 29 115 50 212 47 215 -6 6 -53 5
-134 -4z m247 -395 c13 -13 27 -41 31 -62 15 -82 -41 -304 -99 -390 -61 -91
-143 -121 -191 -69 -45 49 -47 117 -6 285 35 143 60 188 127 231 58 36 105 38
138 5z"/>
<path d="M7020 2400 l0 -2390 260 0 260 0 0 55 0 55 -205 0 -205 0 0 2280 0
2280 205 0 205 0 0 55 0 55 -260 0 -260 0 0 -2390z"/>
<path d="M10291 4691 c-331 -330 -556 -746 -690 -1276 -163 -648 -154 -1472
23 -2115 132 -482 382 -925 681 -1208 74 -70 91 -82 121 -82 47 0 45 25 -7 75
-251 243 -490 668 -613 1093 -185 637 -206 1553 -50 2242 116 518 331 943 643
1273 38 40 66 78 64 85 -3 6 -20 12 -38 12 -29 0 -47 -13 -134 -99z"/>
<path d="M16105 4779 c-7 -11 0 -20 103 -132 344 -373 573 -915 661 -1564 55
-401 57 -915 5 -1333 -82 -669 -322 -1233 -689 -1619 -48 -51 -85 -97 -82
-104 2 -7 19 -13 38 -15 33 -3 42 5 145 110 61 62 138 148 172 191 407 513
622 1235 622 2085 0 721 -156 1356 -454 1846 -98 160 -196 286 -330 424 -105
107 -123 122 -152 122 -18 0 -36 -5 -39 -11z"/>
<path d="M22541 4691 c-331 -330 -556 -746 -690 -1276 -163 -648 -154 -1472
23 -2115 132 -482 382 -925 681 -1208 74 -70 91 -82 121 -82 47 0 45 25 -7 75
-251 243 -490 668 -613 1093 -185 637 -206 1553 -50 2242 116 518 331 943 643
1273 38 40 66 78 64 85 -3 6 -20 12 -38 12 -29 0 -47 -13 -134 -99z"/>
<path d="M32795 4779 c-7 -11 0 -20 103 -132 344 -373 573 -915 661 -1564 55
-401 57 -915 5 -1333 -82 -669 -322 -1233 -689 -1619 -48 -51 -85 -97 -82
-104 2 -7 19 -13 38 -15 33 -3 42 5 145 110 61 62 138 148 172 191 407 513
622 1235 622 2085 0 721 -156 1356 -454 1846 -98 160 -196 286 -330 424 -105
107 -123 122 -152 122 -18 0 -36 -5 -39 -11z"/>
<path d="M39241 4691 c-331 -330 -556 -746 -690 -1276 -163 -648 -154 -1472
23 -2115 132 -482 382 -925 681 -1208 74 -70 91 -82 121 -82 47 0 45 25 -7 75
-251 243 -490 668 -613 1093 -185 637 -206 1553 -50 2242 116 518 331 943 643
1273 38 40 66 78 64 85 -3 6 -20 12 -38 12 -29 0 -47 -13 -134 -99z"/>
<path d="M50405 4779 c-7 -11 0 -20 103 -132 344 -373 573 -915 661 -1564 55
-401 57 -915 5 -1333 -82 -669 -322 -1233 -689 -1619 -48 -51 -85 -97 -82
-104 2 -7 19 -13 38 -15 33 -3 42 5 145 110 61 62 138 148 172 191 407 513
622 1235 622 2085 0 721 -156 1356 -454 1846 -98 160 -196 286 -330 424 -105
107 -123 122 -152 122 -18 0 -36 -5 -39 -11z"/>
<path d="M55770 4735 l0 -55 205 0 205 0 0 -2280 0 -2280 -205 0 -205 0 0 -55
0 -55 260 0 260 0 0 2390 0 2390 -260 0 -260 0 0 -55z"/>
<path d="M14725 4618 c-92 -9 -123 -24 -112 -52 5 -11 20 -16 49 -16 67 0 88
-9 88 -36 0 -13 -28 -134 -61 -269 l-61 -245 -28 44 c-82 128 -270 107 -425
-49 -242 -242 -261 -647 -34 -745 96 -41 197 -15 296 77 l51 48 21 -45 c29
-65 78 -95 154 -95 58 0 60 1 102 47 32 36 49 67 69 130 34 109 36 133 12 133
-14 0 -23 -17 -42 -83 -13 -46 -31 -97 -40 -114 -38 -73 -107 -101 -138 -56
-33 46 -20 112 134 724 83 327 148 599 145 604 -7 12 -54 11 -180 -2z m-207
-548 c36 -22 67 -68 82 -119 8 -29 0 -71 -46 -255 -30 -122 -62 -235 -71 -253
-20 -43 -113 -130 -165 -153 -67 -30 -114 -26 -153 13 -73 73 -71 207 6 462
47 155 107 246 193 295 60 35 108 38 154 10z"/>
<path d="M31415 4618 c-92 -9 -123 -24 -112 -52 5 -11 20 -16 49 -16 67 0 88
-9 88 -36 0 -13 -28 -134 -61 -269 l-61 -245 -28 44 c-82 128 -270 107 -425
-49 -242 -242 -261 -647 -34 -745 96 -41 197 -15 296 77 l51 48 21 -45 c29
-65 78 -95 154 -95 58 0 60 1 102 47 32 36 49 67 69 130 34 109 36 133 12 133
-14 0 -23 -17 -42 -83 -13 -46 -31 -97 -40 -114 -38 -73 -107 -101 -138 -56
-33 46 -20 112 134 724 83 327 148 599 145 604 -7 12 -54 11 -180 -2z m-207
-548 c36 -22 67 -68 82 -119 8 -29 0 -71 -46 -255 -30 -122 -62 -235 -71 -253
-20 -43 -113 -130 -165 -153 -67 -30 -114 -26 -153 13 -73 73 -71 207 6 462
47 155 107 246 193 295 60 35 108 38 154 10z"/>
<path d="M49025 4618 c-92 -9 -123 -24 -112 -52 5 -11 20 -16 49 -16 67 0 88
-9 88 -36 0 -13 -28 -134 -61 -269 l-61 -245 -28 44 c-82 128 -270 107 -425
-49 -242 -242 -261 -647 -34 -745 96 -41 197 -15 296 77 l51 48 21 -45 c29
-65 78 -95 154 -95 58 0 60 1 102 47 32 36 49 67 69 130 34 109 36 133 12 133
-14 0 -23 -17 -42 -83 -13 -46 -31 -97 -40 -114 -38 -73 -107 -101 -138 -56
-33 46 -20 112 134 724 83 327 148 599 145 604 -7 12 -54 11 -180 -2z m-207
-548 c36 -22 67 -68 82 -119 8 -29 0 -71 -46 -255 -30 -122 -62 -235 -71 -253
-20 -43 -113 -130 -165 -153 -67 -30 -114 -26 -153 13 -73 73 -71 207 6 462
47 155 107 246 193 295 60 35 108 38 154 10z"/>
<path d="M1479 4590 c-123 -66 -220 -287 -348 -791 -160 -633 -312 -1352 -437
-2074 -146 -846 -210 -1131 -294 -1312 -66 -141 -110 -183 -190 -183 -45 0
-104 25 -95 40 4 6 12 10 20 10 25 0 55 51 55 92 0 115 -165 134 -186 22 -22
-116 100 -224 240 -212 183 16 307 200 432 639 154 545 340 1417 509 2384 151
864 244 1240 328 1333 25 27 74 29 124 5 l35 -16 -30 -13 c-67 -28 -83 -105
-33 -155 22 -21 39 -29 66 -29 52 0 95 44 95 97 -1 90 -89 171 -197 179 -45 3
-66 0 -94 -16z"/>
<path d="M15245 4107 c-89 -43 -185 -166 -211 -270 -6 -26 -4 -28 15 -25 16 2
28 18 45 60 77 188 261 283 329 169 29 -49 21 -123 -38 -362 -73 -293 -105
-362 -182 -395 -39 -17 -79 -18 -122 -3 l-32 11 31 19 c50 31 65 94 30 129
-29 29 -74 25 -112 -9 -28 -25 -33 -36 -33 -76 0 -40 5 -51 32 -75 54 -49 142
-63 211 -35 43 19 74 45 113 98 l28 38 16 -35 c52 -109 198 -147 310 -82 56
33 128 114 159 179 33 67 37 102 13 102 -13 0 -25 -17 -41 -57 -62 -153 -192
-247 -286 -208 -78 32 -79 115 -4 413 60 240 76 284 119 336 48 56 103 71 178
50 l38 -10 -33 -22 c-60 -41 -61 -128 -2 -143 39 -10 75 6 102 46 62 92 -38
191 -180 178 -59 -6 -119 -46 -156 -104 -15 -24 -29 -43 -32 -43 -3 0 -14 19
-26 42 -47 96 -175 134 -279 84z"/>
<path d="M31935 4107 c-89 -43 -185 -166 -211 -270 -6 -26 -4 -28 15 -25 16 2
28 18 45 60 77 188 261 283 329 169 29 -49 21 -123 -38 -362 -73 -293 -105
-362 -182 -395 -39 -17 -79 -18 -122 -3 l-32 11 31 19 c50 31 65 94 30 129
-29 29 -74 25 -112 -9 -28 -25 -33 -36 -33 -76 0 -40 5 -51 32 -75 54 -49 142
-63 211 -35 43 19 74 45 113 98 l28 38 16 -35 c52 -109 198 -147 310 -82 56
33 128 114 159 179 33 67 37 102 13 102 -13 0 -25 -17 -41 -57 -62 -153 -192
-247 -286 -208 -78 32 -79 115 -4 413 60 240 76 284 119 336 48 56 103 71 178
50 l38 -10 -33 -22 c-60 -41 -61 -128 -2 -143 39 -10 75 6 102 46 62 92 -38
191 -180 178 -59 -6 -119 -46 -156 -104 -15 -24 -29 -43 -32 -43 -3 0 -14 19
-26 42 -47 96 -175 134 -279 84z"/>
<path d="M49545 4107 c-89 -43 -185 -166 -211 -270 -6 -26 -4 -28 15 -25 16 2
28 18 45 60 77 188 261 283 329 169 29 -49 21 -123 -38 -362 -73 -293 -105
-362 -182 -395 -39 -17 -79 -18 -122 -3 l-32 11 31 19 c50 31 65 94 30 129
-29 29 -74 25 -112 -9 -28 -25 -33 -36 -33 -76 0 -40 5 -51 32 -75 54 -49 142
-63 211 -35 43 19 74 45 113 98 l28 38 16 -35 c52 -109 198 -147 310 -82 56
33 128 114 159 179 33 67 37 102 13 102 -13 0 -25 -17 -41 -57 -62 -153 -192
-247 -286 -208 -78 32 -79 115 -4 413 60 240 76 284 119 336 48 56 103 71 178
50 l38 -10 -33 -22 c-60 -41 -61 -128 -2 -143 39 -10 75 6 102 46 62 92 -38
191 -180 178 -59 -6 -119 -46 -156 -104 -15 -24 -29 -43 -32 -43 -3 0 -14 19
-26 42 -47 96 -175 134 -279 84z"/>
<path d="M3640 3284 c-48 -21 -107 -80 -135 -135 -27 -53 -54 -150 -80 -291
l-19 -97 -90 -3 c-90 -3 -91 -3 -91 -28 0 -24 2 -25 83 -28 53 -2 82 -7 82
-14 0 -6 -30 -169 -66 -362 -122 -653 -140 -724 -195 -771 -36 -29 -76 -32
-125 -9 l-35 17 38 17 c60 27 81 92 43 130 -48 48 -137 2 -146 -75 -15 -117
151 -187 264 -112 83 54 159 211 208 428 19 86 108 542 138 712 l7 37 104 0
c89 0 106 3 113 18 19 36 5 42 -105 42 -95 0 -104 2 -99 18 3 9 17 78 31 152
49 253 53 266 91 300 38 33 78 38 129 16 l30 -14 -26 -10 c-15 -6 -36 -23 -48
-38 -65 -82 32 -156 111 -85 28 25 33 36 33 74 0 53 -21 81 -80 108 -48 22
-118 24 -165 3z"/>
<path d="M8410 3284 c-48 -21 -107 -80 -135 -135 -27 -53 -54 -150 -80 -291
l-19 -97 -90 -3 c-90 -3 -91 -3 -91 -28 0 -24 2 -25 83 -28 53 -2 82 -7 82
-14 0 -6 -30 -169 -66 -362 -122 -653 -140 -724 -195 -771 -36 -29 -76 -32
-125 -9 l-35 17 38 17 c60 27 81 92 43 130 -48 48 -137 2 -146 -75 -15 -117
151 -187 264 -112 83 54 159 211 208 428 19 86 108 542 138 712 l7 37 104 0
c89 0 106 3 113 18 19 36 5 42 -105 42 -95 0 -104 2 -99 18 3 9 17 78 31 152
49 253 53 266 91 300 38 33 78 38 129 16 l30 -14 -26 -10 c-15 -6 -36 -23 -48
-38 -65 -82 32 -156 111 -85 28 25 33 36 33 74 0 53 -21 81 -80 108 -48 22
-118 24 -165 3z"/>
<path d="M20660 3284 c-48 -21 -107 -80 -135 -135 -27 -53 -54 -150 -80 -291
l-19 -97 -90 -3 c-90 -3 -91 -3 -91 -28 0 -24 2 -25 83 -28 53 -2 82 -7 82
-14 0 -6 -30 -169 -66 -362 -122 -653 -140 -724 -195 -771 -36 -29 -76 -32
-125 -9 l-35 17 38 17 c60 27 81 92 43 130 -48 48 -137 2 -146 -75 -15 -117
151 -187 264 -112 83 54 159 211 208 428 19 86 108 542 138 712 l7 37 104 0
c89 0 106 3 113 18 19 36 5 42 -105 42 -95 0 -104 2 -99 18 3 9 17 78 31 152
49 253 53 266 91 300 38 33 78 38 129 16 l30 -14 -26 -10 c-15 -6 -36 -23 -48
-38 -65 -82 32 -156 111 -85 28 25 33 36 33 74 0 53 -21 81 -80 108 -48 22
-118 24 -165 3z"/>
<path d="M37350 3284 c-48 -21 -107 -80 -135 -135 -27 -53 -54 -150 -80 -291
l-19 -97 -90 -3 c-90 -3 -91 -3 -91 -28 0 -24 2 -25 83 -28 53 -2 82 -7 82
-14 0 -6 -30 -169 -66 -362 -122 -653 -140 -724 -195 -771 -36 -29 -76 -32
-125 -9 l-35 17 38 17 c60 27 81 92 43 130 -48 48 -137 2 -146 -75 -15 -117
151 -187 264 -112 83 54 159 211 208 428 19 86 108 542 138 712 l7 37 104 0
c89 0 106 3 113 18 19 36 5 42 -105 42 -95 0 -104 2 -99 18 3 9 17 78 31 152
49 253 53 266 91 300 38 33 78 38 129 16 l30 -14 -26 -10 c-15 -6 -36 -23 -48
-38 -65 -82 32 -156 111 -85 28 25 33 36 33 74 0 53 -21 81 -80 108 -48 22
-118 24 -165 3z"/>
<path d="M26965 3268 c-92 -9 -123 -24 -112 -52 5 -11 20 -16 49 -16 67 0 88
-9 88 -36 0 -13 -28 -134 -61 -269 l-61 -245 -28 44 c-82 128 -270 107 -425
-49 -242 -242 -261 -647 -34 -745 96 -41 197 -15 296 77 l51 48 21 -45 c29
-65 78 -95 154 -95 58 0 60 1 102 47 32 36 49 67 69 130 34 109 36 133 12 133
-14 0 -23 -17 -42 -83 -13 -46 -31 -97 -40 -114 -38 -73 -107 -101 -138 -56
-33 46 -20 112 134 724 83 327 148 599 145 604 -7 12 -54 11 -180 -2z m-207
-548 c36 -22 67 -68 82 -119 8 -29 0 -71 -46 -255 -30 -122 -62 -235 -71 -253
-20 -43 -113 -130 -165 -153 -67 -30 -114 -26 -153 13 -73 73 -71 207 6 462
47 155 107 246 193 295 60 35 108 38 154 10z"/>
<path d="M44565 3268 c-92 -9 -123 -24 -112 -52 5 -11 20 -16 49 -16 67 0 88
-9 88 -36 0 -13 -28 -134 -61 -269 l-61 -245 -28 44 c-82 128 -270 107 -425
-49 -242 -242 -261 -647 -34 -745 96 -41 197 -15 296 77 l51 48 21 -45 c29
-65 78 -95 154 -95 58 0 60 1 102 47 32 36 49 67 69 130 34 109 36 133 12 133
-14 0 -23 -17 -42 -83 -13 -46 -31 -97 -40 -114 -38 -73 -107 -101 -138 -56
-33 46 -20 112 134 724 83 327 148 599 145 604 -7 12 -54 11 -180 -2z m-207
-548 c36 -22 67 -68 82 -119 8 -29 0 -71 -46 -255 -30 -122 -62 -235 -71 -253
-20 -43 -113 -130 -165 -153 -67 -30 -114 -26 -153 13 -73 73 -71 207 6 462
47 155 107 246 193 295 60 35 108 38 154 10z"/>
<path d="M57955 3268 c-92 -9 -123 -24 -112 -52 5 -11 20 -16 49 -16 67 0 88
-9 88 -36 0 -13 -28 -134 -61 -269 l-61 -245 -28 44 c-82 128 -270 107 -425
-49 -242 -242 -261 -647 -34 -745 96 -41 197 -15 296 77 l51 48 21 -45 c29
-65 78 -95 154 -95 58 0 60 1 102 47 32 36 49 67 69 130 34 109 36 133 12 133
-14 0 -23 -17 -42 -83 -13 -46 -31 -97 -40 -114 -38 -73 -107 -101 -138 -56
-33 46 -20 112 134 724 83 327 148 599 145 604 -7 12 -54 11 -180 -2z m-207
-548 c36 -22 67 -68 82 -119 8 -29 0 -71 -46 -255 -30 -122 -62 -235 -71 -253
-20 -43 -113 -130 -165 -153 -67 -30 -114 -26 -153 13 -73 73 -71 207 6 462
47 155 107 246 193 295 60 35 108 38 154 10z"/>
<path d="M43163 3206 c-136 -43 -237 -177 -250 -331 -4 -51 -2 -64 17 -87 16
-22 30 -28 59 -28 49 0 81 32 81 82 0 42 -36 78 -76 78 -71 0 34 173 134 221
62 30 158 31 222 2 176 -78 223 -325 104 -542 -50 -90 -95 -146 -334 -418
-143 -161 -210 -245 -210 -260 l0 -23 350 0 350 0 5 23 c5 22 45 272 45 282 0
3 -8 5 -18 5 -15 0 -20 -14 -31 -75 -20 -123 -1 -116 -316 -113 l-270 3 258
259 c142 143 276 286 297 319 108 161 104 361 -10 490 -88 101 -277 153 -407
113z"/>
<path d="M12702 3008 c-9 -9 -12 -88 -12 -295 l0 -283 -286 -2 c-255 -3 -288
-5 -297 -20 -8 -12 -7 -21 2 -32 12 -14 51 -16 297 -16 l284 0 0 -279 c0 -154
3 -286 6 -295 7 -19 35 -21 52 -4 9 9 12 88 12 295 l0 283 279 0 c154 0 286 3
295 6 9 3 16 16 16 29 0 13 -7 26 -16 29 -9 3 -141 6 -295 6 l-279 0 0 283 c0
283 -3 307 -35 307 -6 0 -16 -5 -23 -12z"/>
<path d="M18632 3008 c-9 -9 -12 -88 -12 -295 l0 -283 -286 -2 c-255 -3 -288
-5 -297 -20 -8 -12 -7 -21 2 -32 12 -14 51 -16 297 -16 l284 0 0 -279 c0 -154
3 -286 6 -295 7 -19 35 -21 52 -4 9 9 12 88 12 295 l0 283 279 0 c154 0 286 3
295 6 9 3 16 16 16 29 0 13 -7 26 -16 29 -9 3 -141 6 -295 6 l-279 0 0 283 c0
283 -3 307 -35 307 -6 0 -16 -5 -23 -12z"/>
<path d="M24952 3008 c-9 -9 -12 -88 -12 -295 l0 -283 -286 -2 c-255 -3 -288
-5 -297 -20 -8 -12 -7 -21 2 -32 12 -14 51 -16 297 -16 l284 0 0 -279 c0 -154
3 -286 6 -295 7 -19 35 -21 52 -4 9 9 12 88 12 295 l0 283 279 0 c154 0 286 3
295 6 21 8 21 50 0 58 -9 3 -141 6 -295 6 l-279 0 0 283 c0 283 -3 307 -35
307 -6 0 -16 -5 -23 -12z"/>
<path d="M29392 3008 c-9 -9 -12 -88 -12 -295 l0 -283 -286 -2 c-255 -3 -288
-5 -297 -20 -8 -12 -7 -21 2 -32 12 -14 51 -16 297 -16 l284 0 0 -279 c0 -154
3 -286 6 -295 7 -19 35 -21 52 -4 9 9 12 88 12 295 l0 283 279 0 c154 0 286 3
295 6 21 8 21 50 0 58 -9 3 -141 6 -295 6 l-279 0 0 283 c0 283 -3 307 -35
307 -6 0 -16 -5 -23 -12z"/>
<path d="M35322 3008 c-9 -9 -12 -88 -12 -295 l0 -283 -286 -2 c-255 -3 -288
-5 -297 -20 -8 -12 -7 -21 2 -32 12 -14 51 -16 297 -16 l284 0 0 -279 c0 -154
3 -286 6 -295 7 -19 35 -21 52 -4 9 9 12 88 12 295 l0 283 279 0 c154 0 286 3
295 6 21 8 21 50 0 58 -9 3 -141 6 -295 6 l-279 0 0 283 c0 283 -3 307 -35
307 -6 0 -16 -5 -23 -12z"/>
<path d="M41642 3008 c-9 -9 -12 -88 -12 -295 l0 -283 -286 -2 c-255 -3 -288
-5 -297 -20 -8 -12 -7 -21 2 -32 12 -14 51 -16 297 -16 l284 0 0 -279 c0 -154
3 -286 6 -295 7 -19 35 -21 52 -4 9 9 12 88 12 295 l0 283 279 0 c154 0 286 3
295 6 9 3 16 16 16 29 0 13 -7 26 -16 29 -9 3 -141 6 -295 6 l-279 0 0 283 c0
283 -3 307 -35 307 -6 0 -16 -5 -23 -12z"/>
<path d="M47002 3008 c-9 -9 -12 -88 -12 -295 l0 -283 -286 -2 c-255 -3 -288
-5 -297 -20 -8 -12 -7 -21 2 -32 12 -14 51 -16 297 -16 l284 0 0 -279 c0 -154
3 -286 6 -295 7 -19 35 -21 52 -4 9 9 12 88 12 295 l0 283 279 0 c154 0 286 3
295 6 9 3 16 16 16 29 0 13 -7 26 -16 29 -9 3 -141 6 -295 6 l-279 0 0 283 c0
283 -3 307 -35 307 -6 0 -16 -5 -23 -12z"/>
<path d="M52932 3008 c-9 -9 -12 -88 -12 -295 l0 -283 -286 -2 c-255 -3 -288
-5 -297 -20 -8 -12 -7 -21 2 -32 12 -14 51 -16 297 -16 l284 0 0 -279 c0 -154
3 -286 6 -295 7 -19 35 -21 52 -4 9 9 12 88 12 295 l0 283 279 0 c154 0 286 3
295 6 9 3 16 16 16 29 0 13 -7 26 -16 29 -9 3 -141 6 -295 6 l-279 0 0 283 c0
283 -3 307 -35 307 -6 0 -16 -5 -23 -12z"/>
<path d="M10978 2756 c-160 -66 -288 -226 -338 -423 -51 -199 6 -374 141 -433
96 -41 197 -15 296 77 l51 48 21 -45 c29 -65 78 -95 154 -95 58 0 60 1 102 47
32 36 49 67 69 130 34 109 36 133 12 133 -14 0 -23 -17 -42 -83 -13 -46 -31
-97 -40 -114 -38 -73 -107 -101 -138 -56 -29 40 -18 114 60 425 41 167 74 315
72 330 -2 20 -11 30 -31 37 -34 12 -53 2 -83 -42 l-22 -32 -25 39 c-52 78
-154 100 -259 57z m180 -36 c36 -22 67 -68 82 -119 8 -29 0 -71 -46 -255 -30
-122 -62 -235 -71 -253 -20 -43 -113 -130 -165 -153 -67 -30 -114 -26 -153 13
-73 73 -71 207 6 462 47 155 107 246 193 295 60 35 108 38 154 10z"/>
<path d="M23228 2756 c-160 -66 -288 -226 -338 -423 -51 -199 6 -374 141 -433
96 -41 197 -15 296 77 l51 48 21 -45 c29 -65 78 -95 154 -95 58 0 60 1 102 47
32 36 49 67 69 130 34 109 36 133 12 133 -14 0 -23 -17 -42 -83 -13 -46 -31
-97 -40 -114 -38 -73 -107 -101 -138 -56 -29 40 -18 114 60 425 41 167 74 315
72 330 -2 20 -11 30 -31 37 -34 12 -53 2 -83 -42 l-22 -32 -25 39 c-52 78
-154 100 -259 57z m180 -36 c36 -22 67 -68 82 -119 8 -29 0 -71 -46 -255 -30
-122 -62 -235 -71 -253 -20 -43 -113 -130 -165 -153 -67 -30 -114 -26 -153 13
-73 73 -71 207 6 462 47 155 107 246 193 295 60 35 108 38 154 10z"/>
<path d="M27485 2757 c-89 -43 -185 -166 -211 -270 -6 -26 -4 -28 15 -25 16 2
28 18 45 60 77 188 261 283 329 169 29 -49 21 -123 -38 -362 -73 -293 -105
-362 -182 -395 -39 -17 -79 -18 -122 -3 l-32 11 31 19 c50 31 65 94 30 129
-29 29 -74 25 -112 -9 -28 -25 -33 -36 -33 -76 0 -40 5 -51 32 -75 54 -49 142
-63 211 -35 43 19 74 45 113 98 l28 38 16 -35 c52 -109 198 -147 310 -82 56
33 128 114 159 179 33 67 37 102 13 102 -13 0 -25 -17 -41 -57 -62 -153 -192
-247 -286 -208 -78 32 -79 115 -4 413 60 240 76 284 119 336 48 56 103 71 178
50 l38 -10 -33 -22 c-60 -41 -61 -128 -2 -143 39 -10 75 6 102 46 62 92 -38
191 -180 178 -59 -6 -119 -46 -156 -104 -15 -24 -29 -43 -32 -43 -3 0 -14 19
-26 42 -47 96 -175 134 -279 84z"/>
<path d="M39918 2756 c-160 -66 -288 -226 -338 -423 -51 -199 6 -374 141 -433
96 -41 197 -15 296 77 l51 48 21 -45 c29 -65 78 -95 154 -95 58 0 60 1 102 47
32 36 49 67 69 130 34 109 36 133 12 133 -14 0 -23 -17 -42 -83 -13 -46 -31
-97 -40 -114 -38 -73 -107 -101 -138 -56 -29 40 -18 114 60 425 41 167 74 315
72 330 -2 20 -11 30 -31 37 -34 12 -53 2 -83 -42 l-22 -32 -25 39 c-52 78
-154 100 -259 57z m180 -36 c36 -22 67 -68 82 -119 8 -29 0 -71 -46 -255 -30
-122 -62 -235 -71 -253 -20 -43 -113 -130 -165 -153 -67 -30 -114 -26 -153 13
-73 73 -71 207 6 462 47 155 107 246 193 295 60 35 108 38 154 10z"/>
<path d="M45095 2757 c-89 -43 -185 -166 -211 -270 -6 -26 -4 -28 15 -25 16 2
28 18 45 60 77 188 261 283 329 169 29 -49 21 -123 -38 -362 -73 -293 -105
-362 -182 -395 -39 -17 -79 -18 -122 -3 l-32 11 31 19 c50 31 65 94 30 129
-29 29 -74 25 -112 -9 -28 -25 -33 -36 -33 -76 0 -40 5 -51 32 -75 54 -49 142
-63 211 -35 43 19 74 45 113 98 l28 38 16 -35 c52 -109 198 -147 310 -82 56
33 128 114 159 179 33 67 37 102 13 102 -13 0 -25 -17 -41 -57 -62 -153 -192
-247 -286 -208 -78 32 -79 115 -4 413 60 240 76 284 119 336 48 56 103 71 178
50 l38 -10 -33 -22 c-60 -41 -61 -128 -2 -143 39 -10 75 6 102 46 62 92 -38
191 -180 178 -59 -6 -119 -46 -156 -104 -15 -24 -29 -43 -32 -43 -3 0 -14 19
-26 42 -47 96 -175 134 -279 84z"/>
<path d="M58475 2757 c-89 -43 -185 -166 -211 -270 -6 -26 -4 -28 15 -25 16 2
28 18 45 60 77 188 261 283 329 169 29 -49 21 -123 -38 -362 -73 -293 -105
-362 -182 -395 -39 -17 -79 -18 -122 -3 l-32 11 31 19 c50 31 65 94 30 129
-29 29 -74 25 -112 -9 -28 -25 -33 -36 -33 -76 0 -40 5 -51 32 -75 54 -49 142
-63 211 -35 43 19 74 45 113 98 l28 38 16 -35 c52 -109 198 -147 310 -82 56
33 128 114 159 179 33 67 37 102 13 102 -13 0 -25 -17 -41 -57 -62 -153 -192
-247 -286 -208 -78 32 -79 115 -4 413 60 240 76 284 119 336 48 56 103 71 178
50 l38 -10 -33 -22 c-60 -41 -61 -128 -2 -143 39 -10 75 6 102 46 62 92 -38
191 -180 178 -59 -6 -119 -46 -156 -104 -15 -24 -29 -43 -32 -43 -3 0 -14 19
-26 42 -47 96 -175 134 -279 84z"/>
<path d="M4629 2594 c-9 -11 -10 -20 -2 -32 9 -16 63 -17 604 -20 327 -1 604
0 617 3 24 6 29 34 10 53 -9 9 -159 12 -614 12 -537 0 -603 -2 -615 -16z"/>
<path d="M13900 2395 l0 -45 1060 0 1060 0 0 45 0 45 -1060 0 -1060 0 0 -45z"/>
<path d="M30590 2395 l0 -45 1060 0 1060 0 0 45 0 45 -1060 0 -1060 0 0 -45z"/>
<path d="M48194 2426 c-3 -8 -4 -27 -2 -43 l3 -28 1063 -3 1062 -2 0 45 0 45
-1060 0 c-905 0 -1061 -2 -1066 -14z"/>
<path d="M4629 2234 c-9 -11 -10 -20 -2 -32 9 -16 63 -17 613 -20 437 -1 607
1 616 9 19 15 18 45 -2 53 -9 3 -285 6 -614 6 -533 0 -599 -2 -611 -16z"/>
<path d="M54318 2060 c-27 -27 -30 -36 -25 -72 7 -52 33 -78 85 -85 36 -5 45
-2 72 25 41 42 42 92 1 133 -41 41 -91 40 -133 -1z"/>
<path d="M54858 2060 c-27 -27 -30 -36 -25 -72 7 -52 33 -78 85 -85 36 -5 45
-2 72 25 41 42 42 92 1 133 -41 41 -91 40 -133 -1z"/>
<path d="M55398 2060 c-27 -27 -30 -36 -25 -72 7 -52 33 -78 85 -85 36 -5 45
-2 72 25 41 42 42 92 1 133 -41 41 -91 40 -133 -1z"/>
<path d="M14833 1836 c-136 -43 -237 -177 -250 -331 -4 -51 -2 -64 17 -87 16
-22 30 -28 59 -28 49 0 81 32 81 82 0 42 -36 78 -76 78 -71 0 34 173 134 221
62 30 158 31 222 2 176 -78 223 -325 104 -542 -50 -90 -95 -146 -334 -418
-143 -161 -210 -245 -210 -260 l0 -23 350 0 350 0 5 23 c5 22 45 272 45 282 0
3 -8 5 -18 5 -15 0 -20 -14 -31 -75 -20 -123 -1 -116 -316 -113 l-270 3 258
259 c142 143 276 286 297 319 108 161 104 361 -10 490 -88 101 -277 153 -407
113z"/>
<path d="M31523 1836 c-136 -43 -237 -177 -250 -331 -4 -51 -2 -64 17 -87 16
-22 30 -28 59 -28 49 0 81 32 81 82 0 42 -36 78 -76 78 -71 0 34 173 134 221
62 30 158 31 222 2 176 -78 223 -325 104 -542 -50 -90 -95 -146 -334 -418
-143 -161 -210 -245 -210 -260 l0 -23 350 0 350 0 5 23 c5 22 45 272 45 282 0
3 -8 5 -18 5 -15 0 -20 -14 -31 -75 -20 -123 -1 -116 -316 -113 l-270 3 258
259 c142 143 276 286 297 319 108 161 104 361 -10 490 -88 101 -277 153 -407
113z"/>
<path d="M49133 1836 c-136 -43 -237 -177 -250 -331 -4 -51 -2 -64 17 -87 16
-22 30 -28 59 -28 49 0 81 32 81 82 0 42 -36 78 -76 78 -71 0 34 173 134 221
62 30 158 31 222 2 176 -78 223 -325 104 -542 -50 -90 -95 -146 -334 -418
-143 -161 -210 -245 -210 -260 l0 -23 350 0 350 0 5 23 c5 22 45 272 45 282 0
3 -8 5 -18 5 -15 0 -20 -14 -31 -75 -20 -123 -1 -116 -316 -113 l-270 3 258
259 c142 143 276 286 297 319 108 161 104 361 -10 490 -88 101 -277 153 -407
113z"/>
<path d="M1292 705 c-181 -84 -288 -365 -198 -519 61 -104 174 -114 271 -25
l42 38 15 -33 c17 -34 68 -66 108 -66 30 0 74 25 93 53 12 19 57 147 57 163 0
2 -7 4 -15 4 -8 0 -20 -19 -29 -48 -23 -80 -54 -131 -81 -138 -77 -19 -78 25
-10 290 31 120 55 230 53 245 -2 22 -8 26 -33 26 -22 0 -33 -6 -40 -22 -12
-28 -21 -29 -35 -2 -17 30 -70 59 -110 59 -19 0 -59 -11 -88 -25z m151 -26
c52 -40 54 -78 12 -255 -41 -178 -61 -216 -133 -264 -107 -71 -183 -11 -168
132 14 133 68 290 119 347 56 61 124 77 170 40z"/>
</g>
</svg>
