<?xml version="1.0" standalone="no"?>
<!DOCTYPE svg PUBLIC "-//W3C//DTD SVG 20010904//EN"
 "http://www.w3.org/TR/2001/REC-SVG-20010904/DTD/svg10.dtd">
<svg version="1.0" xmlns="http://www.w3.org/2000/svg"
 width="468pt" height="100pt" viewBox="0 0 468 100"
 preserveAspectRatio="xMidYMid meet">
<metadata>
Created by potrace 1.8, written by Peter Selinger 2001-2007
</metadata>
<g transform="translate(0,100) scale(0.011890,-0.011890)"
fill="#000000" stroke="none">
<path d="M9345 8335 c-127 -77 -261 -199 -341 -311 -57 -80 -128 -230 -156
-330 l-23 -79 -6 -1340 c-4 -1006 -9 -1354 -18 -1395 -56 -252 -146 -416 -315
-577 -126 -120 -126 -126 -10 -221 119 -98 242 -294 293 -468 51 -172 51 -178
51 -1529 0 -1191 1 -1265 19 -1350 55 -263 215 -496 450 -653 98 -66 121 -76
167 -70 26 3 29 7 32 43 2 39 0 41 -76 101 -161 125 -274 308 -329 533 -15 59
-17 212 -23 1401 -5 1331 -5 1335 -27 1412 -78 277 -225 485 -455 645 l-57 40
57 39 c85 58 234 206 292 290 66 95 122 216 157 335 l27 94 6 1340 5 1340 28
100 c55 201 173 385 320 500 75 59 77 61 75 100 -3 39 -4 40 -43 43 -31 2 -53
-5 -100 -33z"/>
<path d="M32755 7666 c-62 -29 -107 -76 -137 -141 -20 -44 -23 -69 -26 -212
l-4 -163 -79 0 c-78 0 -79 0 -79 -25 0 -25 1 -25 80 -25 l80 0 0 -356 c0 -217
-4 -363 -10 -374 -7 -13 -26 -21 -65 -25 -49 -7 -55 -10 -55 -31 l0 -24 200 0
200 0 0 24 c0 21 -5 24 -67 29 -40 4 -73 13 -82 22 -14 14 -16 66 -19 375 l-3
360 116 0 115 0 0 25 0 25 -116 0 -116 0 4 168 c3 147 6 173 26 217 47 102
114 143 187 115 l27 -10 -26 -21 c-32 -25 -35 -70 -6 -99 44 -44 115 -10 113
55 -3 99 -140 147 -258 91z"/>
<path d="M10193 7596 c-209 -68 -306 -316 -290 -736 10 -258 52 -395 152 -496
98 -100 217 -129 342 -83 179 68 273 292 273 654 0 344 -84 561 -246 641 -66
32 -167 41 -231 20z m145 -28 c70 -18 134 -86 161 -173 32 -103 44 -280 38
-540 -8 -294 -28 -397 -93 -482 -55 -73 -168 -99 -249 -57 -130 67 -174 262
-162 729 6 251 20 338 62 411 31 53 81 95 132 111 50 15 56 15 111 1z"/>
<path d="M37603 7596 c-209 -68 -306 -316 -290 -736 10 -258 52 -395 152 -496
98 -100 217 -129 342 -83 179 68 273 292 273 654 0 344 -84 561 -246 641 -66
32 -167 41 -231 20z m145 -28 c70 -18 134 -86 161 -173 32 -103 44 -280 38
-540 -8 -294 -28 -397 -93 -482 -55 -73 -168 -99 -249 -57 -130 67 -174 262
-162 729 6 251 20 338 62 411 31 53 81 95 132 111 50 15 56 15 111 1z"/>
<path d="M32064 7577 c-55 -47 -20 -137 53 -137 39 0 83 37 83 70 0 76 -80
115 -136 67z"/>
<path d="M33744 7160 c-34 -13 -81 -75 -104 -137 -32 -86 -49 -157 -40 -167
19 -19 38 6 54 69 26 104 62 172 103 193 34 19 61 14 79 -13 26 -40 14 -120
-71 -463 -47 -192 -75 -323 -71 -337 8 -32 50 -43 85 -24 24 13 33 40 101 309
82 321 97 357 182 443 107 107 261 129 302 42 34 -71 14 -197 -70 -436 -68
-197 -70 -209 -50 -263 40 -103 153 -137 247 -73 61 41 139 174 150 257 3 19
0 25 -15 25 -14 0 -24 -14 -38 -55 -47 -138 -118 -220 -191 -220 -66 0 -64 70
9 282 111 328 119 426 43 513 -92 105 -314 76 -432 -55 l-45 -49 -12 43 c-26
93 -132 150 -216 116z"/>
<path d="M32060 7149 c-95 -11 -102 -14 -98 -41 2 -19 11 -24 52 -29 31 -3 53
-12 62 -24 11 -15 14 -84 14 -343 0 -196 -4 -331 -10 -342 -7 -13 -26 -21 -65
-25 -49 -7 -55 -10 -55 -31 l0 -24 180 0 180 0 0 24 c0 21 -6 24 -56 31 -46 5
-57 10 -65 31 -5 14 -9 191 -9 405 l0 379 -27 -1 c-16 -1 -62 -5 -103 -10z"/>
<path d="M35349 6984 c-9 -11 -10 -20 -2 -32 9 -16 63 -17 604 -20 327 -1 604
0 617 3 24 6 29 34 10 53 -9 9 -159 12 -614 12 -537 0 -603 -2 -615 -16z"/>
<path d="M35349 6624 c-9 -11 -10 -20 -2 -32 9 -16 63 -17 613 -20 437 -1 607
1 616 9 19 15 18 45 -2 53 -9 3 -285 6 -614 6 -533 0 -599 -2 -611 -16z"/>
<path d="M3469 5128 c-122 -118 -215 -271 -273 -449 -56 -172 -71 -278 -71
-494 0 -215 15 -322 70 -491 60 -184 146 -328 267 -446 50 -50 88 -72 88 -52
0 3 -26 36 -57 74 -191 226 -283 524 -283 915 0 389 86 672 276 906 35 43 64
81 64 84 0 18 -35 -2 -81 -47z"/>
<path d="M4907 5174 c-4 -4 14 -30 40 -58 212 -234 318 -592 300 -1011 -17
-374 -112 -646 -298 -849 -52 -57 -51 -83 0 -47 82 58 190 204 257 345 91 192
128 376 128 631 0 392 -109 698 -329 923 -68 69 -84 80 -98 66z"/>
<path d="M2395 5058 c-92 -9 -123 -24 -112 -52 5 -11 20 -16 52 -16 55 0 85
-14 85 -39 0 -10 -50 -218 -111 -462 -105 -422 -110 -448 -107 -529 14 -308
285 -387 518 -150 152 154 224 397 170 571 -24 80 -69 135 -134 165 -93 43
-193 22 -285 -61 -23 -21 -41 -33 -41 -27 0 5 33 139 73 298 41 159 72 295 70
302 -5 14 -44 14 -178 0z m319 -549 c38 -30 56 -71 62 -142 11 -122 -66 -409
-140 -520 -112 -168 -268 -183 -312 -29 -27 90 -11 201 67 494 19 72 132 185
207 208 48 15 89 11 116 -11z"/>
<path d="M32755 5036 c-62 -29 -107 -76 -137 -141 -20 -44 -23 -69 -26 -212
l-4 -163 -79 0 c-78 0 -79 0 -79 -25 0 -25 1 -25 80 -25 l80 0 0 -356 c0 -217
-4 -363 -10 -374 -7 -13 -26 -21 -65 -25 -49 -7 -55 -10 -55 -31 l0 -24 200 0
200 0 0 24 c0 21 -5 24 -67 29 -40 4 -73 13 -82 22 -14 14 -16 66 -19 375 l-3
360 116 0 115 0 0 25 0 25 -116 0 -116 0 4 168 c3 147 6 173 26 217 47 102
114 143 187 115 l27 -10 -26 -21 c-32 -25 -35 -70 -6 -99 44 -44 115 -10 113
55 -3 99 -140 147 -258 91z"/>
<path d="M343 5043 c-7 -2 -13 -15 -13 -28 0 -21 4 -23 75 -27 41 -2 80 -9 86
-15 9 -9 -22 -146 -130 -580 -78 -312 -146 -580 -152 -594 -14 -36 -48 -49
-123 -49 -67 0 -94 -15 -82 -45 5 -13 45 -15 285 -15 262 0 281 1 290 18 17
32 -6 42 -92 42 -86 0 -117 11 -117 40 0 11 30 140 67 286 l66 266 154 -3 155
-4 25 -29 c26 -31 27 -44 7 -158 -6 -34 -4 -38 13 -38 18 0 27 27 82 245 33
135 61 252 61 260 0 8 -7 15 -15 15 -16 0 -20 -8 -50 -94 -23 -63 -65 -110
-113 -124 -43 -13 -302 -17 -302 -4 0 4 32 131 70 282 49 192 75 279 87 288
14 11 69 13 248 10 222 -3 232 -4 279 -28 84 -42 91 -59 91 -218 0 -93 4 -137
12 -139 6 -2 16 4 21 14 13 25 57 396 49 417 -6 14 -54 16 -514 15 -279 0
-514 -3 -520 -6z"/>
<path d="M1890 4987 c-14 -7 -33 -29 -44 -51 -18 -37 -18 -38 1 -64 36 -48
109 -38 139 20 19 37 18 64 -6 88 -23 23 -54 25 -90 7z"/>
<path d="M10300 4948 c-52 -45 -131 -79 -218 -92 -72 -11 -77 -13 -77 -36 0
-24 3 -25 50 -21 44 3 125 24 178 46 16 7 17 -22 17 -528 0 -303 -4 -546 -9
-560 -12 -32 -27 -37 -138 -44 -89 -6 -93 -7 -93 -30 l0 -23 295 0 295 0 0 25
c0 24 -3 25 -57 26 -77 0 -151 13 -166 28 -9 9 -13 167 -17 623 -3 395 -9 612
-15 614 -5 2 -26 -11 -45 -28z"/>
<path d="M37710 4948 c-52 -45 -131 -79 -218 -92 -72 -11 -77 -13 -77 -36 0
-24 3 -25 50 -21 44 3 125 24 178 46 16 7 17 -22 17 -528 0 -303 -4 -546 -9
-560 -12 -32 -27 -37 -138 -44 -89 -6 -93 -7 -93 -30 l0 -23 295 0 295 0 0 25
c0 24 -3 25 -57 26 -77 0 -151 13 -166 28 -9 9 -13 167 -17 623 -3 395 -9 612
-15 614 -5 2 -26 -11 -45 -28z"/>
<path d="M32064 4947 c-55 -47 -20 -137 53 -137 39 0 83 37 83 70 0 76 -80
115 -136 67z"/>
<path d="M1682 4549 c-52 -26 -113 -103 -146 -185 -33 -81 -36 -109 -12 -109
14 0 24 13 36 50 36 105 88 183 141 210 69 36 117 1 104 -77 -4 -24 -50 -158
-103 -298 -80 -212 -97 -265 -97 -312 0 -60 17 -94 66 -131 33 -24 98 -32 142
-18 54 18 115 84 153 165 43 90 54 146 30 146 -9 0 -20 -10 -25 -22 -46 -118
-67 -162 -96 -196 -58 -67 -126 -81 -154 -31 -21 37 -3 103 105 384 115 298
117 347 22 418 -40 30 -114 33 -166 6z"/>
<path d="M3854 4560 c-34 -13 -81 -75 -104 -137 -32 -86 -49 -157 -40 -167 19
-19 38 6 54 69 26 104 62 172 103 193 34 19 61 14 79 -13 26 -40 14 -120 -71
-463 -47 -192 -75 -323 -71 -337 8 -32 50 -43 85 -24 24 13 33 40 101 309 82
321 97 357 182 443 107 107 261 129 302 42 34 -71 14 -197 -70 -436 -68 -197
-70 -209 -50 -263 40 -103 153 -137 247 -73 61 41 139 174 150 257 3 19 0 25
-15 25 -14 0 -24 -14 -38 -55 -47 -138 -118 -220 -191 -220 -66 0 -64 70 9
282 111 328 119 426 43 513 -92 105 -314 76 -432 -55 l-45 -49 -12 43 c-26 93
-132 150 -216 116z"/>
<path d="M33744 4530 c-34 -13 -81 -75 -104 -137 -32 -86 -49 -157 -40 -167
19 -19 38 6 54 69 26 104 62 172 103 193 34 19 61 14 79 -13 26 -40 14 -120
-71 -463 -47 -192 -75 -323 -71 -337 8 -32 50 -43 85 -24 24 13 33 40 101 309
82 321 97 357 182 443 107 107 261 129 302 42 34 -71 14 -197 -70 -436 -68
-197 -70 -209 -50 -263 40 -103 153 -137 247 -73 61 41 139 174 150 257 3 19
0 25 -15 25 -14 0 -24 -14 -38 -55 -47 -138 -118 -220 -191 -220 -66 0 -64 70
9 282 111 328 119 426 43 513 -92 105 -314 76 -432 -55 l-45 -49 -12 43 c-26
93 -132 150 -216 116z"/>
<path d="M32060 4519 c-95 -11 -102 -14 -98 -41 2 -19 11 -24 52 -29 31 -3 53
-12 62 -24 11 -15 14 -84 14 -343 0 -196 -4 -331 -10 -342 -7 -13 -26 -21 -65
-25 -49 -7 -55 -10 -55 -31 l0 -24 180 0 180 0 0 24 c0 21 -6 24 -56 31 -46 5
-57 10 -65 31 -5 14 -9 191 -9 405 l0 379 -27 -1 c-16 -1 -62 -5 -103 -10z"/>
<path d="M6169 4384 c-9 -11 -10 -20 -2 -32 9 -16 63 -17 604 -20 327 -1 604
0 617 3 24 6 29 34 10 53 -9 9 -159 12 -614 12 -537 0 -603 -2 -615 -16z"/>
<path d="M35349 4354 c-9 -11 -10 -20 -2 -32 9 -16 63 -17 604 -20 327 -1 604
0 617 3 24 6 29 34 10 53 -9 9 -159 12 -614 12 -537 0 -603 -2 -615 -16z"/>
<path d="M6169 4024 c-9 -11 -10 -20 -2 -32 9 -16 63 -17 613 -20 437 -1 607
1 616 9 19 15 18 45 -2 53 -9 3 -285 6 -614 6 -533 0 -599 -2 -611 -16z"/>
<path d="M35349 3994 c-9 -11 -10 -20 -2 -32 9 -16 63 -17 613 -20 437 -1 607
1 616 9 19 15 18 45 -2 53 -9 3 -285 6 -614 6 -533 0 -599 -2 -611 -16z"/>
<path d="M13389 2468 c-122 -118 -215 -271 -273 -449 -56 -172 -71 -278 -71
-494 0 -215 15 -322 70 -491 60 -184 146 -328 267 -446 50 -50 88 -72 88 -52
0 3 -26 36 -57 74 -191 226 -283 524 -283 915 0 389 86 672 276 906 35 43 64
81 64 84 0 18 -35 -2 -81 -47z"/>
<path d="M18177 2514 c-4 -4 14 -30 40 -58 212 -234 318 -592 300 -1011 -17
-374 -112 -646 -298 -849 -52 -57 -51 -83 0 -47 82 58 190 204 257 345 91 192
128 376 128 631 0 392 -109 698 -329 923 -68 69 -84 80 -98 66z"/>
<path d="M24659 2468 c-122 -118 -215 -271 -273 -449 -56 -172 -71 -278 -71
-494 0 -215 15 -322 70 -491 60 -184 146 -328 267 -446 50 -50 88 -72 88 -52
0 3 -26 36 -57 74 -191 226 -283 524 -283 915 0 389 86 672 276 906 35 43 64
81 64 84 0 18 -35 -2 -81 -47z"/>
<path d="M29447 2514 c-4 -4 14 -30 40 -58 212 -234 318 -592 300 -1011 -17
-374 -112 -646 -298 -849 -52 -57 -51 -83 0 -47 82 58 190 204 257 345 91 192
128 376 128 631 0 392 -109 698 -329 923 -68 69 -84 80 -98 66z"/>
<path d="M12315 2398 c-92 -9 -123 -24 -112 -52 5 -11 20 -16 52 -16 55 0 85
-14 85 -39 0 -10 -50 -218 -111 -462 -105 -422 -110 -448 -107 -529 14 -308
285 -387 518 -150 152 154 224 397 170 571 -24 80 -69 135 -134 165 -93 43
-193 22 -285 -61 -23 -21 -41 -33 -41 -27 0 5 33 139 73 298 41 159 72 295 70
302 -5 14 -44 14 -178 0z m319 -549 c38 -30 56 -71 62 -142 11 -122 -66 -409
-140 -520 -112 -168 -268 -183 -312 -29 -27 90 -11 201 67 494 19 72 132 185
207 208 48 15 89 11 116 -11z"/>
<path d="M23595 2398 c-92 -9 -123 -24 -112 -52 5 -11 20 -16 52 -16 55 0 85
-14 85 -39 0 -10 -50 -218 -111 -462 -105 -422 -110 -448 -107 -529 14 -308
285 -387 518 -150 152 154 224 397 170 571 -24 80 -69 135 -134 165 -93 43
-193 22 -285 -61 -23 -21 -41 -33 -41 -27 0 5 33 139 73 298 41 159 72 295 70
302 -5 14 -44 14 -178 0z m319 -549 c38 -30 56 -71 62 -142 11 -122 -66 -409
-140 -520 -112 -168 -268 -183 -312 -29 -27 90 -11 201 67 494 19 72 132 185
207 208 48 15 89 11 116 -11z"/>
<path d="M33675 2399 c-99 -11 -107 -14 -103 -41 3 -20 11 -24 55 -28 29 -3
58 -11 65 -18 17 -17 24 -1171 8 -1202 -8 -14 -26 -21 -70 -26 -55 -6 -60 -9
-60 -30 l0 -24 190 0 190 0 0 24 c0 21 -6 24 -54 30 -30 4 -60 13 -66 21 -8 9
-10 94 -8 287 l3 273 27 52 c39 73 91 120 154 139 89 26 165 -2 200 -72 17
-35 19 -67 22 -346 2 -205 0 -314 -7 -327 -9 -15 -26 -22 -71 -27 -55 -6 -60
-9 -60 -30 l0 -24 190 0 190 0 0 24 c0 21 -6 24 -54 30 -30 4 -59 13 -64 19
-6 7 -12 135 -15 312 -2 204 -8 313 -16 340 -19 59 -87 120 -151 135 -64 15
-154 8 -206 -16 -47 -23 -107 -81 -133 -131 l-20 -38 -1 353 0 352 -27 -1
c-16 -1 -64 -5 -108 -10z"/>
<path d="M10263 2383 c-7 -2 -13 -15 -13 -28 0 -21 4 -23 75 -27 41 -2 80 -9
86 -15 9 -9 -22 -146 -130 -580 -78 -312 -146 -580 -152 -594 -14 -36 -48 -49
-123 -49 -67 0 -94 -15 -82 -45 5 -13 45 -15 285 -15 262 0 281 1 290 18 17
32 -6 42 -92 42 -86 0 -117 11 -117 40 0 11 30 140 67 286 l66 266 154 -3 155
-4 25 -29 c26 -31 27 -44 7 -158 -6 -34 -4 -38 13 -38 18 0 27 27 82 245 33
135 61 252 61 260 0 8 -7 15 -15 15 -16 0 -20 -8 -50 -94 -23 -63 -65 -110
-113 -124 -43 -13 -302 -17 -302 -4 0 4 32 131 70 282 49 192 75 279 87 288
14 11 69 13 248 10 222 -3 232 -4 279 -28 84 -42 91 -59 91 -218 0 -93 4 -137
12 -139 6 -2 16 4 21 14 13 25 57 396 49 417 -6 14 -54 16 -514 15 -279 0
-514 -3 -520 -6z"/>
<path d="M21543 2383 c-7 -2 -13 -15 -13 -28 0 -21 4 -23 75 -27 41 -2 80 -9
86 -15 9 -9 -22 -146 -130 -580 -78 -312 -146 -580 -152 -594 -14 -36 -48 -49
-123 -49 -67 0 -94 -15 -82 -45 5 -13 45 -15 285 -15 262 0 281 1 290 18 17
32 -6 42 -92 42 -86 0 -117 11 -117 40 0 11 30 140 67 286 l66 266 154 -3 155
-4 25 -29 c26 -31 27 -44 7 -158 -6 -34 -4 -38 13 -38 18 0 27 27 82 245 33
135 61 252 61 260 0 8 -7 15 -15 15 -16 0 -20 -8 -50 -94 -23 -63 -65 -110
-113 -124 -43 -13 -302 -17 -302 -4 0 4 32 131 70 282 49 192 75 279 87 288
14 11 69 13 248 10 222 -3 232 -4 279 -28 84 -42 91 -59 91 -218 0 -93 4 -137
12 -139 6 -2 16 4 21 14 13 25 57 396 49 417 -6 14 -54 16 -514 15 -279 0
-514 -3 -520 -6z"/>
<path d="M17640 2318 c-52 -45 -131 -79 -218 -92 -72 -11 -77 -13 -77 -36 0
-24 3 -25 50 -21 44 3 125 24 178 46 16 7 17 -22 17 -528 0 -303 -4 -546 -9
-560 -12 -32 -27 -37 -138 -44 -89 -6 -93 -7 -93 -30 l0 -23 295 0 295 0 0 25
c0 24 -3 25 -57 26 -77 0 -151 13 -166 28 -9 9 -13 167 -17 623 -3 395 -9 612
-15 614 -5 2 -26 -11 -45 -28z"/>
<path d="M28773 2336 c-136 -43 -237 -177 -250 -331 -4 -51 -2 -64 17 -87 16
-22 30 -28 59 -28 49 0 81 32 81 82 0 42 -36 78 -76 78 -71 0 34 173 134 221
62 30 158 31 222 2 176 -78 223 -325 104 -542 -50 -90 -95 -146 -334 -418
-143 -161 -210 -245 -210 -260 l0 -23 350 0 350 0 5 23 c5 22 45 272 45 282 0
3 -8 5 -18 5 -15 0 -20 -14 -31 -75 -20 -123 -1 -116 -316 -113 l-270 3 258
259 c142 143 276 286 297 319 108 161 104 361 -10 490 -88 101 -277 153 -407
113z"/>
<path d="M11810 2327 c-14 -7 -33 -29 -44 -51 -18 -37 -18 -38 1 -64 36 -48
109 -38 139 20 19 37 18 64 -6 88 -23 23 -54 25 -90 7z"/>
<path d="M23080 2327 c-14 -7 -33 -29 -44 -51 -18 -37 -18 -38 1 -64 36 -48
109 -38 139 20 19 37 18 64 -6 88 -23 23 -54 25 -90 7z"/>
<path d="M37544 2317 c-55 -47 -20 -137 53 -137 39 0 83 37 83 70 0 76 -80
115 -136 67z"/>
<path d="M33060 2213 c-1 -169 -90 -319 -200 -338 -25 -4 -40 -12 -40 -21 0
-11 18 -14 84 -14 l85 0 4 -322 c4 -362 6 -376 72 -444 86 -90 228 -84 293 11
36 51 52 120 52 217 0 81 -2 88 -20 88 -19 0 -20 -7 -20 -96 0 -115 -13 -165
-56 -210 -26 -29 -38 -34 -75 -34 -54 0 -82 18 -112 73 -21 41 -22 52 -25 380
l-3 337 140 0 141 0 0 25 0 25 -140 0 -140 0 0 185 c0 178 -1 185 -20 185 -17
0 -20 -7 -20 -47z"/>
<path d="M19922 2138 c-9 -9 -12 -88 -12 -295 l0 -283 -286 -2 c-255 -3 -288
-5 -297 -20 -8 -12 -7 -21 2 -32 12 -14 51 -16 297 -16 l284 0 0 -279 c0 -154
3 -286 6 -295 7 -19 35 -21 52 -4 9 9 12 88 12 295 l0 283 279 0 c154 0 286 3
295 6 21 8 21 50 0 58 -9 3 -141 6 -295 6 l-279 0 0 283 c0 283 -3 307 -35
307 -6 0 -16 -5 -23 -12z"/>
<path d="M11602 1889 c-52 -26 -113 -103 -146 -185 -33 -81 -36 -109 -12 -109
14 0 24 13 36 50 36 105 88 183 141 210 69 36 117 1 104 -77 -4 -24 -50 -158
-103 -298 -80 -212 -97 -265 -97 -312 0 -60 17 -94 66 -131 33 -24 98 -32 142
-18 54 18 115 84 153 165 43 90 54 146 30 146 -9 0 -20 -10 -25 -22 -46 -118
-67 -162 -96 -196 -58 -67 -126 -81 -154 -31 -21 37 -3 103 105 384 115 298
117 347 22 418 -40 30 -114 33 -166 6z"/>
<path d="M13774 1900 c-34 -13 -81 -75 -104 -137 -32 -86 -49 -157 -40 -167
19 -19 38 6 54 69 26 104 62 172 103 193 34 19 61 14 79 -13 26 -40 14 -120
-71 -463 -47 -192 -75 -323 -71 -337 8 -32 50 -43 85 -24 24 13 33 40 101 309
82 321 97 357 182 443 107 107 261 129 302 42 34 -71 14 -197 -70 -436 -68
-197 -70 -209 -50 -263 40 -103 153 -137 247 -73 61 41 139 174 150 257 3 19
0 25 -15 25 -14 0 -24 -14 -38 -55 -47 -138 -118 -220 -191 -220 -66 0 -64 70
9 282 111 328 119 426 43 513 -92 105 -314 76 -432 -55 l-45 -49 -12 43 c-26
93 -132 150 -216 116z"/>
<path d="M22872 1889 c-52 -26 -113 -103 -146 -185 -33 -81 -36 -109 -12 -109
14 0 24 13 36 50 36 105 88 183 141 210 69 36 117 1 104 -77 -4 -24 -50 -158
-103 -298 -80 -212 -97 -265 -97 -312 0 -60 17 -94 66 -131 33 -24 98 -32 142
-18 54 18 115 84 153 165 43 90 54 146 30 146 -9 0 -20 -10 -25 -22 -46 -118
-67 -162 -96 -196 -58 -67 -126 -81 -154 -31 -21 37 -3 103 105 384 115 298
117 347 22 418 -40 30 -114 33 -166 6z"/>
<path d="M25044 1900 c-34 -13 -81 -75 -104 -137 -32 -86 -49 -157 -40 -167
19 -19 38 6 54 69 26 104 62 172 103 193 34 19 61 14 79 -13 26 -40 14 -120
-71 -463 -47 -192 -75 -323 -71 -337 8 -32 50 -43 85 -24 24 13 33 40 101 309
82 321 97 357 182 443 107 107 261 129 302 42 34 -71 14 -197 -70 -436 -68
-197 -70 -209 -50 -263 40 -103 153 -137 247 -73 61 41 139 174 150 257 3 19
0 25 -15 25 -14 0 -24 -14 -38 -55 -47 -138 -118 -220 -191 -220 -66 0 -64 70
9 282 111 328 119 426 43 513 -92 105 -314 76 -432 -55 l-45 -49 -12 43 c-26
93 -132 150 -216 116z"/>
<path d="M32243 1896 c-129 -42 -230 -149 -279 -296 -26 -77 -24 -225 4 -301
41 -114 117 -200 222 -252 58 -29 74 -32 155 -32 80 0 97 3 157 32 232 109
316 401 186 644 -39 74 -121 153 -195 186 -69 32 -184 41 -250 19z m214 -47
c79 -38 134 -121 154 -234 18 -103 7 -306 -20 -376 -48 -126 -130 -189 -243
-189 -71 0 -113 16 -167 65 -81 74 -119 216 -108 409 9 161 54 260 143 312 82
48 158 52 241 13z"/>
<path d="M34843 1890 c-293 -105 -365 -545 -127 -770 81 -77 149 -105 254
-105 102 0 157 22 222 87 67 67 111 169 76 176 -10 2 -18 -2 -18 -8 0 -21 -51
-114 -78 -144 -63 -67 -194 -96 -277 -62 -55 23 -120 91 -148 154 -28 61 -47
157 -47 234 l0 48 293 2 292 3 -3 63 c-7 119 -62 231 -140 286 -82 57 -202 71
-299 36z m197 -35 c33 -17 74 -62 95 -103 18 -37 45 -151 45 -194 l0 -28 -241
0 -241 0 6 48 c23 161 95 267 198 292 39 10 103 3 138 -15z"/>
<path d="M38084 1889 c-136 -43 -201 -177 -143 -296 37 -77 120 -120 307 -159
105 -22 162 -56 191 -116 25 -52 27 -95 6 -145 -34 -81 -95 -116 -205 -117
-143 -1 -214 62 -263 234 -17 57 -30 86 -41 88 -14 3 -16 -16 -16 -177 0 -201
5 -213 53 -136 16 25 31 45 34 45 2 0 21 -14 42 -31 95 -76 270 -79 378 -6
116 78 139 258 47 365 -45 53 -113 86 -229 112 -173 38 -236 78 -251 155 -9
51 25 115 79 146 36 21 55 24 138 24 87 0 99 -2 136 -27 49 -32 88 -107 98
-186 6 -42 10 -52 24 -50 14 3 16 22 19 142 3 163 -4 180 -50 123 l-31 -38
-21 20 c-55 52 -192 66 -302 30z"/>
<path d="M38903 1890 c-293 -105 -365 -545 -127 -770 81 -77 149 -105 254
-105 102 0 157 22 222 87 67 67 111 169 76 176 -10 2 -18 -2 -18 -8 0 -21 -51
-114 -78 -144 -63 -67 -194 -96 -277 -62 -55 23 -120 91 -148 154 -28 61 -47
157 -47 234 l0 48 293 2 292 3 -3 63 c-7 119 -62 231 -140 286 -82 57 -202 71
-299 36z m197 -35 c33 -17 74 -62 95 -103 18 -37 45 -151 45 -194 l0 -28 -241
0 -241 0 6 48 c23 161 95 267 198 292 39 10 103 3 138 -15z"/>
<path d="M35545 1894 c-11 -2 -50 -6 -87 -9 -63 -6 -68 -8 -68 -30 0 -20 6
-25 38 -30 72 -11 85 -19 94 -53 5 -18 7 -175 6 -348 -3 -354 3 -329 -85 -340
-47 -6 -53 -9 -53 -30 l0 -24 205 0 205 0 0 25 c0 22 -4 25 -37 25 -53 1 -114
16 -125 32 -5 7 -7 123 -5 258 3 221 6 252 26 313 28 87 94 159 160 177 23 6
50 9 58 6 12 -5 12 -9 -1 -28 -34 -48 -4 -108 52 -108 58 0 87 76 46 121 -89
99 -250 47 -324 -104 l-29 -62 -1 108 0 107 -27 -1 c-16 -1 -37 -3 -48 -5z"/>
<path d="M37540 1889 c-95 -11 -102 -14 -98 -41 2 -19 11 -24 52 -29 31 -3 53
-12 62 -24 11 -15 14 -84 14 -343 0 -196 -4 -331 -10 -342 -7 -13 -26 -21 -65
-25 -49 -7 -55 -10 -55 -31 l0 -24 180 0 180 0 0 24 c0 21 -6 24 -56 31 -46 5
-57 10 -65 31 -5 14 -9 191 -9 405 l0 379 -27 -1 c-16 -1 -62 -5 -103 -10z"/>
<path d="M36060 1865 c0 -17 6 -25 18 -25 9 0 34 -5 54 -10 44 -13 43 -9 204
-489 60 -180 114 -325 122 -328 7 -3 19 1 27 8 7 8 54 138 104 289 51 151 98
288 104 304 12 28 18 15 116 -275 57 -167 108 -310 114 -317 27 -34 42 0 167
366 137 403 147 422 222 443 31 8 38 14 38 34 l0 25 -140 0 -140 0 0 -24 c0
-19 8 -27 35 -36 42 -14 70 -59 61 -99 -16 -70 -190 -561 -196 -554 -11 12
-210 595 -210 614 0 23 19 36 63 44 30 6 37 11 37 31 l0 24 -165 0 -165 0 0
-24 c0 -21 6 -24 50 -30 43 -6 54 -12 70 -39 41 -66 39 -79 -56 -357 -49 -143
-91 -256 -95 -252 -11 14 -199 577 -199 598 0 28 16 41 63 49 30 6 37 11 37
31 l0 24 -170 0 -170 0 0 -25z"/>
<path d="M15346 1554 c-9 -8 -16 -19 -16 -24 0 -5 7 -16 16 -24 14 -14 79 -16
601 -14 545 3 587 4 597 21 8 12 8 22 0 35 -10 16 -52 17 -597 20 -522 2 -587
0 -601 -14z"/>
<path d="M26626 1554 c-9 -8 -16 -19 -16 -24 0 -5 7 -16 16 -24 14 -14 79 -16
601 -14 545 3 587 4 597 21 8 12 8 22 0 35 -10 16 -52 17 -597 20 -522 2 -587
0 -601 -14z"/>
</g>
</svg>
