<?xml version="1.0" standalone="no"?>
<!DOCTYPE svg PUBLIC "-//W3C//DTD SVG 20010904//EN"
 "http://www.w3.org/TR/2001/REC-SVG-20010904/DTD/svg10.dtd">
<svg version="1.0" xmlns="http://www.w3.org/2000/svg"
 width="468pt" height="312pt" viewBox="0 0 468 312"
 preserveAspectRatio="xMidYMid meet">
<metadata>
Created by potrace 1.8, written by Peter Selinger 2001-2007
</metadata>
<g transform="translate(0,312) scale(0.071125,-0.071125)"
fill="#000000" stroke="none">
<path d="M1584 4365 c-13 -34 3 -45 69 -45 119 0 123 54 -42 -602 -79 -315
-150 -585 -157 -599 -16 -31 -38 -39 -120 -39 -65 0 -92 -15 -80 -45 5 -13 40
-15 263 -13 l258 3 0 25 c0 23 -4 25 -55 28 -89 4 -100 8 -100 42 0 17 30 149
66 295 l66 265 142 0 c154 0 204 -9 254 -46 71 -55 78 -117 31 -310 -29 -118
-30 -133 -19 -182 16 -71 68 -125 141 -146 112 -34 199 -10 265 69 36 45 78
138 67 149 -19 19 -41 -1 -71 -65 -25 -52 -44 -77 -74 -97 -53 -35 -112 -36
-139 -3 -24 29 -24 77 -2 282 14 130 14 163 4 201 -17 61 -60 111 -121 141
l-50 25 79 27 c98 32 181 82 247 146 189 186 108 418 -171 489 -71 18 -111 20
-412 20 -287 0 -334 -2 -339 -15z m685 -56 c129 -27 186 -121 161 -262 -31
-170 -154 -288 -330 -316 -36 -6 -126 -11 -201 -11 l-137 0 71 283 c38 155 77
290 85 300 13 15 34 17 158 17 79 0 166 -5 193 -11z"/>
<path d="M3714 4365 c-13 -34 3 -45 69 -45 119 0 123 54 -42 -602 -79 -315
-150 -585 -157 -599 -16 -31 -38 -39 -120 -39 -65 0 -92 -15 -80 -45 5 -13 40
-15 263 -13 l258 3 0 25 c0 23 -4 25 -55 28 -89 4 -100 8 -100 42 0 17 30 149
66 295 l66 265 142 0 c154 0 204 -9 254 -46 71 -55 78 -117 31 -310 -29 -118
-30 -133 -19 -182 16 -71 68 -125 141 -146 112 -34 199 -10 265 69 36 45 78
138 67 149 -19 19 -41 -1 -71 -65 -25 -52 -44 -77 -74 -97 -53 -35 -112 -36
-139 -3 -24 29 -24 77 -2 282 14 130 14 163 4 201 -17 61 -60 111 -121 141
l-50 25 79 27 c98 32 181 82 247 146 189 186 108 418 -171 489 -71 18 -111 20
-412 20 -287 0 -334 -2 -339 -15z m685 -56 c129 -27 186 -121 161 -262 -31
-170 -154 -288 -330 -316 -36 -6 -126 -11 -201 -11 l-137 0 71 283 c38 155 77
290 85 300 13 15 34 17 158 17 79 0 166 -5 193 -11z"/>
<path d="M2975 3618 c-28 -29 -91 -56 -152 -64 -43 -5 -53 -10 -53 -25 0 -12
7 -19 18 -19 19 0 106 22 135 35 16 7 17 -15 17 -379 0 -442 9 -406 -99 -406
-54 0 -61 -2 -61 -20 0 -19 7 -20 206 -20 190 0 205 1 202 18 -3 14 -17 18
-76 22 -50 3 -76 10 -82 20 -6 9 -10 189 -10 438 0 447 0 447 -45 400z"/>
<path d="M4985 3616 c-83 -38 -134 -111 -142 -206 -4 -44 -2 -60 12 -73 46
-46 121 16 86 71 -5 8 -22 17 -39 20 l-31 7 20 45 c11 24 28 53 37 63 29 32
89 57 136 57 120 0 195 -86 196 -222 0 -128 -37 -191 -265 -448 -85 -96 -155
-183 -155 -192 0 -17 18 -18 244 -18 l243 0 17 106 c9 59 15 109 12 111 -12
12 -25 -11 -31 -55 -11 -80 -1 -77 -215 -80 -182 -3 -191 -2 -182 15 6 10 85
91 176 181 177 174 221 228 242 300 31 102 12 184 -61 259 -80 82 -200 106
-300 59z"/>
<path d="M0 2170 l0 -40 3290 0 3290 0 0 40 0 40 -3290 0 -3290 0 0 -40z"/>
<path d="M424 1645 c-13 -34 3 -45 69 -45 119 0 123 54 -42 -602 -79 -315
-150 -585 -157 -599 -16 -31 -38 -39 -120 -39 -65 0 -92 -15 -80 -45 5 -13 40
-15 263 -13 l258 3 0 25 c0 23 -4 25 -55 28 -89 4 -100 8 -100 42 0 17 30 149
66 295 l66 265 142 0 c154 0 204 -9 254 -46 71 -55 78 -117 31 -310 -29 -118
-30 -133 -19 -182 16 -71 68 -125 141 -146 112 -34 199 -10 265 69 36 45 78
138 67 149 -19 19 -41 -1 -71 -65 -25 -52 -44 -77 -74 -97 -53 -35 -112 -36
-139 -3 -24 29 -24 77 -2 282 14 130 14 163 4 201 -17 61 -60 111 -121 141
l-50 25 79 27 c98 32 181 82 247 146 189 186 108 418 -171 489 -71 18 -111 20
-412 20 -287 0 -334 -2 -339 -15z m685 -56 c129 -27 186 -121 161 -262 -31
-170 -154 -288 -330 -316 -36 -6 -126 -11 -201 -11 l-137 0 71 283 c38 155 77
290 85 300 13 15 34 17 158 17 79 0 166 -5 193 -11z"/>
<path d="M4874 1645 c-13 -34 3 -45 69 -45 119 0 123 54 -42 -602 -79 -315
-150 -585 -157 -599 -16 -31 -38 -39 -120 -39 -65 0 -92 -15 -80 -45 5 -13 40
-15 263 -13 l258 3 0 25 c0 23 -4 25 -55 28 -89 4 -100 8 -100 42 0 17 30 149
66 295 l66 265 142 0 c154 0 204 -9 254 -46 71 -55 78 -117 31 -310 -29 -118
-30 -133 -19 -182 16 -71 68 -125 141 -146 112 -34 199 -10 265 69 36 45 78
138 67 149 -19 19 -41 -1 -71 -65 -25 -52 -44 -77 -74 -97 -53 -35 -112 -36
-139 -3 -24 29 -24 77 -2 282 14 130 14 163 4 201 -17 61 -60 111 -121 141
l-50 25 79 27 c98 32 181 82 247 146 189 186 108 418 -171 489 -71 18 -111 20
-412 20 -287 0 -334 -2 -339 -15z m685 -56 c129 -27 186 -121 161 -262 -31
-170 -154 -288 -330 -316 -36 -6 -126 -11 -201 -11 l-137 0 71 283 c38 155 77
290 85 300 13 15 34 17 158 17 79 0 166 -5 193 -11z"/>
<path d="M3262 1408 c-9 -9 -12 -88 -12 -295 l0 -283 -286 -2 c-255 -3 -288
-5 -297 -20 -8 -12 -7 -21 2 -32 12 -14 51 -16 297 -16 l284 0 0 -279 c0 -154
3 -286 6 -295 7 -19 35 -21 52 -4 9 9 12 88 12 295 l0 283 279 0 c154 0 286 3
295 6 9 3 16 16 16 29 0 13 -7 26 -16 29 -9 3 -141 6 -295 6 l-279 0 0 283 c0
283 -3 307 -35 307 -6 0 -16 -5 -23 -12z"/>
<path d="M1815 908 c-28 -29 -91 -56 -152 -64 -43 -5 -53 -10 -53 -25 0 -12 7
-19 18 -19 19 0 106 22 135 35 16 7 17 -15 17 -379 0 -442 9 -406 -99 -406
-54 0 -61 -2 -61 -20 0 -19 7 -20 206 -20 190 0 205 1 202 17 -3 15 -17 19
-76 23 -50 3 -76 10 -82 20 -6 9 -10 189 -10 438 0 447 0 447 -45 400z"/>
<path d="M6135 906 c-83 -38 -134 -111 -142 -206 -4 -44 -2 -60 12 -73 46 -46
121 16 86 71 -5 8 -22 17 -39 20 l-31 7 20 45 c11 24 28 53 37 63 29 32 89 57
136 57 120 0 195 -86 196 -222 0 -128 -37 -191 -265 -448 -85 -96 -155 -183
-155 -192 0 -17 18 -18 244 -18 l243 0 17 106 c9 59 15 109 12 111 -12 12 -25
-11 -31 -55 -11 -80 -1 -77 -215 -80 -182 -3 -191 -2 -182 15 6 10 85 91 176
181 177 174 221 228 242 300 31 102 12 184 -61 259 -80 82 -200 106 -300 59z"/>
</g>
</svg>
