<?xml version="1.0" standalone="no"?>
<!DOCTYPE svg PUBLIC "-//W3C//DTD SVG 20010904//EN"
 "http://www.w3.org/TR/2001/REC-SVG-20010904/DTD/svg10.dtd">
<svg version="1.0" xmlns="http://www.w3.org/2000/svg"
 width="468pt" height="149pt" viewBox="0 0 468 149"
 preserveAspectRatio="xMidYMid meet">
<metadata>
Created by potrace 1.8, written by Peter Selinger 2001-2007
</metadata>
<g transform="translate(0,149) scale(0.031430,-0.031430)"
fill="#000000" stroke="none">
<path d="M12059 4658 c-122 -118 -215 -271 -273 -449 -56 -172 -71 -278 -71
-494 0 -215 15 -322 70 -491 60 -184 146 -328 267 -446 50 -50 88 -72 88 -52
0 3 -26 36 -57 74 -191 226 -283 524 -283 915 0 389 86 672 276 906 35 43 64
81 64 84 0 18 -35 -2 -81 -47z"/>
<path d="M13447 4704 c-4 -4 14 -30 40 -58 212 -234 318 -592 300 -1011 -17
-374 -112 -646 -298 -849 -52 -57 -51 -83 0 -47 82 58 190 204 257 345 91 192
128 376 128 631 0 392 -109 698 -329 923 -68 69 -84 80 -98 66z"/>
<path d="M11043 4081 c-209 -76 -377 -345 -360 -580 8 -128 59 -214 152 -257
90 -43 193 -23 285 55 32 27 47 35 44 23 -22 -103 -71 -275 -86 -305 -25 -51
-93 -117 -143 -142 -32 -16 -60 -20 -147 -20 -59 0 -110 4 -114 8 -4 4 5 18
19 31 85 79 -3 185 -91 111 -64 -53 -49 -138 30 -170 99 -41 305 -27 410 26
57 29 140 109 165 161 28 56 255 976 248 1005 -12 49 -87 41 -112 -12 l-16
-34 -41 46 c-66 75 -139 91 -243 54z m163 -37 c39 -19 82 -84 90 -136 7 -42
-89 -439 -116 -484 -29 -47 -115 -123 -163 -144 -66 -30 -113 -26 -152 13 -65
65 -70 168 -16 379 35 141 76 229 136 296 75 84 150 109 221 76z"/>
<path d="M12575 4077 c-89 -43 -185 -166 -211 -270 -6 -26 -4 -28 15 -25 16 2
28 18 45 60 77 188 261 283 329 169 29 -49 21 -123 -38 -362 -73 -293 -105
-362 -182 -395 -39 -17 -79 -18 -122 -3 l-32 11 31 19 c50 31 65 94 30 129
-29 29 -74 25 -112 -9 -28 -25 -33 -36 -33 -76 0 -40 5 -51 32 -75 54 -49 142
-63 211 -35 43 19 74 45 113 98 l28 38 16 -35 c52 -109 198 -147 310 -82 56
33 128 114 159 179 33 67 37 102 13 102 -13 0 -25 -17 -41 -57 -62 -153 -192
-247 -286 -208 -78 32 -79 115 -4 413 60 240 76 284 119 336 48 56 103 71 178
50 l38 -10 -33 -22 c-60 -41 -61 -128 -2 -143 39 -10 75 6 102 46 62 92 -38
191 -180 178 -59 -6 -119 -46 -156 -104 -15 -24 -29 -43 -32 -43 -3 0 -14 19
-26 42 -47 96 -175 134 -279 84z"/>
<path d="M1599 3308 c-164 -159 -274 -381 -325 -653 -27 -140 -27 -440 0 -580
37 -201 115 -394 212 -525 78 -107 194 -211 194 -174 0 3 -26 36 -57 74 -191
226 -283 524 -283 915 0 389 86 672 276 906 35 43 64 81 64 84 0 18 -35 -2
-81 -47z"/>
<path d="M2987 3354 c-4 -4 14 -30 40 -58 212 -234 318 -592 300 -1011 -17
-374 -112 -646 -298 -849 -52 -57 -51 -83 0 -47 82 58 190 204 257 345 91 192
128 376 128 631 0 392 -109 698 -329 923 -68 69 -84 80 -98 66z"/>
<path d="M740 3254 c-48 -21 -107 -80 -135 -135 -27 -53 -54 -150 -80 -291
l-19 -97 -90 -3 c-90 -3 -91 -3 -91 -28 0 -24 2 -25 83 -28 53 -2 82 -7 82
-14 0 -6 -30 -169 -66 -362 -122 -653 -140 -724 -195 -771 -36 -29 -76 -32
-125 -9 l-35 17 38 17 c60 27 81 92 43 130 -48 48 -137 2 -146 -75 -15 -117
151 -187 264 -112 83 54 159 211 208 428 19 86 108 542 138 712 l7 37 104 0
c89 0 106 3 113 18 19 36 5 42 -105 42 -95 0 -104 2 -99 18 3 9 17 78 31 152
49 253 53 266 91 300 38 33 78 38 129 16 l30 -14 -26 -10 c-15 -6 -36 -23 -48
-38 -65 -82 32 -156 111 -85 28 25 33 36 33 74 0 53 -21 81 -80 108 -48 22
-118 24 -165 3z"/>
<path d="M2115 2727 c-89 -43 -185 -166 -211 -270 -6 -26 -4 -28 15 -25 16 2
28 18 45 60 77 188 261 283 329 169 29 -49 21 -123 -38 -362 -73 -293 -105
-362 -182 -395 -39 -17 -79 -18 -122 -3 l-32 11 31 19 c50 31 65 94 30 129
-29 29 -74 25 -112 -9 -28 -25 -33 -36 -33 -76 0 -40 5 -51 32 -75 54 -49 142
-63 211 -35 43 19 74 45 113 98 l28 38 16 -35 c52 -109 198 -147 310 -82 56
33 128 114 159 179 33 67 37 102 13 102 -13 0 -25 -17 -41 -57 -62 -153 -192
-247 -286 -208 -78 32 -79 115 -4 413 60 240 76 284 119 336 48 56 103 71 178
50 l38 -10 -33 -22 c-60 -41 -61 -128 -2 -143 39 -10 75 6 102 46 62 92 -38
191 -180 178 -59 -6 -119 -46 -156 -104 -15 -24 -29 -43 -32 -43 -3 0 -14 19
-26 42 -47 96 -175 134 -279 84z"/>
<path d="M6465 2727 c-89 -43 -185 -166 -211 -270 -6 -26 -4 -28 15 -25 16 2
28 18 45 60 77 188 261 283 329 169 29 -49 21 -123 -38 -362 -73 -293 -105
-362 -182 -395 -39 -17 -79 -18 -122 -3 l-32 11 31 19 c50 31 65 94 30 129
-29 29 -74 25 -112 -9 -28 -25 -33 -36 -33 -76 0 -40 5 -51 32 -75 54 -49 142
-63 211 -35 43 19 74 45 113 98 l28 38 16 -35 c52 -109 198 -147 310 -82 56
33 128 114 159 179 33 67 37 102 13 102 -13 0 -25 -17 -41 -57 -62 -153 -192
-247 -286 -208 -78 32 -79 115 -4 413 60 240 76 284 119 336 48 56 103 71 178
50 l38 -10 -33 -22 c-60 -41 -61 -128 -2 -143 39 -10 75 6 102 46 62 92 -38
191 -180 178 -59 -6 -119 -46 -156 -104 -15 -24 -29 -43 -32 -43 -3 0 -14 19
-26 42 -47 96 -175 134 -279 84z"/>
<path d="M4249 2564 c-9 -11 -10 -20 -2 -32 9 -16 63 -17 604 -20 327 -1 604
0 617 3 24 6 29 34 10 53 -9 9 -159 12 -614 12 -537 0 -603 -2 -615 -16z"/>
<path d="M7866 2394 c-9 -8 -16 -19 -16 -24 0 -5 7 -16 16 -24 14 -14 79 -16
601 -14 545 3 587 4 597 21 8 12 8 22 0 35 -10 16 -52 17 -597 20 -522 2 -587
0 -601 -14z"/>
<path d="M9690 2370 l0 -40 2600 0 2600 0 0 40 0 40 -2600 0 -2600 0 0 -40z"/>
<path d="M4249 2204 c-9 -11 -10 -20 -2 -32 9 -16 63 -17 613 -20 437 -1 607
1 616 9 19 15 18 45 -2 53 -9 3 -285 6 -614 6 -533 0 -599 -2 -611 -16z"/>
<path d="M12899 1938 c-122 -118 -215 -271 -273 -449 -56 -172 -71 -278 -71
-494 0 -215 15 -322 70 -491 60 -184 146 -328 267 -446 50 -50 88 -72 88 -52
0 3 -26 36 -57 74 -191 226 -283 524 -283 915 0 389 86 672 276 906 35 43 64
81 64 84 0 18 -35 -2 -81 -47z"/>
<path d="M14277 1984 c-4 -4 14 -30 40 -58 212 -234 318 -592 300 -1011 -17
-374 -112 -646 -298 -849 -52 -57 -51 -83 0 -47 82 58 190 204 257 345 91 192
128 376 128 631 0 392 -109 698 -329 923 -68 69 -84 80 -98 66z"/>
<path d="M10114 1845 c-13 -34 3 -45 69 -45 117 0 120 53 -42 -596 -78 -313
-146 -581 -152 -595 -14 -36 -48 -49 -123 -49 -67 0 -94 -15 -82 -45 5 -13 55
-15 379 -15 342 0 381 2 452 20 419 107 727 597 625 994 -45 175 -153 288
-317 331 -85 22 -801 22 -809 0z m798 -77 c159 -74 217 -240 173 -499 -55
-328 -203 -560 -420 -659 -91 -42 -149 -50 -345 -50 -154 0 -180 2 -180 15 0
38 295 1192 309 1208 14 17 32 18 211 15 187 -3 197 -4 252 -30z"/>
<path d="M11873 1361 c-209 -76 -377 -345 -360 -580 8 -128 59 -214 152 -257
90 -43 193 -23 285 55 32 27 47 35 44 23 -22 -103 -71 -275 -86 -305 -25 -51
-93 -117 -143 -142 -32 -16 -60 -20 -147 -20 -59 0 -110 4 -114 8 -4 4 5 18
19 31 85 79 -3 185 -91 111 -64 -53 -49 -138 30 -170 99 -41 305 -27 410 26
57 29 140 109 165 161 28 56 255 976 248 1005 -12 49 -87 41 -112 -12 l-16
-34 -41 46 c-66 75 -139 91 -243 54z m163 -37 c39 -19 82 -84 90 -136 7 -42
-89 -439 -116 -484 -29 -47 -115 -123 -163 -144 -66 -30 -113 -26 -152 13 -65
65 -70 168 -16 379 35 141 76 229 136 296 75 84 150 109 221 76z"/>
<path d="M13415 1357 c-89 -43 -185 -166 -211 -270 -6 -26 -4 -28 15 -25 16 2
28 18 45 60 77 188 261 283 329 169 29 -49 21 -123 -38 -362 -73 -293 -105
-362 -182 -395 -39 -17 -79 -18 -122 -3 l-32 11 31 19 c50 31 65 94 30 129
-29 29 -74 25 -112 -9 -28 -25 -33 -36 -33 -76 0 -40 5 -51 32 -75 54 -49 142
-63 211 -35 43 19 74 45 113 98 l28 38 16 -35 c52 -109 198 -147 310 -82 56
33 128 114 159 179 33 67 37 102 13 102 -13 0 -25 -17 -41 -57 -62 -153 -192
-247 -286 -208 -78 32 -79 115 -4 413 60 240 76 284 119 336 48 56 103 71 178
50 l38 -10 -33 -22 c-60 -41 -61 -128 -2 -143 39 -10 75 6 102 46 62 92 -38
191 -180 178 -59 -6 -119 -46 -156 -104 -15 -24 -29 -43 -32 -43 -3 0 -14 19
-26 42 -47 96 -175 134 -279 84z"/>
</g>
</svg>
