<?xml version="1.0" standalone="no"?>
<!DOCTYPE svg PUBLIC "-//W3C//DTD SVG 20010904//EN"
 "http://www.w3.org/TR/2001/REC-SVG-20010904/DTD/svg10.dtd">
<svg version="1.0" xmlns="http://www.w3.org/2000/svg"
 width="468pt" height="373pt" viewBox="0 0 468 373"
 preserveAspectRatio="xMidYMid meet">
<metadata>
Created by potrace 1.8, written by Peter Selinger 2001-2007
</metadata>
<g transform="translate(0,373) scale(0.454369,-0.454369)"
fill="#000000" stroke="none">
<path d="M470 806 c0 -10 49 -110 49 -101 2 18 -33 105 -41 105 -4 0 -8 -2 -8
-4z"/>
<path d="M573 715 c-1 -22 1 -32 4 -23 2 10 2 28 0 40 -2 13 -4 5 -4 -17z"/>
<path d="M263 623 c142 -2 372 -2 510 0 139 1 23 2 -258 2 -280 0 -394 -1
-252 -2z"/>
<path d="M670 586 c0 -10 49 -110 49 -101 2 18 -33 105 -41 105 -4 0 -8 -2 -8
-4z"/>
<path d="M784 522 c4 -7 2 -21 -5 -30 -12 -15 -11 -15 6 0 16 15 17 20 6 30
-11 11 -13 10 -7 0z"/>
<path d="M46 431 c-3 -22 -9 -46 -12 -55 -3 -9 -2 -16 3 -16 5 0 14 25 20 55
5 30 6 55 3 55 -4 0 -10 -18 -14 -39z"/>
<path d="M111 452 c10 -16 10 -26 1 -48 -15 -32 -8 -45 8 -14 14 26 9 72 -8
78 -11 3 -11 0 -1 -16z"/>
<path d="M757 463 c7 -2 21 -2 30 0 10 3 5 5 -12 5 -16 0 -24 -2 -18 -5z"/>
<path d="M291 428 c-1 -21 -6 -28 -23 -29 l-23 -2 23 -4 c14 -3 22 -12 23 -26
2 -22 2 -22 6 1 3 14 12 22 26 23 l22 2 -22 4 c-14 3 -23 13 -26 31 l-4 27 -2
-27z"/>
<path d="M163 375 c-1 -22 1 -32 4 -23 2 10 2 28 0 40 -2 13 -4 5 -4 -17z"/>
<path d="M552 403 c86 -2 230 -2 320 0 90 1 19 3 -157 3 -176 0 -249 -2 -163
-3z"/>
<path d="M840 366 c0 -10 49 -110 49 -101 2 18 -33 105 -41 105 -4 0 -8 -2 -8
-4z"/>
<path d="M941 274 c-6 -21 -9 -40 -6 -42 2 -2 8 13 14 34 6 21 9 40 6 42 -2 2
-8 -13 -14 -34z"/>
<path d="M967 262 c3 -12 9 -25 14 -28 14 -8 11 10 -6 32 -13 18 -14 18 -8 -4z"/>
<path d="M681 208 c-1 -21 -7 -28 -28 -31 l-28 -4 27 -2 c19 -1 28 -7 31 -23
l4 -23 2 23 c1 15 8 22 24 23 l22 2 -22 4 c-14 3 -23 13 -26 31 l-4 27 -2 -27z"/>
<path d="M848 183 c34 -2 88 -2 120 0 31 2 3 3 -63 3 -66 0 -92 -1 -57 -3z"/>
<path d="M826 101 c-3 -22 -9 -46 -12 -55 -3 -9 -2 -16 3 -16 5 0 14 25 20 55
5 30 6 55 3 55 -4 0 -10 -18 -14 -39z"/>
<path d="M891 122 c10 -16 10 -26 1 -48 -15 -32 -8 -45 8 -14 14 26 9 72 -8
78 -11 3 -11 0 -1 -16z"/>
<path d="M942 50 c-5 -23 -6 -40 -1 -40 5 0 9 6 10 13 0 6 3 24 5 40 7 41 -2
33 -14 -13z"/>
<path d="M971 50 c0 -8 4 -22 9 -30 12 -18 12 -2 0 25 -6 13 -9 15 -9 5z"/>
</g>
</svg>
