<?xml version="1.0" standalone="no"?>
<!DOCTYPE svg PUBLIC "-//W3C//DTD SVG 20010904//EN"
 "http://www.w3.org/TR/2001/REC-SVG-20010904/DTD/svg10.dtd">
<svg version="1.0" xmlns="http://www.w3.org/2000/svg"
 width="468pt" height="301pt" viewBox="0 0 468 301"
 preserveAspectRatio="xMidYMid meet">
<metadata>
Created by potrace 1.8, written by Peter Selinger 2001-2007
</metadata>
<g transform="translate(0,301) scale(0.835714,-0.835714)"
fill="#000000" stroke="none">
<path d="M133 295 c-12 -69 2 -73 16 -5 13 61 13 60 3 60 -5 0 -13 -25 -19
-55z"/>
<path d="M195 338 c4 -9 3 -23 -1 -30 -11 -18 -15 -68 -5 -68 4 0 8 12 8 28 0
15 4 35 8 45 5 11 3 23 -4 30 -9 9 -11 8 -6 -5z"/>
<path d="M313 295 c-12 -69 2 -73 16 -5 13 61 13 60 3 60 -5 0 -13 -25 -19
-55z"/>
<path d="M375 338 c4 -9 3 -23 -1 -30 -11 -18 -15 -68 -5 -68 4 0 8 12 8 28 0
15 4 35 8 45 5 11 3 23 -4 30 -9 9 -11 8 -6 -5z"/>
<path d="M243 255 c-1 -22 1 -32 4 -23 2 10 2 28 0 40 -2 13 -4 5 -4 -17z"/>
<path d="M434 270 c0 -13 4 -16 10 -10 7 7 7 13 0 20 -6 6 -10 3 -10 -10z"/>
<path d="M418 223 c6 -2 18 -2 25 0 6 3 1 5 -13 5 -14 0 -19 -2 -12 -5z"/>
<path d="M138 173 c78 -2 206 -2 285 0 78 1 14 3 -143 3 -157 0 -221 -2 -142
-3z"/>
<path d="M41 80 c-13 -61 -13 -70 -1 -49 14 24 29 99 20 99 -5 0 -13 -23 -19
-50z"/>
<path d="M104 104 c-1 -13 2 -21 7 -18 11 6 12 31 2 37 -5 3 -9 -6 -9 -19z"/>
<path d="M411 80 c-13 -61 -13 -70 -1 -49 14 24 29 99 20 99 -5 0 -13 -23 -19
-50z"/>
<path d="M474 104 c-1 -13 2 -21 7 -18 11 6 12 31 2 37 -5 3 -9 -6 -9 -19z"/>
<path d="M281 88 c-1 -21 -7 -28 -28 -31 l-28 -4 27 -2 c19 -1 28 -7 31 -23
l4 -23 2 23 c1 15 8 22 24 23 l22 2 -22 4 c-14 3 -23 13 -26 31 l-4 27 -2 -27z"/>
<path d="M85 54 c2 -33 15 -43 15 -11 0 14 -4 28 -8 31 -4 2 -7 -6 -7 -20z"/>
<path d="M455 54 c2 -33 15 -43 15 -11 0 14 -4 28 -8 31 -4 2 -7 -6 -7 -20z"/>
<path d="M153 35 c-1 -22 1 -32 4 -23 2 10 2 28 0 40 -2 13 -4 5 -4 -17z"/>
<path d="M534 62 c4 -7 2 -21 -5 -30 -12 -15 -11 -15 6 0 16 15 17 20 6 30
-11 11 -13 10 -7 0z"/>
<path d="M507 3 c7 -2 21 -2 30 0 10 3 5 5 -12 5 -16 0 -24 -2 -18 -5z"/>
</g>
</svg>
