<?xml version="1.0" standalone="no"?>
<!DOCTYPE svg PUBLIC "-//W3C//DTD SVG 20010904//EN"
 "http://www.w3.org/TR/2001/REC-SVG-20010904/DTD/svg10.dtd">
<svg version="1.0" xmlns="http://www.w3.org/2000/svg"
 width="468pt" height="372pt" viewBox="0 0 468 372"
 preserveAspectRatio="xMidYMid meet">
<metadata>
Created by potrace 1.8, written by Peter Selinger 2001-2007
</metadata>
<g transform="translate(0,372) scale(0.091406,-0.091406)"
fill="#000000" stroke="none">
<path d="M4290 4028 c-52 -45 -131 -79 -218 -92 -72 -11 -77 -13 -77 -36 0
-24 3 -25 50 -21 44 3 125 24 178 46 16 7 17 -22 17 -528 0 -303 -4 -546 -9
-560 -12 -32 -27 -37 -138 -44 -89 -6 -93 -7 -93 -30 l0 -23 295 0 295 0 0 25
c0 24 -3 25 -57 26 -77 0 -151 13 -166 28 -9 9 -13 167 -17 623 -3 395 -9 612
-15 614 -5 2 -26 -11 -45 -28z"/>
<path d="M2632 3848 c-9 -9 -12 -88 -12 -295 l0 -283 -286 -2 c-255 -3 -288
-5 -297 -20 -8 -12 -7 -21 2 -32 12 -14 51 -16 297 -16 l284 0 0 -279 c0 -154
3 -286 6 -295 7 -19 35 -21 52 -4 9 9 12 88 12 295 l0 283 279 0 c154 0 286 3
295 6 9 3 16 16 16 29 0 13 -7 26 -16 29 -9 3 -141 6 -295 6 l-279 0 0 283 c0
283 -3 307 -35 307 -6 0 -16 -5 -23 -12z"/>
<path d="M725 3597 c-89 -43 -185 -166 -211 -270 -6 -26 -4 -28 15 -25 16 2
28 18 45 60 77 188 261 283 329 169 29 -49 21 -123 -38 -362 -73 -293 -105
-362 -182 -395 -39 -17 -79 -18 -122 -3 l-32 11 31 19 c50 31 65 94 30 129
-29 29 -74 25 -112 -9 -28 -25 -33 -36 -33 -76 0 -40 5 -51 32 -75 54 -49 142
-63 211 -35 43 19 74 45 113 98 l28 38 16 -35 c52 -109 198 -147 310 -82 56
33 128 114 159 179 33 67 37 102 13 102 -13 0 -25 -17 -41 -57 -62 -153 -192
-247 -286 -208 -78 32 -79 115 -4 413 60 240 76 284 119 336 48 56 103 71 178
50 l38 -10 -33 -22 c-60 -41 -61 -128 -2 -143 39 -10 75 6 102 46 62 92 -38
191 -180 178 -59 -6 -119 -46 -156 -104 -15 -24 -29 -43 -32 -43 -3 0 -14 19
-26 42 -47 96 -175 134 -279 84z"/>
<path d="M10 1885 l0 -45 2550 0 2550 0 0 45 0 45 -2550 0 -2550 0 0 -45z"/>
<path d="M1360 1511 c-97 -32 -160 -103 -160 -180 0 -53 60 -80 93 -43 32 35
18 78 -27 90 l-27 7 21 28 c63 80 226 98 279 30 66 -83 36 -260 -53 -318 -13
-9 -52 -19 -87 -23 -91 -10 -91 -32 1 -32 97 0 141 -24 176 -97 24 -48 26 -62
22 -147 -3 -82 -7 -99 -32 -136 -54 -82 -150 -98 -258 -44 -39 20 -109 90 -97
97 2 1 18 9 34 17 24 13 31 23 33 53 3 32 -1 39 -23 49 -35 16 -77 0 -85 -32
-4 -14 -1 -48 6 -75 9 -39 23 -60 64 -97 63 -59 135 -83 221 -75 226 20 331
281 173 427 -41 37 -64 51 -129 74 -18 7 -17 9 12 21 50 21 120 92 139 141 38
100 1 200 -92 244 -50 25 -160 36 -204 21z"/>
<path d="M4670 1308 c-52 -45 -131 -79 -218 -92 -72 -11 -77 -13 -77 -36 0
-24 3 -25 50 -21 44 3 125 24 178 46 16 7 17 -22 17 -528 0 -303 -4 -546 -9
-560 -12 -32 -27 -37 -138 -44 -89 -6 -93 -7 -93 -30 l0 -23 295 0 295 0 0 25
c0 24 -3 25 -57 26 -77 0 -151 13 -166 28 -9 9 -13 167 -17 623 -3 395 -9 612
-15 614 -5 2 -26 -11 -45 -28z"/>
<path d="M345 877 c-89 -43 -185 -166 -211 -270 -6 -26 -4 -28 15 -25 16 2 28
18 45 60 77 188 261 283 329 169 29 -49 21 -123 -38 -362 -73 -293 -105 -362
-182 -395 -39 -17 -79 -18 -122 -3 l-32 11 31 19 c50 31 65 94 30 129 -29 29
-74 25 -112 -9 -28 -25 -33 -36 -33 -76 0 -40 5 -51 32 -75 54 -49 142 -63
211 -35 43 19 74 45 113 98 l28 38 16 -35 c52 -109 198 -147 310 -82 56 33
128 114 159 179 33 67 37 102 13 102 -13 0 -25 -17 -41 -57 -62 -153 -192
-247 -286 -208 -78 32 -79 115 -4 413 60 240 76 284 119 336 48 56 103 71 178
50 l38 -10 -33 -22 c-60 -41 -61 -128 -2 -143 39 -10 75 6 102 46 62 92 -38
191 -180 178 -59 -6 -119 -46 -156 -104 -15 -24 -29 -43 -32 -43 -3 0 -14 19
-26 42 -47 96 -175 134 -279 84z"/>
<path d="M2376 544 c-20 -19 -20 -29 0 -48 14 -14 79 -16 601 -14 545 3 587 4
597 21 8 12 8 22 0 35 -10 16 -52 17 -597 20 -522 2 -587 0 -601 -14z"/>
</g>
</svg>
