<?xml version="1.0" standalone="no"?>
<!DOCTYPE svg PUBLIC "-//W3C//DTD SVG 20010904//EN"
 "http://www.w3.org/TR/2001/REC-SVG-20010904/DTD/svg10.dtd">
<svg version="1.0" xmlns="http://www.w3.org/2000/svg"
 width="468pt" height="32pt" viewBox="0 0 468 32"
 preserveAspectRatio="xMidYMid meet">
<metadata>
Created by potrace 1.8, written by Peter Selinger 2001-2007
</metadata>
<g transform="translate(0,32) scale(0.015626,-0.015626)"
fill="#000000" stroke="none">
<path d="M26239 1938 c-122 -118 -215 -271 -273 -449 -56 -172 -71 -278 -71
-494 0 -215 15 -322 70 -491 60 -184 146 -328 267 -446 50 -50 88 -72 88 -52
0 3 -26 36 -57 74 -191 226 -283 524 -283 915 0 389 86 672 276 906 35 43 64
81 64 84 0 18 -35 -2 -81 -47z"/>
<path d="M29517 1984 c-4 -4 14 -30 40 -58 212 -234 318 -592 300 -1011 -17
-374 -112 -646 -298 -849 -52 -57 -51 -83 0 -47 82 58 190 204 257 345 91 192
128 376 128 631 0 392 -109 698 -329 923 -68 69 -84 80 -98 66z"/>
<path d="M8923 1908 c-6 -7 -169 -278 -363 -603 -194 -324 -366 -610 -383
-633 -34 -51 -105 -99 -156 -107 -79 -13 -82 -15 -79 -38 3 -22 5 -22 195 -25
184 -2 192 -2 198 18 9 28 -1 40 -33 40 -43 0 -72 26 -72 63 0 32 14 60 125
246 l60 101 252 0 253 0 4 -22 c16 -75 35 -331 26 -348 -12 -22 -61 -40 -110
-40 -41 0 -66 -20 -56 -45 5 -13 38 -15 248 -13 l243 3 0 25 c0 24 -4 25 -67
30 -37 3 -72 10 -78 16 -6 6 -39 303 -75 668 -36 362 -67 662 -71 667 -8 13
-50 11 -61 -3z m-37 -585 c15 -156 25 -285 22 -288 -3 -3 -107 -4 -231 -3
l-225 3 196 328 197 327 6 -42 c4 -24 19 -170 35 -325z"/>
<path d="M17693 1908 c-6 -7 -169 -278 -363 -603 -194 -324 -366 -610 -383
-633 -34 -51 -105 -99 -156 -107 -79 -13 -82 -15 -79 -38 3 -22 5 -22 195 -25
184 -2 192 -2 198 18 9 28 -1 40 -33 40 -43 0 -72 26 -72 63 0 32 14 60 125
246 l60 101 252 0 253 0 4 -22 c16 -75 35 -331 26 -348 -12 -22 -61 -40 -110
-40 -41 0 -66 -20 -56 -45 5 -13 38 -15 248 -13 l243 3 0 25 c0 24 -4 25 -67
30 -37 3 -72 10 -78 16 -6 6 -39 303 -75 668 -36 362 -67 662 -71 667 -8 13
-50 11 -61 -3z m-37 -585 c15 -156 25 -285 22 -288 -3 -3 -107 -4 -231 -3
l-225 3 196 328 197 327 6 -42 c4 -24 19 -170 35 -325z"/>
<path d="M6140 1797 c-14 -7 -33 -29 -44 -51 -18 -37 -18 -38 1 -64 36 -48
109 -38 139 20 19 37 18 64 -6 88 -23 23 -54 25 -90 7z"/>
<path d="M23330 1683 c-1 -169 -90 -319 -200 -338 -25 -4 -40 -12 -40 -21 0
-11 18 -14 84 -14 l85 0 4 -322 c4 -362 6 -376 72 -444 86 -90 228 -84 293 11
36 51 52 120 52 217 0 81 -2 88 -20 88 -19 0 -20 -7 -20 -96 0 -115 -13 -165
-56 -210 -26 -29 -38 -34 -75 -34 -54 0 -82 18 -112 73 -21 41 -22 52 -25 380
l-3 337 140 0 141 0 0 25 0 25 -140 0 -140 0 0 185 c0 178 -1 185 -20 185 -17
0 -20 -7 -20 -47z"/>
<path d="M182 1359 c-52 -26 -113 -103 -146 -185 -33 -81 -36 -109 -12 -109
14 0 24 13 36 50 48 141 121 225 194 225 37 0 60 -40 51 -87 -3 -21 -36 -125
-72 -232 -50 -148 -66 -213 -70 -271 -7 -94 13 -162 60 -208 86 -84 249 -81
340 5 32 31 32 30 11 -51 -51 -201 -198 -366 -327 -366 -50 0 -99 21 -125 55
-29 36 -28 45 4 45 35 0 94 59 94 94 0 65 -77 86 -132 37 -31 -27 -33 -34 -33
-93 0 -55 4 -70 28 -101 43 -57 79 -72 173 -72 72 0 87 3 156 37 94 47 200
154 246 249 22 44 65 199 137 486 58 233 105 434 105 448 0 57 -90 59 -115 2
-8 -17 -49 -169 -91 -337 -41 -168 -84 -318 -94 -335 -28 -45 -70 -81 -120
-104 -86 -39 -156 -21 -184 49 -34 87 -15 210 74 460 41 115 50 154 47 189
-12 111 -132 173 -235 120z"/>
<path d="M3709 1357 c-46 -31 -75 -77 -103 -166 -34 -107 -35 -126 -12 -126
16 0 25 17 46 90 40 141 84 196 145 181 34 -9 48 -47 42 -111 -3 -28 -40 -194
-82 -369 -45 -189 -74 -328 -71 -342 7 -26 42 -40 76 -29 32 10 44 45 120 354
66 263 74 289 114 351 80 122 187 176 283 139 l28 -10 -33 -16 c-58 -28 -79
-96 -42 -133 45 -45 133 -4 146 67 10 52 -15 96 -68 122 -94 45 -212 14 -300
-80 l-46 -49 -11 33 c-32 96 -155 146 -232 94z"/>
<path d="M5256 1363 c-97 -29 -167 -96 -201 -192 -20 -58 -19 -107 4 -158 26
-57 79 -89 187 -114 112 -26 152 -45 181 -88 29 -43 29 -83 -1 -146 -47 -100
-123 -140 -266 -140 -108 1 -156 19 -205 77 l-28 33 37 6 c47 8 75 35 82 81
11 67 -62 103 -118 58 -35 -27 -51 -72 -46 -125 7 -61 45 -107 115 -142 53
-26 67 -28 168 -28 91 1 120 5 170 25 163 64 263 270 192 394 -38 66 -82 94
-197 122 -57 14 -117 32 -132 40 -29 15 -58 61 -58 92 0 39 49 117 91 144 90
58 233 47 299 -24 26 -28 26 -48 0 -48 -28 0 -70 -44 -70 -73 0 -13 8 -31 18
-40 59 -54 141 36 118 128 -12 46 -73 103 -129 120 -63 19 -147 18 -211 -2z"/>
<path d="M5932 1359 c-52 -26 -113 -103 -146 -185 -33 -81 -36 -109 -12 -109
14 0 24 13 36 50 36 105 88 183 141 210 69 36 117 1 104 -77 -4 -24 -50 -158
-103 -298 -80 -212 -97 -265 -97 -312 0 -60 17 -94 66 -131 33 -24 98 -32 142
-18 54 18 115 84 153 165 43 90 54 146 30 146 -9 0 -20 -10 -25 -22 -46 -118
-67 -162 -96 -196 -58 -67 -126 -81 -154 -31 -21 37 -3 103 105 384 115 298
117 347 22 418 -40 30 -114 33 -166 6z"/>
<path d="M6574 1370 c-34 -13 -81 -75 -104 -137 -32 -86 -49 -157 -40 -167 19
-19 38 6 54 69 26 104 62 172 103 193 34 19 61 14 79 -13 26 -40 14 -120 -71
-463 -47 -192 -75 -323 -71 -337 8 -32 50 -43 85 -24 24 13 33 40 101 309 82
321 97 357 182 443 107 107 261 129 302 42 34 -71 14 -197 -70 -436 -68 -197
-70 -209 -50 -263 40 -103 153 -137 247 -73 61 41 139 174 150 257 3 19 0 25
-15 25 -14 0 -24 -14 -38 -55 -47 -138 -118 -220 -191 -220 -66 0 -64 70 9
282 111 328 119 426 43 513 -92 105 -314 76 -432 -55 l-45 -49 -12 43 c-26 93
-132 150 -216 116z"/>
<path d="M20970 1371 c-111 -36 -191 -135 -193 -237 0 -55 23 -84 70 -84 40 0
73 30 73 65 0 31 -41 75 -70 75 -26 0 -25 13 4 56 34 50 81 82 142 94 146 30
254 -83 254 -265 l0 -62 -77 -7 c-160 -14 -283 -58 -358 -127 -59 -54 -86
-107 -92 -178 -7 -86 23 -136 112 -181 63 -32 75 -35 159 -35 74 0 98 4 131
22 40 21 88 67 118 112 l16 23 12 -41 c7 -25 28 -55 51 -76 47 -43 106 -48
159 -12 52 34 72 85 73 186 1 74 -1 86 -16 89 -16 3 -18 -5 -18 -71 0 -94 -7
-130 -32 -156 -25 -28 -79 -28 -104 0 -17 19 -19 44 -25 303 -4 196 -9 294
-19 324 -33 104 -148 183 -275 188 -38 2 -81 0 -95 -5z m280 -514 c0 -143 -14
-204 -61 -260 -78 -95 -217 -111 -295 -33 -62 62 -66 155 -10 251 48 81 151
137 284 154 37 5 70 9 75 10 4 0 7 -54 7 -122z"/>
<path d="M22605 1362 c-263 -91 -367 -450 -204 -704 119 -185 370 -235 518
-102 69 62 127 180 94 191 -7 3 -23 -19 -37 -51 -54 -121 -129 -176 -240 -176
-193 0 -315 216 -279 498 27 212 119 322 269 322 73 0 146 -32 192 -84 39 -44
40 -56 7 -56 -34 0 -65 -33 -65 -70 0 -40 31 -70 73 -70 52 0 71 27 65 94 -13
162 -216 269 -393 208z"/>
<path d="M24110 1371 c-111 -36 -191 -135 -193 -237 0 -55 23 -84 70 -84 40 0
73 30 73 65 0 31 -41 75 -70 75 -26 0 -25 13 4 56 34 50 81 82 142 94 146 30
254 -83 254 -265 l0 -62 -77 -7 c-160 -14 -283 -58 -358 -127 -59 -54 -86
-107 -92 -178 -7 -86 23 -136 112 -181 63 -32 75 -35 159 -35 74 0 98 4 131
22 40 21 88 67 118 112 l16 23 12 -41 c7 -25 28 -55 51 -76 47 -43 106 -48
159 -12 52 34 72 85 73 186 1 74 -1 86 -16 89 -16 3 -18 -5 -18 -71 0 -94 -7
-130 -32 -156 -25 -28 -79 -28 -104 0 -17 19 -19 44 -25 303 -4 196 -9 294
-19 324 -33 104 -148 183 -275 188 -38 2 -81 0 -95 -5z m280 -514 c0 -143 -14
-204 -61 -260 -78 -95 -217 -111 -295 -33 -62 62 -66 155 -10 251 48 81 151
137 284 154 37 5 70 9 75 10 4 0 7 -54 7 -122z"/>
<path d="M26642 1359 c-52 -26 -113 -103 -146 -185 -33 -81 -36 -109 -12 -109
14 0 24 13 36 50 48 141 121 225 194 225 37 0 60 -40 51 -87 -3 -21 -36 -125
-72 -232 -50 -148 -66 -213 -70 -271 -7 -94 13 -162 60 -208 86 -84 249 -81
340 5 32 31 32 30 11 -51 -51 -201 -198 -366 -327 -366 -50 0 -99 21 -125 55
-29 36 -28 45 4 45 35 0 94 59 94 94 0 65 -77 86 -132 37 -31 -27 -33 -34 -33
-93 0 -55 4 -70 28 -101 43 -57 79 -72 173 -72 72 0 87 3 156 37 94 47 200
154 246 249 22 44 65 199 137 486 58 233 105 434 105 448 0 57 -90 59 -115 2
-8 -17 -49 -169 -91 -337 -41 -168 -84 -318 -94 -335 -28 -45 -70 -81 -120
-104 -86 -39 -156 -21 -184 49 -34 87 -15 210 74 460 41 115 50 154 47 189
-12 111 -132 173 -235 120z"/>
<path d="M28645 1357 c-89 -43 -185 -166 -211 -270 -6 -26 -4 -28 15 -25 16 2
28 18 45 60 77 188 261 283 329 169 29 -49 21 -123 -38 -362 -73 -293 -105
-362 -182 -395 -39 -17 -79 -18 -122 -3 l-32 11 31 19 c50 31 65 94 30 129
-29 29 -74 25 -112 -9 -28 -25 -33 -36 -33 -76 0 -40 5 -51 32 -75 54 -49 142
-63 211 -35 43 19 74 45 113 98 l28 38 16 -35 c52 -109 198 -147 310 -82 56
33 128 114 159 179 33 67 37 102 13 102 -13 0 -25 -17 -41 -57 -62 -153 -192
-247 -286 -208 -78 32 -79 115 -4 413 60 240 76 284 119 336 48 56 103 71 178
50 l38 -10 -33 -22 c-60 -41 -61 -128 -2 -143 39 -10 75 6 102 46 62 92 -38
191 -180 178 -59 -6 -119 -46 -156 -104 -15 -24 -29 -43 -32 -43 -3 0 -14 19
-26 42 -47 96 -175 134 -279 84z"/>
<path d="M21775 1364 c-11 -2 -50 -6 -87 -9 -63 -6 -68 -8 -68 -30 0 -20 6
-25 38 -30 72 -11 85 -19 94 -53 5 -18 7 -175 6 -348 -3 -354 3 -329 -85 -340
-47 -6 -53 -9 -53 -30 l0 -24 205 0 205 0 0 25 c0 22 -4 25 -37 25 -53 1 -114
16 -125 32 -5 7 -7 123 -5 258 3 221 6 252 26 313 28 87 94 159 160 177 23 6
50 9 58 6 12 -5 12 -9 -1 -28 -34 -48 -4 -108 52 -108 58 0 87 76 46 121 -89
99 -250 47 -324 -104 l-29 -62 -1 108 0 107 -27 -1 c-16 -1 -37 -3 -48 -5z"/>
<path d="M24855 1359 c-97 -10 -105 -13 -105 -38 0 -17 9 -22 51 -27 93 -12
89 3 89 -370 0 -200 -4 -333 -10 -344 -7 -14 -26 -21 -70 -26 -55 -6 -60 -9
-60 -30 l0 -24 190 0 190 0 0 24 c0 21 -6 24 -54 30 -30 4 -60 13 -66 21 -8 9
-10 94 -8 287 l3 273 27 52 c39 73 91 120 154 139 89 26 165 -2 200 -72 17
-35 19 -67 22 -346 2 -205 0 -314 -7 -327 -9 -15 -26 -22 -71 -27 -55 -6 -60
-9 -60 -30 l0 -24 190 0 190 0 0 24 c0 21 -6 24 -54 30 -30 4 -59 13 -64 19
-6 7 -12 135 -15 312 -2 196 -8 313 -16 337 -16 50 -54 94 -105 121 -57 30
-192 31 -251 2 -49 -24 -108 -82 -134 -132 l-20 -38 -1 98 0 97 -27 -1 c-16
-1 -64 -5 -108 -10z"/>
<path d="M1629 1194 c-9 -11 -10 -20 -2 -32 9 -16 63 -17 604 -20 327 -1 604
0 617 3 24 6 29 34 10 53 -9 9 -159 12 -614 12 -537 0 -603 -2 -615 -16z"/>
<path d="M18749 1194 c-9 -11 -10 -20 -2 -32 9 -16 63 -17 604 -20 327 -1 604
0 617 3 24 6 29 34 10 53 -9 9 -159 12 -614 12 -537 0 -603 -2 -615 -16z"/>
<path d="M1629 834 c-9 -11 -10 -20 -2 -32 9 -16 63 -17 613 -20 437 -1 607 1
616 9 19 15 18 45 -2 53 -9 3 -285 6 -614 6 -533 0 -599 -2 -611 -16z"/>
<path d="M18749 834 c-9 -11 -10 -20 -2 -32 9 -16 63 -17 613 -20 437 -1 607
1 616 9 19 15 18 45 -2 53 -9 3 -285 6 -614 6 -533 0 -599 -2 -611 -16z"/>
<path d="M27654 675 c-34 -23 -48 -68 -34 -110 19 -57 84 -81 143 -51 l27 15
0 -39 c0 -98 -39 -202 -113 -298 -32 -42 -38 -55 -28 -65 17 -16 90 64 125
136 73 151 73 349 -1 406 -30 25 -89 28 -119 6z"/>
</g>
</svg>
