<?xml version="1.0" standalone="no"?>
<!DOCTYPE svg PUBLIC "-//W3C//DTD SVG 20010904//EN"
 "http://www.w3.org/TR/2001/REC-SVG-20010904/DTD/svg10.dtd">
<svg version="1.0" xmlns="http://www.w3.org/2000/svg"
 width="468pt" height="22pt" viewBox="0 0 468 22"
 preserveAspectRatio="xMidYMid meet">
<metadata>
Created by potrace 1.8, written by Peter Selinger 2001-2007
</metadata>
<g transform="translate(0,22) scale(0.128571,-0.128571)"
fill="#000000" stroke="none">
<path d="M505 95 c0 -49 2 -55 20 -54 11 0 14 3 8 6 -20 7 -16 43 5 44 16 1
16 2 0 6 -10 2 -18 14 -18 25 0 17 5 20 30 16 17 -3 30 -1 30 4 0 4 -17 8 -37
8 l-38 0 0 -55z"/>
<path d="M1375 95 l0 -55 37 0 c20 0 39 4 42 8 2 4 -11 6 -30 4 -29 -4 -34 -1
-34 17 0 14 6 21 20 21 11 0 20 4 20 9 0 5 -9 7 -20 4 -16 -4 -20 0 -20 17 0
19 4 22 30 18 17 -3 30 -1 30 4 0 4 -17 8 -37 8 l-38 0 0 -55z"/>
<path d="M1521 98 c0 -32 2 -58 7 -58 4 0 6 19 4 43 -5 70 -10 76 -11 15z"/>
<path d="M1835 95 c0 -49 2 -55 20 -54 11 0 14 3 8 6 -7 2 -13 14 -13 25 0 15
5 19 20 15 11 -3 20 -1 20 4 0 5 -9 9 -20 9 -14 0 -20 7 -20 21 0 18 5 21 30
17 17 -3 30 -1 30 4 0 4 -17 8 -37 8 l-38 0 0 -55z"/>
<path d="M2715 95 l0 -55 37 0 c20 0 39 4 42 8 2 4 -11 6 -30 4 -29 -4 -34 -1
-34 17 0 14 6 21 20 21 11 0 20 4 20 9 0 5 -9 7 -20 4 -16 -4 -20 0 -20 17 0
19 4 22 30 18 17 -3 30 -1 30 4 0 4 -17 8 -37 8 l-38 0 0 -55z"/>
<path d="M2858 95 c2 -30 7 -55 10 -55 4 0 5 25 4 55 -2 30 -7 55 -10 55 -4 0
-5 -25 -4 -55z"/>
<path d="M3175 95 c0 -49 2 -55 20 -54 11 0 14 3 8 6 -20 7 -16 43 5 44 16 1
16 2 0 6 -10 2 -18 14 -18 25 0 17 5 20 30 16 17 -3 30 -1 30 4 0 4 -17 8 -37
8 l-38 0 0 -55z"/>
<path d="M11 118 c-10 -27 -4 -53 17 -70 14 -12 14 -10 3 11 -7 13 -10 36 -7
52 7 34 -1 38 -13 7z"/>
<path d="M88 104 c2 -19 -2 -42 -9 -52 -11 -13 -9 -13 9 2 24 21 29 58 9 74
-10 9 -12 4 -9 -24z"/>
<path d="M1071 108 c-1 -21 -7 -28 -28 -31 l-28 -4 27 -2 c19 -1 28 -7 31 -23
l4 -23 2 23 c1 15 8 22 24 23 l22 2 -22 4 c-14 3 -23 13 -26 31 l-4 27 -2 -27z"/>
<path d="M2401 108 c-1 -21 -6 -28 -23 -29 l-23 -2 23 -4 c14 -3 22 -12 23
-26 2 -22 2 -22 6 1 3 14 12 22 26 23 l22 2 -22 4 c-14 3 -23 13 -26 31 l-4
27 -2 -27z"/>
<path d="M953 80 c0 -25 2 -35 4 -22 2 12 2 32 0 45 -2 12 -4 2 -4 -23z"/>
<path d="M2283 80 c0 -25 2 -35 4 -22 2 12 2 32 0 45 -2 12 -4 2 -4 -23z"/>
<path d="M3623 80 c0 -25 2 -35 4 -22 2 12 2 32 0 45 -2 12 -4 2 -4 -23z"/>
<path d="M125 75 c0 -19 5 -35 10 -35 7 0 9 15 7 35 -5 45 -17 45 -17 0z"/>
<path d="M185 75 c0 -19 5 -35 10 -35 7 0 9 15 7 35 -2 19 -7 35 -11 35 -3 0
-6 -16 -6 -35z"/>
<path d="M233 95 c-3 -9 -3 -18 -1 -21 3 -3 8 4 11 16 6 23 -1 27 -10 5z"/>
<path d="M310 75 c0 -19 4 -35 8 -35 4 0 6 16 4 35 -2 19 -6 35 -8 35 -2 0 -4
-16 -4 -35z"/>
<path d="M355 75 c0 -19 5 -35 10 -35 7 0 9 15 7 35 -2 19 -7 35 -11 35 -3 0
-6 -16 -6 -35z"/>
<path d="M442 80 c0 -19 2 -27 5 -17 2 9 2 25 0 35 -3 9 -5 1 -5 -18z"/>
<path d="M591 78 c-1 -30 3 -38 17 -38 11 0 13 3 5 8 -6 4 -13 21 -16 37 -4
27 -4 27 -6 -7z"/>
<path d="M689 72 c5 -34 6 -35 9 -8 2 16 0 32 -5 37 -5 5 -7 -7 -4 -29z"/>
<path d="M725 75 c0 -19 5 -35 10 -35 7 0 9 15 7 35 -2 19 -7 35 -11 35 -3 0
-6 -16 -6 -35z"/>
<path d="M775 73 c0 -43 12 -43 17 0 2 19 -1 34 -7 34 -5 0 -10 -15 -10 -34z"/>
<path d="M855 89 c-4 -12 -3 -25 2 -29 4 -5 8 4 9 21 1 34 -2 37 -11 8z"/>
<path d="M896 97 c3 -10 9 -15 12 -12 3 3 0 11 -7 18 -10 9 -11 8 -5 -6z"/>
<path d="M1186 79 c-8 -42 0 -50 9 -9 4 17 5 34 2 36 -2 3 -7 -10 -11 -27z"/>
<path d="M1475 89 c-4 -12 -2 -26 5 -33 8 -8 10 -7 4 7 -3 9 -1 24 6 32 8 9 8
15 2 15 -6 0 -14 -9 -17 -21z"/>
<path d="M1563 95 c-3 -9 -3 -18 -1 -21 3 -3 8 4 11 16 6 23 -1 27 -10 5z"/>
<path d="M1647 103 c-9 -9 -9 -51 1 -56 4 -3 7 10 7 29 0 19 0 34 -1 34 0 0
-4 -3 -7 -7z"/>
<path d="M1676 97 c3 -10 9 -15 12 -12 3 3 0 11 -7 18 -10 9 -11 8 -5 -6z"/>
<path d="M1772 80 c0 -19 2 -27 5 -17 2 9 2 25 0 35 -3 9 -5 1 -5 -18z"/>
<path d="M1921 78 c-1 -30 3 -38 17 -38 11 0 13 3 5 8 -6 4 -13 21 -16 37 -4
27 -4 27 -6 -7z"/>
<path d="M2015 76 c0 -18 5 -33 11 -33 5 0 8 13 6 29 -6 40 -17 42 -17 4z"/>
<path d="M2060 75 c0 -19 3 -35 8 -35 4 0 7 16 7 35 0 19 -3 35 -7 35 -5 0 -8
-16 -8 -35z"/>
<path d="M2105 74 c0 -19 5 -34 11 -34 6 0 9 13 6 30 -6 42 -17 45 -17 4z"/>
<path d="M2185 89 c-4 -12 -3 -25 2 -29 4 -5 8 4 9 21 1 34 -2 37 -11 8z"/>
<path d="M2226 97 c3 -10 9 -15 12 -12 3 3 0 11 -7 18 -10 9 -11 8 -5 -6z"/>
<path d="M2525 80 c-4 -17 -5 -34 -2 -36 2 -3 7 10 11 27 8 42 0 50 -9 9z"/>
<path d="M2566 98 c-3 -7 -9 -29 -15 -48 -7 -19 -7 -30 -2 -25 10 11 32 85 25
85 -3 0 -6 -6 -8 -12z"/>
<path d="M2817 103 c-9 -9 -9 -51 1 -56 4 -3 7 10 7 29 0 19 0 34 -1 34 0 0
-4 -3 -7 -7z"/>
<path d="M2903 95 c-3 -9 -3 -18 -1 -21 3 -3 8 4 11 16 6 23 -1 27 -10 5z"/>
<path d="M2975 89 c-4 -12 -3 -25 2 -29 4 -5 8 4 9 21 1 34 -2 37 -11 8z"/>
<path d="M3016 97 c3 -10 9 -15 12 -12 3 3 0 11 -7 18 -10 9 -11 8 -5 -6z"/>
<path d="M3112 80 c0 -19 2 -27 5 -17 2 9 2 25 0 35 -3 9 -5 1 -5 -18z"/>
<path d="M3261 78 c-1 -30 3 -38 17 -38 11 0 13 3 5 8 -6 4 -13 21 -16 37 -4
27 -4 27 -6 -7z"/>
<path d="M3359 72 c5 -34 6 -35 9 -8 2 16 0 32 -5 37 -5 5 -7 -7 -4 -29z"/>
<path d="M3395 75 c0 -19 5 -35 10 -35 7 0 9 15 7 35 -2 19 -7 35 -11 35 -3 0
-6 -16 -6 -35z"/>
<path d="M3445 73 c0 -43 12 -43 17 0 2 19 -1 34 -7 34 -5 0 -10 -15 -10 -34z"/>
<path d="M3525 89 c-4 -12 -3 -25 2 -29 4 -5 8 4 9 21 1 34 -2 37 -11 8z"/>
<path d="M3566 97 c3 -10 9 -15 12 -12 3 3 0 11 -7 18 -10 9 -11 8 -5 -6z"/>
<path d="M266 83 c-6 -14 -5 -15 5 -6 7 7 10 15 7 18 -3 3 -9 -2 -12 -12z"/>
<path d="M398 70 c-3 -19 0 -30 7 -30 7 0 10 11 7 30 -2 17 -5 30 -7 30 -2 0
-5 -13 -7 -30z"/>
<path d="M818 70 c-3 -19 0 -30 7 -30 7 0 10 11 7 30 -2 17 -5 30 -7 30 -2 0
-5 -13 -7 -30z"/>
<path d="M1596 83 c-6 -14 -5 -15 5 -6 7 7 10 15 7 18 -3 3 -9 -2 -12 -12z"/>
<path d="M2148 70 c-3 -19 0 -30 7 -30 7 0 10 11 7 30 -2 17 -5 30 -7 30 -2 0
-5 -13 -7 -30z"/>
<path d="M2936 83 c-6 -14 -5 -15 5 -6 7 7 10 15 7 18 -3 3 -9 -2 -12 -12z"/>
<path d="M3488 70 c-3 -19 0 -30 7 -30 7 0 10 11 7 30 -2 17 -5 30 -7 30 -2 0
-5 -13 -7 -30z"/>
<path d="M1290 81 c0 -6 5 -11 10 -11 6 0 10 2 10 4 0 3 -4 8 -10 11 -5 3 -10
1 -10 -4z"/>
<path d="M2630 81 c0 -6 5 -11 10 -11 6 0 10 2 10 4 0 3 -4 8 -10 11 -5 3 -10
1 -10 -4z"/>
<path d="M650 61 c0 -6 4 -13 10 -16 6 -3 7 1 4 9 -7 18 -14 21 -14 7z"/>
<path d="M1723 35 c-1 -22 1 -32 4 -23 2 10 2 28 0 40 -2 13 -4 5 -4 -17z"/>
<path d="M1980 61 c0 -6 4 -13 10 -16 6 -3 7 1 4 9 -7 18 -14 21 -14 7z"/>
<path d="M3075 62 c4 -8 -2 -23 -16 -38 l-22 -24 29 1 c18 1 22 3 11 6 -18 5
-18 6 -1 24 14 16 15 22 4 32 -10 9 -11 9 -5 -1z"/>
<path d="M3320 61 c0 -6 4 -13 10 -16 6 -3 7 1 4 9 -7 18 -14 21 -14 7z"/>
<path d="M230 45 c0 -8 8 -11 21 -8 12 4 25 0 31 -8 8 -12 9 -12 6 0 -6 20
-58 34 -58 16z"/>
<path d="M1560 45 c0 -8 8 -11 21 -8 12 4 25 0 31 -8 8 -12 9 -12 6 0 -6 20
-58 34 -58 16z"/>
<path d="M2900 45 c0 -8 8 -11 21 -8 12 4 25 0 31 -8 8 -12 9 -12 6 0 -6 20
-58 34 -58 16z"/>
</g>
</svg>
