<?xml version="1.0" standalone="no"?>
<!DOCTYPE svg PUBLIC "-//W3C//DTD SVG 20010904//EN"
 "http://www.w3.org/TR/2001/REC-SVG-20010904/DTD/svg10.dtd">
<svg version="1.0" xmlns="http://www.w3.org/2000/svg"
 width="468pt" height="116pt" viewBox="0 0 468 116"
 preserveAspectRatio="xMidYMid meet">
<metadata>
Created by potrace 1.8, written by Peter Selinger 2001-2007
</metadata>
<g transform="translate(0,116) scale(0.026292,-0.026292)"
fill="#000000" stroke="none">
<path d="M11175 4388 c-92 -9 -123 -24 -112 -52 5 -11 20 -16 49 -16 67 0 88
-9 88 -36 0 -13 -28 -134 -61 -269 l-61 -245 -28 44 c-82 128 -270 107 -425
-49 -242 -242 -261 -647 -34 -745 96 -41 197 -15 296 77 l51 48 21 -45 c29
-65 78 -95 154 -95 58 0 60 1 102 47 32 36 49 67 69 130 34 109 36 133 12 133
-14 0 -23 -17 -42 -83 -13 -46 -31 -97 -40 -114 -38 -73 -107 -101 -138 -56
-33 46 -20 112 134 724 83 327 148 599 145 604 -7 12 -54 11 -180 -2z m-207
-548 c36 -22 67 -68 82 -119 8 -29 0 -71 -46 -255 -30 -122 -62 -235 -71 -253
-20 -43 -113 -130 -165 -153 -67 -30 -114 -26 -153 13 -73 73 -71 207 6 462
47 155 107 246 193 295 60 35 108 38 154 10z"/>
<path d="M16955 4388 c-92 -9 -123 -24 -112 -52 5 -11 20 -16 49 -16 67 0 88
-9 88 -36 0 -13 -28 -134 -61 -269 l-61 -245 -28 44 c-82 128 -270 107 -425
-49 -242 -242 -261 -647 -34 -745 96 -41 197 -15 296 77 l51 48 21 -45 c29
-65 78 -95 154 -95 58 0 60 1 102 47 32 36 49 67 69 130 34 109 36 133 12 133
-14 0 -23 -17 -42 -83 -13 -46 -31 -97 -40 -114 -38 -73 -107 -101 -138 -56
-33 46 -20 112 134 724 83 327 148 599 145 604 -7 12 -54 11 -180 -2z m-207
-548 c36 -22 67 -68 82 -119 8 -29 0 -71 -46 -255 -30 -122 -62 -235 -71 -253
-20 -43 -113 -130 -165 -153 -67 -30 -114 -26 -153 13 -73 73 -71 207 6 462
47 155 107 246 193 295 60 35 108 38 154 10z"/>
<path d="M13142 4128 c-9 -9 -12 -88 -12 -295 l0 -283 -286 -2 c-255 -3 -288
-5 -297 -20 -8 -12 -7 -21 2 -32 12 -14 51 -16 297 -16 l284 0 0 -279 c0 -154
3 -286 6 -295 7 -19 35 -21 52 -4 9 9 12 88 12 295 l0 283 279 0 c154 0 286 3
295 6 9 3 16 16 16 29 0 13 -7 26 -16 29 -9 3 -141 6 -295 6 l-279 0 0 283 c0
283 -3 307 -35 307 -6 0 -16 -5 -23 -12z"/>
<path d="M214 3890 c-34 -13 -81 -75 -104 -137 -32 -86 -49 -157 -40 -167 19
-19 38 6 54 69 26 104 62 172 103 193 34 19 61 14 79 -13 26 -40 14 -120 -71
-463 -47 -192 -75 -323 -71 -337 8 -32 50 -43 85 -24 24 13 33 40 101 309 82
321 97 357 182 443 107 107 261 129 302 42 34 -71 14 -197 -70 -436 -68 -197
-70 -209 -50 -263 40 -103 153 -137 247 -73 61 41 139 174 150 257 3 19 0 25
-15 25 -14 0 -24 -14 -38 -55 -47 -138 -118 -220 -191 -220 -66 0 -64 70 9
282 111 328 119 426 43 513 -92 105 -314 76 -432 -55 l-45 -49 -12 43 c-26 93
-132 150 -216 116z"/>
<path d="M4364 3890 c-34 -13 -81 -75 -104 -137 -32 -86 -49 -157 -40 -167 19
-19 38 6 54 69 26 104 62 172 103 193 34 19 61 14 79 -13 26 -40 14 -120 -71
-463 -47 -192 -75 -323 -71 -337 8 -32 50 -43 85 -24 24 13 33 40 101 309 82
321 97 357 182 443 107 107 261 129 302 42 34 -71 14 -197 -70 -436 -68 -197
-70 -209 -50 -263 40 -103 153 -137 247 -73 61 41 139 174 150 257 3 19 0 25
-15 25 -14 0 -24 -14 -38 -55 -47 -138 -118 -220 -191 -220 -66 0 -64 70 9
282 111 328 119 426 43 513 -92 105 -314 76 -432 -55 l-45 -49 -12 43 c-26 93
-132 150 -216 116z"/>
<path d="M8744 3890 c-34 -13 -81 -75 -104 -137 -32 -86 -49 -157 -40 -167 19
-19 38 6 54 69 26 104 62 172 103 193 34 19 61 14 79 -13 26 -40 14 -120 -71
-463 -47 -192 -75 -323 -71 -337 8 -32 50 -43 85 -24 24 13 33 40 101 309 82
321 97 357 182 443 107 107 261 129 302 42 34 -71 14 -197 -70 -436 -68 -197
-70 -209 -50 -263 40 -103 153 -137 247 -73 61 41 139 174 150 257 3 19 0 25
-15 25 -14 0 -24 -14 -38 -55 -47 -138 -118 -220 -191 -220 -66 0 -64 70 9
282 111 328 119 426 43 513 -92 105 -314 76 -432 -55 l-45 -49 -12 43 c-26 93
-132 150 -216 116z"/>
<path d="M14524 3890 c-34 -13 -81 -75 -104 -137 -32 -86 -49 -157 -40 -167
19 -19 38 6 54 69 26 104 62 172 103 193 34 19 61 14 79 -13 26 -40 14 -120
-71 -463 -47 -192 -75 -323 -71 -337 8 -32 50 -43 85 -24 24 13 33 40 101 309
82 321 97 357 182 443 107 107 261 129 302 42 34 -71 14 -197 -70 -436 -68
-197 -70 -209 -50 -263 40 -103 153 -137 247 -73 61 41 139 174 150 257 3 19
0 25 -15 25 -14 0 -24 -14 -38 -55 -47 -138 -118 -220 -191 -220 -66 0 -64 70
9 282 111 328 119 426 43 513 -92 105 -314 76 -432 -55 l-45 -49 -12 43 c-26
93 -132 150 -216 116z"/>
<path d="M1495 3618 c-28 -29 -91 -56 -152 -64 -43 -5 -53 -10 -53 -25 0 -12
7 -19 18 -19 19 0 106 22 135 35 16 7 17 -15 17 -379 0 -442 9 -406 -99 -406
-54 0 -61 -2 -61 -20 0 -19 7 -20 206 -20 190 0 205 1 202 18 -3 14 -17 18
-76 22 -50 3 -76 10 -82 20 -6 9 -10 189 -10 438 0 447 0 447 -45 400z"/>
<path d="M5535 3616 c-83 -38 -134 -111 -142 -206 -4 -44 -2 -60 12 -73 46
-46 121 16 86 71 -5 8 -22 17 -39 20 l-31 7 20 45 c11 24 28 53 37 63 29 32
89 57 136 57 120 0 195 -86 196 -222 0 -128 -37 -191 -265 -448 -85 -96 -155
-183 -155 -192 0 -17 18 -18 244 -18 l243 0 17 106 c9 59 15 109 12 111 -12
12 -25 -11 -31 -55 -11 -80 -1 -77 -215 -80 -182 -3 -191 -2 -182 15 6 10 85
91 176 181 177 174 221 228 242 300 31 102 12 184 -61 259 -80 82 -200 106
-300 59z"/>
<path d="M10025 3618 c-28 -29 -91 -56 -152 -64 -43 -5 -53 -10 -53 -25 0 -12
7 -19 18 -19 19 0 106 22 135 35 16 7 17 -15 17 -379 0 -442 9 -406 -99 -406
-54 0 -61 -2 -61 -20 0 -19 7 -20 206 -20 190 0 205 1 202 18 -3 14 -17 18
-76 22 -50 3 -76 10 -82 20 -6 9 -10 189 -10 438 0 447 0 447 -45 400z"/>
<path d="M11565 3616 c-83 -38 -134 -111 -142 -206 -4 -44 -2 -60 12 -73 46
-46 121 16 86 71 -5 8 -22 17 -39 20 l-31 7 20 45 c11 24 28 53 37 63 29 32
89 57 136 57 120 0 195 -86 196 -222 0 -128 -37 -191 -265 -448 -85 -96 -155
-183 -155 -192 0 -17 18 -18 244 -18 l243 0 17 106 c9 59 15 109 12 111 -12
12 -25 -11 -31 -55 -11 -80 -1 -77 -215 -80 -182 -3 -191 -2 -182 15 6 10 85
91 176 181 177 174 221 228 242 300 31 102 12 184 -61 259 -80 82 -200 106
-300 59z"/>
<path d="M15695 3616 c-83 -38 -134 -111 -142 -206 -4 -44 -2 -60 12 -73 46
-46 121 16 86 71 -5 8 -22 17 -39 20 l-31 7 20 45 c11 24 28 53 37 63 29 32
89 57 136 57 120 0 195 -86 196 -222 0 -128 -37 -191 -265 -448 -85 -96 -155
-183 -155 -192 0 -17 18 -18 244 -18 l243 0 17 106 c9 59 15 109 12 111 -12
12 -25 -11 -31 -55 -11 -80 -1 -77 -215 -80 -182 -3 -191 -2 -182 15 6 10 85
91 176 181 177 174 221 228 242 300 31 102 12 184 -61 259 -80 82 -200 106
-300 59z"/>
<path d="M17475 3618 c-28 -29 -91 -56 -152 -64 -43 -5 -53 -10 -53 -25 0 -12
7 -19 18 -19 19 0 106 22 135 35 16 7 17 -15 17 -379 0 -442 9 -406 -99 -406
-54 0 -61 -2 -61 -20 0 -19 7 -20 206 -20 190 0 205 1 202 18 -3 14 -17 18
-76 22 -50 3 -76 10 -82 20 -6 9 -10 189 -10 438 0 447 0 447 -45 400z"/>
<path d="M2962 2778 c-9 -9 -12 -88 -12 -295 l0 -283 -286 -2 c-255 -3 -288
-5 -297 -20 -8 -12 -7 -21 2 -32 12 -14 51 -16 297 -16 l284 0 0 -279 c0 -154
3 -286 6 -295 7 -19 35 -21 52 -4 9 9 12 88 12 295 l0 283 279 0 c154 0 286 3
295 6 9 3 16 16 16 29 0 13 -7 26 -16 29 -9 3 -141 6 -295 6 l-279 0 0 283 c0
283 -3 307 -35 307 -6 0 -16 -5 -23 -12z"/>
<path d="M6639 2364 c-9 -11 -10 -20 -2 -32 9 -16 63 -17 604 -20 327 -1 604
0 617 3 24 6 29 34 10 53 -9 9 -159 12 -614 12 -537 0 -603 -2 -615 -16z"/>
<path d="M10 2170 l0 -40 905 0 905 0 0 40 0 40 -905 0 -905 0 0 -40z"/>
<path d="M4160 2170 l0 -40 905 0 905 0 0 40 0 40 -905 0 -905 0 0 -40z"/>
<path d="M8537 2203 c-4 -3 -7 -21 -7 -40 l0 -33 4630 0 4630 0 0 40 0 40
-4623 0 c-2543 0 -4627 -3 -4630 -7z"/>
<path d="M6639 2004 c-9 -11 -10 -20 -2 -32 9 -16 63 -17 613 -20 437 -1 607
1 616 9 19 15 18 45 -2 53 -9 3 -285 6 -614 6 -533 0 -599 -2 -611 -16z"/>
<path d="M905 1668 c-92 -9 -123 -24 -112 -52 5 -11 20 -16 49 -16 67 0 88 -9
88 -36 0 -13 -28 -134 -61 -269 l-61 -245 -28 44 c-82 128 -270 107 -425 -49
-242 -242 -261 -647 -34 -745 96 -41 197 -15 296 77 l51 48 21 -45 c29 -65 78
-95 154 -95 58 0 60 1 102 47 32 36 49 67 69 130 34 109 36 133 12 133 -14 0
-23 -17 -42 -83 -13 -46 -31 -97 -40 -114 -38 -73 -107 -101 -138 -56 -33 46
-20 112 134 724 83 327 148 599 145 604 -7 12 -54 11 -180 -2z m-207 -548 c36
-22 67 -68 82 -119 8 -29 0 -71 -46 -255 -30 -122 -62 -235 -71 -253 -20 -43
-113 -130 -165 -153 -67 -30 -114 -26 -153 13 -73 73 -71 207 6 462 47 155
107 246 193 295 60 35 108 38 154 10z"/>
<path d="M5065 1668 c-92 -9 -123 -24 -112 -52 5 -11 20 -16 49 -16 67 0 88
-9 88 -36 0 -13 -28 -134 -61 -269 l-61 -245 -28 44 c-82 128 -270 107 -425
-49 -242 -242 -261 -647 -34 -745 96 -41 197 -15 296 77 l51 48 21 -45 c29
-65 78 -95 154 -95 58 0 60 1 102 47 32 36 49 67 69 130 34 109 36 133 12 133
-14 0 -23 -17 -42 -83 -13 -46 -31 -97 -40 -114 -38 -73 -107 -101 -138 -56
-33 46 -20 112 134 724 83 327 148 599 145 604 -7 12 -54 11 -180 -2z m-207
-548 c36 -22 67 -68 82 -119 8 -29 0 -71 -46 -255 -30 -122 -62 -235 -71 -253
-20 -43 -113 -130 -165 -153 -67 -30 -114 -26 -153 13 -73 73 -71 207 6 462
47 155 107 246 193 295 60 35 108 38 154 10z"/>
<path d="M12335 1668 c-92 -9 -123 -24 -112 -52 5 -11 20 -16 49 -16 67 0 88
-9 88 -36 0 -13 -28 -134 -61 -269 l-61 -245 -28 44 c-82 128 -270 107 -425
-49 -242 -242 -261 -647 -34 -745 96 -41 197 -15 296 77 l51 48 21 -45 c29
-65 78 -95 154 -95 58 0 60 1 102 47 32 36 49 67 69 130 34 109 36 133 12 133
-14 0 -23 -17 -42 -83 -13 -46 -31 -97 -40 -114 -38 -73 -107 -101 -138 -56
-33 46 -20 112 134 724 83 327 148 599 145 604 -7 12 -54 11 -180 -2z m-207
-548 c36 -22 67 -68 82 -119 8 -29 0 -71 -46 -255 -30 -122 -62 -235 -71 -253
-20 -43 -113 -130 -165 -153 -67 -30 -114 -26 -153 13 -73 73 -71 207 6 462
47 155 107 246 193 295 60 35 108 38 154 10z"/>
<path d="M13985 1668 c-92 -9 -123 -24 -112 -52 5 -11 20 -16 49 -16 67 0 88
-9 88 -36 0 -13 -28 -134 -61 -269 l-61 -245 -28 44 c-82 128 -270 107 -425
-49 -242 -242 -261 -647 -34 -745 96 -41 197 -15 296 77 l51 48 21 -45 c29
-65 78 -95 154 -95 58 0 60 1 102 47 32 36 49 67 69 130 34 109 36 133 12 133
-14 0 -23 -17 -42 -83 -13 -46 -31 -97 -40 -114 -38 -73 -107 -101 -138 -56
-33 46 -20 112 134 724 83 327 148 599 145 604 -7 12 -54 11 -180 -2z m-207
-548 c36 -22 67 -68 82 -119 8 -29 0 -71 -46 -255 -30 -122 -62 -235 -71 -253
-20 -43 -113 -130 -165 -153 -67 -30 -114 -26 -153 13 -73 73 -71 207 6 462
47 155 107 246 193 295 60 35 108 38 154 10z"/>
<path d="M1425 898 c-28 -29 -91 -56 -152 -64 -43 -5 -53 -10 -53 -25 0 -12 7
-19 18 -19 19 0 106 22 135 35 16 7 17 -15 17 -379 0 -442 9 -406 -99 -406
-54 0 -61 -2 -61 -20 0 -19 7 -20 206 -20 190 0 205 1 202 17 -3 15 -17 19
-76 23 -50 3 -76 10 -82 20 -6 9 -10 189 -10 438 0 447 0 447 -45 400z"/>
<path d="M5455 896 c-83 -38 -134 -111 -142 -206 -4 -44 -2 -60 12 -73 46 -46
121 16 86 71 -5 8 -22 17 -39 20 l-31 7 20 45 c11 24 28 53 37 63 29 32 89 57
136 57 120 0 195 -86 196 -222 0 -128 -37 -191 -265 -448 -85 -96 -155 -183
-155 -192 0 -17 18 -18 244 -18 l243 0 17 106 c9 59 15 109 12 111 -12 12 -25
-11 -31 -55 -11 -80 -1 -77 -215 -80 -182 -3 -191 -2 -182 15 6 10 85 91 176
181 177 174 221 228 242 300 31 102 12 184 -61 259 -80 82 -200 106 -300 59z"/>
<path d="M12845 898 c-28 -29 -91 -56 -152 -64 -43 -5 -53 -10 -53 -25 0 -12
7 -19 18 -19 19 0 106 22 135 35 16 7 17 -15 17 -379 0 -442 9 -406 -99 -406
-54 0 -61 -2 -61 -20 0 -19 7 -20 206 -20 190 0 205 1 202 17 -3 15 -17 19
-76 23 -50 3 -76 10 -82 20 -6 9 -10 189 -10 438 0 447 0 447 -45 400z"/>
<path d="M14385 896 c-83 -38 -134 -111 -142 -206 -4 -44 -2 -60 12 -73 46
-46 121 16 86 71 -5 8 -22 17 -39 20 l-31 7 20 45 c11 24 28 53 37 63 29 32
89 57 136 57 120 0 195 -86 196 -222 0 -128 -37 -191 -265 -448 -85 -96 -155
-183 -155 -192 0 -17 18 -18 244 -18 l243 0 17 106 c9 59 15 109 12 111 -12
12 -25 -11 -31 -55 -11 -80 -1 -77 -215 -80 -182 -3 -191 -2 -182 15 6 10 85
91 176 181 177 174 221 228 242 300 31 102 12 184 -61 259 -80 82 -200 106
-300 59z"/>
</g>
</svg>
