<?xml version="1.0" standalone="no"?>
<!DOCTYPE svg PUBLIC "-//W3C//DTD SVG 20010904//EN"
 "http://www.w3.org/TR/2001/REC-SVG-20010904/DTD/svg10.dtd">
<svg version="1.0" xmlns="http://www.w3.org/2000/svg"
 width="468pt" height="354pt" viewBox="0 0 468 354"
 preserveAspectRatio="xMidYMid meet">
<metadata>
Created by potrace 1.8, written by Peter Selinger 2001-2007
</metadata>
<g transform="translate(0,354) scale(0.085872,-0.085872)"
fill="#000000" stroke="none">
<path d="M825 4108 c-92 -9 -123 -24 -112 -52 5 -11 20 -16 49 -16 67 0 88 -9
88 -36 0 -13 -28 -134 -61 -269 l-61 -245 -28 44 c-82 128 -270 107 -425 -49
-242 -242 -261 -647 -34 -745 96 -41 197 -15 296 77 l51 48 21 -45 c29 -65 78
-95 154 -95 58 0 60 1 102 47 32 36 49 67 69 130 34 109 36 133 12 133 -14 0
-23 -17 -42 -83 -13 -46 -31 -97 -40 -114 -38 -73 -107 -101 -138 -56 -33 46
-20 112 134 724 83 327 148 599 145 604 -7 12 -54 11 -180 -2z m-207 -548 c36
-22 67 -68 82 -119 8 -29 0 -71 -46 -255 -30 -122 -62 -235 -71 -253 -20 -43
-113 -130 -165 -153 -67 -30 -114 -26 -153 13 -73 73 -71 207 6 462 47 155
107 246 193 295 60 35 108 38 154 10z"/>
<path d="M1355 3597 c-89 -43 -185 -166 -211 -270 -6 -26 -4 -28 15 -25 16 2
28 18 45 60 77 188 261 283 329 169 29 -49 21 -123 -38 -362 -73 -293 -105
-362 -182 -395 -39 -17 -79 -18 -122 -3 l-32 11 31 19 c50 31 65 94 30 129
-29 29 -74 25 -112 -9 -28 -25 -33 -36 -33 -76 0 -40 5 -51 32 -75 54 -49 142
-63 211 -35 43 19 74 45 113 98 l28 38 16 -35 c52 -109 198 -147 310 -82 56
33 128 114 159 179 33 67 37 102 13 102 -13 0 -25 -17 -41 -57 -62 -153 -192
-247 -286 -208 -78 32 -79 115 -4 413 60 240 76 284 119 336 48 56 103 71 178
50 l38 -10 -33 -22 c-60 -41 -61 -128 -2 -143 39 -10 75 6 102 46 62 92 -38
191 -180 178 -59 -6 -119 -46 -156 -104 -15 -24 -29 -43 -32 -43 -3 0 -14 19
-26 42 -47 96 -175 134 -279 84z"/>
<path d="M5150 2678 c-52 -45 -131 -79 -218 -92 -72 -11 -77 -13 -77 -36 0
-24 3 -25 50 -21 44 3 125 24 178 46 16 7 17 -22 17 -528 0 -303 -4 -546 -9
-560 -12 -32 -27 -37 -138 -44 -89 -6 -93 -7 -93 -30 l0 -23 295 0 295 0 0 25
c0 24 -3 25 -57 26 -77 0 -151 13 -166 28 -9 9 -13 167 -17 623 -3 395 -9 612
-15 614 -5 2 -26 -11 -45 -28z"/>
<path d="M2789 2084 c-9 -11 -10 -20 -2 -32 9 -16 63 -17 604 -20 327 -1 604
0 617 3 24 6 29 34 10 53 -9 9 -159 12 -614 12 -537 0 -603 -2 -615 -16z"/>
<path d="M0 1890 l0 -40 1066 0 1065 0 -3 38 -3 37 -1062 3 -1063 2 0 -40z"/>
<path d="M2789 1724 c-9 -11 -10 -20 -2 -32 9 -16 63 -17 613 -20 437 -1 607
1 616 9 19 15 18 45 -2 53 -9 3 -285 6 -614 6 -533 0 -599 -2 -611 -16z"/>
<path d="M825 1388 c-92 -9 -123 -24 -112 -52 5 -11 20 -16 49 -16 67 0 88 -9
88 -36 0 -13 -28 -134 -61 -269 l-61 -245 -28 44 c-82 128 -270 107 -425 -49
-242 -242 -261 -647 -34 -745 96 -41 197 -15 296 77 l51 48 21 -45 c29 -65 78
-95 154 -95 58 0 60 1 102 47 32 36 49 67 69 130 34 109 36 133 12 133 -14 0
-23 -17 -42 -83 -13 -46 -31 -97 -40 -114 -38 -73 -107 -101 -138 -56 -33 46
-20 112 134 724 83 327 148 599 145 604 -7 12 -54 11 -180 -2z m-207 -548 c36
-22 67 -68 82 -119 8 -29 0 -71 -46 -255 -30 -122 -62 -235 -71 -253 -20 -43
-113 -130 -165 -153 -67 -30 -114 -26 -153 13 -73 73 -71 207 6 462 47 155
107 246 193 295 60 35 108 38 154 10z"/>
<path d="M1355 877 c-89 -43 -185 -166 -211 -270 -6 -26 -4 -28 15 -25 16 2
28 18 45 60 77 188 261 283 329 169 29 -49 21 -123 -38 -362 -73 -293 -105
-362 -182 -395 -39 -17 -79 -18 -122 -3 l-32 11 31 19 c50 31 65 94 30 129
-29 29 -74 25 -112 -9 -28 -25 -33 -36 -33 -76 0 -40 5 -51 32 -75 54 -49 142
-63 211 -35 43 19 74 45 113 98 l28 38 16 -35 c52 -109 198 -147 310 -82 56
33 128 114 159 179 33 67 37 102 13 102 -13 0 -25 -17 -41 -57 -62 -153 -192
-247 -286 -208 -78 32 -79 115 -4 413 60 240 76 284 119 336 48 56 103 71 178
50 l38 -10 -33 -22 c-60 -41 -61 -128 -2 -143 39 -10 75 6 102 46 62 92 -38
191 -180 178 -59 -6 -119 -46 -156 -104 -15 -24 -29 -43 -32 -43 -3 0 -14 19
-26 42 -47 96 -175 134 -279 84z"/>
</g>
</svg>
