<?xml version="1.0" standalone="no"?>
<!DOCTYPE svg PUBLIC "-//W3C//DTD SVG 20010904//EN"
 "http://www.w3.org/TR/2001/REC-SVG-20010904/DTD/svg10.dtd">
<svg version="1.0" xmlns="http://www.w3.org/2000/svg"
 width="468pt" height="22pt" viewBox="0 0 468 22"
 preserveAspectRatio="xMidYMid meet">
<metadata>
Created by potrace 1.8, written by Peter Selinger 2001-2007
</metadata>
<g transform="translate(0,22) scale(0.010929,-0.010929)"
fill="#000000" stroke="none">
<path d="M5499 1938 c-122 -118 -215 -271 -273 -449 -56 -172 -71 -278 -71
-494 0 -215 15 -322 70 -491 60 -184 146 -328 267 -446 50 -50 88 -72 88 -52
0 3 -26 36 -57 74 -191 226 -283 524 -283 915 0 389 86 672 276 906 35 43 64
81 64 84 0 18 -35 -2 -81 -47z"/>
<path d="M10787 1984 c-4 -4 14 -30 40 -58 212 -234 318 -592 300 -1011 -17
-374 -112 -646 -298 -849 -52 -57 -51 -83 0 -47 82 58 190 204 257 345 91 192
128 376 128 631 0 392 -109 698 -329 923 -68 69 -84 80 -98 66z"/>
<path d="M21259 1938 c-122 -118 -215 -271 -273 -449 -56 -172 -71 -278 -71
-494 0 -215 15 -322 70 -491 60 -184 146 -328 267 -446 50 -50 88 -72 88 -52
0 3 -26 36 -57 74 -191 226 -283 524 -283 915 0 389 86 672 276 906 35 43 64
81 64 84 0 18 -35 -2 -81 -47z"/>
<path d="M26537 1984 c-4 -4 14 -30 40 -58 212 -234 318 -592 300 -1011 -17
-374 -112 -646 -298 -849 -52 -57 -51 -83 0 -47 82 58 190 204 257 345 91 192
128 376 128 631 0 392 -109 698 -329 923 -68 69 -84 80 -98 66z"/>
<path d="M37099 1938 c-122 -118 -215 -271 -273 -449 -56 -172 -71 -278 -71
-494 0 -215 15 -322 70 -491 60 -184 146 -328 267 -446 50 -50 88 -72 88 -52
0 3 -26 36 -57 74 -191 226 -283 524 -283 915 0 389 86 672 276 906 35 43 64
81 64 84 0 18 -35 -2 -81 -47z"/>
<path d="M42387 1984 c-4 -4 14 -30 40 -58 212 -234 318 -592 300 -1011 -17
-374 -112 -646 -298 -849 -52 -57 -51 -83 0 -47 82 58 190 204 257 345 91 192
128 376 128 631 0 392 -109 698 -329 923 -68 69 -84 80 -98 66z"/>
<path d="M496 1875 c-109 -28 -184 -72 -277 -165 -139 -138 -205 -288 -216
-490 -18 -332 162 -621 447 -721 92 -33 246 -33 347 -1 173 54 326 204 401
392 70 178 70 403 -1 580 -76 188 -215 326 -388 387 -92 32 -226 40 -313 18z
m312 -69 c171 -91 273 -281 289 -542 20 -330 -105 -619 -312 -720 -54 -26 -70
-29 -160 -29 -90 0 -106 3 -159 29 -124 61 -238 217 -281 383 -27 110 -38 263
-25 379 29 268 137 440 328 521 49 20 70 23 152 20 88 -3 100 -6 168 -41z"/>
<path d="M18090 1874 c-8 -1 -50 -6 -93 -9 -77 -7 -78 -7 -75 -33 3 -23 8 -27
38 -30 65 -5 78 -11 89 -43 7 -20 11 -124 11 -276 l0 -245 -56 51 c-127 116
-314 106 -455 -26 -62 -57 -94 -107 -120 -180 -77 -224 20 -478 219 -571 47
-22 71 -27 137 -27 96 0 155 25 222 92 l43 42 0 -70 0 -70 113 6 c135 8 139 9
135 37 -3 20 -11 24 -57 30 -29 3 -58 11 -65 18 -8 8 -12 189 -14 660 l-2 650
-28 -1 c-15 -1 -34 -3 -42 -5z m-170 -565 c49 -26 74 -48 104 -93 l26 -39 0
-239 c0 -272 -2 -280 -74 -346 -61 -56 -107 -75 -182 -75 -113 -1 -194 70
-237 207 -18 58 -22 95 -22 201 1 145 15 209 64 286 72 114 211 157 321 98z"/>
<path d="M33930 1874 c-8 -1 -50 -6 -93 -9 -77 -7 -78 -7 -75 -33 3 -23 8 -27
38 -30 65 -5 78 -11 89 -43 7 -20 11 -124 11 -276 l0 -245 -56 51 c-127 116
-314 106 -455 -26 -62 -57 -94 -107 -120 -180 -77 -224 20 -478 219 -571 47
-22 71 -27 137 -27 96 0 155 25 222 92 l43 42 0 -70 0 -70 113 6 c135 8 139 9
135 37 -3 20 -11 24 -57 30 -29 3 -58 11 -65 18 -8 8 -12 189 -14 660 l-2 650
-28 -1 c-15 -1 -34 -3 -42 -5z m-170 -565 c49 -26 74 -48 104 -93 l26 -39 0
-239 c0 -272 -2 -280 -74 -346 -61 -56 -107 -75 -182 -75 -113 -1 -194 70
-237 207 -18 58 -22 95 -22 201 1 145 15 209 64 286 72 114 211 157 321 98z"/>
<path d="M5780 1836 c0 -22 4 -24 66 -28 50 -3 70 -9 80 -23 12 -15 14 -122
14 -604 0 -322 -4 -592 -8 -599 -11 -16 -67 -32 -114 -32 -34 0 -38 -3 -38
-25 l0 -25 245 0 245 0 0 24 c0 22 -5 23 -74 29 -91 8 -105 13 -117 44 -5 13
-9 144 -9 290 l0 265 143 -4 c161 -4 194 -15 221 -72 9 -20 16 -59 16 -95 0
-54 2 -61 20 -61 19 0 20 7 20 261 0 243 -1 260 -17 257 -15 -3 -19 -17 -24
-74 -10 -133 -43 -155 -242 -162 l-138 -5 3 297 c3 251 5 298 18 306 21 13
369 12 446 -1 138 -24 201 -104 226 -286 10 -78 15 -93 30 -93 22 0 22 -4 -5
240 l-22 195 -493 3 -492 2 0 -24z"/>
<path d="M16190 1836 c0 -22 4 -24 66 -28 50 -3 70 -9 80 -23 12 -15 14 -122
14 -604 0 -322 -4 -592 -8 -599 -11 -16 -67 -32 -114 -32 -34 0 -38 -3 -38
-25 l0 -25 520 0 c286 0 520 4 520 9 0 4 16 118 35 251 19 134 33 245 30 248
-17 17 -33 -19 -53 -123 -37 -195 -93 -273 -220 -312 -47 -14 -99 -17 -285
-18 -215 0 -229 1 -243 19 -11 16 -14 75 -14 314 l0 294 149 -3 c132 -4 153
-7 178 -25 42 -30 63 -80 63 -146 0 -51 2 -58 20 -58 19 0 20 7 20 261 0 243
-1 260 -17 257 -15 -3 -19 -17 -24 -74 -10 -134 -43 -155 -247 -162 l-143 -5
3 282 c3 237 5 283 18 291 21 13 393 12 465 -1 146 -27 202 -94 232 -279 14
-85 19 -100 35 -100 16 0 18 5 13 33 -3 17 -12 100 -20 182 -9 83 -18 167 -21
188 l-6 37 -504 0 -504 0 0 -24z"/>
<path d="M21530 1836 c0 -22 4 -24 66 -28 50 -3 70 -9 80 -23 12 -15 14 -122
14 -604 0 -322 -4 -592 -8 -599 -11 -16 -67 -32 -114 -32 -34 0 -38 -3 -38
-25 l0 -25 245 0 245 0 0 24 c0 22 -5 23 -74 29 -91 8 -105 13 -117 44 -5 13
-9 144 -9 290 l0 265 143 -4 c161 -4 194 -15 221 -72 9 -20 16 -59 16 -95 0
-54 2 -61 20 -61 19 0 20 7 20 261 0 243 -1 260 -17 257 -15 -3 -19 -17 -24
-74 -10 -133 -43 -155 -242 -162 l-138 -5 3 297 c3 251 5 298 18 306 21 13
369 12 446 -1 138 -24 201 -104 226 -286 10 -78 15 -93 30 -93 22 0 22 -4 -5
240 l-22 195 -493 3 -492 2 0 -24z"/>
<path d="M32030 1836 c0 -22 4 -24 66 -28 50 -3 70 -9 80 -23 12 -15 14 -122
14 -604 0 -322 -4 -592 -8 -599 -11 -16 -67 -32 -114 -32 -34 0 -38 -3 -38
-25 l0 -25 520 0 c286 0 520 4 520 9 0 4 16 118 35 251 19 134 33 245 30 248
-17 17 -33 -19 -53 -123 -37 -195 -93 -273 -220 -312 -47 -14 -99 -17 -285
-18 -215 0 -229 1 -243 19 -11 16 -14 75 -14 314 l0 294 149 -3 c132 -4 153
-7 178 -25 42 -30 63 -80 63 -146 0 -51 2 -58 20 -58 19 0 20 7 20 261 0 243
-1 260 -17 257 -15 -3 -19 -17 -24 -74 -10 -134 -43 -155 -247 -162 l-143 -5
3 282 c3 237 5 283 18 291 21 13 393 12 465 -1 146 -27 202 -94 232 -279 14
-85 19 -100 35 -100 16 0 18 5 13 33 -3 17 -12 100 -20 182 -9 83 -18 167 -21
188 l-6 37 -504 0 -504 0 0 -24z"/>
<path d="M37370 1836 c0 -22 4 -24 66 -28 50 -3 70 -9 80 -23 12 -15 14 -122
14 -604 0 -322 -4 -592 -8 -599 -11 -16 -67 -32 -114 -32 -34 0 -38 -3 -38
-25 l0 -25 245 0 245 0 0 24 c0 22 -5 23 -74 29 -91 8 -105 13 -117 44 -5 13
-9 144 -9 290 l0 265 143 -4 c161 -4 194 -15 221 -72 9 -20 16 -59 16 -95 0
-54 2 -61 20 -61 19 0 20 7 20 261 0 243 -1 260 -17 257 -15 -3 -19 -17 -24
-74 -10 -133 -43 -155 -242 -162 l-138 -5 3 297 c3 251 5 298 18 306 21 13
369 12 446 -1 138 -24 201 -104 226 -286 10 -78 15 -93 30 -93 22 0 22 -4 -5
240 l-22 195 -493 3 -492 2 0 -24z"/>
<path d="M2224 1787 c-55 -47 -20 -137 53 -137 39 0 83 37 83 70 0 76 -80 115
-136 67z"/>
<path d="M3634 1787 c-55 -47 -20 -137 53 -137 39 0 83 37 83 70 0 76 -80 115
-136 67z"/>
<path d="M12532 1608 c-9 -9 -12 -88 -12 -295 l0 -283 -286 -2 c-255 -3 -288
-5 -297 -20 -8 -12 -7 -21 2 -32 12 -14 51 -16 297 -16 l284 0 0 -279 c0 -154
3 -286 6 -295 7 -19 35 -21 52 -4 9 9 12 88 12 295 l0 283 279 0 c154 0 286 3
295 6 9 3 16 16 16 29 0 13 -7 26 -16 29 -9 3 -141 6 -295 6 l-279 0 0 283 c0
283 -3 307 -35 307 -6 0 -16 -5 -23 -12z"/>
<path d="M28282 1608 c-9 -9 -12 -88 -12 -295 l0 -283 -286 -2 c-255 -3 -288
-5 -297 -20 -8 -12 -7 -21 2 -32 12 -14 51 -16 297 -16 l284 0 0 -279 c0 -154
3 -286 6 -295 7 -19 35 -21 52 -4 9 9 12 88 12 295 l0 283 279 0 c154 0 286 3
295 6 21 8 21 50 0 58 -9 3 -141 6 -295 6 l-279 0 0 283 c0 283 -3 307 -35
307 -6 0 -16 -5 -23 -12z"/>
<path d="M3265 1374 c-22 -8 -57 -28 -78 -45 -35 -28 -40 -30 -55 -15 -37 33
-112 57 -178 57 -112 0 -212 -59 -259 -155 -50 -101 -41 -214 24 -301 29 -39
29 -40 12 -65 -57 -82 -53 -203 9 -273 l29 -33 -36 -13 c-85 -31 -151 -130
-140 -211 26 -194 395 -296 659 -181 58 25 136 95 154 138 29 68 10 171 -42
232 -67 78 -186 110 -414 111 -148 0 -167 6 -195 60 -19 37 -19 113 0 150 l15
29 43 -24 c70 -40 135 -49 207 -31 116 30 196 110 221 222 16 70 0 154 -40
211 -27 38 -28 42 -13 56 29 25 95 54 139 61 l43 6 -6 -30 c-8 -36 9 -60 41
-60 32 0 48 23 40 60 -12 56 -93 76 -180 44z m-239 -53 c34 -15 47 -30 70 -77
26 -54 29 -68 29 -164 -1 -92 -4 -111 -26 -155 -34 -67 -85 -97 -155 -92 -65
4 -105 33 -136 95 -20 41 -23 62 -23 157 0 98 3 116 25 160 19 38 36 55 70 73
54 27 92 28 146 3z m182 -815 c71 -23 119 -71 127 -130 14 -89 -34 -159 -142
-212 -55 -27 -65 -29 -188 -29 -112 1 -137 4 -178 23 -71 32 -113 68 -136 116
-28 56 -26 91 4 153 26 51 56 78 104 94 45 15 349 3 409 -15z"/>
<path d="M19075 1374 c-22 -8 -57 -28 -78 -45 -35 -28 -40 -30 -55 -15 -37 33
-112 57 -178 57 -112 0 -212 -59 -259 -155 -50 -101 -41 -214 24 -301 29 -39
29 -40 12 -65 -57 -82 -53 -203 9 -273 l29 -33 -36 -13 c-85 -31 -151 -130
-140 -211 26 -194 395 -296 659 -181 58 25 136 95 154 138 29 68 10 171 -42
232 -67 78 -186 110 -414 111 -148 0 -167 6 -195 60 -19 37 -19 113 0 150 l15
29 43 -24 c70 -40 135 -49 207 -31 116 30 196 110 221 222 16 70 0 154 -40
211 -27 38 -28 42 -13 56 29 25 95 54 139 61 l43 6 -6 -30 c-8 -36 9 -60 41
-60 32 0 48 23 40 60 -12 56 -93 76 -180 44z m-239 -53 c34 -15 47 -30 70 -77
26 -54 29 -68 29 -164 -1 -92 -4 -111 -26 -155 -34 -67 -85 -97 -155 -92 -65
4 -105 33 -136 95 -20 41 -23 62 -23 157 0 98 3 116 25 160 19 38 36 55 70 73
54 27 92 28 146 3z m182 -815 c71 -23 119 -71 127 -130 14 -89 -34 -159 -142
-212 -55 -27 -65 -29 -188 -29 -112 1 -137 4 -178 23 -71 32 -113 68 -136 116
-28 56 -26 91 4 153 26 51 56 78 104 94 45 15 349 3 409 -15z"/>
<path d="M34915 1374 c-22 -8 -57 -28 -78 -45 -35 -28 -40 -30 -55 -15 -37 33
-112 57 -178 57 -112 0 -212 -59 -259 -155 -50 -101 -41 -214 24 -301 29 -39
29 -40 12 -65 -57 -82 -53 -203 9 -273 l29 -33 -36 -13 c-85 -31 -151 -130
-140 -211 26 -194 395 -296 659 -181 58 25 136 95 154 138 29 68 10 171 -42
232 -67 78 -186 110 -414 111 -148 0 -167 6 -195 60 -19 37 -19 113 0 150 l15
29 43 -24 c70 -40 135 -49 207 -31 116 30 196 110 221 222 16 70 0 154 -40
211 -27 38 -28 42 -13 56 29 25 95 54 139 61 l43 6 -6 -30 c-8 -36 9 -60 41
-60 32 0 48 23 40 60 -12 56 -93 76 -180 44z m-239 -53 c34 -15 47 -30 70 -77
26 -54 29 -68 29 -164 -1 -92 -4 -111 -26 -155 -34 -67 -85 -97 -155 -92 -65
4 -105 33 -136 95 -20 41 -23 62 -23 157 0 98 3 116 25 160 19 38 36 55 70 73
54 27 92 28 146 3z m182 -815 c71 -23 119 -71 127 -130 14 -89 -34 -159 -142
-212 -55 -27 -65 -29 -188 -29 -112 1 -137 4 -178 23 -71 32 -113 68 -136 116
-28 56 -26 91 4 153 26 51 56 78 104 94 45 15 349 3 409 -15z"/>
<path d="M7760 1371 c-111 -36 -191 -135 -193 -237 0 -55 23 -84 70 -84 40 0
73 30 73 65 0 31 -41 75 -70 75 -26 0 -25 13 4 56 34 50 81 82 142 94 146 30
254 -83 254 -265 l0 -62 -77 -7 c-160 -14 -283 -58 -358 -127 -59 -54 -86
-107 -92 -178 -7 -86 23 -136 112 -181 63 -32 75 -35 159 -35 74 0 98 4 131
22 40 21 88 67 118 112 l16 23 12 -41 c7 -25 28 -55 51 -76 47 -43 106 -48
159 -12 52 34 72 85 73 186 1 74 -1 86 -16 89 -16 3 -18 -5 -18 -71 0 -94 -7
-130 -32 -156 -25 -28 -79 -28 -104 0 -17 19 -19 44 -25 303 -4 196 -9 294
-19 324 -33 104 -148 183 -275 188 -38 2 -81 0 -95 -5z m280 -514 c0 -143 -14
-204 -61 -260 -78 -95 -217 -111 -295 -33 -62 62 -66 155 -10 251 48 81 151
137 284 154 37 5 70 9 75 10 4 0 7 -54 7 -122z"/>
<path d="M10203 1360 c-293 -105 -365 -545 -127 -770 81 -77 149 -105 254
-105 102 0 157 22 222 87 67 67 111 169 76 176 -10 2 -18 -2 -18 -8 0 -21 -51
-114 -78 -144 -63 -67 -194 -96 -277 -62 -55 23 -120 91 -148 154 -28 61 -47
157 -47 234 l0 48 293 2 292 3 -3 63 c-7 119 -62 231 -140 286 -82 57 -202 71
-299 36z m197 -35 c33 -17 74 -62 95 -103 18 -37 45 -151 45 -194 l0 -28 -241
0 -241 0 6 48 c23 161 95 267 198 292 39 10 103 3 138 -15z"/>
<path d="M13909 1357 c-46 -31 -75 -77 -103 -166 -34 -107 -35 -126 -12 -126
16 0 25 17 46 90 40 141 84 196 145 181 34 -9 48 -47 42 -111 -3 -28 -40 -194
-82 -369 -45 -189 -74 -328 -71 -342 7 -26 42 -40 76 -29 32 10 44 45 120 354
66 263 74 289 114 351 80 122 187 176 283 139 l28 -10 -33 -16 c-58 -28 -79
-96 -42 -133 45 -45 133 -4 146 67 10 52 -15 96 -68 122 -94 45 -212 14 -300
-80 l-46 -49 -11 33 c-32 96 -155 146 -232 94z"/>
<path d="M19593 1360 c-293 -105 -365 -545 -127 -770 81 -77 149 -105 254
-105 102 0 157 22 222 87 67 67 111 169 76 176 -10 2 -18 -2 -18 -8 0 -21 -51
-114 -78 -144 -63 -67 -194 -96 -277 -62 -55 23 -120 91 -148 154 -28 61 -47
157 -47 234 l0 48 293 2 292 3 -3 63 c-7 119 -62 231 -140 286 -82 57 -202 71
-299 36z m197 -35 c33 -17 74 -62 95 -103 18 -37 45 -151 45 -194 l0 -28 -241
0 -241 0 6 48 c23 161 95 267 198 292 39 10 103 3 138 -15z"/>
<path d="M23510 1371 c-111 -36 -191 -135 -193 -237 0 -55 23 -84 70 -84 40 0
73 30 73 65 0 31 -41 75 -70 75 -26 0 -25 13 4 56 34 50 81 82 142 94 146 30
254 -83 254 -265 l0 -62 -77 -7 c-160 -14 -283 -58 -358 -127 -59 -54 -86
-107 -92 -178 -7 -86 23 -136 112 -181 63 -32 75 -35 159 -35 74 0 98 4 131
22 40 21 88 67 118 112 l16 23 12 -41 c7 -25 28 -55 51 -76 47 -43 106 -48
159 -12 52 34 72 85 73 186 1 74 -1 86 -16 89 -16 3 -18 -5 -18 -71 0 -94 -7
-130 -32 -156 -25 -28 -79 -28 -104 0 -17 19 -19 44 -25 303 -4 196 -9 294
-19 324 -33 104 -148 183 -275 188 -38 2 -81 0 -95 -5z m280 -514 c0 -143 -14
-204 -61 -260 -78 -95 -217 -111 -295 -33 -62 62 -66 155 -10 251 48 81 151
137 284 154 37 5 70 9 75 10 4 0 7 -54 7 -122z"/>
<path d="M25953 1360 c-293 -105 -365 -545 -127 -770 81 -77 149 -105 254
-105 102 0 157 22 222 87 67 67 111 169 76 176 -10 2 -18 -2 -18 -8 0 -21 -51
-114 -78 -144 -63 -67 -194 -96 -277 -62 -55 23 -120 91 -148 154 -28 61 -47
157 -47 234 l0 48 293 2 292 3 -3 63 c-7 119 -62 231 -140 286 -82 57 -202 71
-299 36z m197 -35 c33 -17 74 -62 95 -103 18 -37 45 -151 45 -194 l0 -28 -241
0 -241 0 6 48 c23 161 95 267 198 292 39 10 103 3 138 -15z"/>
<path d="M29702 1359 c-52 -26 -113 -103 -146 -185 -33 -81 -36 -109 -12 -109
14 0 24 13 36 50 48 141 121 225 194 225 37 0 60 -40 51 -87 -3 -21 -36 -125
-72 -232 -50 -148 -66 -213 -70 -271 -7 -94 13 -162 60 -208 86 -84 249 -81
340 5 32 31 32 30 11 -51 -51 -201 -198 -366 -327 -366 -50 0 -99 21 -125 55
-29 36 -28 45 4 45 35 0 94 59 94 94 0 65 -77 86 -132 37 -31 -27 -33 -34 -33
-93 0 -55 4 -70 28 -101 43 -57 79 -72 173 -72 72 0 87 3 156 37 94 47 200
154 246 249 22 44 65 199 137 486 58 233 105 434 105 448 0 57 -90 59 -115 2
-8 -17 -49 -169 -91 -337 -41 -168 -84 -318 -94 -335 -28 -45 -70 -81 -120
-104 -86 -39 -156 -21 -184 49 -34 87 -15 210 74 460 41 115 50 154 47 189
-12 111 -132 173 -235 120z"/>
<path d="M35433 1360 c-293 -105 -365 -545 -127 -770 81 -77 149 -105 254
-105 102 0 157 22 222 87 67 67 111 169 76 176 -10 2 -18 -2 -18 -8 0 -21 -51
-114 -78 -144 -63 -67 -194 -96 -277 -62 -55 23 -120 91 -148 154 -28 61 -47
157 -47 234 l0 48 293 2 292 3 -3 63 c-7 119 -62 231 -140 286 -82 57 -202 71
-299 36z m197 -35 c33 -17 74 -62 95 -103 18 -37 45 -151 45 -194 l0 -28 -241
0 -241 0 6 48 c23 161 95 267 198 292 39 10 103 3 138 -15z"/>
<path d="M39350 1371 c-111 -36 -191 -135 -193 -237 0 -55 23 -84 70 -84 40 0
73 30 73 65 0 31 -41 75 -70 75 -26 0 -25 13 4 56 34 50 81 82 142 94 146 30
254 -83 254 -265 l0 -62 -77 -7 c-160 -14 -283 -58 -358 -127 -59 -54 -86
-107 -92 -178 -7 -86 23 -136 112 -181 63 -32 75 -35 159 -35 74 0 98 4 131
22 40 21 88 67 118 112 l16 23 12 -41 c7 -25 28 -55 51 -76 47 -43 106 -48
159 -12 52 34 72 85 73 186 1 74 -1 86 -16 89 -16 3 -18 -5 -18 -71 0 -94 -7
-130 -32 -156 -25 -28 -79 -28 -104 0 -17 19 -19 44 -25 303 -4 196 -9 294
-19 324 -33 104 -148 183 -275 188 -38 2 -81 0 -95 -5z m280 -514 c0 -143 -14
-204 -61 -260 -78 -95 -217 -111 -295 -33 -62 62 -66 155 -10 251 48 81 151
137 284 154 37 5 70 9 75 10 4 0 7 -54 7 -122z"/>
<path d="M41803 1360 c-293 -105 -365 -545 -127 -770 81 -77 149 -105 254
-105 102 0 157 22 222 87 67 67 111 169 76 176 -10 2 -18 -2 -18 -8 0 -21 -51
-114 -78 -144 -63 -67 -194 -96 -277 -62 -55 23 -120 91 -148 154 -28 61 -47
157 -47 234 l0 48 293 2 292 3 -3 63 c-7 119 -62 231 -140 286 -82 57 -202 71
-299 36z m197 -35 c33 -17 74 -62 95 -103 18 -37 45 -151 45 -194 l0 -28 -241
0 -241 0 6 48 c23 161 95 267 198 292 39 10 103 3 138 -15z"/>
<path d="M1555 1364 c-11 -2 -50 -6 -87 -9 -63 -6 -68 -8 -68 -30 0 -20 6 -25
38 -30 72 -11 85 -19 94 -53 5 -18 7 -175 6 -348 -3 -354 3 -329 -85 -340 -47
-6 -53 -9 -53 -30 l0 -24 205 0 205 0 0 25 c0 22 -4 25 -37 25 -53 1 -114 16
-125 32 -5 7 -7 123 -5 258 3 221 6 252 26 313 28 87 94 159 160 177 23 6 50
9 58 6 12 -5 12 -9 -1 -28 -34 -48 -4 -108 52 -108 58 0 87 76 46 121 -89 99
-250 47 -324 -104 l-29 -62 -1 108 0 107 -27 -1 c-16 -1 -37 -3 -48 -5z"/>
<path d="M2220 1359 c-95 -11 -102 -14 -98 -41 2 -19 11 -24 52 -29 31 -3 53
-12 62 -24 11 -15 14 -84 14 -343 0 -196 -4 -331 -10 -342 -7 -13 -26 -21 -65
-25 -49 -7 -55 -10 -55 -31 l0 -24 180 0 180 0 0 24 c0 21 -6 24 -56 31 -46 5
-57 10 -65 31 -5 14 -9 191 -9 405 l0 379 -27 -1 c-16 -1 -62 -5 -103 -10z"/>
<path d="M3630 1359 c-95 -11 -102 -14 -98 -41 2 -19 11 -24 52 -29 31 -3 53
-12 62 -24 11 -15 14 -84 14 -343 0 -196 -4 -331 -10 -342 -7 -13 -26 -21 -65
-25 -49 -7 -55 -10 -55 -31 l0 -24 180 0 180 0 0 24 c0 21 -6 24 -56 31 -46 5
-57 10 -65 31 -5 14 -9 191 -9 405 l0 379 -27 -1 c-16 -1 -62 -5 -103 -10z"/>
<path d="M4125 1359 c-97 -10 -105 -13 -105 -38 0 -17 9 -22 51 -27 93 -12 89
3 89 -370 0 -200 -4 -333 -10 -344 -7 -14 -26 -21 -70 -26 -55 -6 -60 -9 -60
-30 l0 -24 190 0 190 0 0 24 c0 21 -6 24 -54 30 -30 4 -60 13 -66 21 -8 9 -10
94 -8 287 l3 273 27 52 c39 73 91 120 154 139 89 26 165 -2 200 -72 17 -35 19
-67 22 -346 2 -205 0 -314 -7 -327 -9 -15 -26 -22 -71 -27 -55 -6 -60 -9 -60
-30 l0 -24 190 0 190 0 0 24 c0 21 -6 24 -54 30 -30 4 -59 13 -64 19 -6 7 -12
135 -15 312 -2 196 -8 313 -16 337 -16 50 -54 94 -105 121 -57 30 -192 31
-251 2 -49 -24 -108 -82 -134 -132 l-20 -38 -1 98 0 97 -27 -1 c-16 -1 -64 -5
-108 -10z"/>
<path d="M6935 1364 c-11 -2 -50 -6 -87 -9 -63 -6 -68 -8 -68 -30 0 -20 6 -25
38 -30 72 -11 85 -19 94 -53 5 -18 7 -175 6 -348 -3 -354 3 -329 -85 -340 -47
-6 -53 -9 -53 -30 l0 -24 205 0 205 0 0 25 c0 22 -4 25 -37 25 -53 1 -114 16
-125 32 -5 7 -7 123 -5 258 3 221 6 252 26 313 28 87 94 159 160 177 23 6 50
9 58 6 12 -5 12 -9 -1 -28 -34 -48 -4 -108 52 -108 58 0 87 76 46 121 -89 99
-250 47 -324 -104 l-29 -62 -1 108 0 107 -27 -1 c-16 -1 -37 -3 -48 -5z"/>
<path d="M8505 1359 c-97 -10 -105 -13 -105 -38 0 -17 9 -22 51 -27 93 -12 89
3 89 -370 0 -200 -4 -333 -10 -344 -7 -14 -26 -21 -70 -26 -55 -6 -60 -9 -60
-30 l0 -24 190 0 190 0 0 24 c0 21 -6 24 -54 30 -30 4 -60 13 -66 21 -8 9 -10
94 -8 287 l3 273 27 52 c39 73 91 120 154 139 89 26 165 -2 200 -72 17 -35 19
-67 22 -346 2 -205 0 -314 -7 -327 -9 -15 -26 -22 -71 -27 -55 -6 -60 -9 -60
-30 l0 -24 190 0 190 0 0 24 c0 21 -6 24 -54 30 -30 4 -60 13 -66 21 -8 9 -10
94 -8 287 l3 273 27 52 c39 73 91 120 154 139 89 26 165 -2 200 -72 17 -35 19
-67 22 -346 2 -205 0 -314 -7 -327 -9 -15 -26 -22 -71 -27 -55 -6 -60 -9 -60
-30 l0 -24 190 0 190 0 0 24 c0 21 -6 24 -54 30 -30 4 -59 13 -64 19 -6 7 -12
138 -14 317 -3 265 -6 310 -21 345 -37 83 -104 125 -208 133 -118 8 -211 -40
-267 -139 l-28 -48 -11 42 c-26 95 -133 155 -259 144 -103 -8 -185 -64 -237
-162 -16 -29 -16 -28 -17 68 l0 97 -27 -1 c-16 -1 -64 -5 -108 -10z"/>
<path d="M22695 1364 c-11 -2 -50 -6 -87 -9 -63 -6 -68 -8 -68 -30 0 -20 6
-25 38 -30 72 -11 85 -19 94 -53 5 -18 7 -175 6 -348 -3 -354 3 -329 -85 -340
-47 -6 -53 -9 -53 -30 l0 -24 205 0 205 0 0 25 c0 22 -4 25 -37 25 -53 1 -114
16 -125 32 -5 7 -7 123 -5 258 3 221 6 252 26 313 28 87 94 159 160 177 23 6
50 9 58 6 12 -5 12 -9 -1 -28 -34 -48 -4 -108 52 -108 58 0 87 76 46 121 -89
99 -250 47 -324 -104 l-29 -62 -1 108 0 107 -27 -1 c-16 -1 -37 -3 -48 -5z"/>
<path d="M24265 1359 c-97 -10 -105 -13 -105 -38 0 -17 9 -22 51 -27 93 -12
89 3 89 -370 0 -200 -4 -333 -10 -344 -7 -14 -26 -21 -70 -26 -55 -6 -60 -9
-60 -30 l0 -24 190 0 190 0 0 24 c0 21 -6 24 -54 30 -30 4 -60 13 -66 21 -8 9
-10 94 -8 287 l3 273 27 52 c39 73 91 120 154 139 89 26 165 -2 200 -72 17
-35 19 -67 22 -346 2 -205 0 -314 -7 -327 -9 -15 -26 -22 -71 -27 -55 -6 -60
-9 -60 -30 l0 -24 190 0 190 0 0 24 c0 21 -6 24 -54 30 -30 4 -60 13 -66 21
-8 9 -10 94 -8 287 l3 273 27 52 c39 73 91 120 154 139 89 26 165 -2 200 -72
17 -35 19 -67 22 -346 2 -205 0 -314 -7 -327 -9 -15 -26 -22 -71 -27 -55 -6
-60 -9 -60 -30 l0 -24 190 0 190 0 0 24 c0 21 -6 24 -54 30 -30 4 -59 13 -64
19 -6 7 -12 138 -14 317 -3 265 -6 310 -21 345 -37 83 -104 125 -208 133 -118
8 -211 -40 -267 -139 l-28 -48 -11 42 c-26 95 -133 155 -259 144 -103 -8 -185
-64 -237 -162 -16 -29 -16 -28 -17 68 l0 97 -27 -1 c-16 -1 -64 -5 -108 -10z"/>
<path d="M38535 1364 c-11 -2 -50 -6 -87 -9 -63 -6 -68 -8 -68 -30 0 -20 6
-25 38 -30 72 -11 85 -19 94 -53 5 -18 7 -175 6 -348 -3 -354 3 -329 -85 -340
-47 -6 -53 -9 -53 -30 l0 -24 205 0 205 0 0 25 c0 22 -4 25 -37 25 -53 1 -114
16 -125 32 -5 7 -7 123 -5 258 3 221 6 252 26 313 28 87 94 159 160 177 23 6
50 9 58 6 12 -5 12 -9 -1 -28 -34 -48 -4 -108 52 -108 58 0 87 76 46 121 -89
99 -250 47 -324 -104 l-29 -62 -1 108 0 107 -27 -1 c-16 -1 -37 -3 -48 -5z"/>
<path d="M40105 1359 c-97 -10 -105 -13 -105 -38 0 -17 9 -22 51 -27 93 -12
89 3 89 -370 0 -200 -4 -333 -10 -344 -7 -14 -26 -21 -70 -26 -55 -6 -60 -9
-60 -30 l0 -24 190 0 190 0 0 24 c0 21 -6 24 -54 30 -30 4 -60 13 -66 21 -8 9
-10 94 -8 287 l3 273 27 52 c39 73 91 120 154 139 89 26 165 -2 200 -72 17
-35 19 -67 22 -346 2 -205 0 -314 -7 -327 -9 -15 -26 -22 -71 -27 -55 -6 -60
-9 -60 -30 l0 -24 190 0 190 0 0 24 c0 21 -6 24 -54 30 -30 4 -60 13 -66 21
-8 9 -10 94 -8 287 l3 273 27 52 c39 73 91 120 154 139 89 26 165 -2 200 -72
17 -35 19 -67 22 -346 2 -205 0 -314 -7 -327 -9 -15 -26 -22 -71 -27 -55 -6
-60 -9 -60 -30 l0 -24 190 0 190 0 0 24 c0 21 -6 24 -54 30 -30 4 -59 13 -64
19 -6 7 -12 138 -14 317 -3 265 -6 310 -21 345 -37 83 -104 125 -208 133 -118
8 -211 -40 -267 -139 l-28 -48 -11 42 c-26 95 -133 155 -259 144 -103 -8 -185
-64 -237 -162 -16 -29 -16 -28 -17 68 l0 97 -27 -1 c-16 -1 -64 -5 -108 -10z"/>
<path d="M15294 1066 c-26 -26 -34 -42 -34 -71 0 -52 53 -105 105 -105 29 0
45 8 71 34 70 70 24 176 -77 176 -22 0 -41 -10 -65 -34z"/>
<path d="M31144 1066 c-26 -26 -34 -42 -34 -71 0 -52 53 -105 105 -105 29 0
45 8 71 34 70 70 24 176 -77 176 -22 0 -41 -10 -65 -34z"/>
<path d="M20405 938 c-28 -29 -91 -56 -152 -64 -43 -5 -53 -10 -53 -25 0 -12
7 -19 18 -19 19 0 106 22 135 35 16 7 17 -15 17 -379 0 -442 9 -406 -99 -406
-54 0 -61 -2 -61 -20 0 -19 7 -20 206 -20 190 0 205 1 202 17 -3 15 -17 19
-76 23 -50 3 -76 10 -82 20 -6 9 -10 189 -10 438 0 447 0 447 -45 400z"/>
<path d="M36125 936 c-83 -38 -134 -111 -142 -206 -4 -44 -2 -60 12 -73 46
-46 121 16 86 71 -5 8 -22 17 -39 20 l-31 7 20 45 c11 24 28 53 37 63 29 32
89 57 136 57 120 0 195 -86 196 -222 0 -128 -37 -191 -265 -448 -85 -96 -155
-183 -155 -192 0 -17 18 -18 244 -18 l243 0 17 106 c9 59 15 109 12 111 -12
12 -25 -11 -31 -55 -11 -80 -1 -77 -215 -80 -182 -3 -191 -2 -182 15 6 10 85
91 176 181 177 174 221 228 242 300 31 102 12 184 -61 259 -80 82 -200 106
-300 59z"/>
</g>
</svg>
