<?xml version="1.0" standalone="no"?>
<!DOCTYPE svg PUBLIC "-//W3C//DTD SVG 20010904//EN"
 "http://www.w3.org/TR/2001/REC-SVG-20010904/DTD/svg10.dtd">
<svg version="1.0" xmlns="http://www.w3.org/2000/svg"
 width="468pt" height="64pt" viewBox="0 0 468 64"
 preserveAspectRatio="xMidYMid meet">
<metadata>
Created by potrace 1.8, written by Peter Selinger 2001-2007
</metadata>
<g transform="translate(0,64) scale(0.157576,-0.157576)"
fill="#000000" stroke="none">
<path d="M1570 195 l0 -195 23 1 c16 1 18 2 5 6 -16 4 -18 22 -18 188 0 166 2
184 18 188 13 4 11 5 -5 6 l-23 1 0 -195z"/>
<path d="M2933 383 c15 -4 17 -22 17 -188 0 -166 -2 -184 -17 -188 -14 -4 -12
-5 5 -6 l22 -1 0 195 0 195 -22 -1 c-17 -1 -19 -2 -5 -6z"/>
<path d="M2010 371 c12 -8 13 -16 3 -43 -11 -30 -11 -31 3 -13 18 24 15 57 -6
62 -13 4 -13 3 0 -6z"/>
<path d="M10 205 c0 -84 2 -95 18 -94 10 0 12 3 5 6 -18 7 -18 169 0 176 7 3
5 6 -5 6 -16 1 -18 -10 -18 -94z"/>
<path d="M244 280 c0 -13 4 -16 10 -10 7 7 7 13 0 20 -6 6 -10 3 -10 -10z"/>
<path d="M1358 293 c8 -3 12 -31 12 -88 0 -57 -4 -85 -12 -88 -8 -3 -6 -6 5
-6 15 -1 17 10 17 94 0 84 -2 95 -17 94 -11 0 -13 -3 -5 -6z"/>
<path d="M1733 265 c-1 -22 1 -32 4 -23 2 10 2 28 0 40 -2 13 -4 5 -4 -17z"/>
<path d="M2174 280 c0 -13 4 -16 10 -10 7 7 7 13 0 20 -6 6 -10 3 -10 -10z"/>
<path d="M2000 280 l-25 -8 28 -1 c15 -1 27 4 27 9 0 6 -1 10 -2 9 -2 -1 -14
-5 -28 -9z"/>
<path d="M89 264 c15 -8 14 -20 -5 -38 -14 -15 -14 -16 0 -16 9 0 16 -8 16
-20 0 -20 -33 -29 -42 -12 -3 4 -4 3 -3 -3 1 -5 11 -11 23 -13 21 -3 48 29 34
43 -4 4 -7 18 -7 32 0 15 -6 27 -13 29 -8 2 -9 1 -3 -2z"/>
<path d="M568 263 c9 -3 12 -14 9 -30 -3 -16 -1 -21 5 -15 14 14 6 47 -12 48
-11 1 -11 0 -2 -3z"/>
<path d="M838 263 c18 -6 15 -30 -5 -42 -17 -10 -17 -10 0 -11 10 0 17 -8 17
-20 0 -14 -7 -20 -21 -20 -11 0 -17 5 -14 10 3 6 1 10 -5 10 -20 0 -4 -25 18
-28 21 -3 48 29 34 43 -4 4 -7 19 -7 33 0 16 -6 27 -15 28 -9 0 -10 -1 -2 -3z"/>
<path d="M1280 258 c0 -4 14 -8 30 -8 17 0 30 2 30 4 0 2 -13 6 -30 8 -16 3
-30 1 -30 -4z"/>
<path d="M2493 263 c-16 -3 -23 -11 -22 -26 1 -17 2 -18 6 -4 2 9 11 17 18 17
8 0 17 5 20 10 3 6 5 9 3 9 -2 -1 -13 -4 -25 -6z"/>
<path d="M2770 260 c12 -8 13 -13 2 -30 -7 -12 -8 -20 -2 -20 5 0 10 -9 10
-20 0 -22 -25 -27 -34 -7 -4 7 -5 6 -3 -3 2 -8 13 -16 25 -18 27 -4 40 23 24
49 -7 11 -8 20 -2 24 14 9 0 35 -19 35 -14 0 -14 -2 -1 -10z"/>
<path d="M531 246 c-1 -11 2 -17 5 -13 3 3 4 12 1 19 -3 8 -6 5 -6 -6z"/>
<path d="M361 228 c-1 -21 -6 -28 -23 -29 l-23 -2 23 -4 c14 -3 22 -12 23 -26
2 -22 2 -22 6 1 3 16 12 22 31 23 l27 2 -27 4 c-20 3 -28 11 -31 31 l-4 27 -2
-27z"/>
<path d="M691 228 c-1 -21 -6 -28 -23 -29 l-23 -2 23 -4 c14 -3 22 -12 23 -26
2 -22 2 -22 6 1 3 16 12 22 31 23 l27 2 -27 4 c-20 3 -28 11 -31 31 l-4 27 -2
-27z"/>
<path d="M1171 228 c-1 -21 -7 -28 -28 -31 l-28 -4 27 -2 c19 -1 28 -7 31 -23
l4 -23 2 23 c1 15 8 22 24 23 l22 2 -22 4 c-14 3 -23 13 -26 31 l-4 27 -2 -27z"/>
<path d="M1851 228 c-1 -21 -6 -28 -23 -29 l-23 -2 23 -4 c14 -3 22 -12 23
-26 2 -22 2 -22 6 1 3 14 12 22 26 23 l22 2 -22 4 c-14 3 -23 13 -26 31 l-4
27 -2 -27z"/>
<path d="M2301 228 c-1 -21 -7 -28 -28 -31 l-28 -4 27 -2 c19 -1 28 -7 31 -23
l4 -23 2 23 c1 15 8 22 24 23 l22 2 -22 4 c-14 3 -23 13 -26 31 l-4 27 -2 -27z"/>
<path d="M2631 228 c-1 -21 -7 -28 -28 -31 l-28 -4 27 -2 c19 -1 28 -7 31 -23
l4 -23 2 23 c1 15 8 22 24 23 l22 2 -22 4 c-14 3 -23 13 -26 31 l-4 27 -2 -27z"/>
<path d="M228 233 c6 -2 18 -2 25 0 6 3 1 5 -13 5 -14 0 -19 -2 -12 -5z"/>
<path d="M483 200 c0 -25 2 -35 4 -22 2 12 2 32 0 45 -2 12 -4 2 -4 -23z"/>
<path d="M963 200 c0 -25 2 -35 4 -22 2 12 2 32 0 45 -2 12 -4 2 -4 -23z"/>
<path d="M2158 233 c6 -2 18 -2 25 0 6 3 1 5 -13 5 -14 0 -19 -2 -12 -5z"/>
<path d="M2410 204 c0 -21 4 -45 9 -53 5 -8 7 5 4 35 -7 61 -13 70 -13 18z"/>
<path d="M2893 200 c0 -25 2 -35 4 -22 2 12 2 32 0 45 -2 12 -4 2 -4 -23z"/>
<path d="M158 199 c-3 -16 -1 -32 3 -34 4 -3 9 9 11 26 3 16 1 32 -3 34 -4 3
-9 -9 -11 -26z"/>
<path d="M890 200 c-7 -17 -10 -33 -8 -36 3 -2 11 9 18 26 7 17 10 33 8 36 -3
2 -11 -9 -18 -26z"/>
<path d="M1023 192 c-1 -37 -1 -37 8 -7 4 16 5 33 1 37 -4 4 -8 -10 -9 -30z"/>
<path d="M1648 200 c-3 -17 -2 -33 2 -35 3 -2 7 12 8 31 3 42 -4 45 -10 4z"/>
<path d="M2093 192 c-1 -37 -1 -37 8 -7 4 16 5 33 1 37 -4 4 -8 -10 -9 -30z"/>
<path d="M2516 206 c5 -21 2 -28 -17 -35 -14 -6 -18 -10 -8 -10 31 -2 54 49
29 64 -7 4 -9 -2 -4 -19z"/>
<path d="M2825 200 c-4 -17 -5 -34 -2 -36 3 -3 8 9 12 26 4 17 5 34 2 36 -3 3
-8 -9 -12 -26z"/>
<path d="M1460 201 c0 -6 5 -11 10 -11 6 0 10 2 10 4 0 3 -4 8 -10 11 -5 3
-10 1 -10 -4z"/>
<path d="M1302 180 c0 -14 2 -19 5 -12 2 6 2 18 0 25 -3 6 -5 1 -5 -13z"/>
<path d="M1982 193 c10 -2 28 -2 40 0 13 2 5 4 -17 4 -22 1 -32 -1 -23 -4z"/>
<path d="M533 168 c-2 -5 10 -8 26 -8 17 0 31 3 31 8 0 4 -12 7 -26 7 -14 0
-28 -3 -31 -7z"/>
<path d="M2008 153 c18 -6 15 -30 -5 -42 -17 -10 -17 -10 0 -11 10 0 17 -8 17
-20 0 -14 -7 -20 -21 -20 -11 0 -17 5 -14 10 3 6 1 10 -5 10 -20 0 -4 -25 18
-28 21 -3 48 29 34 43 -4 4 -7 19 -7 33 0 16 -6 27 -15 28 -9 0 -10 -1 -2 -3z"/>
</g>
</svg>
