<?xml version="1.0" standalone="no"?>
<!DOCTYPE svg PUBLIC "-//W3C//DTD SVG 20010904//EN"
 "http://www.w3.org/TR/2001/REC-SVG-20010904/DTD/svg10.dtd">
<svg version="1.0" xmlns="http://www.w3.org/2000/svg"
 width="468pt" height="46pt" viewBox="0 0 468 46"
 preserveAspectRatio="xMidYMid meet">
<metadata>
Created by potrace 1.8, written by Peter Selinger 2001-2007
</metadata>
<g transform="translate(0,46) scale(0.134097,-0.134097)"
fill="#000000" stroke="none">
<path d="M74 313 c0 -10 -3 -36 -7 -58 l-6 -40 14 40 c16 46 18 75 7 75 -4 0
-8 -8 -8 -17z"/>
<path d="M27 273 c-4 -3 -7 -16 -6 -27 0 -19 1 -19 10 3 10 24 8 36 -4 24z"/>
<path d="M107 273 c-4 -3 -7 -16 -6 -27 0 -19 1 -19 10 3 10 24 8 36 -4 24z"/>
<path d="M445 165 c0 -29 3 -51 8 -48 4 2 7 24 7 48 0 24 -3 46 -7 48 -5 3 -8
-19 -8 -48z"/>
<path d="M2178 183 c6 -65 10 -70 11 -15 0 28 -3 52 -7 52 -4 0 -6 -17 -4 -37z"/>
<path d="M2265 165 c0 -30 5 -55 10 -55 6 0 9 23 7 55 -5 71 -17 71 -17 0z"/>
<path d="M2475 165 c0 -30 5 -55 10 -55 6 0 9 23 7 55 -5 71 -17 71 -17 0z"/>
<path d="M2567 213 c-10 -9 -9 -103 1 -103 5 0 7 14 4 30 -4 26 -1 30 18 30
19 0 22 -4 18 -30 -3 -18 0 -30 6 -30 7 0 10 20 9 51 -2 51 -13 84 -13 41 0
-14 -6 -22 -16 -22 -11 0 -15 6 -11 20 5 20 -3 26 -16 13z"/>
<path d="M407 203 c-9 -9 -9 -71 1 -76 4 -3 7 15 7 39 0 24 0 44 -1 44 0 0 -4
-3 -7 -7z"/>
<path d="M539 199 c-4 -75 -3 -89 6 -89 10 0 11 88 1 98 -3 3 -6 -1 -7 -9z"/>
<path d="M2940 195 c-3 -32 1 -69 9 -78 4 -4 6 6 3 23 -3 21 0 30 9 30 10 0
10 3 3 8 -6 4 -14 14 -17 22 -4 11 -6 10 -7 -5z"/>
<path d="M3049 199 c-4 -75 -3 -89 6 -89 10 0 11 88 1 98 -3 3 -6 -1 -7 -9z"/>
<path d="M1320 161 c0 -22 4 -42 9 -45 4 -3 6 6 3 20 -3 15 0 29 6 33 6 4 5
11 -4 19 -12 11 -14 6 -14 -27z"/>
<path d="M1540 161 c0 -22 4 -42 9 -45 4 -3 6 6 3 20 -3 15 0 29 6 33 6 4 5
11 -4 19 -12 11 -14 6 -14 -27z"/>
<path d="M587 173 c-9 -9 -9 -51 1 -56 4 -3 7 10 7 29 0 19 0 34 -1 34 0 0 -4
-3 -7 -7z"/>
<path d="M625 145 c0 -18 3 -31 8 -28 4 2 7 15 7 28 0 13 -3 26 -7 28 -5 3 -8
-10 -8 -28z"/>
<path d="M665 145 c0 -19 5 -35 11 -35 7 0 9 11 6 26 -3 16 1 30 9 35 11 7 9
9 -6 9 -16 0 -20 -7 -20 -35z"/>
<path d="M925 146 c0 -18 5 -33 11 -33 5 0 8 13 6 29 -6 40 -17 42 -17 4z"/>
<path d="M1027 173 c-9 -9 -9 -51 1 -56 4 -3 7 10 7 29 0 19 0 34 -1 34 0 0
-4 -3 -7 -7z"/>
<path d="M1097 173 c-9 -9 -9 -51 1 -56 4 -3 7 10 7 29 0 19 0 34 -1 34 0 0
-4 -3 -7 -7z"/>
<path d="M1135 145 c0 -18 3 -31 8 -28 4 2 7 15 7 28 0 13 -3 26 -7 28 -5 3
-8 -10 -8 -28z"/>
<path d="M1175 145 c0 -19 5 -35 10 -35 7 0 9 15 7 35 -2 19 -7 35 -11 35 -3
0 -6 -16 -6 -35z"/>
<path d="M1419 142 c5 -34 6 -35 9 -8 2 16 0 32 -5 37 -5 5 -7 -7 -4 -29z"/>
<path d="M1455 145 c0 -19 5 -35 10 -35 7 0 9 15 7 35 -2 19 -7 35 -11 35 -3
0 -6 -16 -6 -35z"/>
<path d="M1505 144 c0 -19 3 -34 8 -34 4 0 7 13 7 29 0 17 -3 32 -7 34 -5 3
-8 -10 -8 -29z"/>
<path d="M1657 173 c-9 -9 -9 -51 1 -56 4 -3 7 10 7 29 0 19 0 34 -1 34 0 0
-4 -3 -7 -7z"/>
<path d="M1695 145 c0 -18 3 -31 8 -28 4 2 7 15 7 28 0 13 -3 26 -7 28 -5 3
-8 -10 -8 -28z"/>
<path d="M1731 148 c-1 -30 3 -38 17 -38 11 0 13 3 5 8 -6 4 -13 21 -16 37 -4
27 -4 27 -6 -7z"/>
<path d="M1852 150 c5 -17 15 -33 21 -37 7 -4 8 0 3 13 -5 10 -11 27 -13 37
-3 9 -9 17 -14 17 -4 0 -3 -14 3 -30z"/>
<path d="M1959 142 c5 -34 6 -35 9 -8 2 16 0 32 -5 37 -5 5 -7 -7 -4 -29z"/>
<path d="M1995 145 c0 -19 5 -35 10 -35 7 0 9 15 7 35 -2 19 -7 35 -11 35 -3
0 -6 -16 -6 -35z"/>
<path d="M2055 145 c0 -19 5 -35 10 -35 7 0 9 15 7 35 -2 19 -7 35 -11 35 -3
0 -6 -16 -6 -35z"/>
<path d="M2139 142 c5 -34 6 -35 9 -8 2 16 0 32 -5 37 -5 5 -7 -7 -4 -29z"/>
<path d="M2225 145 c0 -18 3 -31 8 -28 4 2 7 15 7 28 0 13 -3 26 -7 28 -5 3
-8 -10 -8 -28z"/>
<path d="M2305 159 c-4 -12 -3 -25 2 -29 4 -5 8 4 9 21 1 34 -2 37 -11 8z"/>
<path d="M2346 167 c3 -10 9 -15 12 -12 3 3 0 11 -7 18 -10 9 -11 8 -5 -6z"/>
<path d="M2432 168 c-15 -15 -16 -35 -2 -43 6 -3 7 1 4 10 -4 8 -1 22 6 30 15
18 9 20 -8 3z"/>
<path d="M2515 145 c0 -19 5 -35 10 -35 7 0 9 15 7 35 -2 19 -7 35 -11 35 -3
0 -6 -16 -6 -35z"/>
<path d="M2645 159 c-4 -12 -3 -25 2 -29 4 -5 8 4 9 21 1 34 -2 37 -11 8z"/>
<path d="M2686 167 c3 -10 9 -15 12 -12 3 3 0 11 -7 18 -10 9 -11 8 -5 -6z"/>
<path d="M2721 148 c-1 -30 3 -38 17 -38 11 0 13 3 5 8 -6 4 -13 21 -16 37 -4
27 -4 27 -6 -7z"/>
<path d="M2775 159 c-4 -12 -3 -25 2 -29 4 -5 8 4 9 21 1 34 -2 37 -11 8z"/>
<path d="M2816 167 c3 -10 9 -15 12 -12 3 3 0 11 -7 18 -10 9 -11 8 -5 -6z"/>
<path d="M2850 145 c0 -46 15 -46 16 0 0 19 -3 35 -8 35 -4 0 -8 -16 -8 -35z"/>
<path d="M2895 144 c0 -19 5 -34 11 -34 6 0 9 13 6 30 -6 42 -17 45 -17 4z"/>
<path d="M3095 145 c0 -19 5 -35 11 -35 7 0 9 11 6 26 -3 16 1 30 9 35 11 7 9
9 -6 9 -16 0 -20 -7 -20 -35z"/>
<path d="M3157 173 c-9 -9 -9 -51 1 -56 4 -3 7 10 7 29 0 19 0 34 -1 34 0 0
-4 -3 -7 -7z"/>
<path d="M3195 145 c0 -18 3 -31 8 -28 4 2 7 15 7 28 0 13 -3 26 -7 28 -5 3
-8 -10 -8 -28z"/>
<path d="M3230 145 c0 -19 3 -35 8 -35 4 0 7 16 7 35 0 19 -3 35 -7 35 -5 0
-8 -16 -8 -35z"/>
<path d="M3275 144 c0 -19 5 -34 11 -34 6 0 9 13 6 30 -6 42 -17 45 -17 4z"/>
<path d="M3438 149 c-3 -16 -1 -32 3 -34 4 -3 9 9 11 26 3 16 1 32 -3 34 -4 3
-9 -9 -11 -26z"/>
<path d="M263 163 c15 -2 39 -2 55 0 15 2 2 4 -28 4 -30 0 -43 -2 -27 -4z"/>
<path d="M777 163 c-4 -3 -7 -16 -6 -27 0 -19 1 -19 10 3 10 24 8 36 -4 24z"/>
<path d="M1218 140 c-3 -19 0 -30 7 -30 7 0 10 11 7 30 -2 17 -5 30 -7 30 -2
0 -5 -13 -7 -30z"/>
<path d="M1250 160 c0 -6 8 -14 18 -17 9 -4 20 -11 24 -17 5 -8 8 -8 8 0 0 7
-11 19 -25 28 -14 9 -25 12 -25 6z"/>
<path d="M3318 140 c-3 -19 0 -30 7 -30 7 0 10 11 7 30 -2 17 -5 30 -7 30 -2
0 -5 -13 -7 -30z"/>
<path d="M37 153 c23 -2 64 -2 90 0 26 2 8 3 -42 3 -49 0 -71 -1 -48 -3z"/>
<path d="M263 133 c15 -2 39 -2 55 0 15 2 2 4 -28 4 -30 0 -43 -2 -27 -4z"/>
<path d="M890 131 c0 -6 4 -13 10 -16 6 -3 7 1 4 9 -7 18 -14 21 -14 7z"/>
<path d="M1380 131 c0 -6 4 -13 10 -16 6 -3 7 1 4 9 -7 18 -14 21 -14 7z"/>
<path d="M1910 131 c0 -6 4 -13 10 -16 6 -3 7 1 4 9 -7 18 -14 21 -14 7z"/>
<path d="M2100 131 c0 -6 4 -13 10 -16 6 -3 7 1 4 9 -7 18 -14 21 -14 7z"/>
<path d="M64 93 c0 -10 -3 -36 -7 -58 l-6 -40 14 40 c16 46 18 75 7 75 -4 0
-8 -8 -8 -17z"/>
<path d="M118 39 c-3 -16 -1 -32 3 -34 4 -3 9 9 11 26 3 16 1 32 -3 34 -4 3
-9 -9 -11 -26z"/>
<path d="M17 53 c-4 -3 -7 -16 -6 -27 0 -19 1 -19 10 3 10 24 8 36 -4 24z"/>
</g>
</svg>
