<?xml version="1.0" standalone="no"?>
<!DOCTYPE svg PUBLIC "-//W3C//DTD SVG 20010904//EN"
 "http://www.w3.org/TR/2001/REC-SVG-20010904/DTD/svg10.dtd">
<svg version="1.0" xmlns="http://www.w3.org/2000/svg"
 width="468pt" height="74pt" viewBox="0 0 468 74"
 preserveAspectRatio="xMidYMid meet">
<metadata>
Created by potrace 1.8, written by Peter Selinger 2001-2007
</metadata>
<g transform="translate(0,74) scale(0.203478,-0.203478)"
fill="#000000" stroke="none">
<path d="M113 344 c3 -3 12 -4 19 -1 8 3 5 6 -6 6 -11 1 -17 -2 -13 -5z"/>
<path d="M137 309 c4 -13 8 -18 11 -10 2 7 -1 18 -6 23 -8 8 -9 4 -5 -13z"/>
<path d="M380 320 c-10 -6 -11 -10 -2 -10 7 0 12 -15 12 -39 0 -22 -5 -42 -12
-44 -7 -3 -4 -6 7 -6 18 -1 20 4 17 42 -5 66 -5 68 -22 57z"/>
<path d="M51 273 c-1 -6 -4 -20 -7 -30 -5 -17 -5 -17 6 0 6 10 9 23 6 30 -3 9
-5 9 -5 0z"/>
<path d="M223 253 c15 -2 39 -2 55 0 15 2 2 4 -28 4 -30 0 -43 -2 -27 -4z"/>
<path d="M779 233 c0 -5 -2 -18 -3 -30 -1 -12 1 -20 4 -18 8 5 11 55 4 55 -2
0 -4 -3 -5 -7z"/>
<path d="M1728 165 c2 -30 7 -55 10 -55 4 0 5 25 4 55 -2 30 -7 55 -10 55 -4
0 -5 -25 -4 -55z"/>
<path d="M2250 210 c-10 -6 -11 -10 -2 -10 7 0 12 -15 12 -39 0 -22 -5 -42
-12 -44 -7 -3 1 -6 17 -6 17 0 25 3 18 7 -6 4 -13 29 -15 54 -2 39 -6 46 -18
38z"/>
<path d="M891 178 c-1 -21 -6 -28 -23 -29 l-23 -2 23 -4 c14 -3 22 -12 23 -26
2 -22 2 -22 6 1 3 16 12 22 31 23 l27 2 -27 4 c-20 3 -28 11 -31 31 l-4 27 -2
-27z"/>
<path d="M688 149 c-3 -16 -1 -32 3 -34 4 -3 9 9 11 26 3 16 1 32 -3 34 -4 3
-9 -9 -11 -26z"/>
<path d="M1033 142 c-1 -37 -1 -37 8 -7 4 16 5 33 1 37 -4 4 -8 -10 -9 -30z"/>
<path d="M1215 145 c0 -19 5 -35 10 -35 7 0 9 15 7 35 -2 19 -7 35 -11 35 -3
0 -6 -16 -6 -35z"/>
<path d="M1275 159 c-4 -12 -3 -25 2 -29 4 -5 8 4 9 21 1 34 -2 37 -11 8z"/>
<path d="M1316 167 c3 -10 9 -15 12 -12 3 3 0 11 -7 18 -10 9 -11 8 -5 -6z"/>
<path d="M1345 145 c0 -19 5 -35 10 -35 7 0 9 15 7 35 -2 19 -7 35 -11 35 -3
0 -6 -16 -6 -35z"/>
<path d="M1395 143 c0 -43 12 -43 17 0 2 19 -1 34 -7 34 -5 0 -10 -15 -10 -34z"/>
<path d="M1519 142 c5 -34 6 -35 9 -8 2 16 0 32 -5 37 -5 5 -7 -7 -4 -29z"/>
<path d="M1555 145 c0 -19 5 -35 10 -35 7 0 9 15 7 35 -2 19 -7 35 -11 35 -3
0 -6 -16 -6 -35z"/>
<path d="M1600 145 c0 -46 15 -46 16 0 0 19 -3 35 -8 35 -4 0 -8 -16 -8 -35z"/>
<path d="M1645 144 c0 -19 5 -34 11 -34 6 0 9 13 6 30 -6 42 -17 45 -17 4z"/>
<path d="M1687 173 c-9 -9 -9 -51 1 -56 4 -3 7 10 7 29 0 19 0 34 -1 34 0 0
-4 -3 -7 -7z"/>
<path d="M1777 173 c-9 -9 -9 -51 1 -56 4 -3 7 10 7 29 0 19 0 34 -1 34 0 0
-4 -3 -7 -7z"/>
<path d="M1806 167 c3 -10 9 -15 12 -12 3 3 0 11 -7 18 -10 9 -11 8 -5 -6z"/>
<path d="M1845 145 c0 -19 5 -35 11 -35 7 0 9 11 6 26 -3 16 1 30 9 35 11 7 9
9 -6 9 -16 0 -20 -7 -20 -35z"/>
<path d="M1978 149 c-3 -16 -1 -32 3 -34 4 -3 9 9 11 26 3 16 1 32 -3 34 -4 3
-9 -9 -11 -26z"/>
<path d="M523 163 c15 -2 39 -2 55 0 15 2 2 4 -28 4 -30 0 -43 -2 -27 -4z"/>
<path d="M1438 140 c-3 -19 0 -30 7 -30 7 0 10 11 7 30 -2 17 -5 30 -7 30 -2
0 -5 -13 -7 -30z"/>
<path d="M112 153 c60 -2 156 -2 216 0 59 1 10 3 -108 3 -118 0 -167 -2 -108
-3z"/>
<path d="M2103 143 c15 -2 39 -2 55 0 15 2 2 4 -28 4 -30 0 -43 -2 -27 -4z"/>
<path d="M523 133 c15 -2 39 -2 55 0 15 2 2 4 -28 4 -30 0 -43 -2 -27 -4z"/>
<path d="M1470 131 c0 -6 4 -13 10 -16 6 -3 7 1 4 9 -7 18 -14 21 -14 7z"/>
<path d="M135 112 c4 -8 -2 -23 -16 -38 l-22 -24 29 1 c18 1 22 3 11 6 -18 5
-18 6 -1 24 14 16 15 22 4 32 -10 9 -11 9 -5 -1z"/>
<path d="M380 100 c-10 -6 -11 -10 -2 -10 7 0 12 -15 12 -39 0 -22 -5 -42 -12
-44 -7 -3 -4 -6 7 -6 18 -1 20 4 17 42 -5 66 -5 68 -22 57z"/>
<path d="M51 53 c-1 -6 -4 -20 -7 -30 -5 -17 -5 -17 6 0 6 10 9 23 6 30 -3 9
-5 9 -5 0z"/>
<path d="M223 33 c15 -2 39 -2 55 0 15 2 2 4 -28 4 -30 0 -43 -2 -27 -4z"/>
</g>
</svg>
