<?xml version="1.0" standalone="no"?>
<!DOCTYPE svg PUBLIC "-//W3C//DTD SVG 20010904//EN"
 "http://www.w3.org/TR/2001/REC-SVG-20010904/DTD/svg10.dtd">
<svg version="1.0" xmlns="http://www.w3.org/2000/svg"
 width="468pt" height="121pt" viewBox="0 0 468 121"
 preserveAspectRatio="xMidYMid meet">
<metadata>
Created by potrace 1.8, written by Peter Selinger 2001-2007
</metadata>
<g transform="translate(0,121) scale(0.344118,-0.344118)"
fill="#000000" stroke="none">
<path d="M64 313 c0 -10 -3 -36 -7 -58 l-6 -40 14 40 c16 46 18 75 7 75 -4 0
-8 -8 -8 -17z"/>
<path d="M864 313 c0 -10 -3 -36 -7 -58 l-6 -40 14 40 c16 46 18 75 7 75 -4 0
-8 -8 -8 -17z"/>
<path d="M1254 313 c0 -10 -3 -36 -7 -58 -4 -25 -3 -32 2 -20 13 33 23 95 14
95 -5 0 -9 -8 -9 -17z"/>
<path d="M331 288 c-1 -21 -7 -28 -28 -31 l-28 -4 27 -2 c19 -1 28 -7 31 -23
l4 -23 2 23 c1 15 8 22 24 23 l22 2 -22 4 c-14 3 -23 13 -26 31 l-4 27 -2 -27z"/>
<path d="M100 264 c0 -21 4 -45 9 -53 5 -8 7 5 4 35 -7 61 -13 70 -13 18z"/>
<path d="M543 260 c0 -25 2 -35 4 -22 2 12 2 32 0 45 -2 12 -4 2 -4 -23z"/>
<path d="M166 264 c-4 -14 -5 -28 -3 -31 3 -2 8 8 11 23 4 14 5 28 3 31 -3 2
-8 -8 -11 -23z"/>
<path d="M205 260 c-4 -17 -5 -34 -2 -36 3 -3 8 9 12 26 4 17 5 34 2 36 -3 3
-8 -9 -12 -26z"/>
<path d="M446 264 c-4 -14 -5 -28 -3 -31 3 -2 8 8 11 23 4 14 5 28 3 31 -3 2
-8 -8 -11 -23z"/>
<path d="M491 276 c-1 -11 2 -17 5 -13 3 3 4 12 1 19 -3 8 -6 5 -6 -6z"/>
<path d="M905 260 c-4 -17 -5 -34 -2 -36 2 -3 7 10 11 27 8 42 0 50 -9 9z"/>
<path d="M945 260 c-4 -17 -5 -34 -2 -36 2 -3 7 10 11 27 8 42 0 50 -9 9z"/>
<path d="M1210 275 c-6 -8 -10 -21 -8 -31 2 -11 7 -6 15 15 13 34 11 38 -7 16z"/>
<path d="M1296 264 c-4 -14 -5 -28 -3 -31 3 -2 8 8 11 23 4 14 5 28 3 31 -3 2
-8 -8 -11 -23z"/>
<path d="M17 273 c-4 -3 -7 -16 -6 -27 0 -19 1 -19 10 3 10 24 8 36 -4 24z"/>
<path d="M817 273 c-4 -3 -7 -16 -6 -27 0 -19 1 -19 10 3 10 24 8 36 -4 24z"/>
<path d="M1071 178 c-1 -21 -6 -28 -23 -29 l-23 -2 23 -4 c14 -3 22 -12 23
-26 2 -22 2 -22 6 1 3 16 12 22 31 23 l27 2 -27 4 c-20 3 -28 11 -31 31 l-4
27 -2 -27z"/>
<path d="M663 163 c15 -2 39 -2 55 0 15 2 2 4 -28 4 -30 0 -43 -2 -27 -4z"/>
<path d="M143 153 c82 -2 212 -2 290 0 78 1 12 3 -148 3 -160 0 -223 -2 -142
-3z"/>
<path d="M837 153 c23 -2 64 -2 90 0 26 2 8 3 -42 3 -49 0 -71 -1 -48 -3z"/>
<path d="M1227 153 c23 -2 64 -2 90 0 26 2 8 3 -42 3 -49 0 -71 -1 -48 -3z"/>
<path d="M663 133 c15 -2 39 -2 55 0 15 2 2 4 -28 4 -30 0 -43 -2 -27 -4z"/>
<path d="M264 93 c0 -10 -3 -36 -7 -58 -4 -25 -3 -32 2 -20 13 33 23 95 14 95
-5 0 -9 -8 -9 -17z"/>
<path d="M864 93 c0 -10 -3 -36 -7 -58 l-6 -40 14 40 c16 46 18 75 7 75 -4 0
-8 -8 -8 -17z"/>
<path d="M1250 90 c0 -11 -3 -20 -7 -20 -5 0 -9 -16 -10 -36 -2 -46 1 -42 20
24 9 28 12 52 6 52 -5 0 -9 -9 -9 -20z"/>
<path d="M220 55 c-6 -8 -10 -21 -8 -31 2 -11 7 -6 15 15 13 34 11 38 -7 16z"/>
<path d="M318 39 c-3 -16 -1 -32 3 -34 4 -3 9 9 11 26 3 16 1 32 -3 34 -4 3
-9 -9 -11 -26z"/>
<path d="M918 39 c-3 -16 -1 -32 3 -34 4 -3 9 9 11 26 3 16 1 32 -3 34 -4 3
-9 -9 -11 -26z"/>
<path d="M817 53 c-4 -3 -7 -16 -6 -27 0 -19 1 -19 10 3 10 24 8 36 -4 24z"/>
<path d="M1197 53 c-4 -3 -7 -16 -6 -27 0 -19 1 -19 10 3 10 24 8 36 -4 24z"/>
<path d="M1311 53 c-1 -6 -4 -20 -7 -30 -5 -17 -5 -17 6 0 6 10 9 23 6 30 -3
9 -5 9 -5 0z"/>
</g>
</svg>
