<?xml version="1.0" standalone="no"?>
<!DOCTYPE svg PUBLIC "-//W3C//DTD SVG 20010904//EN"
 "http://www.w3.org/TR/2001/REC-SVG-20010904/DTD/svg10.dtd">
<svg version="1.0" xmlns="http://www.w3.org/2000/svg"
 width="468pt" height="134pt" viewBox="0 0 468 134"
 preserveAspectRatio="xMidYMid meet">
<metadata>
Created by potrace 1.8, written by Peter Selinger 2001-2007
</metadata>
<g transform="translate(0,134) scale(0.027957,-0.027957)"
fill="#000000" stroke="none">
<path d="M13291 4681 c-331 -330 -556 -746 -690 -1276 -163 -648 -154 -1472
23 -2115 132 -482 382 -925 681 -1208 74 -70 91 -82 121 -82 47 0 45 25 -7 75
-251 243 -490 668 -613 1093 -185 637 -206 1553 -50 2242 116 518 331 943 643
1273 38 40 66 78 64 85 -3 6 -20 12 -38 12 -29 0 -47 -13 -134 -99z"/>
<path d="M15755 4769 c-7 -11 0 -20 103 -132 344 -373 573 -915 661 -1564 55
-401 57 -915 5 -1333 -82 -669 -322 -1233 -689 -1619 -48 -51 -85 -97 -82
-104 2 -7 19 -13 38 -15 33 -3 42 5 145 110 61 62 138 148 172 191 407 513
622 1235 622 2085 0 721 -156 1356 -454 1846 -98 160 -196 286 -330 424 -105
107 -123 122 -152 122 -18 0 -36 -5 -39 -11z"/>
<path d="M1549 4678 c-164 -159 -274 -381 -325 -653 -27 -140 -27 -440 0 -580
37 -201 115 -394 212 -525 78 -107 194 -211 194 -174 0 3 -26 36 -57 74 -191
226 -283 524 -283 915 0 389 86 672 276 906 35 43 64 81 64 84 0 18 -35 -2
-81 -47z"/>
<path d="M3747 4724 c-4 -4 14 -30 40 -58 212 -234 318 -592 300 -1011 -17
-374 -112 -646 -298 -849 -52 -57 -51 -83 0 -47 82 58 190 204 257 345 91 192
128 376 128 631 0 392 -109 698 -329 923 -68 69 -84 80 -98 66z"/>
<path d="M825 4608 c-92 -9 -123 -24 -112 -52 5 -11 20 -16 49 -16 67 0 88 -9
88 -36 0 -13 -28 -134 -61 -269 l-61 -245 -28 44 c-82 128 -270 107 -425 -49
-242 -242 -261 -647 -34 -745 96 -41 197 -15 296 77 l51 48 21 -45 c29 -65 78
-95 154 -95 58 0 60 1 102 47 32 36 49 67 69 130 34 109 36 133 12 133 -14 0
-23 -17 -42 -83 -13 -46 -31 -97 -40 -114 -38 -73 -107 -101 -138 -56 -33 46
-20 112 134 724 83 327 148 599 145 604 -7 12 -54 11 -180 -2z m-207 -548 c36
-22 67 -68 82 -119 8 -29 0 -71 -46 -255 -30 -122 -62 -235 -71 -253 -20 -43
-113 -130 -165 -153 -67 -30 -114 -26 -153 13 -73 73 -71 207 6 462 47 155
107 246 193 295 60 35 108 38 154 10z"/>
<path d="M14365 4608 c-92 -9 -123 -24 -112 -52 5 -11 20 -16 49 -16 67 0 88
-9 88 -36 0 -13 -28 -134 -61 -269 l-61 -245 -28 44 c-82 128 -270 107 -425
-49 -242 -242 -261 -647 -34 -745 96 -41 197 -15 296 77 l51 48 21 -45 c29
-65 78 -95 154 -95 58 0 60 1 102 47 32 36 49 67 69 130 34 109 36 133 12 133
-14 0 -23 -17 -42 -83 -13 -46 -31 -97 -40 -114 -38 -73 -107 -101 -138 -56
-33 46 -20 112 134 724 83 327 148 599 145 604 -7 12 -54 11 -180 -2z m-207
-548 c36 -22 67 -68 82 -119 8 -29 0 -71 -46 -255 -30 -122 -62 -235 -71 -253
-20 -43 -113 -130 -165 -153 -67 -30 -114 -26 -153 13 -73 73 -71 207 6 462
47 155 107 246 193 295 60 35 108 38 154 10z"/>
<path d="M2951 4554 c-31 -28 -81 -141 -81 -184 0 -41 27 -19 39 33 24 93 59
147 96 147 30 0 45 -19 45 -55 0 -17 -27 -139 -59 -270 -60 -246 -63 -275 -23
-275 40 0 51 25 102 230 52 208 71 254 129 308 70 65 164 82 200 36 36 -46 25
-122 -48 -341 -23 -67 -38 -129 -35 -140 20 -63 56 -93 111 -93 59 0 128 66
158 149 32 92 6 97 -30 6 -40 -98 -127 -158 -154 -107 -12 23 -10 35 46 207
74 226 69 316 -20 358 -77 37 -168 16 -243 -54 l-52 -50 -7 29 c-9 42 -55 83
-102 89 -34 4 -45 1 -72 -23z"/>
<path d="M1950 4098 c-54 -29 -111 -102 -144 -183 -33 -83 -36 -110 -12 -110
14 0 24 13 36 50 48 142 120 225 193 225 66 0 66 -74 2 -255 -93 -262 -112
-372 -79 -468 30 -89 132 -146 242 -135 64 6 115 32 168 85 38 39 45 42 51 26
23 -64 93 -112 163 -113 77 0 132 62 174 198 31 99 32 122 9 122 -14 0 -25
-24 -50 -104 -46 -148 -107 -207 -167 -163 -41 30 -33 91 53 435 45 177 81
332 81 345 0 30 -18 47 -48 47 -63 0 -63 -1 -166 -415 -75 -301 -92 -338 -181
-390 -90 -53 -170 -43 -206 26 -40 80 -20 212 71 469 41 115 50 154 47 189
-12 113 -134 174 -237 119z"/>
<path d="M14790 4098 c-54 -29 -111 -102 -144 -183 -33 -83 -36 -110 -12 -110
14 0 24 13 36 50 48 142 120 225 193 225 66 0 66 -74 2 -255 -93 -262 -112
-372 -79 -468 30 -89 132 -146 242 -135 64 6 115 32 168 85 38 39 45 42 51 26
23 -64 93 -112 163 -113 77 0 132 62 174 198 31 99 32 122 9 122 -14 0 -25
-24 -50 -104 -46 -148 -107 -207 -167 -163 -41 30 -33 91 53 435 45 177 81
332 81 345 0 30 -18 47 -48 47 -63 0 -63 -1 -166 -415 -75 -301 -92 -338 -181
-390 -90 -53 -170 -43 -206 26 -40 80 -20 212 71 469 41 115 50 154 47 189
-12 113 -134 174 -237 119z"/>
<path d="M11415 3608 c-28 -29 -91 -56 -152 -64 -43 -5 -53 -10 -53 -25 0 -12
7 -19 18 -19 19 0 106 22 135 35 16 7 17 -15 17 -379 0 -442 9 -406 -99 -406
-54 0 -61 -2 -61 -20 0 -19 7 -20 206 -20 190 0 205 1 202 18 -3 14 -17 18
-76 22 -50 3 -76 10 -82 20 -6 9 -10 189 -10 438 0 447 0 447 -45 400z"/>
<path d="M9311 3304 c-31 -28 -81 -141 -81 -184 0 -41 27 -19 39 33 24 93 59
147 96 147 30 0 45 -19 45 -55 0 -17 -27 -139 -59 -270 -60 -246 -63 -275 -23
-275 40 0 51 25 102 230 52 208 71 254 129 308 70 65 164 82 200 36 36 -46 25
-122 -48 -341 -23 -67 -38 -129 -35 -140 20 -63 56 -93 111 -93 59 0 128 66
158 149 32 92 6 97 -30 6 -40 -98 -127 -158 -154 -107 -12 23 -10 35 46 207
74 226 69 316 -20 358 -77 37 -168 16 -243 -54 l-52 -50 -7 29 c-9 42 -55 83
-102 89 -34 4 -45 1 -72 -23z"/>
<path d="M10137 3083 c-12 -3 -17 -12 -15 -26 l3 -22 418 -3 c381 -2 418 -1
424 14 16 41 -11 44 -421 43 -215 -1 -399 -3 -409 -6z"/>
<path d="M7114 2760 c-34 -13 -81 -75 -104 -137 -32 -86 -49 -157 -40 -167 19
-19 38 6 54 69 26 104 62 172 103 193 34 19 61 14 79 -13 26 -40 14 -120 -71
-463 -47 -192 -75 -323 -71 -337 8 -32 50 -43 85 -24 24 13 33 40 101 309 82
321 97 357 182 443 107 107 261 129 302 42 34 -71 14 -197 -70 -436 -68 -197
-70 -209 -50 -263 40 -103 153 -137 247 -73 61 41 139 174 150 257 3 19 0 25
-15 25 -14 0 -24 -14 -38 -55 -47 -138 -118 -220 -191 -220 -66 0 -64 70 9
282 111 328 119 426 43 513 -92 105 -314 76 -432 -55 l-45 -49 -12 43 c-26 93
-132 150 -216 116z"/>
<path d="M8310 2748 c-54 -29 -111 -102 -144 -183 -33 -83 -36 -110 -12 -110
14 0 24 13 36 50 48 142 120 225 193 225 66 0 66 -74 2 -255 -93 -262 -112
-372 -79 -468 30 -89 132 -146 242 -135 64 6 115 32 168 85 38 39 45 42 51 26
23 -64 93 -112 163 -113 77 0 132 62 174 198 31 99 32 122 9 122 -14 0 -25
-24 -50 -104 -46 -148 -107 -207 -167 -163 -41 30 -33 91 53 435 45 177 81
332 81 345 0 30 -18 47 -48 47 -63 0 -63 -1 -166 -415 -75 -301 -92 -338 -181
-390 -90 -53 -170 -43 -206 26 -40 80 -20 212 71 469 41 115 50 154 47 189
-12 113 -134 174 -237 119z"/>
<path d="M5029 2584 c-9 -11 -10 -20 -2 -32 9 -16 63 -17 604 -20 327 -1 604
0 617 3 24 6 29 34 10 53 -9 9 -159 12 -614 12 -537 0 -603 -2 -615 -16z"/>
<path d="M0 2390 l0 -40 2180 0 2180 0 0 40 0 40 -2180 0 -2180 0 0 -40z"/>
<path d="M13540 2390 l0 -40 1065 0 1065 0 0 40 0 40 -1065 0 -1065 0 0 -40z"/>
<path d="M5029 2224 c-9 -11 -10 -20 -2 -32 9 -16 63 -17 613 -20 437 -1 607
1 616 9 19 15 18 45 -2 53 -9 3 -285 6 -614 6 -533 0 -599 -2 -611 -16z"/>
<path d="M1945 1888 c-92 -9 -123 -24 -112 -52 5 -11 20 -16 49 -16 67 0 88
-9 88 -36 0 -13 -28 -134 -61 -269 l-61 -245 -28 44 c-82 128 -270 107 -425
-49 -242 -242 -261 -647 -34 -745 96 -41 197 -15 296 77 l51 48 21 -45 c29
-65 78 -95 154 -95 58 0 60 1 102 47 32 36 49 67 69 130 34 109 36 133 12 133
-14 0 -23 -17 -42 -83 -13 -46 -31 -97 -40 -114 -38 -73 -107 -101 -138 -56
-33 46 -20 112 134 724 83 327 148 599 145 604 -7 12 -54 11 -180 -2z m-207
-548 c36 -22 67 -68 82 -119 8 -29 0 -71 -46 -255 -30 -122 -62 -235 -71 -253
-20 -43 -113 -130 -165 -153 -67 -30 -114 -26 -153 13 -73 73 -71 207 6 462
47 155 107 246 193 295 60 35 108 38 154 10z"/>
<path d="M14375 1888 c-92 -9 -123 -24 -112 -52 5 -11 20 -16 49 -16 67 0 88
-9 88 -36 0 -13 -28 -134 -61 -269 l-61 -245 -28 44 c-82 128 -270 107 -425
-49 -242 -242 -261 -647 -34 -745 96 -41 197 -15 296 77 l51 48 21 -45 c29
-65 78 -95 154 -95 58 0 60 1 102 47 32 36 49 67 69 130 34 109 36 133 12 133
-14 0 -23 -17 -42 -83 -13 -46 -31 -97 -40 -114 -38 -73 -107 -101 -138 -56
-33 46 -20 112 134 724 83 327 148 599 145 604 -7 12 -54 11 -180 -2z m-207
-548 c36 -22 67 -68 82 -119 8 -29 0 -71 -46 -255 -30 -122 -62 -235 -71 -253
-20 -43 -113 -130 -165 -153 -67 -30 -114 -26 -153 13 -73 73 -71 207 6 462
47 155 107 246 193 295 60 35 108 38 154 10z"/>
<path d="M2475 1377 c-89 -43 -185 -166 -211 -270 -6 -26 -4 -28 15 -25 16 2
28 18 45 60 77 188 261 283 329 169 29 -49 21 -123 -38 -362 -73 -293 -105
-362 -182 -395 -39 -17 -79 -18 -122 -3 l-32 11 31 19 c50 31 65 94 30 129
-29 29 -74 25 -112 -9 -28 -25 -33 -36 -33 -76 0 -40 5 -51 32 -75 54 -49 142
-63 211 -35 43 19 74 45 113 98 l28 38 16 -35 c52 -109 198 -147 310 -82 56
33 128 114 159 179 33 67 37 102 13 102 -13 0 -25 -17 -41 -57 -62 -153 -192
-247 -286 -208 -78 32 -79 115 -4 413 60 240 76 284 119 336 48 56 103 71 178
50 l38 -10 -33 -22 c-60 -41 -61 -128 -2 -143 39 -10 75 6 102 46 62 92 -38
191 -180 178 -59 -6 -119 -46 -156 -104 -15 -24 -29 -43 -32 -43 -3 0 -14 19
-26 42 -47 96 -175 134 -279 84z"/>
<path d="M14895 1377 c-89 -43 -185 -166 -211 -270 -6 -26 -4 -28 15 -25 16 2
28 18 45 60 77 188 261 283 329 169 29 -49 21 -123 -38 -362 -73 -293 -105
-362 -182 -395 -39 -17 -79 -18 -122 -3 l-32 11 31 19 c50 31 65 94 30 129
-29 29 -74 25 -112 -9 -28 -25 -33 -36 -33 -76 0 -40 5 -51 32 -75 54 -49 142
-63 211 -35 43 19 74 45 113 98 l28 38 16 -35 c52 -109 198 -147 310 -82 56
33 128 114 159 179 33 67 37 102 13 102 -13 0 -25 -17 -41 -57 -62 -153 -192
-247 -286 -208 -78 32 -79 115 -4 413 60 240 76 284 119 336 48 56 103 71 178
50 l38 -10 -33 -22 c-60 -41 -61 -128 -2 -143 39 -10 75 6 102 46 62 92 -38
191 -180 178 -59 -6 -119 -46 -156 -104 -15 -24 -29 -43 -32 -43 -3 0 -14 19
-26 42 -47 96 -175 134 -279 84z"/>
</g>
</svg>
