<?xml version="1.0" standalone="no"?>
<!DOCTYPE svg PUBLIC "-//W3C//DTD SVG 20010904//EN"
 "http://www.w3.org/TR/2001/REC-SVG-20010904/DTD/svg10.dtd">
<svg version="1.0" xmlns="http://www.w3.org/2000/svg"
 width="468pt" height="68pt" viewBox="0 0 468 68"
 preserveAspectRatio="xMidYMid meet">
<metadata>
Created by potrace 1.8, written by Peter Selinger 2001-2007
</metadata>
<g transform="translate(0,68) scale(0.017321,-0.017321)"
fill="#000000" stroke="none">
<path d="M214 3890 c-34 -13 -81 -75 -104 -137 -32 -86 -49 -157 -40 -167 19
-19 38 6 54 69 26 104 62 172 103 193 34 19 61 14 79 -13 26 -40 14 -120 -71
-463 -47 -192 -75 -323 -71 -337 8 -32 50 -43 85 -24 24 13 33 40 101 309 82
321 97 357 182 443 107 107 261 129 302 42 34 -71 14 -197 -70 -436 -68 -197
-70 -209 -50 -263 40 -103 153 -137 247 -73 61 41 139 174 150 257 3 19 0 25
-15 25 -14 0 -24 -14 -38 -55 -47 -138 -118 -220 -191 -220 -66 0 -64 70 9
282 111 328 119 426 43 513 -92 105 -314 76 -432 -55 l-45 -49 -12 43 c-26 93
-132 150 -216 116z"/>
<path d="M4584 3890 c-34 -13 -81 -75 -104 -137 -32 -86 -49 -157 -40 -167 19
-19 38 6 54 69 26 104 62 172 103 193 34 19 61 14 79 -13 26 -40 14 -120 -71
-463 -47 -192 -75 -323 -71 -337 8 -32 50 -43 85 -24 24 13 33 40 101 309 82
321 97 357 182 443 107 107 261 129 302 42 34 -71 14 -197 -70 -436 -68 -197
-70 -209 -50 -263 40 -103 153 -137 247 -73 61 41 139 174 150 257 3 19 0 25
-15 25 -14 0 -24 -14 -38 -55 -47 -138 -118 -220 -191 -220 -66 0 -64 70 9
282 111 328 119 426 43 513 -92 105 -314 76 -432 -55 l-45 -49 -12 43 c-26 93
-132 150 -216 116z"/>
<path d="M1495 3618 c-28 -29 -91 -56 -152 -64 -43 -5 -53 -10 -53 -25 0 -12
7 -19 18 -19 19 0 106 22 135 35 16 7 17 -15 17 -379 0 -442 9 -406 -99 -406
-54 0 -61 -2 -61 -20 0 -19 7 -20 206 -20 190 0 205 1 202 18 -3 14 -17 18
-76 22 -50 3 -76 10 -82 20 -6 9 -10 189 -10 438 0 447 0 447 -45 400z"/>
<path d="M5755 3616 c-83 -38 -134 -111 -142 -206 -4 -44 -2 -60 12 -73 46
-46 121 16 86 71 -5 8 -22 17 -39 20 l-31 7 20 45 c11 24 28 53 37 63 29 32
89 57 136 57 120 0 195 -86 196 -222 0 -128 -37 -191 -265 -448 -85 -96 -155
-183 -155 -192 0 -17 18 -18 244 -18 l243 0 17 106 c9 59 15 109 12 111 -12
12 -25 -11 -31 -55 -11 -80 -1 -77 -215 -80 -182 -3 -191 -2 -182 15 6 10 85
91 176 181 177 174 221 228 242 300 31 102 12 184 -61 259 -80 82 -200 106
-300 59z"/>
<path d="M7665 3046 c-62 -29 -107 -76 -137 -141 -20 -44 -23 -69 -26 -212
l-4 -163 -79 0 c-78 0 -79 0 -79 -25 0 -25 1 -25 80 -25 l80 0 0 -356 c0 -217
-4 -363 -10 -374 -7 -13 -26 -21 -65 -25 -49 -7 -55 -10 -55 -31 l0 -24 200 0
200 0 0 24 c0 21 -5 24 -67 29 -40 4 -73 13 -82 22 -14 14 -16 66 -19 375 l-3
360 116 0 115 0 0 25 0 25 -116 0 -116 0 4 168 c3 147 6 173 26 217 47 102
114 143 187 115 l27 -10 -26 -21 c-32 -25 -35 -70 -6 -99 44 -44 115 -10 113
55 -3 99 -140 147 -258 91z"/>
<path d="M16865 3046 c-62 -29 -107 -76 -137 -141 -20 -44 -23 -69 -26 -212
l-4 -163 -79 0 c-78 0 -79 0 -79 -25 0 -25 1 -25 80 -25 l80 0 0 -356 c0 -217
-4 -363 -10 -374 -7 -13 -26 -21 -65 -25 -49 -7 -55 -10 -55 -31 l0 -24 200 0
200 0 0 24 c0 21 -5 24 -67 29 -40 4 -73 13 -82 22 -14 14 -16 66 -19 375 l-3
360 116 0 115 0 0 25 0 25 -116 0 -116 0 4 168 c3 147 6 173 26 217 47 102
114 143 187 115 l27 -10 -26 -21 c-32 -25 -35 -70 -6 -99 44 -44 115 -10 113
55 -3 99 -140 147 -258 91z"/>
<path d="M11130 3044 c-8 -1 -50 -6 -93 -9 -77 -7 -78 -7 -75 -33 3 -23 8 -27
38 -30 65 -5 78 -11 89 -43 7 -20 11 -124 11 -276 l0 -245 -56 51 c-127 116
-314 106 -455 -26 -62 -57 -94 -107 -120 -180 -77 -224 20 -478 219 -571 47
-22 71 -27 137 -27 96 0 155 25 222 92 l43 42 0 -70 0 -70 113 6 c135 8 139 9
135 37 -3 20 -11 24 -57 30 -29 3 -58 11 -65 18 -8 8 -12 189 -14 660 l-2 650
-28 -1 c-15 -1 -34 -3 -42 -5z m-170 -565 c49 -26 74 -48 104 -93 l26 -39 0
-239 c0 -272 -2 -280 -74 -346 -61 -56 -107 -75 -182 -75 -113 -1 -194 70
-237 207 -18 58 -22 95 -22 201 1 145 15 209 64 286 72 114 211 157 321 98z"/>
<path d="M14175 3045 c-5 -2 -45 -6 -87 -10 -78 -7 -78 -7 -78 -36 0 -28 2
-29 43 -29 24 0 52 -6 63 -14 18 -14 19 -34 22 -600 2 -385 -1 -593 -8 -605
-7 -14 -26 -22 -65 -26 -49 -7 -55 -10 -55 -31 l0 -24 185 0 185 0 0 24 c0 21
-6 24 -53 30 -90 12 -82 -55 -85 676 l-2 650 -28 -1 c-15 0 -31 -2 -37 -4z"/>
<path d="M20285 3038 c-92 -9 -123 -24 -112 -52 5 -11 20 -16 49 -16 67 0 88
-9 88 -36 0 -13 -28 -134 -61 -269 l-61 -245 -28 44 c-82 128 -270 107 -425
-49 -242 -242 -261 -647 -34 -745 96 -41 197 -15 296 77 l51 48 21 -45 c29
-65 78 -95 154 -95 58 0 60 1 102 47 32 36 49 67 69 130 34 109 36 133 12 133
-14 0 -23 -17 -42 -83 -13 -46 -31 -97 -40 -114 -38 -73 -107 -101 -138 -56
-33 46 -20 112 134 724 83 327 148 599 145 604 -7 12 -54 11 -180 -2z m-207
-548 c36 -22 67 -68 82 -119 8 -29 0 -71 -46 -255 -30 -122 -62 -235 -71 -253
-20 -43 -113 -130 -165 -153 -67 -30 -114 -26 -153 13 -73 73 -71 207 6 462
47 155 107 246 193 295 60 35 108 38 154 10z"/>
<path d="M26295 3038 c-92 -9 -123 -24 -112 -52 5 -11 20 -16 49 -16 67 0 88
-9 88 -36 0 -13 -28 -134 -61 -269 l-61 -245 -28 44 c-82 128 -270 107 -425
-49 -242 -242 -261 -647 -34 -745 96 -41 197 -15 296 77 l51 48 21 -45 c29
-65 78 -95 154 -95 58 0 60 1 102 47 32 36 49 67 69 130 34 109 36 133 12 133
-14 0 -23 -17 -42 -83 -13 -46 -31 -97 -40 -114 -38 -73 -107 -101 -138 -56
-33 46 -20 112 134 724 83 327 148 599 145 604 -7 12 -54 11 -180 -2z m-207
-548 c36 -22 67 -68 82 -119 8 -29 0 -71 -46 -255 -30 -122 -62 -235 -71 -253
-20 -43 -113 -130 -165 -153 -67 -30 -114 -26 -153 13 -73 73 -71 207 6 462
47 155 107 246 193 295 60 35 108 38 154 10z"/>
<path d="M6974 2957 c-55 -47 -20 -137 53 -137 39 0 83 37 83 70 0 76 -80 115
-136 67z"/>
<path d="M16174 2957 c-55 -47 -20 -137 53 -137 39 0 83 37 83 70 0 76 -80
115 -136 67z"/>
<path d="M8780 2541 c-111 -36 -191 -135 -193 -237 0 -55 23 -84 70 -84 40 0
73 30 73 65 0 31 -41 75 -70 75 -26 0 -25 13 4 56 34 50 81 82 142 94 146 30
254 -83 254 -265 l0 -62 -77 -7 c-160 -14 -283 -58 -358 -127 -59 -54 -86
-107 -92 -178 -7 -86 23 -136 112 -181 63 -32 75 -35 159 -35 74 0 98 4 131
22 40 21 88 67 118 112 l16 23 12 -41 c7 -25 28 -55 51 -76 47 -43 106 -48
159 -12 52 34 72 85 73 186 1 74 -1 86 -16 89 -16 3 -18 -5 -18 -71 0 -94 -7
-130 -32 -156 -25 -28 -79 -28 -104 0 -17 19 -19 44 -25 303 -4 196 -9 294
-19 324 -33 104 -148 183 -275 188 -38 2 -81 0 -95 -5z m280 -514 c0 -143 -14
-204 -61 -260 -78 -95 -217 -111 -295 -33 -62 62 -66 155 -10 251 48 81 151
137 284 154 37 5 70 9 75 10 4 0 7 -54 7 -122z"/>
<path d="M12353 2536 c-129 -42 -230 -149 -279 -296 -26 -77 -24 -225 4 -301
41 -114 117 -200 222 -252 58 -29 74 -32 155 -32 80 0 97 3 157 32 232 109
316 401 186 644 -39 74 -121 153 -195 186 -69 32 -184 41 -250 19z m214 -47
c79 -38 134 -121 154 -234 18 -103 7 -306 -20 -376 -48 -126 -130 -189 -243
-189 -71 0 -113 16 -167 65 -81 74 -119 216 -108 409 9 161 54 260 143 312 82
48 158 52 241 13z"/>
<path d="M17854 2540 c-34 -13 -81 -75 -104 -137 -32 -86 -49 -157 -40 -167
19 -19 38 6 54 69 26 104 62 172 103 193 34 19 61 14 79 -13 26 -40 14 -120
-71 -463 -47 -192 -75 -323 -71 -337 8 -32 50 -43 85 -24 24 13 33 40 101 309
82 321 97 357 182 443 107 107 261 129 302 42 34 -71 14 -197 -70 -436 -68
-197 -70 -209 -50 -263 40 -103 153 -137 247 -73 61 41 139 174 150 257 3 19
0 25 -15 25 -14 0 -24 -14 -38 -55 -47 -138 -118 -220 -191 -220 -66 0 -64 70
9 282 111 328 119 426 43 513 -92 105 -314 76 -432 -55 l-45 -49 -12 43 c-26
93 -132 150 -216 116z"/>
<path d="M23864 2540 c-34 -13 -81 -75 -104 -137 -32 -86 -49 -157 -40 -167
19 -19 38 6 54 69 26 104 62 172 103 193 34 19 61 14 79 -13 26 -40 14 -120
-71 -463 -47 -192 -75 -323 -71 -337 8 -32 50 -43 85 -24 24 13 33 40 101 309
82 321 97 357 182 443 107 107 261 129 302 42 34 -71 14 -197 -70 -436 -68
-197 -70 -209 -50 -263 40 -103 153 -137 247 -73 61 41 139 174 150 257 3 19
0 25 -15 25 -14 0 -24 -14 -38 -55 -47 -138 -118 -220 -191 -220 -66 0 -64 70
9 282 111 328 119 426 43 513 -92 105 -314 76 -432 -55 l-45 -49 -12 43 c-26
93 -132 150 -216 116z"/>
<path d="M6970 2529 c-95 -11 -102 -14 -98 -41 2 -19 11 -24 52 -29 31 -3 53
-12 62 -24 11 -15 14 -84 14 -343 0 -196 -4 -331 -10 -342 -7 -13 -26 -21 -65
-25 -49 -7 -55 -10 -55 -31 l0 -24 180 0 180 0 0 24 c0 21 -6 24 -56 31 -46 5
-57 10 -65 31 -5 14 -9 191 -9 405 l0 379 -27 -1 c-16 -1 -62 -5 -103 -10z"/>
<path d="M9535 2529 c-97 -10 -105 -13 -105 -38 0 -17 9 -22 51 -27 93 -12 89
3 89 -370 0 -200 -4 -333 -10 -344 -7 -14 -26 -21 -70 -26 -55 -6 -60 -9 -60
-30 l0 -24 190 0 190 0 0 24 c0 21 -6 24 -54 30 -30 4 -60 13 -66 21 -8 9 -10
94 -8 287 l3 273 27 52 c39 73 91 120 154 139 89 26 165 -2 200 -72 17 -35 19
-67 22 -346 2 -205 0 -314 -7 -327 -9 -15 -26 -22 -71 -27 -55 -6 -60 -9 -60
-30 l0 -24 190 0 190 0 0 24 c0 21 -6 24 -54 30 -30 4 -59 13 -64 19 -6 7 -12
135 -15 312 -2 196 -8 313 -16 337 -16 50 -54 94 -105 121 -57 30 -192 31
-251 2 -49 -24 -108 -82 -134 -132 l-20 -38 -1 98 0 97 -27 -1 c-16 -1 -64 -5
-108 -10z"/>
<path d="M13085 2529 c-97 -10 -105 -13 -105 -38 0 -17 9 -22 51 -27 93 -12
89 3 89 -370 0 -200 -4 -333 -10 -344 -7 -14 -26 -21 -70 -26 -55 -6 -60 -9
-60 -30 l0 -24 190 0 190 0 0 24 c0 21 -6 24 -54 30 -30 4 -60 13 -66 21 -8 9
-10 94 -8 287 l3 273 27 52 c39 73 91 120 154 139 89 26 165 -2 200 -72 17
-35 19 -67 22 -346 2 -205 0 -314 -7 -327 -9 -15 -26 -22 -71 -27 -55 -6 -60
-9 -60 -30 l0 -24 190 0 190 0 0 24 c0 21 -6 24 -54 30 -30 4 -59 13 -64 19
-6 7 -12 135 -15 312 -2 196 -8 313 -16 337 -16 50 -54 94 -105 121 -57 30
-192 31 -251 2 -49 -24 -108 -82 -134 -132 l-20 -38 -1 98 0 97 -27 -1 c-16
-1 -64 -5 -108 -10z"/>
<path d="M16170 2529 c-95 -11 -102 -14 -98 -41 2 -19 11 -24 52 -29 31 -3 53
-12 62 -24 11 -15 14 -84 14 -343 0 -196 -4 -331 -10 -342 -7 -13 -26 -21 -65
-25 -49 -7 -55 -10 -55 -31 l0 -24 180 0 180 0 0 24 c0 21 -6 24 -56 31 -46 5
-57 10 -65 31 -5 14 -9 191 -9 405 l0 379 -27 -1 c-16 -1 -62 -5 -103 -10z"/>
<path d="M14450 2506 c0 -21 6 -25 51 -31 31 -4 57 -15 67 -26 9 -11 86 -189
170 -396 l153 -377 -22 -60 c-37 -105 -97 -223 -132 -259 -44 -48 -101 -64
-158 -46 -42 14 -65 39 -35 39 36 0 47 69 16 100 -41 41 -110 11 -110 -47 0
-67 83 -133 166 -133 82 1 166 66 213 166 12 24 100 238 197 476 97 238 185
449 195 470 24 47 61 76 116 89 36 10 43 15 43 35 l0 24 -140 0 -140 0 0 -24
c0 -17 9 -27 30 -36 33 -13 50 -37 50 -67 0 -17 -217 -571 -229 -585 -3 -4
-62 133 -131 303 -137 341 -136 337 -61 353 34 7 41 13 41 32 l0 24 -175 0
-175 0 0 -24z"/>
<path d="M2479 2364 c-9 -11 -10 -20 -2 -32 9 -16 63 -17 604 -20 327 -1 604
0 617 3 24 6 29 34 10 53 -9 9 -159 12 -614 12 -537 0 -603 -2 -615 -16z"/>
<path d="M21769 2364 c-9 -11 -10 -20 -2 -32 9 -16 63 -17 604 -20 327 -1 604
0 617 3 24 6 29 34 10 53 -9 9 -159 12 -614 12 -537 0 -603 -2 -615 -16z"/>
<path d="M19135 2278 c-28 -29 -91 -56 -152 -64 -43 -5 -53 -10 -53 -25 0 -12
7 -19 18 -19 19 0 106 22 135 35 16 7 17 -15 17 -379 0 -442 9 -406 -99 -406
-54 0 -61 -2 -61 -20 0 -19 7 -20 206 -20 190 0 205 1 202 18 -3 14 -17 18
-76 22 -50 3 -76 10 -82 20 -6 9 -10 189 -10 438 0 447 0 447 -45 400z"/>
<path d="M20675 2276 c-83 -38 -134 -111 -142 -206 -4 -44 -2 -60 12 -73 46
-46 121 16 86 71 -5 8 -22 17 -39 20 l-31 7 20 45 c11 24 28 53 37 63 29 32
89 57 136 57 120 0 195 -86 196 -222 0 -128 -37 -191 -265 -448 -85 -96 -155
-183 -155 -192 0 -17 18 -18 244 -18 l243 0 17 106 c9 59 15 109 12 111 -12
12 -25 -11 -31 -55 -11 -80 -1 -77 -215 -80 -182 -3 -191 -2 -182 15 6 10 85
91 176 181 177 174 221 228 242 300 31 102 12 184 -61 259 -80 82 -200 106
-300 59z"/>
<path d="M25025 2276 c-83 -38 -134 -111 -142 -206 -4 -44 -2 -60 12 -73 46
-46 121 16 86 71 -5 8 -22 17 -39 20 l-31 7 20 45 c11 24 28 53 37 63 29 32
89 57 136 57 120 0 195 -86 196 -222 0 -128 -37 -191 -265 -448 -85 -96 -155
-183 -155 -192 0 -17 18 -18 244 -18 l243 0 17 106 c9 59 15 109 12 111 -12
12 -25 -11 -31 -55 -11 -80 -1 -77 -215 -80 -182 -3 -191 -2 -182 15 6 10 85
91 176 181 177 174 221 228 242 300 31 102 12 184 -61 259 -80 82 -200 106
-300 59z"/>
<path d="M26805 2278 c-28 -29 -91 -56 -152 -64 -43 -5 -53 -10 -53 -25 0 -12
7 -19 18 -19 19 0 106 22 135 35 16 7 17 -15 17 -379 0 -442 9 -406 -99 -406
-54 0 -61 -2 -61 -20 0 -19 7 -20 206 -20 190 0 205 1 202 18 -3 14 -17 18
-76 22 -50 3 -76 10 -82 20 -6 9 -10 189 -10 438 0 447 0 447 -45 400z"/>
<path d="M2 2173 l3 -38 908 -3 907 -2 0 40 0 40 -911 0 -910 0 3 -37z"/>
<path d="M4380 2170 l0 -40 905 0 905 0 0 40 0 40 -905 0 -905 0 0 -40z"/>
<path d="M2479 2004 c-9 -11 -10 -20 -2 -32 9 -16 63 -17 613 -20 437 -1 607
1 616 9 19 15 18 45 -2 53 -9 3 -285 6 -614 6 -533 0 -599 -2 -611 -16z"/>
<path d="M21769 2004 c-9 -11 -10 -20 -2 -32 9 -16 63 -17 613 -20 437 -1 607
1 616 9 19 15 18 45 -2 53 -9 3 -285 6 -614 6 -533 0 -599 -2 -611 -16z"/>
<path d="M905 1678 c-92 -9 -123 -24 -112 -52 5 -11 20 -16 49 -16 67 0 88 -9
88 -36 0 -13 -28 -134 -61 -269 l-61 -245 -28 44 c-82 128 -270 107 -425 -49
-242 -242 -261 -647 -34 -745 96 -41 197 -15 296 77 l51 48 21 -45 c29 -65 78
-95 154 -95 58 0 60 1 102 47 32 36 49 67 69 130 34 109 36 133 12 133 -14 0
-23 -17 -42 -83 -13 -46 -31 -97 -40 -114 -38 -73 -107 -101 -138 -56 -33 46
-20 112 134 724 83 327 148 599 145 604 -7 12 -54 11 -180 -2z m-207 -548 c36
-22 67 -68 82 -119 8 -29 0 -71 -46 -255 -30 -122 -62 -235 -71 -253 -20 -43
-113 -130 -165 -153 -67 -30 -114 -26 -153 13 -73 73 -71 207 6 462 47 155
107 246 193 295 60 35 108 38 154 10z"/>
<path d="M5285 1678 c-92 -9 -123 -24 -112 -52 5 -11 20 -16 49 -16 67 0 88
-9 88 -36 0 -13 -28 -134 -61 -269 l-61 -245 -28 44 c-82 128 -270 107 -425
-49 -242 -242 -261 -647 -34 -745 96 -41 197 -15 296 77 l51 48 21 -45 c29
-65 78 -95 154 -95 58 0 60 1 102 47 32 36 49 67 69 130 34 109 36 133 12 133
-14 0 -23 -17 -42 -83 -13 -46 -31 -97 -40 -114 -38 -73 -107 -101 -138 -56
-33 46 -20 112 134 724 83 327 148 599 145 604 -7 12 -54 11 -180 -2z m-207
-548 c36 -22 67 -68 82 -119 8 -29 0 -71 -46 -255 -30 -122 -62 -235 -71 -253
-20 -43 -113 -130 -165 -153 -67 -30 -114 -26 -153 13 -73 73 -71 207 6 462
47 155 107 246 193 295 60 35 108 38 154 10z"/>
<path d="M1425 908 c-28 -29 -91 -56 -152 -64 -43 -5 -53 -10 -53 -25 0 -12 7
-19 18 -19 19 0 106 22 135 35 16 7 17 -15 17 -379 0 -442 9 -406 -99 -406
-54 0 -61 -2 -61 -20 0 -19 7 -20 206 -20 190 0 205 1 202 17 -3 15 -17 19
-76 23 -50 3 -76 10 -82 20 -6 9 -10 189 -10 438 0 447 0 447 -45 400z"/>
<path d="M5675 906 c-83 -38 -134 -111 -142 -206 -4 -44 -2 -60 12 -73 46 -46
121 16 86 71 -5 8 -22 17 -39 20 l-31 7 20 45 c11 24 28 53 37 63 29 32 89 57
136 57 120 0 195 -86 196 -222 0 -128 -37 -191 -265 -448 -85 -96 -155 -183
-155 -192 0 -17 18 -18 244 -18 l243 0 17 106 c9 59 15 109 12 111 -12 12 -25
-11 -31 -55 -11 -80 -1 -77 -215 -80 -182 -3 -191 -2 -182 15 6 10 85 91 176
181 177 174 221 228 242 300 31 102 12 184 -61 259 -80 82 -200 106 -300 59z"/>
</g>
</svg>
