<?xml version="1.0" standalone="no"?>
<!DOCTYPE svg PUBLIC "-//W3C//DTD SVG 20010904//EN"
 "http://www.w3.org/TR/2001/REC-SVG-20010904/DTD/svg10.dtd">
<svg version="1.0" xmlns="http://www.w3.org/2000/svg"
 width="468pt" height="187pt" viewBox="0 0 468 187"
 preserveAspectRatio="xMidYMid meet">
<metadata>
Created by potrace 1.8, written by Peter Selinger 2001-2007
</metadata>
<g transform="translate(0,187) scale(0.039460,-0.039460)"
fill="#000000" stroke="none">
<path d="M659 4658 c-164 -159 -274 -381 -325 -653 -27 -140 -27 -440 0 -580
37 -201 115 -394 212 -525 78 -107 194 -211 194 -174 0 3 -26 36 -57 74 -191
226 -283 524 -283 915 0 389 86 672 276 906 35 43 64 81 64 84 0 18 -35 -2
-81 -47z"/>
<path d="M7537 4704 c-4 -4 14 -30 40 -58 212 -234 318 -592 300 -1011 -17
-374 -112 -646 -298 -849 -52 -57 -51 -83 0 -47 82 58 190 204 257 345 91 192
128 376 128 631 0 392 -109 698 -329 923 -68 69 -84 80 -98 66z"/>
<path d="M4683 4080 c-293 -105 -365 -545 -127 -770 81 -77 149 -105 254 -105
102 0 157 22 222 87 67 67 111 169 76 176 -10 2 -18 -2 -18 -8 0 -21 -51 -114
-78 -144 -63 -67 -194 -96 -277 -62 -55 23 -120 91 -148 154 -28 61 -47 157
-47 234 l0 48 293 2 292 3 -3 63 c-7 119 -62 231 -140 286 -82 57 -202 71
-299 36z m197 -35 c33 -17 74 -62 95 -103 18 -37 45 -151 45 -194 l0 -28 -241
0 -241 0 6 48 c23 161 95 267 198 292 39 10 103 3 138 -15z"/>
<path d="M1005 4079 c-97 -10 -105 -13 -105 -38 0 -17 9 -22 51 -27 93 -12 89
3 89 -370 0 -200 -4 -333 -10 -344 -7 -14 -26 -21 -70 -26 -55 -6 -60 -9 -60
-30 l0 -24 190 0 190 0 0 24 c0 21 -6 24 -54 30 -30 4 -60 13 -66 21 -8 9 -10
94 -8 287 l3 273 27 52 c39 73 91 120 154 139 89 26 165 -2 200 -72 17 -35 19
-67 22 -346 2 -205 0 -314 -7 -327 -9 -15 -26 -22 -71 -27 -55 -6 -60 -9 -60
-30 l0 -24 190 0 190 0 0 24 c0 21 -6 24 -54 30 -30 4 -59 13 -64 19 -6 7 -12
135 -15 312 -2 196 -8 313 -16 337 -16 50 -54 94 -105 121 -57 30 -192 31
-251 2 -49 -24 -108 -82 -134 -132 l-20 -38 -1 98 0 97 -27 -1 c-16 -1 -64 -5
-108 -10z"/>
<path d="M1965 4079 c-99 -11 -107 -14 -103 -41 3 -20 11 -24 55 -28 29 -3 58
-11 65 -18 10 -10 14 -91 18 -325 5 -341 7 -347 68 -404 46 -43 90 -56 187
-57 81 -1 95 2 137 27 48 28 83 67 112 122 15 29 16 27 16 -64 l0 -94 68 6
c37 4 91 7 120 7 51 0 52 0 52 30 0 29 -2 30 -43 30 -23 0 -53 7 -65 16 l-22
15 0 395 0 395 -82 -7 c-147 -12 -163 -16 -163 -44 0 -23 5 -25 52 -30 29 -3
58 -11 65 -18 10 -10 13 -77 13 -280 l0 -267 -29 -63 c-18 -38 -45 -77 -68
-97 -68 -58 -175 -68 -248 -24 -58 36 -60 50 -60 459 l0 370 -32 -1 c-18 -1
-69 -5 -113 -10z"/>
<path d="M2985 4079 c-97 -10 -105 -13 -105 -38 0 -17 9 -22 51 -27 93 -12 89
3 89 -370 0 -200 -4 -333 -10 -344 -7 -14 -26 -21 -70 -26 -55 -6 -60 -9 -60
-30 l0 -24 190 0 190 0 0 24 c0 21 -6 24 -54 30 -30 4 -60 13 -66 21 -8 9 -10
94 -8 287 l3 273 27 52 c39 73 91 120 154 139 89 26 165 -2 200 -72 17 -35 19
-67 22 -346 2 -205 0 -314 -7 -327 -9 -15 -26 -22 -71 -27 -55 -6 -60 -9 -60
-30 l0 -24 190 0 190 0 0 24 c0 21 -6 24 -54 30 -30 4 -60 13 -66 21 -8 9 -10
94 -8 287 l3 273 27 52 c39 73 91 120 154 139 89 26 165 -2 200 -72 17 -35 19
-67 22 -346 2 -205 0 -314 -7 -327 -9 -15 -26 -22 -71 -27 -55 -6 -60 -9 -60
-30 l0 -24 190 0 190 0 0 24 c0 21 -6 24 -54 30 -30 4 -59 13 -64 19 -6 7 -12
138 -14 317 -3 265 -6 310 -21 345 -37 83 -104 125 -208 133 -118 8 -211 -40
-267 -139 l-28 -48 -11 42 c-26 95 -133 155 -259 144 -103 -8 -185 -64 -237
-162 -16 -29 -16 -28 -17 68 l0 97 -27 -1 c-16 -1 -64 -5 -108 -10z"/>
<path d="M5385 4084 c-11 -2 -50 -6 -87 -9 -63 -6 -68 -8 -68 -30 0 -20 6 -25
38 -30 72 -11 85 -19 94 -53 5 -18 7 -175 6 -348 -3 -354 3 -329 -85 -340 -47
-6 -53 -9 -53 -30 l0 -24 205 0 205 0 0 25 c0 22 -4 25 -37 25 -53 1 -114 16
-125 32 -5 7 -7 123 -5 258 3 221 6 252 26 313 28 87 94 159 160 177 23 6 50
9 58 6 12 -5 12 -9 -1 -28 -34 -48 -4 -108 52 -108 58 0 87 76 46 121 -89 99
-250 47 -324 -104 l-29 -62 -1 108 0 107 -27 -1 c-16 -1 -37 -3 -48 -5z"/>
<path d="M11005 4079 c-97 -10 -105 -13 -105 -38 0 -17 9 -22 51 -27 93 -12
89 3 89 -370 0 -200 -4 -333 -10 -344 -7 -14 -26 -21 -70 -26 -55 -6 -60 -9
-60 -30 l0 -24 190 0 190 0 0 24 c0 21 -6 24 -54 30 -30 4 -60 13 -66 21 -8 9
-10 94 -8 287 l3 273 27 52 c39 73 91 120 154 139 89 26 165 -2 200 -72 17
-35 19 -67 22 -346 2 -205 0 -314 -7 -327 -9 -15 -26 -22 -71 -27 -55 -6 -60
-9 -60 -30 l0 -24 190 0 190 0 0 24 c0 21 -6 24 -54 30 -30 4 -59 13 -64 19
-6 7 -12 135 -15 312 -2 196 -8 313 -16 337 -16 50 -54 94 -105 121 -57 30
-192 31 -251 2 -49 -24 -108 -82 -134 -132 l-20 -38 -1 98 0 97 -27 -1 c-16
-1 -64 -5 -108 -10z"/>
<path d="M6490 4056 c0 -21 6 -24 50 -30 28 -4 62 -12 76 -18 22 -10 277 -328
290 -361 2 -7 -35 -62 -82 -122 -150 -191 -189 -223 -294 -246 -43 -9 -50 -14
-50 -35 l0 -24 150 0 c149 0 150 0 150 23 0 12 -9 30 -20 40 -24 21 -26 64 -3
97 35 51 174 220 182 220 12 0 211 -269 211 -286 0 -8 -13 -23 -30 -32 -19
-11 -30 -25 -30 -39 0 -23 0 -23 175 -23 l175 0 0 24 c0 21 -6 24 -50 30 -28
4 -62 12 -76 18 -19 9 -299 358 -312 390 -4 10 115 165 183 237 56 60 101 86
175 102 43 9 50 14 50 35 l0 24 -150 0 c-149 0 -150 0 -150 -23 0 -12 9 -30
20 -40 38 -32 26 -67 -66 -187 -83 -108 -87 -111 -104 -93 -42 45 -180 235
-180 249 0 8 13 23 30 32 19 11 30 25 30 40 0 22 0 22 -175 22 l-175 0 0 -24z"/>
<path d="M8939 2564 c-9 -11 -10 -20 -2 -32 9 -16 63 -17 604 -20 327 -1 604
0 617 3 24 6 29 34 10 53 -9 9 -159 12 -614 12 -537 0 -603 -2 -615 -16z"/>
<path d="M0 2370 l0 -40 4140 0 4140 0 0 40 0 40 -4140 0 -4140 0 0 -40z"/>
<path d="M10840 2370 l0 -40 510 0 510 0 0 40 0 40 -510 0 -510 0 0 -40z"/>
<path d="M8939 2204 c-9 -11 -10 -20 -2 -32 9 -16 63 -17 613 -20 437 -1 607
1 616 9 19 15 18 45 -2 53 -9 3 -285 6 -614 6 -533 0 -599 -2 -611 -16z"/>
<path d="M529 1938 c-164 -159 -274 -381 -325 -653 -27 -140 -27 -440 0 -580
37 -201 115 -394 212 -525 78 -107 194 -211 194 -174 0 3 -26 36 -57 74 -191
226 -283 524 -283 915 0 389 86 672 276 906 35 43 64 81 64 84 0 18 -35 -2
-81 -47z"/>
<path d="M7667 1984 c-4 -4 14 -30 40 -58 212 -234 318 -592 300 -1011 -17
-374 -112 -646 -298 -849 -52 -57 -51 -83 0 -47 82 58 190 204 257 345 91 192
128 376 128 631 0 392 -109 698 -329 923 -68 69 -84 80 -98 66z"/>
<path d="M1460 1874 c-8 -1 -50 -6 -93 -9 -77 -7 -78 -7 -75 -33 3 -23 8 -27
38 -30 65 -5 78 -11 89 -43 7 -20 11 -124 11 -276 l0 -245 -56 51 c-127 116
-314 106 -455 -26 -62 -57 -94 -107 -120 -180 -77 -224 20 -478 219 -571 47
-22 71 -27 137 -27 96 0 155 25 222 92 l43 42 0 -70 0 -70 113 6 c135 8 139 9
135 37 -3 20 -11 24 -57 30 -29 3 -58 11 -65 18 -8 8 -12 189 -14 660 l-2 650
-28 -1 c-15 -1 -34 -3 -42 -5z m-170 -565 c49 -26 74 -48 104 -93 l26 -39 0
-239 c0 -272 -2 -280 -74 -346 -61 -56 -107 -75 -182 -75 -113 -1 -194 70
-237 207 -18 58 -22 95 -22 201 1 145 15 209 64 286 72 114 211 157 321 98z"/>
<path d="M11590 1874 c-8 -1 -50 -6 -93 -9 -77 -7 -78 -7 -75 -33 3 -23 8 -27
38 -30 65 -5 78 -11 89 -43 7 -20 11 -124 11 -276 l0 -245 -56 51 c-127 116
-314 106 -455 -26 -62 -57 -94 -107 -120 -180 -77 -224 20 -478 219 -571 47
-22 71 -27 137 -27 96 0 155 25 222 92 l43 42 0 -70 0 -70 113 6 c135 8 139 9
135 37 -3 20 -11 24 -57 30 -29 3 -58 11 -65 18 -8 8 -12 189 -14 660 l-2 650
-28 -1 c-15 -1 -34 -3 -42 -5z m-170 -565 c49 -26 74 -48 104 -93 l26 -39 0
-239 c0 -272 -2 -280 -74 -346 -61 -56 -107 -75 -182 -75 -113 -1 -194 70
-237 207 -18 58 -22 95 -22 201 1 145 15 209 64 286 72 114 211 157 321 98z"/>
<path d="M2043 1360 c-293 -105 -365 -545 -127 -770 81 -77 149 -105 254 -105
102 0 157 22 222 87 67 67 111 169 76 176 -10 2 -18 -2 -18 -8 0 -21 -51 -114
-78 -144 -63 -67 -194 -96 -277 -62 -55 23 -120 91 -148 154 -28 61 -47 157
-47 234 l0 48 293 2 292 3 -3 63 c-7 119 -62 231 -140 286 -82 57 -202 71
-299 36z m197 -35 c33 -17 74 -62 95 -103 18 -37 45 -151 45 -194 l0 -28 -241
0 -241 0 6 48 c23 161 95 267 198 292 39 10 103 3 138 -15z"/>
<path d="M3903 1366 c-129 -42 -230 -149 -279 -296 -26 -77 -24 -225 4 -301
41 -114 117 -200 222 -252 58 -29 74 -32 155 -32 80 0 97 3 157 32 232 109
316 401 186 644 -39 74 -121 153 -195 186 -69 32 -184 41 -250 19z m214 -47
c79 -38 134 -121 154 -234 18 -103 7 -306 -20 -376 -48 -126 -130 -189 -243
-189 -71 0 -113 16 -167 65 -81 74 -119 216 -108 409 9 161 54 260 143 312 82
48 158 52 241 13z"/>
<path d="M2695 1359 c-97 -10 -105 -13 -105 -38 0 -17 9 -22 51 -27 93 -12 89
3 89 -370 0 -200 -4 -333 -10 -344 -7 -14 -26 -21 -70 -26 -55 -6 -60 -9 -60
-30 l0 -24 190 0 190 0 0 24 c0 21 -6 24 -54 30 -30 4 -60 13 -66 21 -8 9 -10
94 -8 287 l3 273 27 52 c39 73 91 120 154 139 89 26 165 -2 200 -72 17 -35 19
-67 22 -346 2 -205 0 -314 -7 -327 -9 -15 -26 -22 -71 -27 -55 -6 -60 -9 -60
-30 l0 -24 190 0 190 0 0 24 c0 21 -6 24 -54 30 -30 4 -59 13 -64 19 -6 7 -12
135 -15 312 -2 196 -8 313 -16 337 -16 50 -54 94 -105 121 -57 30 -192 31
-251 2 -49 -24 -108 -82 -134 -132 l-20 -38 -1 98 0 97 -27 -1 c-16 -1 -64 -5
-108 -10z"/>
<path d="M4635 1359 c-97 -10 -105 -13 -105 -38 0 -17 9 -22 51 -27 93 -12 89
3 89 -370 0 -200 -4 -333 -10 -344 -7 -14 -26 -21 -70 -26 -55 -6 -60 -9 -60
-30 l0 -24 190 0 190 0 0 24 c0 21 -6 24 -54 30 -30 4 -60 13 -66 21 -8 9 -10
94 -8 287 l3 273 27 52 c39 73 91 120 154 139 89 26 165 -2 200 -72 17 -35 19
-67 22 -346 2 -205 0 -314 -7 -327 -9 -15 -26 -22 -71 -27 -55 -6 -60 -9 -60
-30 l0 -24 190 0 190 0 0 24 c0 21 -6 24 -54 30 -30 4 -60 13 -66 21 -8 9 -10
94 -8 287 l3 273 27 52 c39 73 91 120 154 139 89 26 165 -2 200 -72 17 -35 19
-67 22 -346 2 -205 0 -314 -7 -327 -9 -15 -26 -22 -71 -27 -55 -6 -60 -9 -60
-30 l0 -24 190 0 190 0 0 24 c0 21 -6 24 -54 30 -30 4 -59 13 -64 19 -6 7 -12
138 -14 317 -3 265 -6 310 -21 345 -37 83 -104 125 -208 133 -118 8 -211 -40
-267 -139 l-28 -48 -11 42 c-26 95 -133 155 -259 144 -103 -8 -185 -64 -237
-162 -16 -29 -16 -28 -17 68 l0 97 -27 -1 c-16 -1 -64 -5 -108 -10z"/>
<path d="M6620 1336 c0 -21 6 -24 50 -30 28 -4 62 -12 76 -18 22 -10 277 -328
290 -361 2 -7 -35 -62 -82 -122 -150 -191 -189 -223 -294 -246 -43 -9 -50 -14
-50 -35 l0 -24 150 0 c149 0 150 0 150 23 0 12 -9 30 -20 40 -24 21 -26 64 -3
97 35 51 174 220 182 220 12 0 211 -269 211 -286 0 -8 -13 -23 -30 -32 -19
-11 -30 -25 -30 -39 0 -23 0 -23 175 -23 l175 0 0 24 c0 21 -6 24 -50 30 -28
4 -62 12 -76 18 -19 9 -299 358 -312 390 -4 10 115 165 183 237 56 60 101 86
175 102 43 9 50 14 50 35 l0 24 -150 0 c-149 0 -150 0 -150 -23 0 -12 9 -30
20 -40 38 -32 26 -67 -66 -187 -83 -108 -87 -111 -104 -93 -42 45 -180 235
-180 249 0 8 13 23 30 32 19 11 30 25 30 40 0 22 0 22 -175 22 l-175 0 0 -24z"/>
</g>
</svg>
