<?xml version="1.0" standalone="no"?>
<!DOCTYPE svg PUBLIC "-//W3C//DTD SVG 20010904//EN"
 "http://www.w3.org/TR/2001/REC-SVG-20010904/DTD/svg10.dtd">
<svg version="1.0" xmlns="http://www.w3.org/2000/svg"
 width="468pt" height="64pt" viewBox="0 0 468 64"
 preserveAspectRatio="xMidYMid meet">
<metadata>
Created by potrace 1.8, written by Peter Selinger 2001-2007
</metadata>
<g transform="translate(0,64) scale(0.013239,-0.013239)"
fill="#000000" stroke="none">
<path d="M18930 2390 l0 -2390 260 0 260 0 0 55 0 55 -205 0 -205 0 0 2280 0
2280 205 0 205 0 0 55 0 55 -260 0 -260 0 0 -2390z"/>
<path d="M34820 4725 l0 -55 205 0 205 0 0 -2280 0 -2280 -205 0 -205 0 0 -55
0 -55 260 0 260 0 0 2390 0 2390 -260 0 -260 0 0 -55z"/>
<path d="M23903 4546 c-136 -43 -237 -177 -250 -331 -4 -51 -2 -64 17 -87 16
-22 30 -28 59 -28 49 0 81 32 81 82 0 42 -36 78 -76 78 -71 0 34 173 134 221
62 30 158 31 222 2 176 -78 223 -325 104 -542 -50 -90 -95 -146 -334 -418
-143 -161 -210 -245 -210 -260 l0 -23 350 0 350 0 5 23 c5 22 45 272 45 282 0
3 -8 5 -18 5 -15 0 -20 -14 -31 -75 -20 -123 -1 -116 -316 -113 l-270 3 258
259 c142 143 276 286 297 319 108 161 104 361 -10 490 -88 101 -277 153 -407
113z"/>
<path d="M10 2390 l0 -1790 225 0 225 0 0 45 0 45 -180 0 -180 0 0 1700 0
1700 180 0 180 0 0 45 0 45 -225 0 -225 0 0 -1790z"/>
<path d="M16080 4135 l0 -45 185 0 185 0 0 -1700 0 -1700 -185 0 -185 0 0 -45
0 -45 230 0 230 0 0 1790 0 1790 -230 0 -230 0 0 -45z"/>
<path d="M20827 3316 c-114 -178 -207 -333 -207 -345 0 -21 4 -21 180 -21
l180 0 0 -84 c0 -103 -9 -116 -81 -116 -42 0 -49 -3 -49 -20 0 -19 7 -20 171
-20 157 0 170 1 167 18 -2 12 -16 18 -53 22 -28 3 -56 9 -62 13 -9 6 -13 37
-13 98 l0 89 70 0 c63 0 70 2 70 20 0 18 -7 20 -70 20 l-70 0 0 325 c0 264 -2
325 -13 325 -8 0 -107 -146 -220 -324z m150 -323 c-2 -2 -77 -2 -165 -1 l-161
3 162 257 162 256 3 -255 c1 -141 1 -258 -1 -260z"/>
<path d="M2725 3606 c-83 -38 -134 -111 -142 -206 -4 -44 -2 -60 12 -73 46
-46 121 16 86 71 -5 8 -22 17 -39 20 l-31 7 20 45 c11 24 28 53 37 63 29 32
89 57 136 57 120 0 195 -86 196 -222 0 -128 -37 -191 -265 -448 -85 -96 -155
-183 -155 -192 0 -17 18 -18 244 -18 l243 0 17 106 c9 59 15 109 12 111 -12
12 -25 -11 -31 -55 -11 -80 -1 -77 -215 -80 -182 -3 -191 -2 -182 15 6 10 85
91 176 181 177 174 221 228 242 300 31 102 12 184 -61 259 -80 82 -200 106
-300 59z"/>
<path d="M25805 3606 c-83 -38 -134 -111 -142 -206 -4 -44 -2 -60 12 -73 46
-46 121 16 86 71 -5 8 -22 17 -39 20 l-31 7 20 45 c11 24 28 53 37 63 29 32
89 57 136 57 120 0 195 -86 196 -222 0 -128 -37 -191 -265 -448 -85 -96 -155
-183 -155 -192 0 -17 18 -18 244 -18 l243 0 17 106 c9 59 15 109 12 111 -12
12 -25 -11 -31 -55 -11 -80 -1 -77 -215 -80 -182 -3 -191 -2 -182 15 6 10 85
91 176 181 177 174 221 228 242 300 31 102 12 184 -61 259 -80 82 -200 106
-300 59z"/>
<path d="M6009 3328 c-122 -118 -215 -271 -273 -449 -56 -172 -71 -278 -71
-494 0 -215 15 -322 70 -491 60 -184 146 -328 267 -446 50 -50 88 -72 88 -52
0 3 -26 36 -57 74 -191 226 -283 524 -283 915 0 389 86 672 276 906 35 43 64
81 64 84 0 18 -35 -2 -81 -47z"/>
<path d="M11097 3374 c-4 -4 14 -30 40 -58 212 -234 318 -592 300 -1011 -17
-374 -112 -646 -298 -849 -52 -57 -51 -83 0 -47 82 58 190 204 257 345 91 192
128 376 128 631 0 392 -109 698 -329 923 -68 69 -84 80 -98 66z"/>
<path d="M29099 3328 c-122 -118 -215 -271 -273 -449 -56 -172 -71 -278 -71
-494 0 -215 15 -322 70 -491 60 -184 146 -328 267 -446 50 -50 88 -72 88 -52
0 3 -26 36 -57 74 -191 226 -283 524 -283 915 0 389 86 672 276 906 35 43 64
81 64 84 0 18 -35 -2 -81 -47z"/>
<path d="M34187 3374 c-4 -4 14 -30 40 -58 212 -234 318 -592 300 -1011 -17
-374 -112 -646 -298 -849 -52 -57 -51 -83 0 -47 82 58 190 204 257 345 91 192
128 376 128 631 0 392 -109 698 -329 923 -68 69 -84 80 -98 66z"/>
<path d="M15286 3218 c-3 -13 -15 -86 -26 -163 -11 -77 -23 -150 -26 -162 -3
-17 0 -23 14 -23 15 0 22 15 35 78 10 42 22 84 27 92 8 13 57 16 321 18 l312
4 -19 -29 c-10 -16 -69 -103 -130 -193 -61 -91 -127 -194 -146 -230 -87 -158
-162 -407 -174 -574 -10 -135 6 -176 67 -176 59 0 65 18 72 215 11 280 44 452
111 583 14 26 90 144 171 262 91 134 145 222 143 235 -3 19 -12 20 -333 25
-338 5 -375 10 -375 45 0 25 -39 18 -44 -7z"/>
<path d="M838 3191 c-101 -33 -161 -82 -197 -161 -22 -48 -27 -110 -11 -140
15 -28 67 -43 99 -27 41 19 55 58 37 101 -14 34 -23 39 -79 48 -29 5 44 83
107 115 55 28 155 41 221 29 46 -9 110 -66 127 -114 20 -59 14 -187 -12 -257
-43 -112 -128 -175 -240 -175 -59 0 -90 -9 -90 -26 0 -11 21 -14 93 -14 100
-1 149 -14 201 -54 74 -56 118 -214 97 -353 -24 -164 -111 -253 -245 -253
-119 0 -252 69 -303 158 l-25 42 30 0 c46 0 86 39 86 83 0 93 -124 117 -160
31 -13 -31 -13 -42 1 -96 19 -74 43 -114 95 -162 167 -151 443 -137 590 30
174 198 85 492 -174 575 l-68 22 38 15 c142 56 239 188 239 328 0 61 -4 77
-30 119 -79 128 -266 187 -427 136z"/>
<path d="M6523 3196 c-136 -43 -237 -177 -250 -331 -4 -51 -2 -64 17 -87 16
-22 30 -28 59 -28 49 0 81 32 81 82 0 42 -36 78 -76 78 -71 0 34 173 134 221
62 30 158 31 222 2 176 -78 223 -325 104 -542 -50 -90 -95 -146 -334 -418
-143 -161 -210 -245 -210 -260 l0 -23 350 0 350 0 5 23 c5 22 45 272 45 282 0
3 -8 5 -18 5 -15 0 -20 -14 -31 -75 -20 -123 -1 -116 -316 -113 l-270 3 258
259 c142 143 276 286 297 319 108 161 104 361 -10 490 -88 101 -277 153 -407
113z"/>
<path d="M9758 3191 c-101 -33 -161 -82 -197 -161 -22 -48 -27 -110 -11 -140
15 -28 67 -43 99 -27 41 19 55 58 37 101 -14 34 -23 39 -79 48 -29 5 44 83
107 115 55 28 155 41 221 29 46 -9 110 -66 127 -114 20 -59 14 -187 -12 -257
-43 -112 -128 -175 -240 -175 -59 0 -90 -9 -90 -26 0 -11 21 -14 93 -14 100
-1 149 -14 201 -54 74 -56 118 -214 97 -353 -24 -164 -111 -253 -245 -253
-119 0 -252 69 -303 158 l-25 42 30 0 c46 0 86 39 86 83 0 93 -124 117 -160
31 -13 -31 -13 -42 1 -96 19 -74 43 -114 95 -162 167 -151 443 -137 590 30
174 198 85 492 -174 575 l-68 22 38 15 c142 56 239 188 239 328 0 61 -4 77
-30 119 -79 128 -266 187 -427 136z"/>
<path d="M29460 2875 c0 -267 3 -335 13 -335 7 0 29 20 50 44 43 52 120 92
195 101 103 13 190 -55 228 -180 21 -72 29 -247 15 -329 -43 -245 -250 -341
-445 -207 -45 31 -100 106 -111 154 -7 25 -5 27 22 27 47 0 73 25 73 71 0 75
-74 106 -127 53 -23 -23 -25 -31 -20 -85 11 -124 95 -246 206 -298 76 -35 197
-36 284 -2 71 28 163 110 201 181 97 178 67 419 -69 553 -72 71 -123 91 -225
92 -96 0 -149 -19 -213 -75 l-37 -32 0 221 c0 122 3 221 8 221 4 0 32 -7 62
-15 125 -34 264 -8 367 69 115 85 123 124 17 81 -134 -54 -283 -54 -418 0 -35
14 -66 25 -69 25 -4 0 -7 -151 -7 -335z"/>
<path d="M32848 3191 c-101 -33 -161 -82 -197 -161 -22 -48 -27 -110 -11 -140
15 -28 67 -43 99 -27 41 19 55 58 37 101 -14 34 -23 39 -79 48 -29 5 44 83
107 115 55 28 155 41 221 29 46 -9 110 -66 127 -114 20 -59 14 -187 -12 -257
-43 -112 -128 -175 -240 -175 -59 0 -90 -9 -90 -26 0 -11 21 -14 93 -14 100
-1 149 -14 201 -54 74 -56 118 -214 97 -353 -24 -164 -111 -253 -245 -253
-119 0 -252 69 -303 158 l-25 42 30 0 c46 0 86 39 86 83 0 93 -124 117 -160
31 -13 -31 -13 -42 1 -96 19 -74 43 -114 95 -162 167 -151 443 -137 590 30
174 198 85 492 -174 575 l-68 22 38 15 c142 56 239 188 239 328 0 61 -4 77
-30 119 -79 128 -266 187 -427 136z"/>
<path d="M10780 3187 c-14 -7 -33 -29 -44 -51 -18 -37 -18 -38 1 -64 36 -48
109 -38 139 20 19 37 18 64 -6 88 -23 23 -54 25 -90 7z"/>
<path d="M33860 3187 c-14 -7 -33 -29 -44 -51 -18 -37 -18 -38 1 -64 36 -48
109 -38 139 20 19 37 18 64 -6 88 -23 23 -54 25 -90 7z"/>
<path d="M4302 2998 c-9 -9 -12 -88 -12 -295 l0 -283 -286 -2 c-255 -3 -288
-5 -297 -20 -8 -12 -7 -21 2 -32 12 -14 51 -16 297 -16 l284 0 0 -279 c0 -154
3 -286 6 -295 7 -19 35 -21 52 -4 9 9 12 88 12 295 l0 283 279 0 c154 0 286 3
295 6 9 3 16 16 16 29 0 13 -7 26 -16 29 -9 3 -141 6 -295 6 l-279 0 0 283 c0
283 -3 307 -35 307 -6 0 -16 -5 -23 -12z"/>
<path d="M8242 2998 c-9 -9 -12 -88 -12 -295 l0 -283 -286 -2 c-255 -3 -288
-5 -297 -20 -8 -12 -7 -21 2 -32 12 -14 51 -16 297 -16 l284 0 0 -279 c0 -154
3 -286 6 -295 7 -19 35 -21 52 -4 9 9 12 88 12 295 l0 283 279 0 c154 0 286 3
295 6 9 3 16 16 16 29 0 13 -7 26 -16 29 -9 3 -141 6 -295 6 l-279 0 0 283 c0
283 -3 307 -35 307 -6 0 -16 -5 -23 -12z"/>
<path d="M13952 2998 c-9 -9 -12 -88 -12 -295 l0 -283 -286 -2 c-255 -3 -288
-5 -297 -20 -8 -12 -7 -21 2 -32 12 -14 51 -16 297 -16 l284 0 0 -279 c0 -154
3 -286 6 -295 7 -19 35 -21 52 -4 9 9 12 88 12 295 l0 283 279 0 c154 0 286 3
295 6 9 3 16 16 16 29 0 13 -7 26 -16 29 -9 3 -141 6 -295 6 l-279 0 0 283 c0
283 -3 307 -35 307 -6 0 -16 -5 -23 -12z"/>
<path d="M22372 2998 c-9 -9 -12 -88 -12 -295 l0 -283 -286 -2 c-255 -3 -288
-5 -297 -20 -8 -12 -7 -21 2 -32 12 -14 51 -16 297 -16 l284 0 0 -279 c0 -154
3 -286 6 -295 7 -19 35 -21 52 -4 9 9 12 88 12 295 l0 283 279 0 c154 0 286 3
295 6 21 8 21 50 0 58 -9 3 -141 6 -295 6 l-279 0 0 283 c0 283 -3 307 -35
307 -6 0 -16 -5 -23 -12z"/>
<path d="M27382 2998 c-9 -9 -12 -88 -12 -295 l0 -283 -286 -2 c-255 -3 -288
-5 -297 -20 -8 -12 -7 -21 2 -32 12 -14 51 -16 297 -16 l284 0 0 -279 c0 -154
3 -286 6 -295 7 -19 35 -21 52 -4 9 9 12 88 12 295 l0 283 279 0 c154 0 286 3
295 6 21 8 21 50 0 58 -9 3 -141 6 -295 6 l-279 0 0 283 c0 283 -3 307 -35
307 -6 0 -16 -5 -23 -12z"/>
<path d="M31322 2998 c-9 -9 -12 -88 -12 -295 l0 -283 -286 -2 c-255 -3 -288
-5 -297 -20 -8 -12 -7 -21 2 -32 12 -14 51 -16 297 -16 l284 0 0 -279 c0 -154
3 -286 6 -295 7 -19 35 -21 52 -4 9 9 12 88 12 295 l0 283 279 0 c154 0 286 3
295 6 21 8 21 50 0 58 -9 3 -141 6 -295 6 l-279 0 0 283 c0 283 -3 307 -35
307 -6 0 -16 -5 -23 -12z"/>
<path d="M1745 2747 c-89 -43 -185 -166 -211 -270 -6 -26 -4 -28 15 -25 16 2
28 18 45 60 77 188 261 283 329 169 29 -49 21 -123 -38 -362 -73 -293 -105
-362 -182 -395 -39 -17 -79 -18 -122 -3 l-32 11 31 19 c50 31 65 94 30 129
-29 29 -74 25 -112 -9 -28 -25 -33 -36 -33 -76 0 -40 5 -51 32 -75 54 -49 142
-63 211 -35 43 19 74 45 113 98 l28 38 16 -35 c52 -109 198 -147 310 -82 56
33 128 114 159 179 33 67 37 102 13 102 -13 0 -25 -17 -41 -57 -62 -153 -192
-247 -286 -208 -78 32 -79 115 -4 413 60 240 76 284 119 336 48 56 103 71 178
50 l38 -10 -33 -22 c-60 -41 -61 -128 -2 -143 39 -10 75 6 102 46 62 92 -38
191 -180 178 -59 -6 -119 -46 -156 -104 -15 -24 -29 -43 -32 -43 -3 0 -14 19
-26 42 -47 96 -175 134 -279 84z"/>
<path d="M10572 2749 c-52 -26 -113 -103 -146 -185 -33 -81 -36 -109 -12 -109
14 0 24 13 36 50 36 105 88 183 141 210 69 36 117 1 104 -77 -4 -24 -50 -158
-103 -298 -80 -212 -97 -265 -97 -312 0 -60 17 -94 66 -131 33 -24 98 -32 142
-18 54 18 115 84 153 165 43 90 54 146 30 146 -9 0 -20 -10 -25 -22 -46 -118
-67 -162 -96 -196 -58 -67 -126 -81 -154 -31 -21 37 -3 103 105 384 115 298
117 347 22 418 -40 30 -114 33 -166 6z"/>
<path d="M12045 2747 c-89 -43 -185 -166 -211 -270 -6 -26 -4 -28 15 -25 16 2
28 18 45 60 77 188 261 283 329 169 29 -49 21 -123 -38 -362 -73 -293 -105
-362 -182 -395 -39 -17 -79 -18 -122 -3 l-32 11 31 19 c50 31 65 94 30 129
-29 29 -74 25 -112 -9 -28 -25 -33 -36 -33 -76 0 -40 5 -51 32 -75 54 -49 142
-63 211 -35 43 19 74 45 113 98 l28 38 16 -35 c52 -109 198 -147 310 -82 56
33 128 114 159 179 33 67 37 102 13 102 -13 0 -25 -17 -41 -57 -62 -153 -192
-247 -286 -208 -78 32 -79 115 -4 413 60 240 76 284 119 336 48 56 103 71 178
50 l38 -10 -33 -22 c-60 -41 -61 -128 -2 -143 39 -10 75 6 102 46 62 92 -38
191 -180 178 -59 -6 -119 -46 -156 -104 -15 -24 -29 -43 -32 -43 -3 0 -14 19
-26 42 -47 96 -175 134 -279 84z"/>
<path d="M19815 2747 c-89 -43 -185 -166 -211 -270 -6 -26 -4 -28 15 -25 16 2
28 18 45 60 77 188 261 283 329 169 29 -49 21 -123 -38 -362 -73 -293 -105
-362 -182 -395 -39 -17 -79 -18 -122 -3 l-32 11 31 19 c50 31 65 94 30 129
-29 29 -74 25 -112 -9 -28 -25 -33 -36 -33 -76 0 -40 5 -51 32 -75 54 -49 142
-63 211 -35 43 19 74 45 113 98 l28 38 16 -35 c52 -109 198 -147 310 -82 56
33 128 114 159 179 33 67 37 102 13 102 -13 0 -25 -17 -41 -57 -62 -153 -192
-247 -286 -208 -78 32 -79 115 -4 413 60 240 76 284 119 336 48 56 103 71 178
50 l38 -10 -33 -22 c-60 -41 -61 -128 -2 -143 39 -10 75 6 102 46 62 92 -38
191 -180 178 -59 -6 -119 -46 -156 -104 -15 -24 -29 -43 -32 -43 -3 0 -14 19
-26 42 -47 96 -175 134 -279 84z"/>
<path d="M24825 2747 c-89 -43 -185 -166 -211 -270 -6 -26 -4 -28 15 -25 16 2
28 18 45 60 77 188 261 283 329 169 29 -49 21 -123 -38 -362 -73 -293 -105
-362 -182 -395 -39 -17 -79 -18 -122 -3 l-32 11 31 19 c50 31 65 94 30 129
-29 29 -74 25 -112 -9 -28 -25 -33 -36 -33 -76 0 -40 5 -51 32 -75 54 -49 142
-63 211 -35 43 19 74 45 113 98 l28 38 16 -35 c52 -109 198 -147 310 -82 56
33 128 114 159 179 33 67 37 102 13 102 -13 0 -25 -17 -41 -57 -62 -153 -192
-247 -286 -208 -78 32 -79 115 -4 413 60 240 76 284 119 336 48 56 103 71 178
50 l38 -10 -33 -22 c-60 -41 -61 -128 -2 -143 39 -10 75 6 102 46 62 92 -38
191 -180 178 -59 -6 -119 -46 -156 -104 -15 -24 -29 -43 -32 -43 -3 0 -14 19
-26 42 -47 96 -175 134 -279 84z"/>
<path d="M33652 2749 c-52 -26 -113 -103 -146 -185 -33 -81 -36 -109 -12 -109
14 0 24 13 36 50 36 105 88 183 141 210 69 36 117 1 104 -77 -4 -24 -50 -158
-103 -298 -80 -212 -97 -265 -97 -312 0 -60 17 -94 66 -131 33 -24 98 -32 142
-18 54 18 115 84 153 165 43 90 54 146 30 146 -9 0 -20 -10 -25 -22 -46 -118
-67 -162 -96 -196 -58 -67 -126 -81 -154 -31 -21 37 -3 103 105 384 115 298
117 347 22 418 -40 30 -114 33 -166 6z"/>
<path d="M17644 2456 c-26 -26 -34 -42 -34 -71 0 -52 53 -105 105 -105 29 0
45 8 71 34 70 70 24 176 -77 176 -22 0 -41 -10 -65 -34z"/>
<path d="M23570 2390 l0 -40 455 0 455 0 0 40 0 40 -455 0 -455 0 0 -40z"/>
<path d="M23908 1821 c-101 -33 -161 -82 -197 -161 -22 -48 -27 -110 -11 -140
15 -28 67 -43 99 -27 41 19 55 58 37 101 -14 34 -23 39 -79 48 -29 5 44 83
107 115 55 28 155 41 221 29 46 -9 110 -66 127 -114 20 -59 14 -187 -12 -257
-43 -112 -128 -175 -240 -175 -59 0 -90 -9 -90 -26 0 -11 21 -14 93 -14 100
-1 149 -14 201 -54 74 -56 118 -214 97 -353 -24 -164 -111 -253 -245 -253
-119 0 -252 69 -303 158 l-25 42 30 0 c46 0 86 39 86 83 0 93 -124 117 -160
31 -13 -31 -13 -42 1 -96 19 -74 43 -114 95 -162 167 -151 443 -137 590 30
174 198 85 492 -174 575 l-68 22 38 15 c142 56 239 188 239 328 0 61 -4 77
-30 119 -79 128 -266 187 -427 136z"/>
</g>
</svg>
