<?xml version="1.0" standalone="no"?>
<!DOCTYPE svg PUBLIC "-//W3C//DTD SVG 20010904//EN"
 "http://www.w3.org/TR/2001/REC-SVG-20010904/DTD/svg10.dtd">
<svg version="1.0" xmlns="http://www.w3.org/2000/svg"
 width="468pt" height="41pt" viewBox="0 0 468 41"
 preserveAspectRatio="xMidYMid meet">
<metadata>
Created by potrace 1.8, written by Peter Selinger 2001-2007
</metadata>
<g transform="translate(0,41) scale(0.016786,-0.016786)"
fill="#000000" stroke="none">
<path d="M21996 2168 c-62 -128 -296 -617 -521 -1086 -225 -468 -411 -852
-414 -852 -4 0 -98 215 -210 478 -112 262 -208 481 -212 486 -4 5 -56 -29
-116 -75 -172 -132 -164 -124 -149 -145 13 -16 18 -14 79 34 36 29 69 52 73
52 5 0 110 -237 234 -525 215 -503 225 -525 251 -525 14 0 33 8 41 18 8 9 259
527 558 1150 l542 1132 2859 0 2859 0 0 45 0 45 -2881 0 -2880 0 -113 -232z"/>
<path d="M23445 1936 c-83 -38 -134 -111 -142 -206 -4 -44 -2 -60 12 -73 46
-46 121 16 86 71 -5 8 -22 17 -39 20 l-31 7 20 45 c11 24 28 53 37 63 29 32
89 57 136 57 120 0 195 -86 196 -222 0 -128 -37 -191 -265 -448 -85 -96 -155
-183 -155 -192 0 -17 18 -18 244 -18 l243 0 17 106 c9 59 15 109 12 111 -12
12 -25 -11 -31 -55 -11 -80 -1 -77 -215 -80 -182 -3 -191 -2 -182 15 6 10 85
91 176 181 177 174 221 228 242 300 31 102 12 184 -61 259 -80 82 -200 106
-300 59z"/>
<path d="M27435 1936 c-83 -38 -134 -111 -142 -206 -4 -44 -2 -60 12 -73 46
-46 121 16 86 71 -5 8 -22 17 -39 20 l-31 7 20 45 c11 24 28 53 37 63 29 32
89 57 136 57 120 0 195 -86 196 -222 0 -128 -37 -191 -265 -448 -85 -96 -155
-183 -155 -192 0 -17 18 -18 244 -18 l243 0 17 106 c9 59 15 109 12 111 -12
12 -25 -11 -31 -55 -11 -80 -1 -77 -215 -80 -182 -3 -191 -2 -182 15 6 10 85
91 176 181 177 174 221 228 242 300 31 102 12 184 -61 259 -80 82 -200 106
-300 59z"/>
<path d="M8943 1878 c-6 -7 -169 -278 -363 -603 -194 -324 -366 -610 -383
-633 -34 -51 -105 -99 -156 -107 -79 -13 -82 -15 -79 -38 3 -22 5 -22 195 -25
184 -2 192 -2 198 18 9 28 -1 40 -33 40 -43 0 -72 26 -72 63 0 32 14 60 125
246 l60 101 252 0 253 0 4 -22 c16 -75 35 -331 26 -348 -12 -22 -61 -40 -110
-40 -41 0 -66 -20 -56 -45 5 -13 38 -15 248 -13 l243 3 0 25 c0 24 -4 25 -67
30 -37 3 -72 10 -78 16 -6 6 -39 303 -75 668 -36 362 -67 662 -71 667 -8 13
-50 11 -61 -3z m-37 -585 c15 -156 25 -285 22 -288 -3 -3 -107 -4 -231 -3
l-225 3 196 328 197 327 6 -42 c4 -24 19 -170 35 -325z"/>
<path d="M25022 1578 c-9 -9 -12 -88 -12 -295 l0 -283 -286 -2 c-255 -3 -288
-5 -297 -20 -8 -12 -7 -21 2 -32 12 -14 51 -16 297 -16 l284 0 0 -279 c0 -154
3 -286 6 -295 7 -19 35 -21 52 -4 9 9 12 88 12 295 l0 283 279 0 c154 0 286 3
295 6 21 8 21 50 0 58 -9 3 -141 6 -295 6 l-279 0 0 283 c0 283 -3 307 -35
307 -6 0 -16 -5 -23 -12z"/>
<path d="M285 1327 c-89 -43 -185 -166 -211 -270 -6 -26 -4 -28 15 -25 16 2
28 18 45 60 77 188 261 283 329 169 29 -49 21 -123 -38 -362 -73 -293 -105
-362 -182 -395 -39 -17 -79 -18 -122 -3 l-32 11 31 19 c50 31 65 94 30 129
-29 29 -74 25 -112 -9 -28 -25 -33 -36 -33 -76 0 -40 5 -51 32 -75 54 -49 142
-63 211 -35 43 19 74 45 113 98 l28 38 16 -35 c52 -109 198 -147 310 -82 56
33 128 114 159 179 33 67 37 102 13 102 -13 0 -25 -17 -41 -57 -62 -153 -192
-247 -286 -208 -78 32 -79 115 -4 413 60 240 76 284 119 336 48 56 103 71 178
50 l38 -10 -33 -22 c-60 -41 -61 -128 -2 -143 39 -10 75 6 102 46 62 92 -38
191 -180 178 -59 -6 -119 -46 -156 -104 -15 -24 -29 -43 -32 -43 -3 0 -14 19
-26 42 -47 96 -175 134 -279 84z"/>
<path d="M3789 1327 c-46 -31 -75 -77 -103 -166 -34 -107 -35 -126 -12 -126
16 0 25 17 46 90 40 141 84 196 145 181 34 -9 48 -47 42 -111 -3 -28 -40 -194
-82 -369 -45 -189 -74 -328 -71 -342 7 -26 42 -40 76 -29 32 10 44 45 120 354
66 263 74 289 114 351 80 122 187 176 283 139 l28 -10 -33 -16 c-58 -28 -79
-96 -42 -133 45 -45 133 -4 146 67 10 52 -15 96 -68 122 -94 45 -212 14 -300
-80 l-46 -49 -11 33 c-32 96 -155 146 -232 94z"/>
<path d="M5350 1331 c-95 -30 -142 -61 -225 -145 -176 -176 -232 -401 -144
-574 89 -174 298 -212 522 -94 70 36 187 140 187 166 0 35 -25 24 -83 -36 -94
-96 -231 -157 -353 -158 -63 0 -124 37 -153 95 -34 65 -33 180 2 316 49 190
128 313 239 374 44 25 64 30 123 30 75 0 138 -26 163 -66 10 -16 9 -19 -7 -19
-34 0 -72 -23 -87 -51 -19 -38 -18 -65 6 -89 50 -50 138 -1 147 81 16 141
-158 228 -337 170z"/>
<path d="M6180 1328 c-236 -83 -416 -347 -398 -582 17 -211 202 -340 403 -281
99 28 156 64 240 149 168 169 229 392 153 557 -69 151 -232 215 -398 157z
m194 -38 c124 -60 134 -249 29 -522 -100 -260 -368 -367 -462 -183 -22 41 -25
60 -24 134 2 100 35 243 80 341 87 190 252 291 377 230z"/>
<path d="M7116 1333 c-97 -29 -167 -96 -201 -192 -20 -58 -19 -107 4 -158 26
-57 79 -89 187 -114 112 -26 152 -45 181 -88 29 -43 29 -83 -1 -146 -47 -100
-123 -140 -266 -140 -108 1 -156 19 -205 77 l-28 33 37 6 c47 8 75 35 82 81
11 67 -62 103 -118 58 -35 -27 -51 -72 -46 -125 7 -61 45 -107 115 -142 53
-26 67 -28 168 -28 91 1 120 5 170 25 163 64 263 270 192 394 -38 66 -82 94
-197 122 -57 14 -117 32 -132 40 -29 15 -58 61 -58 92 0 39 49 117 91 144 90
58 233 47 299 -24 26 -28 26 -48 0 -48 -28 0 -70 -44 -70 -73 0 -13 8 -31 18
-40 59 -54 141 36 118 128 -12 46 -73 103 -129 120 -63 19 -147 18 -211 -2z"/>
<path d="M16859 1327 c-46 -31 -75 -77 -103 -166 -34 -107 -35 -126 -12 -126
16 0 25 17 46 90 40 141 84 196 145 181 34 -9 48 -47 42 -111 -3 -28 -40 -194
-82 -369 -45 -189 -74 -328 -71 -342 7 -26 42 -40 76 -29 32 10 44 45 120 354
66 263 74 289 114 351 80 122 187 176 283 139 l28 -10 -33 -16 c-58 -28 -79
-96 -42 -133 45 -45 133 -4 146 67 10 52 -15 96 -68 122 -94 45 -212 14 -300
-80 l-46 -49 -11 33 c-32 96 -155 146 -232 94z"/>
<path d="M22465 1327 c-89 -43 -185 -166 -211 -270 -6 -26 -4 -28 15 -25 16 2
28 18 45 60 77 188 261 283 329 169 29 -49 21 -123 -38 -362 -73 -293 -105
-362 -182 -395 -39 -17 -79 -18 -122 -3 l-32 11 31 19 c50 31 65 94 30 129
-29 29 -74 25 -112 -9 -28 -25 -33 -36 -33 -76 0 -40 5 -51 32 -75 54 -49 142
-63 211 -35 43 19 74 45 113 98 l28 38 16 -35 c52 -109 198 -147 310 -82 56
33 128 114 159 179 33 67 37 102 13 102 -13 0 -25 -17 -41 -57 -62 -153 -192
-247 -286 -208 -78 32 -79 115 -4 413 60 240 76 284 119 336 48 56 103 71 178
50 l38 -10 -33 -22 c-60 -41 -61 -128 -2 -143 39 -10 75 6 102 46 62 92 -38
191 -180 178 -59 -6 -119 -46 -156 -104 -15 -24 -29 -43 -32 -43 -3 0 -14 19
-26 42 -47 96 -175 134 -279 84z"/>
<path d="M26442 1329 c-52 -26 -113 -103 -146 -185 -33 -81 -36 -109 -12 -109
14 0 24 13 36 50 48 141 121 225 194 225 37 0 60 -40 51 -87 -3 -21 -36 -125
-72 -232 -50 -148 -66 -213 -70 -271 -7 -94 13 -162 60 -208 86 -84 249 -81
340 5 32 31 32 30 11 -51 -51 -201 -198 -366 -327 -366 -50 0 -99 21 -125 55
-29 36 -28 45 4 45 35 0 94 59 94 94 0 65 -77 86 -132 37 -31 -27 -33 -34 -33
-93 0 -55 4 -70 28 -101 43 -57 79 -72 173 -72 72 0 87 3 156 37 94 47 200
154 246 249 22 44 65 199 137 486 58 233 105 434 105 448 0 57 -90 59 -115 2
-8 -17 -49 -169 -91 -337 -41 -168 -84 -318 -94 -335 -28 -45 -70 -81 -120
-104 -86 -39 -156 -21 -184 49 -34 87 -15 210 74 460 41 115 50 154 47 189
-12 111 -132 173 -235 120z"/>
<path d="M1709 1164 c-9 -11 -10 -20 -2 -32 9 -16 63 -17 604 -20 327 -1 604
0 617 3 24 6 29 34 10 53 -9 9 -159 12 -614 12 -537 0 -603 -2 -615 -16z"/>
<path d="M18249 1164 c-9 -11 -10 -20 -2 -32 9 -16 63 -17 604 -20 327 -1 604
0 617 3 24 6 29 34 10 53 -9 9 -159 12 -614 12 -537 0 -603 -2 -615 -16z"/>
<path d="M1709 804 c-9 -11 -10 -20 -2 -32 9 -16 63 -17 613 -20 437 -1 607 1
616 9 19 15 18 45 -2 53 -9 3 -285 6 -614 6 -533 0 -599 -2 -611 -16z"/>
<path d="M18249 804 c-9 -11 -10 -20 -2 -32 9 -16 63 -17 613 -20 437 -1 607
1 616 9 19 15 18 45 -2 53 -9 3 -285 6 -614 6 -533 0 -599 -2 -611 -16z"/>
</g>
</svg>
