<?xml version="1.0" standalone="no"?>
<!DOCTYPE svg PUBLIC "-//W3C//DTD SVG 20010904//EN"
 "http://www.w3.org/TR/2001/REC-SVG-20010904/DTD/svg10.dtd">
<svg version="1.0" xmlns="http://www.w3.org/2000/svg"
 width="468pt" height="142pt" viewBox="0 0 468 142"
 preserveAspectRatio="xMidYMid meet">
<metadata>
Created by potrace 1.8, written by Peter Selinger 2001-2007
</metadata>
<g transform="translate(0,142) scale(0.031200,-0.031200)"
fill="#000000" stroke="none">
<path d="M9830 4508 c-52 -45 -131 -79 -218 -92 -72 -11 -77 -13 -77 -36 0
-24 3 -25 50 -21 44 3 125 24 178 46 16 7 17 -22 17 -528 0 -303 -4 -546 -9
-560 -12 -32 -27 -37 -138 -44 -89 -6 -93 -7 -93 -30 l0 -23 295 0 295 0 0 25
c0 24 -3 25 -57 26 -77 0 -151 13 -166 28 -9 9 -13 167 -17 623 -3 395 -9 612
-15 614 -5 2 -26 -11 -45 -28z"/>
<path d="M334 3215 c-13 -34 3 -45 69 -45 119 0 123 54 -42 -602 -79 -315
-150 -585 -157 -599 -16 -31 -38 -39 -120 -39 -65 0 -92 -15 -80 -45 5 -13 40
-15 263 -13 l258 3 0 25 c0 23 -4 25 -55 28 -89 4 -100 8 -100 42 0 17 30 149
66 295 l66 265 142 0 c154 0 204 -9 254 -46 71 -55 78 -117 31 -310 -29 -118
-30 -133 -19 -182 16 -71 68 -125 141 -146 112 -34 199 -10 265 69 36 45 78
138 67 149 -19 19 -41 -1 -71 -65 -25 -52 -44 -77 -74 -97 -53 -35 -112 -36
-139 -3 -24 29 -24 77 -2 282 14 130 14 163 4 201 -17 61 -60 111 -121 141
l-50 25 79 27 c98 32 181 82 247 146 189 186 108 418 -171 489 -71 18 -111 20
-412 20 -287 0 -334 -2 -339 -15z m685 -56 c129 -27 186 -121 161 -262 -31
-170 -154 -288 -330 -316 -36 -6 -126 -11 -201 -11 l-137 0 71 283 c38 155 77
290 85 300 13 15 34 17 158 17 79 0 166 -5 193 -11z"/>
<path d="M2739 2564 c-9 -11 -10 -20 -2 -32 9 -16 63 -17 604 -20 327 -1 604
0 617 3 24 6 29 34 10 53 -9 9 -159 12 -614 12 -537 0 -603 -2 -615 -16z"/>
<path d="M4640 2365 l0 -45 5178 2 5177 3 3 43 3 42 -5180 0 -5181 0 0 -45z"/>
<path d="M2739 2204 c-9 -11 -10 -20 -2 -32 9 -16 63 -17 613 -20 437 -1 607
1 616 9 19 15 18 45 -2 53 -9 3 -285 6 -614 6 -533 0 -599 -2 -611 -16z"/>
<path d="M1538 2175 c-40 -23 -112 -195 -87 -211 15 -9 20 0 45 77 25 77 56
119 89 119 31 0 45 -19 45 -59 -1 -53 -176 -742 -192 -752 -7 -5 -28 -9 -45
-9 -26 0 -33 -4 -33 -20 0 -19 7 -20 139 -20 110 0 140 3 144 14 8 20 -2 26
-42 26 -65 0 -65 3 -26 156 20 76 38 140 40 142 2 2 9 -6 15 -18 17 -32 70
-60 115 -60 85 0 205 90 268 200 113 197 45 430 -125 430 -39 0 -127 -48 -157
-85 l-20 -27 -6 25 c-17 64 -109 105 -167 72z m407 -39 c13 -13 27 -41 31 -62
14 -77 -35 -285 -90 -379 -15 -25 -46 -59 -68 -75 -73 -53 -143 -35 -174 46
-16 43 -16 45 21 196 39 159 55 195 102 239 66 62 137 76 178 35z"/>
<path d="M6346 1958 c-8 -18 -166 -458 -351 -978 -243 -682 -334 -949 -327
-960 5 -8 19 -16 31 -18 16 -3 25 4 35 30 8 18 165 458 351 978 240 675 334
949 327 960 -5 8 -19 16 -31 18 -16 3 -25 -4 -35 -30z"/>
<path d="M12686 1958 c-8 -18 -166 -458 -351 -978 -243 -682 -334 -949 -327
-960 5 -8 19 -16 31 -18 16 -3 25 4 35 30 8 18 165 458 351 978 240 675 334
949 327 960 -5 8 -19 16 -31 18 -16 3 -25 -4 -35 -30z"/>
<path d="M6954 1845 c-13 -34 3 -45 69 -45 119 0 123 54 -42 -602 -79 -315
-150 -585 -157 -599 -16 -31 -38 -39 -120 -39 -65 0 -92 -15 -80 -45 5 -13 40
-15 263 -13 l258 3 0 25 c0 23 -4 25 -55 28 -89 4 -100 8 -100 42 0 17 30 149
66 295 l66 265 142 0 c154 0 204 -9 254 -46 71 -55 78 -117 31 -310 -29 -118
-30 -133 -19 -182 16 -71 68 -125 141 -146 112 -34 199 -10 265 69 36 45 78
138 67 149 -19 19 -41 -1 -71 -65 -25 -52 -44 -77 -74 -97 -53 -35 -112 -36
-139 -3 -24 29 -24 77 -2 282 14 130 14 163 4 201 -17 61 -60 111 -121 141
l-50 25 79 27 c98 32 181 82 247 146 189 186 108 418 -171 489 -71 18 -111 20
-412 20 -287 0 -334 -2 -339 -15z m685 -56 c129 -27 186 -121 161 -262 -31
-170 -154 -288 -330 -316 -36 -6 -126 -11 -201 -11 l-137 0 71 283 c38 155 77
290 85 300 13 15 34 17 158 17 79 0 166 -5 193 -11z"/>
<path d="M13294 1845 c-13 -34 3 -45 69 -45 119 0 123 54 -42 -602 -79 -315
-150 -585 -157 -599 -16 -31 -38 -39 -120 -39 -65 0 -92 -15 -80 -45 5 -13 40
-15 263 -13 l258 3 0 25 c0 23 -4 25 -55 28 -89 4 -100 8 -100 42 0 17 30 149
66 295 l66 265 142 0 c154 0 204 -9 254 -46 71 -55 78 -117 31 -310 -29 -118
-30 -133 -19 -182 16 -71 68 -125 141 -146 112 -34 199 -10 265 69 36 45 78
138 67 149 -19 19 -41 -1 -71 -65 -25 -52 -44 -77 -74 -97 -53 -35 -112 -36
-139 -3 -24 29 -24 77 -2 282 14 130 14 163 4 201 -17 61 -60 111 -121 141
l-50 25 79 27 c98 32 181 82 247 146 189 186 108 418 -171 489 -71 18 -111 20
-412 20 -287 0 -334 -2 -339 -15z m685 -56 c129 -27 186 -121 161 -262 -31
-170 -154 -288 -330 -316 -36 -6 -126 -11 -201 -11 l-137 0 71 283 c38 155 77
290 85 300 13 15 34 17 158 17 79 0 166 -5 193 -11z"/>
<path d="M5110 1788 c-52 -45 -131 -79 -218 -92 -72 -11 -77 -13 -77 -36 0
-24 3 -25 50 -21 44 3 125 24 178 46 16 7 17 -22 17 -528 0 -303 -4 -546 -9
-560 -12 -32 -27 -37 -138 -44 -89 -6 -93 -7 -93 -30 l0 -23 295 0 295 0 0 25
c0 24 -3 25 -57 26 -77 0 -151 13 -166 28 -9 9 -13 167 -17 623 -3 395 -9 612
-15 614 -5 2 -26 -11 -45 -28z"/>
<path d="M11450 1788 c-52 -45 -131 -79 -218 -92 -72 -11 -77 -13 -77 -36 0
-24 3 -25 50 -21 44 3 125 24 178 46 16 7 17 -22 17 -528 0 -303 -4 -546 -9
-560 -12 -32 -27 -37 -138 -44 -89 -6 -93 -7 -93 -30 l0 -23 295 0 295 0 0 25
c0 24 -3 25 -57 26 -77 0 -151 13 -166 28 -9 9 -13 167 -17 623 -3 395 -9 612
-15 614 -5 2 -26 -11 -45 -28z"/>
<path d="M9792 1608 c-9 -9 -12 -88 -12 -295 l0 -283 -286 -2 c-255 -3 -288
-5 -297 -20 -8 -12 -7 -21 2 -32 12 -14 51 -16 297 -16 l284 0 0 -279 c0 -154
3 -286 6 -295 7 -19 35 -21 52 -4 9 9 12 88 12 295 l0 283 279 0 c154 0 286 3
295 6 9 3 16 16 16 29 0 13 -7 26 -16 29 -9 3 -141 6 -295 6 l-279 0 0 283 c0
283 -3 307 -35 307 -6 0 -16 -5 -23 -12z"/>
<path d="M8335 1098 c-28 -29 -91 -56 -152 -64 -43 -5 -53 -10 -53 -25 0 -12
7 -19 18 -19 19 0 106 22 135 35 16 7 17 -15 17 -379 0 -442 9 -406 -99 -406
-54 0 -61 -2 -61 -20 0 -19 7 -20 206 -20 190 0 205 1 202 17 -3 15 -17 19
-76 23 -50 3 -76 10 -82 20 -6 9 -10 189 -10 438 0 447 0 447 -45 400z"/>
<path d="M14555 1096 c-83 -38 -134 -111 -142 -206 -4 -44 -2 -60 12 -73 46
-46 121 16 86 71 -5 8 -22 17 -39 20 l-31 7 20 45 c11 24 28 53 37 63 29 32
89 57 136 57 120 0 195 -86 196 -222 0 -128 -37 -191 -265 -448 -85 -96 -155
-183 -155 -192 0 -17 18 -18 244 -18 l243 0 17 106 c9 59 15 109 12 111 -12
12 -25 -11 -31 -55 -11 -80 -1 -77 -215 -80 -182 -3 -191 -2 -182 15 6 10 85
91 176 181 177 174 221 228 242 300 31 102 12 184 -61 259 -80 82 -200 106
-300 59z"/>
</g>
</svg>
