<?xml version="1.0" standalone="no"?>
<!DOCTYPE svg PUBLIC "-//W3C//DTD SVG 20010904//EN"
 "http://www.w3.org/TR/2001/REC-SVG-20010904/DTD/svg10.dtd">
<svg version="1.0" xmlns="http://www.w3.org/2000/svg"
 width="468pt" height="70pt" viewBox="0 0 468 70"
 preserveAspectRatio="xMidYMid meet">
<metadata>
Created by potrace 1.8, written by Peter Selinger 2001-2007
</metadata>
<g transform="translate(0,70) scale(0.187200,-0.187200)"
fill="#000000" stroke="none">
<path d="M1845 352 c4 -8 -2 -23 -16 -38 l-22 -24 29 1 c18 1 22 3 11 6 -18 5
-18 6 -1 24 14 16 15 22 4 32 -10 9 -11 9 -5 -1z"/>
<path d="M340 330 c-10 -6 -11 -10 -2 -10 7 0 12 -15 12 -39 0 -22 -5 -42 -12
-44 -7 -3 1 -6 17 -6 17 0 25 3 18 7 -6 4 -13 29 -15 54 -2 39 -6 46 -18 38z"/>
<path d="M1685 327 c18 -14 19 -18 6 -39 -13 -21 -13 -22 3 -9 22 19 17 55 -9
59 -20 4 -20 4 0 -11z"/>
<path d="M2075 329 c-4 -6 -4 -13 -1 -16 3 -4 6 -1 6 5 0 7 7 12 15 12 8 0 15
-7 15 -16 0 -8 4 -13 10 -9 5 3 7 12 3 20 -6 17 -39 20 -48 4z"/>
<path d="M2451 340 c-1 -3 -3 -29 -4 -58 -2 -46 0 -52 18 -52 13 0 16 3 8 8
-6 4 -13 30 -16 57 -2 28 -4 48 -6 45z"/>
<path d="M1424 310 c0 -13 4 -16 10 -10 7 7 7 13 0 20 -6 6 -10 3 -10 -10z"/>
<path d="M221 298 c-1 -21 -7 -28 -28 -31 l-28 -4 27 -2 c19 -1 28 -7 31 -23
l4 -23 2 23 c1 15 8 22 24 23 l22 2 -22 4 c-14 3 -23 13 -26 31 l-4 27 -2 -27z"/>
<path d="M1541 298 c-1 -21 -6 -28 -23 -29 l-23 -2 23 -4 c14 -3 22 -12 23
-26 2 -22 2 -22 6 1 3 14 12 22 26 23 l22 2 -22 4 c-14 3 -23 13 -26 31 l-4
27 -2 -27z"/>
<path d="M1961 298 c-1 -21 -6 -28 -23 -29 l-23 -2 23 -4 c14 -3 22 -12 23
-26 2 -22 2 -22 6 1 3 14 12 22 26 23 l22 2 -22 4 c-14 3 -23 13 -26 31 l-4
27 -2 -27z"/>
<path d="M2321 298 c-1 -21 -6 -28 -23 -29 l-23 -2 23 -4 c14 -3 22 -12 23
-26 2 -22 2 -22 6 1 3 14 12 22 26 23 l22 2 -22 4 c-14 3 -23 13 -26 31 l-4
27 -2 -27z"/>
<path d="M73 262 c-1 -37 -1 -37 8 -7 4 16 5 33 1 37 -4 4 -8 -10 -9 -30z"/>
<path d="M848 270 c-3 -17 -2 -33 2 -35 3 -2 7 12 8 31 3 42 -4 45 -10 4z"/>
<path d="M1341 283 c-1 -6 -4 -20 -7 -30 -5 -17 -5 -17 6 0 6 10 9 23 6 30 -3
9 -5 9 -5 0z"/>
<path d="M1761 283 c-1 -6 -4 -20 -7 -30 -5 -17 -5 -17 6 0 6 10 9 23 6 30 -3
9 -5 9 -5 0z"/>
<path d="M2098 284 c17 -8 15 -44 -2 -44 -8 0 -16 3 -18 8 -3 4 -4 3 -3 -3 1
-5 13 -10 26 -10 19 0 24 5 24 25 0 17 -6 25 -20 27 -11 2 -14 0 -7 -3z"/>
<path d="M2181 283 c-1 -6 -4 -20 -7 -30 -5 -17 -5 -17 6 0 6 10 9 23 6 30 -3
9 -5 9 -5 0z"/>
<path d="M1675 240 l-30 -8 33 -1 c17 0 32 4 32 9 0 6 -1 9 -2 9 -2 -1 -16 -5
-33 -9z"/>
<path d="M531 188 c-1 -21 -6 -28 -23 -29 l-23 -2 23 -4 c14 -3 22 -12 23 -26
2 -22 2 -22 6 1 3 14 12 22 26 23 l22 2 -22 4 c-14 3 -23 13 -26 31 l-4 27 -2
-27z"/>
<path d="M1153 173 c15 -2 39 -2 55 0 15 2 2 4 -28 4 -30 0 -43 -2 -27 -4z"/>
<path d="M102 163 c59 -2 158 -2 220 0 62 1 14 3 -107 3 -121 0 -172 -2 -113
-3z"/>
<path d="M743 163 c59 -2 155 -2 215 0 59 1 10 3 -108 3 -118 0 -167 -2 -107
-3z"/>
<path d="M1598 163 c166 -2 438 -2 605 0 166 1 30 2 -303 2 -333 0 -469 -1
-302 -2z"/>
<path d="M1153 143 c15 -2 39 -2 55 0 15 2 2 4 -28 4 -30 0 -43 -2 -27 -4z"/>
<path d="M764 110 c0 -13 4 -16 10 -10 7 7 7 13 0 20 -6 6 -10 3 -10 -10z"/>
<path d="M1493 95 c-1 -22 1 -32 4 -23 2 10 2 28 0 40 -2 13 -4 5 -4 -17z"/>
<path d="M129 113 c0 -5 -2 -18 -3 -30 -1 -12 1 -20 4 -18 8 5 11 55 4 55 -2
0 -4 -3 -5 -7z"/>
<path d="M381 120 c-1 -3 -3 -29 -4 -58 -2 -46 0 -52 18 -52 13 0 16 3 8 8 -6
4 -13 30 -16 57 -2 28 -4 48 -6 45z"/>
<path d="M1010 110 c-10 -6 -11 -10 -2 -10 7 0 12 -15 12 -39 0 -22 -5 -42
-12 -44 -7 -3 1 -6 17 -6 17 0 25 3 18 7 -6 4 -13 29 -15 54 -2 39 -6 46 -18
38z"/>
<path d="M2370 110 c-10 -6 -11 -10 -2 -10 7 0 12 -15 12 -39 0 -22 -5 -42
-12 -44 -7 -3 -4 -6 7 -6 18 -1 20 4 17 42 -5 66 -5 68 -22 57z"/>
<path d="M1611 78 c-1 -21 -6 -28 -23 -29 l-23 -2 23 -4 c14 -3 22 -12 23 -26
2 -22 2 -22 6 1 3 16 12 22 31 23 l27 2 -27 4 c-20 3 -28 11 -31 31 l-4 27 -2
-27z"/>
<path d="M1846 73 c-6 -14 -5 -15 5 -6 7 7 10 15 7 18 -3 3 -9 -2 -12 -12z"/>
<path d="M38 49 c-3 -16 -1 -32 3 -34 4 -3 9 9 11 26 3 16 1 32 -3 34 -4 3 -9
-9 -11 -26z"/>
<path d="M678 49 c-3 -16 -1 -32 3 -34 4 -3 9 9 11 26 3 16 1 32 -3 34 -4 3
-9 -9 -11 -26z"/>
<path d="M1408 49 c-3 -16 -1 -32 3 -34 4 -3 9 9 11 26 3 16 1 32 -3 34 -4 3
-9 -9 -11 -26z"/>
<path d="M1753 42 c-1 -37 -1 -37 8 -7 4 16 5 33 1 37 -4 4 -8 -10 -9 -30z"/>
<path d="M2098 50 c-3 -17 -2 -33 2 -35 3 -2 7 12 8 31 3 42 -4 45 -10 4z"/>
<path d="M748 63 c6 -2 18 -2 25 0 6 3 1 5 -13 5 -14 0 -19 -2 -12 -5z"/>
<path d="M223 43 c15 -2 39 -2 55 0 15 2 2 4 -28 4 -30 0 -43 -2 -27 -4z"/>
<path d="M863 43 c15 -2 39 -2 55 0 15 2 2 4 -28 4 -30 0 -43 -2 -27 -4z"/>
<path d="M1933 43 c15 -2 39 -2 55 0 15 2 2 4 -28 4 -30 0 -43 -2 -27 -4z"/>
<path d="M2213 43 c15 -2 39 -2 55 0 15 2 2 4 -28 4 -30 0 -43 -2 -27 -4z"/>
</g>
</svg>
