<?xml version="1.0" standalone="no"?>
<!DOCTYPE svg PUBLIC "-//W3C//DTD SVG 20010904//EN"
 "http://www.w3.org/TR/2001/REC-SVG-20010904/DTD/svg10.dtd">
<svg version="1.0" xmlns="http://www.w3.org/2000/svg"
 width="468pt" height="32pt" viewBox="0 0 468 32"
 preserveAspectRatio="xMidYMid meet">
<metadata>
Created by potrace 1.8, written by Peter Selinger 2001-2007
</metadata>
<g transform="translate(0,32) scale(0.187952,-0.187952)"
fill="#000000" stroke="none">
<path d="M720 145 c-3 -16 1 -100 6 -104 10 -11 12 8 4 59 -4 30 -8 51 -10 45z"/>
<path d="M1460 145 c-3 -16 1 -100 6 -104 10 -11 12 8 4 59 -4 30 -8 51 -10
45z"/>
<path d="M1929 118 c-2 -27 3 -63 11 -71 4 -5 5 4 2 18 -2 15 0 30 6 34 6 4 5
11 -4 19 -11 10 -14 10 -15 0z"/>
<path d="M1430 100 c-6 -11 -8 -20 -6 -20 3 0 10 9 16 20 6 11 8 20 6 20 -3 0
-10 -9 -16 -20z"/>
<path d="M22 90 c-7 -11 -12 -25 -12 -32 1 -7 8 0 16 15 18 33 14 46 -4 17z"/>
<path d="M54 78 c-4 -18 -8 -35 -9 -38 0 -3 -4 -12 -10 -20 -7 -13 -6 -13 7
-2 15 12 34 79 25 89 -3 2 -9 -11 -13 -29z"/>
<path d="M306 77 c-8 -41 -3 -43 15 -3 11 24 12 33 3 33 -7 0 -15 -14 -18 -30z"/>
<path d="M485 80 c-4 -17 -5 -34 -2 -36 3 -3 8 9 12 26 4 17 5 34 2 36 -3 3
-8 -9 -12 -26z"/>
<path d="M536 79 c-8 -42 0 -50 9 -9 4 17 5 34 2 36 -2 3 -7 -10 -11 -27z"/>
<path d="M581 98 c0 -9 -4 -25 -7 -35 -5 -14 -4 -15 5 -7 7 7 11 22 8 35 -2
13 -5 16 -6 7z"/>
<path d="M1759 72 c5 -34 6 -35 9 -8 2 16 0 32 -5 37 -5 5 -7 -7 -4 -29z"/>
<path d="M1795 75 c0 -19 5 -35 10 -35 7 0 9 15 7 35 -2 19 -7 35 -11 35 -3 0
-6 -16 -6 -35z"/>
<path d="M2029 72 c5 -34 6 -35 9 -8 2 16 0 32 -5 37 -5 5 -7 -7 -4 -29z"/>
<path d="M2065 75 c0 -19 5 -35 10 -35 7 0 9 15 7 35 -2 19 -7 35 -11 35 -3 0
-6 -16 -6 -35z"/>
<path d="M2152 80 c0 -19 2 -27 5 -17 2 9 2 25 0 35 -3 9 -5 1 -5 -18z"/>
<path d="M2225 80 c-4 -17 -5 -34 -2 -36 2 -3 7 10 11 27 8 42 0 50 -9 9z"/>
<path d="M2266 98 c-3 -7 -9 -29 -15 -48 -7 -19 -7 -30 -2 -25 10 11 32 85 25
85 -3 0 -6 -6 -8 -12z"/>
<path d="M2388 79 c-3 -16 -1 -32 3 -34 4 -3 9 9 11 26 3 16 1 32 -3 34 -4 3
-9 -9 -11 -26z"/>
<path d="M2482 80 c0 -19 2 -27 5 -17 2 9 2 25 0 35 -3 9 -5 1 -5 -18z"/>
<path d="M163 93 c15 -2 39 -2 55 0 15 2 2 4 -28 4 -30 0 -43 -2 -27 -4z"/>
<path d="M412 89 c2 -6 14 -16 26 -20 29 -11 28 -5 -4 16 -17 11 -25 12 -22 4z"/>
<path d="M1573 93 c15 -2 39 -2 55 0 15 2 2 4 -28 4 -30 0 -43 -2 -27 -4z"/>
<path d="M1853 84 c-3 -9 2 -23 13 -32 17 -16 17 -16 5 0 -7 10 -11 25 -7 33
3 8 3 15 0 15 -2 0 -7 -7 -11 -16z"/>
<path d="M2108 70 c-3 -19 0 -30 7 -30 7 0 10 11 7 30 -2 17 -5 30 -7 30 -2 0
-5 -13 -7 -30z"/>
<path d="M163 63 c15 -2 39 -2 55 0 15 2 2 4 -28 4 -30 0 -43 -2 -27 -4z"/>
<path d="M1573 63 c15 -2 39 -2 55 0 15 2 2 4 -28 4 -30 0 -43 -2 -27 -4z"/>
<path d="M1710 61 c0 -6 4 -13 10 -16 6 -3 7 1 4 9 -7 18 -14 21 -14 7z"/>
<path d="M1980 61 c0 -6 4 -13 10 -16 6 -3 7 1 4 9 -7 18 -14 21 -14 7z"/>
</g>
</svg>
