<?xml version="1.0" standalone="no"?>
<!DOCTYPE svg PUBLIC "-//W3C//DTD SVG 20010904//EN"
 "http://www.w3.org/TR/2001/REC-SVG-20010904/DTD/svg10.dtd">
<svg version="1.0" xmlns="http://www.w3.org/2000/svg"
 width="468pt" height="123pt" viewBox="0 0 468 123"
 preserveAspectRatio="xMidYMid meet">
<metadata>
Created by potrace 1.8, written by Peter Selinger 2001-2007
</metadata>
<g transform="translate(0,123) scale(0.028889,-0.028889)"
fill="#000000" stroke="none">
<path d="M1549 4178 c-164 -159 -274 -381 -325 -653 -27 -140 -27 -440 0 -580
37 -201 115 -394 212 -525 78 -107 194 -211 194 -174 0 3 -26 36 -57 74 -191
226 -283 524 -283 915 0 389 86 672 276 906 35 43 64 81 64 84 0 18 -35 -2
-81 -47z"/>
<path d="M3947 4224 c-4 -4 14 -30 40 -58 212 -234 318 -592 300 -1011 -17
-374 -112 -646 -298 -849 -52 -57 -51 -83 0 -47 82 58 190 204 257 345 91 192
128 376 128 631 0 392 -109 698 -329 923 -68 69 -84 80 -98 66z"/>
<path d="M825 4108 c-92 -9 -123 -24 -112 -52 5 -11 20 -16 49 -16 67 0 88 -9
88 -36 0 -13 -28 -134 -61 -269 l-61 -245 -28 44 c-82 128 -270 107 -425 -49
-242 -242 -261 -647 -34 -745 96 -41 197 -15 296 77 l51 48 21 -45 c29 -65 78
-95 154 -95 58 0 60 1 102 47 32 36 49 67 69 130 34 109 36 133 12 133 -14 0
-23 -17 -42 -83 -13 -46 -31 -97 -40 -114 -38 -73 -107 -101 -138 -56 -33 46
-20 112 134 724 83 327 148 599 145 604 -7 12 -54 11 -180 -2z m-207 -548 c36
-22 67 -68 82 -119 8 -29 0 -71 -46 -255 -30 -122 -62 -235 -71 -253 -20 -43
-113 -130 -165 -153 -67 -30 -114 -26 -153 13 -73 73 -71 207 6 462 47 155
107 246 193 295 60 35 108 38 154 10z"/>
<path d="M2055 3597 c-89 -43 -185 -166 -211 -270 -6 -26 -4 -28 15 -25 16 2
28 18 45 60 77 188 261 283 329 169 29 -49 21 -123 -38 -362 -73 -293 -105
-362 -182 -395 -39 -17 -79 -18 -122 -3 l-32 11 31 19 c50 31 65 94 30 129
-29 29 -74 25 -112 -9 -28 -25 -33 -36 -33 -76 0 -40 5 -51 32 -75 54 -49 142
-63 211 -35 43 19 74 45 113 98 l28 38 16 -35 c52 -109 198 -147 310 -82 56
33 128 114 159 179 33 67 37 102 13 102 -13 0 -25 -17 -41 -57 -62 -153 -192
-247 -286 -208 -78 32 -79 115 -4 413 60 240 76 284 119 336 48 56 103 71 178
50 l38 -10 -33 -22 c-60 -41 -61 -128 -2 -143 39 -10 75 6 102 46 62 92 -38
191 -180 178 -59 -6 -119 -46 -156 -104 -15 -24 -29 -43 -32 -43 -3 0 -14 19
-26 42 -47 96 -175 134 -279 84z"/>
<path d="M3062 3599 c-52 -26 -113 -103 -146 -185 -33 -81 -36 -109 -12 -109
14 0 24 13 36 50 48 141 121 225 194 225 37 0 60 -40 51 -87 -3 -21 -36 -125
-72 -232 -50 -148 -66 -213 -70 -271 -7 -94 13 -162 60 -208 86 -84 249 -81
340 5 32 31 32 30 11 -51 -51 -201 -198 -366 -327 -366 -50 0 -99 21 -125 55
-29 36 -28 45 4 45 35 0 94 59 94 94 0 65 -77 86 -132 37 -31 -27 -33 -34 -33
-93 0 -55 4 -70 28 -101 43 -57 79 -72 173 -72 72 0 87 3 156 37 94 47 200
154 246 249 22 44 65 199 137 486 58 233 105 434 105 448 0 57 -90 59 -115 2
-8 -17 -49 -169 -91 -337 -41 -168 -84 -318 -94 -335 -28 -45 -70 -81 -120
-104 -86 -39 -156 -21 -184 49 -34 87 -15 210 74 460 41 115 50 154 47 189
-12 111 -132 173 -235 120z"/>
<path d="M10023 2696 c-209 -68 -306 -316 -290 -736 10 -258 52 -395 152 -496
98 -100 217 -129 342 -83 179 68 273 292 273 654 0 344 -84 561 -246 641 -66
32 -167 41 -231 20z m145 -28 c70 -18 134 -86 161 -173 32 -103 44 -280 38
-540 -8 -294 -28 -397 -93 -482 -55 -73 -168 -99 -249 -57 -130 67 -174 262
-162 729 6 251 20 338 62 411 31 53 81 95 132 111 50 15 56 15 111 1z"/>
<path d="M13360 2678 c-52 -45 -131 -79 -218 -92 -72 -11 -77 -13 -77 -36 0
-24 3 -25 50 -21 44 3 125 24 178 46 16 7 17 -22 17 -528 0 -303 -4 -546 -9
-560 -12 -32 -27 -37 -138 -44 -89 -6 -93 -7 -93 -30 l0 -23 295 0 295 0 0 25
c0 24 -3 25 -57 26 -77 0 -151 13 -166 28 -9 9 -13 167 -17 623 -3 395 -9 612
-15 614 -5 2 -26 -11 -45 -28z"/>
<path d="M11712 2498 c-9 -9 -12 -88 -12 -295 l0 -283 -286 -2 c-255 -3 -288
-5 -297 -20 -8 -12 -7 -21 2 -32 12 -14 51 -16 297 -16 l284 0 0 -279 c0 -154
3 -286 6 -295 7 -19 35 -21 52 -4 9 9 12 88 12 295 l0 283 279 0 c154 0 286 3
295 6 9 3 16 16 16 29 0 13 -7 26 -16 29 -9 3 -141 6 -295 6 l-279 0 0 283 c0
283 -3 307 -35 307 -6 0 -16 -5 -23 -12z"/>
<path d="M7445 2247 c-89 -43 -185 -166 -211 -270 -6 -26 -4 -28 15 -25 16 2
28 18 45 60 77 188 261 283 329 169 29 -49 21 -123 -38 -362 -73 -293 -105
-362 -182 -395 -39 -17 -79 -18 -122 -3 l-32 11 31 19 c50 31 65 94 30 129
-29 29 -74 25 -112 -9 -28 -25 -33 -36 -33 -76 0 -40 5 -51 32 -75 54 -49 142
-63 211 -35 43 19 74 45 113 98 l28 38 16 -35 c52 -109 198 -147 310 -82 56
33 128 114 159 179 33 67 37 102 13 102 -13 0 -25 -17 -41 -57 -62 -153 -192
-247 -286 -208 -78 32 -79 115 -4 413 60 240 76 284 119 336 48 56 103 71 178
50 l38 -10 -33 -22 c-60 -41 -61 -128 -2 -143 39 -10 75 6 102 46 62 92 -38
191 -180 178 -59 -6 -119 -46 -156 -104 -15 -24 -29 -43 -32 -43 -3 0 -14 19
-26 42 -47 96 -175 134 -279 84z"/>
<path d="M15482 2249 c-52 -26 -113 -103 -146 -185 -33 -81 -36 -109 -12 -109
14 0 24 13 36 50 48 141 121 225 194 225 37 0 60 -40 51 -87 -3 -21 -36 -125
-72 -232 -50 -148 -66 -213 -70 -271 -7 -94 13 -162 60 -208 86 -84 249 -81
340 5 32 31 32 30 11 -51 -51 -201 -198 -366 -327 -366 -50 0 -99 21 -125 55
-29 36 -28 45 4 45 35 0 94 59 94 94 0 65 -77 86 -132 37 -31 -27 -33 -34 -33
-93 0 -55 4 -70 28 -101 43 -57 79 -72 173 -72 72 0 87 3 156 37 94 47 200
154 246 249 22 44 65 199 137 486 58 233 105 434 105 448 0 57 -90 59 -115 2
-8 -17 -49 -169 -91 -337 -41 -168 -84 -318 -94 -335 -28 -45 -70 -81 -120
-104 -86 -39 -156 -21 -184 49 -34 87 -15 210 74 460 41 115 50 154 47 189
-12 111 -132 173 -235 120z"/>
<path d="M5219 2084 c-9 -11 -10 -20 -2 -32 9 -16 63 -17 604 -20 327 -1 604
0 617 3 24 6 29 34 10 53 -9 9 -159 12 -614 12 -537 0 -603 -2 -615 -16z"/>
<path d="M8864 1956 c-26 -26 -34 -42 -34 -71 0 -52 53 -105 105 -105 29 0 45
8 71 34 70 70 24 176 -77 176 -22 0 -41 -10 -65 -34z"/>
<path d="M14454 1956 c-26 -26 -34 -42 -34 -71 0 -52 53 -105 105 -105 29 0
45 8 71 34 70 70 24 176 -77 176 -22 0 -41 -10 -65 -34z"/>
<path d="M0 1890 l0 -40 2280 0 2280 0 0 40 0 40 -2280 0 -2280 0 0 -40z"/>
<path d="M5219 1724 c-9 -11 -10 -20 -2 -32 9 -16 63 -17 613 -20 437 -1 607
1 616 9 19 15 18 45 -2 53 -9 3 -285 6 -614 6 -533 0 -599 -2 -611 -16z"/>
<path d="M2045 1388 c-92 -9 -123 -24 -112 -52 5 -11 20 -16 49 -16 67 0 88
-9 88 -36 0 -13 -28 -134 -61 -269 l-61 -245 -28 44 c-82 128 -270 107 -425
-49 -242 -242 -261 -647 -34 -745 96 -41 197 -15 296 77 l51 48 21 -45 c29
-65 78 -95 154 -95 58 0 60 1 102 47 32 36 49 67 69 130 34 109 36 133 12 133
-14 0 -23 -17 -42 -83 -13 -46 -31 -97 -40 -114 -38 -73 -107 -101 -138 -56
-33 46 -20 112 134 724 83 327 148 599 145 604 -7 12 -54 11 -180 -2z m-207
-548 c36 -22 67 -68 82 -119 8 -29 0 -71 -46 -255 -30 -122 -62 -235 -71 -253
-20 -43 -113 -130 -165 -153 -67 -30 -114 -26 -153 13 -73 73 -71 207 6 462
47 155 107 246 193 295 60 35 108 38 154 10z"/>
<path d="M2565 877 c-89 -43 -185 -166 -211 -270 -6 -26 -4 -28 15 -25 16 2
28 18 45 60 77 188 261 283 329 169 29 -49 21 -123 -38 -362 -73 -293 -105
-362 -182 -395 -39 -17 -79 -18 -122 -3 l-32 11 31 19 c50 31 65 94 30 129
-29 29 -74 25 -112 -9 -28 -25 -33 -36 -33 -76 0 -40 5 -51 32 -75 54 -49 142
-63 211 -35 43 19 74 45 113 98 l28 38 16 -35 c52 -109 198 -147 310 -82 56
33 128 114 159 179 33 67 37 102 13 102 -13 0 -25 -17 -41 -57 -62 -153 -192
-247 -286 -208 -78 32 -79 115 -4 413 60 240 76 284 119 336 48 56 103 71 178
50 l38 -10 -33 -22 c-60 -41 -61 -128 -2 -143 39 -10 75 6 102 46 62 92 -38
191 -180 178 -59 -6 -119 -46 -156 -104 -15 -24 -29 -43 -32 -43 -3 0 -14 19
-26 42 -47 96 -175 134 -279 84z"/>
</g>
</svg>
