<?xml version="1.0" standalone="no"?>
<!DOCTYPE svg PUBLIC "-//W3C//DTD SVG 20010904//EN"
 "http://www.w3.org/TR/2001/REC-SVG-20010904/DTD/svg10.dtd">
<svg version="1.0" xmlns="http://www.w3.org/2000/svg"
 width="468pt" height="103pt" viewBox="0 0 468 103"
 preserveAspectRatio="xMidYMid meet">
<metadata>
Created by potrace 1.8, written by Peter Selinger 2001-2007
</metadata>
<g transform="translate(0,103) scale(0.021302,-0.021302)"
fill="#000000" stroke="none">
<path d="M9771 4681 c-331 -330 -556 -746 -690 -1276 -163 -648 -154 -1472 23
-2115 132 -482 382 -925 681 -1208 74 -70 91 -82 121 -82 47 0 45 25 -7 75
-251 243 -490 668 -613 1093 -185 637 -206 1553 -50 2242 116 518 331 943 643
1273 38 40 66 78 64 85 -3 6 -20 12 -38 12 -29 0 -47 -13 -134 -99z"/>
<path d="M12245 4769 c-7 -11 0 -20 103 -132 344 -373 573 -915 661 -1564 55
-401 57 -915 5 -1333 -82 -669 -322 -1233 -689 -1619 -48 -51 -85 -97 -82
-104 2 -7 19 -13 38 -15 33 -3 42 5 145 110 61 62 138 148 172 191 407 513
622 1235 622 2085 0 721 -156 1356 -454 1846 -98 160 -196 286 -330 424 -105
107 -123 122 -152 122 -18 0 -36 -5 -39 -11z"/>
<path d="M18521 4681 c-331 -330 -556 -746 -690 -1276 -163 -648 -154 -1472
23 -2115 132 -482 382 -925 681 -1208 74 -70 91 -82 121 -82 47 0 45 25 -7 75
-251 243 -490 668 -613 1093 -185 637 -206 1553 -50 2242 116 518 331 943 643
1273 38 40 66 78 64 85 -3 6 -20 12 -38 12 -29 0 -47 -13 -134 -99z"/>
<path d="M20995 4769 c-7 -11 0 -20 103 -132 344 -373 573 -915 661 -1564 55
-401 57 -915 5 -1333 -82 -669 -322 -1233 -689 -1619 -48 -51 -85 -97 -82
-104 2 -7 19 -13 38 -15 33 -3 42 5 145 110 61 62 138 148 172 191 407 513
622 1235 622 2085 0 721 -156 1356 -454 1846 -98 160 -196 286 -330 424 -105
107 -123 122 -152 122 -18 0 -36 -5 -39 -11z"/>
<path d="M1549 4678 c-164 -159 -274 -381 -325 -653 -27 -140 -27 -440 0 -580
37 -201 115 -394 212 -525 78 -107 194 -211 194 -174 0 3 -26 36 -57 74 -191
226 -283 524 -283 915 0 389 86 672 276 906 35 43 64 81 64 84 0 18 -35 -2
-81 -47z"/>
<path d="M3947 4724 c-4 -4 14 -30 40 -58 212 -234 318 -592 300 -1011 -17
-374 -112 -646 -298 -849 -52 -57 -51 -83 0 -47 82 58 190 204 257 345 91 192
128 376 128 631 0 392 -109 698 -329 923 -68 69 -84 80 -98 66z"/>
<path d="M835 4608 c-92 -9 -123 -24 -112 -52 5 -11 20 -16 49 -16 67 0 88 -9
88 -36 0 -13 -28 -134 -61 -269 l-61 -245 -28 44 c-82 128 -270 107 -425 -49
-242 -242 -261 -647 -34 -745 96 -41 197 -15 296 77 l51 48 21 -45 c29 -65 78
-95 154 -95 58 0 60 1 102 47 32 36 49 67 69 130 34 109 36 133 12 133 -14 0
-23 -17 -42 -83 -13 -46 -31 -97 -40 -114 -38 -73 -107 -101 -138 -56 -33 46
-20 112 134 724 83 327 148 599 145 604 -7 12 -54 11 -180 -2z m-207 -548 c36
-22 67 -68 82 -119 8 -29 0 -71 -46 -255 -30 -122 -62 -235 -71 -253 -20 -43
-113 -130 -165 -153 -67 -30 -114 -26 -153 13 -73 73 -71 207 6 462 47 155
107 246 193 295 60 35 108 38 154 10z"/>
<path d="M10905 4608 c-92 -9 -123 -24 -112 -52 5 -11 20 -16 49 -16 67 0 88
-9 88 -36 0 -13 -28 -134 -61 -269 l-61 -245 -28 44 c-82 128 -270 107 -425
-49 -242 -242 -261 -647 -34 -745 96 -41 197 -15 296 77 l51 48 21 -45 c29
-65 78 -95 154 -95 58 0 60 1 102 47 32 36 49 67 69 130 34 109 36 133 12 133
-14 0 -23 -17 -42 -83 -13 -46 -31 -97 -40 -114 -38 -73 -107 -101 -138 -56
-33 46 -20 112 134 724 83 327 148 599 145 604 -7 12 -54 11 -180 -2z m-207
-548 c36 -22 67 -68 82 -119 8 -29 0 -71 -46 -255 -30 -122 -62 -235 -71 -253
-20 -43 -113 -130 -165 -153 -67 -30 -114 -26 -153 13 -73 73 -71 207 6 462
47 155 107 246 193 295 60 35 108 38 154 10z"/>
<path d="M19605 4608 c-92 -9 -123 -24 -112 -52 5 -11 20 -16 49 -16 67 0 88
-9 88 -36 0 -13 -28 -134 -61 -269 l-61 -245 -28 44 c-82 128 -270 107 -425
-49 -242 -242 -261 -647 -34 -745 96 -41 197 -15 296 77 l51 48 21 -45 c29
-65 78 -95 154 -95 58 0 60 1 102 47 32 36 49 67 69 130 34 109 36 133 12 133
-14 0 -23 -17 -42 -83 -13 -46 -31 -97 -40 -114 -38 -73 -107 -101 -138 -56
-33 46 -20 112 134 724 83 327 148 599 145 604 -7 12 -54 11 -180 -2z m-207
-548 c36 -22 67 -68 82 -119 8 -29 0 -71 -46 -255 -30 -122 -62 -235 -71 -253
-20 -43 -113 -130 -165 -153 -67 -30 -114 -26 -153 13 -73 73 -71 207 6 462
47 155 107 246 193 295 60 35 108 38 154 10z"/>
<path d="M1960 4098 c-54 -29 -111 -102 -144 -183 -33 -83 -36 -110 -12 -110
14 0 24 13 36 50 48 142 120 225 193 225 66 0 66 -74 2 -255 -93 -262 -112
-372 -79 -468 30 -89 132 -146 242 -135 64 6 115 32 168 85 38 39 45 42 51 26
23 -64 93 -112 163 -113 77 0 132 62 174 198 31 99 32 122 9 122 -14 0 -25
-24 -50 -104 -46 -148 -107 -207 -167 -163 -41 30 -33 91 53 435 45 177 81
332 81 345 0 30 -18 47 -48 47 -63 0 -63 -1 -166 -415 -75 -301 -92 -338 -181
-390 -90 -53 -170 -43 -206 26 -40 80 -20 212 71 469 41 115 50 154 47 189
-12 113 -134 174 -237 119z"/>
<path d="M3072 4099 c-52 -26 -113 -103 -146 -185 -33 -81 -36 -109 -12 -109
14 0 24 13 36 50 48 141 121 225 194 225 16 0 32 -9 42 -25 21 -33 13 -78 -42
-230 -117 -325 -123 -438 -30 -531 67 -67 183 -92 276 -59 125 44 235 208 305
454 31 109 55 240 55 297 0 116 -75 171 -141 105 -39 -40 -38 -73 6 -124 62
-72 70 -152 30 -293 -86 -304 -271 -482 -406 -391 -50 34 -64 69 -63 162 1 93
18 162 82 335 68 184 64 250 -20 313 -40 30 -114 33 -166 6z"/>
<path d="M11322 4099 c-52 -26 -113 -103 -146 -185 -33 -81 -36 -109 -12 -109
14 0 24 13 36 50 48 141 121 225 194 225 16 0 32 -9 42 -25 21 -33 13 -78 -42
-230 -117 -325 -123 -438 -30 -531 67 -67 183 -92 276 -59 125 44 235 208 305
454 31 109 55 240 55 297 0 116 -75 171 -141 105 -39 -40 -38 -73 6 -124 62
-72 70 -152 30 -293 -86 -304 -271 -482 -406 -391 -50 34 -64 69 -63 162 1 93
18 162 82 335 68 184 64 250 -20 313 -40 30 -114 33 -166 6z"/>
<path d="M20020 4098 c-54 -29 -111 -102 -144 -183 -33 -83 -36 -110 -12 -110
14 0 24 13 36 50 48 142 120 225 193 225 66 0 66 -74 2 -255 -93 -262 -112
-372 -79 -468 30 -89 132 -146 242 -135 64 6 115 32 168 85 38 39 45 42 51 26
23 -64 93 -112 163 -113 77 0 132 62 174 198 31 99 32 122 9 122 -14 0 -25
-24 -50 -104 -46 -148 -107 -207 -167 -163 -41 30 -33 91 53 435 45 177 81
332 81 345 0 30 -18 47 -48 47 -63 0 -63 -1 -166 -415 -75 -301 -92 -338 -181
-390 -90 -53 -170 -43 -206 26 -40 80 -20 212 71 469 41 115 50 154 47 189
-12 113 -134 174 -237 119z"/>
<path d="M14772 2998 c-9 -9 -12 -88 -12 -295 l0 -283 -286 -2 c-255 -3 -288
-5 -297 -20 -8 -12 -7 -21 2 -32 12 -14 51 -16 297 -16 l284 0 0 -279 c0 -154
3 -286 6 -295 7 -19 35 -21 52 -4 9 9 12 88 12 295 l0 283 279 0 c154 0 286 3
295 6 9 3 16 16 16 29 0 13 -7 26 -16 29 -9 3 -141 6 -295 6 l-279 0 0 283 c0
283 -3 307 -35 307 -6 0 -16 -5 -23 -12z"/>
<path d="M7340 2748 c-54 -29 -111 -102 -144 -183 -33 -83 -36 -110 -12 -110
14 0 24 13 36 50 48 142 120 225 193 225 66 0 66 -74 2 -255 -93 -262 -112
-372 -79 -468 30 -89 132 -146 242 -135 64 6 115 32 168 85 38 39 45 42 51 26
23 -64 93 -112 163 -113 77 0 132 62 174 198 31 99 32 122 9 122 -14 0 -25
-24 -50 -104 -46 -148 -107 -207 -167 -163 -41 30 -33 91 53 435 45 177 81
332 81 345 0 30 -18 47 -48 47 -63 0 -63 -1 -166 -415 -75 -301 -92 -338 -181
-390 -90 -53 -170 -43 -206 26 -40 80 -20 212 71 469 41 115 50 154 47 189
-12 113 -134 174 -237 119z"/>
<path d="M16182 2749 c-52 -26 -113 -103 -146 -185 -33 -81 -36 -109 -12 -109
14 0 24 13 36 50 48 141 121 225 194 225 16 0 32 -9 42 -25 21 -33 13 -78 -42
-230 -117 -325 -123 -438 -30 -531 67 -67 183 -92 276 -59 125 44 235 208 305
454 31 109 55 240 55 297 0 116 -75 171 -141 105 -39 -40 -38 -73 6 -124 62
-72 70 -152 30 -293 -86 -304 -271 -482 -406 -391 -50 34 -64 69 -63 162 1 93
18 162 82 335 68 184 64 250 -20 313 -40 30 -114 33 -166 6z"/>
<path d="M5219 2584 c-9 -11 -10 -20 -2 -32 9 -16 63 -17 604 -20 327 -1 604
0 617 3 24 6 29 34 10 53 -9 9 -159 12 -614 12 -537 0 -603 -2 -615 -16z"/>
<path d="M10 2390 l0 -40 2275 0 2275 0 0 40 0 40 -2275 0 -2275 0 0 -40z"/>
<path d="M10030 2390 l0 -40 1065 0 1065 0 0 40 0 40 -1065 0 -1065 0 0 -40z"/>
<path d="M18780 2390 l0 -40 1065 0 1065 0 0 40 0 40 -1065 0 -1065 0 0 -40z"/>
<path d="M5219 2224 c-9 -11 -10 -20 -2 -32 9 -16 63 -17 613 -20 437 -1 607
1 616 9 19 15 18 45 -2 53 -9 3 -285 6 -614 6 -533 0 -599 -2 -611 -16z"/>
<path d="M2045 1888 c-92 -9 -123 -24 -112 -52 5 -11 20 -16 49 -16 67 0 88
-9 88 -36 0 -13 -28 -134 -61 -269 l-61 -245 -28 44 c-82 128 -270 107 -425
-49 -242 -242 -261 -647 -34 -745 96 -41 197 -15 296 77 l51 48 21 -45 c29
-65 78 -95 154 -95 58 0 60 1 102 47 32 36 49 67 69 130 34 109 36 133 12 133
-14 0 -23 -17 -42 -83 -13 -46 -31 -97 -40 -114 -38 -73 -107 -101 -138 -56
-33 46 -20 112 134 724 83 327 148 599 145 604 -7 12 -54 11 -180 -2z m-207
-548 c36 -22 67 -68 82 -119 8 -29 0 -71 -46 -255 -30 -122 -62 -235 -71 -253
-20 -43 -113 -130 -165 -153 -67 -30 -114 -26 -153 13 -73 73 -71 207 6 462
47 155 107 246 193 295 60 35 108 38 154 10z"/>
<path d="M10855 1888 c-92 -9 -123 -24 -112 -52 5 -11 20 -16 49 -16 67 0 88
-9 88 -36 0 -13 -28 -134 -61 -269 l-61 -245 -28 44 c-82 128 -270 107 -425
-49 -242 -242 -261 -647 -34 -745 96 -41 197 -15 296 77 l51 48 21 -45 c29
-65 78 -95 154 -95 58 0 60 1 102 47 32 36 49 67 69 130 34 109 36 133 12 133
-14 0 -23 -17 -42 -83 -13 -46 -31 -97 -40 -114 -38 -73 -107 -101 -138 -56
-33 46 -20 112 134 724 83 327 148 599 145 604 -7 12 -54 11 -180 -2z m-207
-548 c36 -22 67 -68 82 -119 8 -29 0 -71 -46 -255 -30 -122 -62 -235 -71 -253
-20 -43 -113 -130 -165 -153 -67 -30 -114 -26 -153 13 -73 73 -71 207 6 462
47 155 107 246 193 295 60 35 108 38 154 10z"/>
<path d="M19605 1888 c-92 -9 -123 -24 -112 -52 5 -11 20 -16 49 -16 67 0 88
-9 88 -36 0 -13 -28 -134 -61 -269 l-61 -245 -28 44 c-82 128 -270 107 -425
-49 -242 -242 -261 -647 -34 -745 96 -41 197 -15 296 77 l51 48 21 -45 c29
-65 78 -95 154 -95 58 0 60 1 102 47 32 36 49 67 69 130 34 109 36 133 12 133
-14 0 -23 -17 -42 -83 -13 -46 -31 -97 -40 -114 -38 -73 -107 -101 -138 -56
-33 46 -20 112 134 724 83 327 148 599 145 604 -7 12 -54 11 -180 -2z m-207
-548 c36 -22 67 -68 82 -119 8 -29 0 -71 -46 -255 -30 -122 -62 -235 -71 -253
-20 -43 -113 -130 -165 -153 -67 -30 -114 -26 -153 13 -73 73 -71 207 6 462
47 155 107 246 193 295 60 35 108 38 154 10z"/>
<path d="M2575 1377 c-89 -43 -185 -166 -211 -270 -6 -26 -4 -28 15 -25 16 2
28 18 45 60 77 188 261 283 329 169 29 -49 21 -123 -38 -362 -73 -293 -105
-362 -182 -395 -39 -17 -79 -18 -122 -3 l-32 11 31 19 c50 31 65 94 30 129
-29 29 -74 25 -112 -9 -28 -25 -33 -36 -33 -76 0 -40 5 -51 32 -75 54 -49 142
-63 211 -35 43 19 74 45 113 98 l28 38 16 -35 c52 -109 198 -147 310 -82 56
33 128 114 159 179 33 67 37 102 13 102 -13 0 -25 -17 -41 -57 -62 -153 -192
-247 -286 -208 -78 32 -79 115 -4 413 60 240 76 284 119 336 48 56 103 71 178
50 l38 -10 -33 -22 c-60 -41 -61 -128 -2 -143 39 -10 75 6 102 46 62 92 -38
191 -180 178 -59 -6 -119 -46 -156 -104 -15 -24 -29 -43 -32 -43 -3 0 -14 19
-26 42 -47 96 -175 134 -279 84z"/>
<path d="M11385 1377 c-89 -43 -185 -166 -211 -270 -6 -26 -4 -28 15 -25 16 2
28 18 45 60 77 188 261 283 329 169 29 -49 21 -123 -38 -362 -73 -293 -105
-362 -182 -395 -39 -17 -79 -18 -122 -3 l-32 11 31 19 c50 31 65 94 30 129
-29 29 -74 25 -112 -9 -28 -25 -33 -36 -33 -76 0 -40 5 -51 32 -75 54 -49 142
-63 211 -35 43 19 74 45 113 98 l28 38 16 -35 c52 -109 198 -147 310 -82 56
33 128 114 159 179 33 67 37 102 13 102 -13 0 -25 -17 -41 -57 -62 -153 -192
-247 -286 -208 -78 32 -79 115 -4 413 60 240 76 284 119 336 48 56 103 71 178
50 l38 -10 -33 -22 c-60 -41 -61 -128 -2 -143 39 -10 75 6 102 46 62 92 -38
191 -180 178 -59 -6 -119 -46 -156 -104 -15 -24 -29 -43 -32 -43 -3 0 -14 19
-26 42 -47 96 -175 134 -279 84z"/>
<path d="M20125 1377 c-89 -43 -185 -166 -211 -270 -6 -26 -4 -28 15 -25 16 2
28 18 45 60 77 188 261 283 329 169 29 -49 21 -123 -38 -362 -73 -293 -105
-362 -182 -395 -39 -17 -79 -18 -122 -3 l-32 11 31 19 c50 31 65 94 30 129
-29 29 -74 25 -112 -9 -28 -25 -33 -36 -33 -76 0 -40 5 -51 32 -75 54 -49 142
-63 211 -35 43 19 74 45 113 98 l28 38 16 -35 c52 -109 198 -147 310 -82 56
33 128 114 159 179 33 67 37 102 13 102 -13 0 -25 -17 -41 -57 -62 -153 -192
-247 -286 -208 -78 32 -79 115 -4 413 60 240 76 284 119 336 48 56 103 71 178
50 l38 -10 -33 -22 c-60 -41 -61 -128 -2 -143 39 -10 75 6 102 46 62 92 -38
191 -180 178 -59 -6 -119 -46 -156 -104 -15 -24 -29 -43 -32 -43 -3 0 -14 19
-26 42 -47 96 -175 134 -279 84z"/>
</g>
</svg>
