<?xml version="1.0" standalone="no"?>
<!DOCTYPE svg PUBLIC "-//W3C//DTD SVG 20010904//EN"
 "http://www.w3.org/TR/2001/REC-SVG-20010904/DTD/svg10.dtd">
<svg version="1.0" xmlns="http://www.w3.org/2000/svg"
 width="468pt" height="48pt" viewBox="0 0 468 48"
 preserveAspectRatio="xMidYMid meet">
<metadata>
Created by potrace 1.8, written by Peter Selinger 2001-2007
</metadata>
<g transform="translate(0,48) scale(0.011468,-0.011468)"
fill="#000000" stroke="none">
<path d="M965 4108 c-92 -9 -123 -24 -112 -52 5 -11 20 -16 49 -16 67 0 88 -9
88 -36 0 -13 -28 -134 -61 -269 l-61 -245 -28 44 c-82 128 -270 107 -425 -49
-242 -242 -261 -647 -34 -745 96 -41 197 -15 296 77 l51 48 21 -45 c29 -65 78
-95 154 -95 58 0 60 1 102 47 32 36 49 67 69 130 34 109 36 133 12 133 -14 0
-23 -17 -42 -83 -13 -46 -31 -97 -40 -114 -38 -73 -107 -101 -138 -56 -33 46
-20 112 134 724 83 327 148 599 145 604 -7 12 -54 11 -180 -2z m-207 -548 c36
-22 67 -68 82 -119 8 -29 0 -71 -46 -255 -30 -122 -62 -235 -71 -253 -20 -43
-113 -130 -165 -153 -67 -30 -114 -26 -153 13 -73 73 -71 207 6 462 47 155
107 246 193 295 60 35 108 38 154 10z"/>
<path d="M1640 3601 c-95 -30 -142 -61 -225 -145 -176 -176 -232 -401 -144
-574 89 -174 298 -212 522 -94 70 36 187 140 187 166 0 35 -25 24 -83 -36 -94
-96 -231 -157 -353 -158 -63 0 -124 37 -153 95 -34 65 -33 180 2 316 49 190
128 313 239 374 44 25 64 30 123 30 75 0 138 -26 163 -66 10 -16 9 -19 -7 -19
-34 0 -72 -23 -87 -51 -19 -38 -18 -65 6 -89 50 -50 138 -1 147 81 16 141
-158 228 -337 170z"/>
<path d="M6555 2766 c-62 -29 -107 -76 -137 -141 -20 -44 -23 -69 -26 -212
l-4 -163 -79 0 c-78 0 -79 0 -79 -25 0 -25 1 -25 80 -25 l80 0 0 -356 c0 -217
-4 -363 -10 -374 -7 -13 -26 -21 -65 -25 -49 -7 -55 -10 -55 -31 l0 -24 200 0
200 0 0 24 c0 21 -5 24 -67 29 -40 4 -73 13 -82 22 -14 14 -16 66 -19 375 l-3
360 116 0 115 0 0 25 0 25 -116 0 -116 0 4 168 c3 147 6 173 26 217 47 102
114 143 187 115 l27 -10 -26 -21 c-32 -25 -35 -70 -6 -99 44 -44 115 -10 113
55 -3 99 -140 147 -258 91z"/>
<path d="M30259 2767 c-78 -27 -138 -66 -174 -113 -46 -60 -55 -104 -55 -260
l0 -144 -80 0 c-79 0 -80 0 -80 -25 0 -25 1 -25 80 -25 l81 0 -3 -365 c-3
-411 4 -380 -85 -391 -47 -6 -53 -9 -53 -30 l0 -24 190 0 190 0 0 24 c0 21 -5
24 -60 30 -44 5 -63 12 -70 26 -6 11 -10 154 -10 374 l0 356 195 0 195 0 0
-356 c0 -217 -4 -363 -10 -374 -7 -13 -26 -21 -65 -25 -49 -7 -55 -10 -55 -31
l0 -24 200 0 200 0 0 24 c0 21 -5 24 -67 29 -40 4 -73 13 -82 22 -14 14 -16
66 -19 375 l-3 360 116 0 115 0 0 25 0 25 -116 0 -116 0 4 168 c4 146 7 173
27 217 45 101 126 150 192 114 20 -10 19 -11 -5 -30 -50 -39 -21 -119 42 -119
39 0 66 32 65 76 -3 99 -143 147 -260 89 -28 -15 -57 -32 -63 -40 -10 -12 -18
-10 -48 14 -21 16 -52 34 -71 40 -57 19 -169 13 -242 -12z m256 -34 c36 -19
37 -21 17 -27 -50 -16 -64 -88 -23 -119 14 -10 16 -33 13 -174 l-3 -163 -194
0 -195 0 0 153 c0 139 2 156 24 203 28 60 94 119 156 139 59 19 155 13 205
-12z"/>
<path d="M35835 2766 c-62 -29 -107 -76 -137 -141 -20 -44 -23 -69 -26 -212
l-4 -163 -79 0 c-78 0 -79 0 -79 -25 0 -25 1 -25 80 -25 l80 0 0 -356 c0 -217
-4 -363 -10 -374 -7 -13 -26 -21 -65 -25 -49 -7 -55 -10 -55 -31 l0 -24 200 0
200 0 0 24 c0 21 -5 24 -67 29 -40 4 -73 13 -82 22 -14 14 -16 66 -19 375 l-3
360 116 0 115 0 0 25 0 25 -116 0 -116 0 4 168 c3 147 6 173 26 217 47 102
114 143 187 115 l27 -10 -26 -21 c-32 -25 -35 -70 -6 -99 44 -44 115 -10 113
55 -3 99 -140 147 -258 91z"/>
<path d="M25610 2764 c-8 -1 -50 -6 -93 -9 -77 -7 -78 -7 -75 -33 3 -23 8 -27
38 -30 65 -5 78 -11 89 -43 8 -22 11 -226 11 -650 0 -553 2 -619 16 -619 8 0
22 17 31 38 8 20 21 52 28 69 l14 33 58 -59 c101 -100 218 -118 357 -53 322
151 327 662 9 819 -50 24 -70 28 -143 28 -98 0 -148 -19 -224 -86 l-46 -41 0
321 0 321 -27 -1 c-16 -1 -35 -3 -43 -5z m430 -564 c105 -54 160 -185 160
-380 0 -222 -77 -365 -217 -406 -103 -30 -197 8 -261 103 l-37 56 -3 237 -3
236 33 49 c82 121 214 163 328 105z"/>
<path d="M26635 2765 c-5 -2 -45 -6 -87 -10 -78 -7 -78 -7 -78 -36 0 -28 2
-29 43 -29 24 0 52 -6 63 -14 18 -14 19 -34 22 -600 2 -385 -1 -593 -8 -605
-7 -14 -26 -22 -65 -26 -49 -7 -55 -10 -55 -31 l0 -24 185 0 185 0 0 24 c0 21
-6 24 -53 30 -90 12 -82 -55 -85 676 l-2 650 -28 -1 c-15 0 -31 -2 -37 -4z"/>
<path d="M29060 2764 c-8 -1 -50 -6 -93 -9 -77 -7 -78 -7 -75 -33 3 -23 8 -27
38 -30 65 -5 78 -11 89 -43 7 -20 11 -124 11 -276 l0 -245 -56 51 c-127 116
-314 106 -455 -26 -62 -57 -94 -107 -120 -180 -77 -224 20 -478 219 -571 47
-22 71 -27 137 -27 96 0 155 25 222 92 l43 42 0 -70 0 -70 113 6 c135 8 139 9
135 37 -3 20 -11 24 -57 30 -29 3 -58 11 -65 18 -8 8 -12 189 -14 660 l-2 650
-28 -1 c-15 -1 -34 -3 -42 -5z m-170 -565 c49 -26 74 -48 104 -93 l26 -39 0
-239 c0 -272 -2 -280 -74 -346 -61 -56 -107 -75 -182 -75 -113 -1 -194 70
-237 207 -18 58 -22 95 -22 201 1 145 15 209 64 286 72 114 211 157 321 98z"/>
<path d="M5043 2696 c-209 -68 -306 -316 -290 -736 10 -258 52 -395 152 -496
98 -100 217 -129 342 -83 179 68 273 292 273 654 0 344 -84 561 -246 641 -66
32 -167 41 -231 20z m145 -28 c70 -18 134 -86 161 -173 32 -103 44 -280 38
-540 -8 -294 -28 -397 -93 -482 -55 -73 -168 -99 -249 -57 -130 67 -174 262
-162 729 6 251 20 338 62 411 31 53 81 95 132 111 50 15 56 15 111 1z"/>
<path d="M24144 2677 c-55 -47 -20 -137 53 -137 39 0 83 37 83 70 0 76 -80
115 -136 67z"/>
<path d="M29504 2677 c-55 -47 -20 -137 53 -137 39 0 83 37 83 70 0 76 -80
115 -136 67z"/>
<path d="M15640 2573 c-1 -169 -90 -319 -200 -338 -25 -4 -40 -12 -40 -21 0
-11 18 -14 84 -14 l85 0 4 -322 c4 -362 6 -376 72 -444 86 -90 228 -84 293 11
36 51 52 120 52 217 0 81 -2 88 -20 88 -19 0 -20 -7 -20 -96 0 -115 -13 -165
-56 -210 -26 -29 -38 -34 -75 -34 -54 0 -82 18 -112 73 -21 41 -22 52 -25 380
l-3 337 140 0 141 0 0 25 0 25 -140 0 -140 0 0 185 c0 178 -1 185 -20 185 -17
0 -20 -7 -20 -47z"/>
<path d="M18220 2573 c-1 -169 -90 -319 -200 -338 -25 -4 -40 -12 -40 -21 0
-11 18 -14 84 -14 l85 0 4 -322 c4 -362 6 -376 72 -444 86 -90 228 -84 293 11
36 51 52 120 52 217 0 81 -2 88 -20 88 -19 0 -20 -7 -20 -96 0 -115 -13 -165
-56 -210 -26 -29 -38 -34 -75 -34 -54 0 -82 18 -112 73 -21 41 -22 52 -25 380
l-3 337 140 0 141 0 0 25 0 25 -140 0 -140 0 0 185 c0 178 -1 185 -20 185 -17
0 -20 -7 -20 -47z"/>
<path d="M34420 2573 c-1 -169 -90 -319 -200 -338 -25 -4 -40 -12 -40 -21 0
-11 18 -14 84 -14 l85 0 4 -322 c4 -362 6 -376 72 -444 86 -90 228 -84 293 11
36 51 52 120 52 217 0 81 -2 88 -20 88 -19 0 -20 -7 -20 -96 0 -115 -13 -165
-56 -210 -26 -29 -38 -34 -75 -34 -54 0 -82 18 -112 73 -21 41 -22 52 -25 380
l-3 337 140 0 141 0 0 25 0 25 -140 0 -140 0 0 185 c0 178 -1 185 -20 185 -17
0 -20 -7 -20 -47z"/>
<path d="M7093 2256 c-129 -42 -230 -149 -279 -296 -26 -77 -24 -225 4 -301
41 -114 117 -200 222 -252 58 -29 74 -32 155 -32 80 0 97 3 157 32 232 109
316 401 186 644 -39 74 -121 153 -195 186 -69 32 -184 41 -250 19z m214 -47
c79 -38 134 -121 154 -234 18 -103 7 -306 -20 -376 -48 -126 -130 -189 -243
-189 -71 0 -113 16 -167 65 -81 74 -119 216 -108 409 9 161 54 260 143 312 82
48 158 52 241 13z"/>
<path d="M9450 2251 c-95 -30 -142 -61 -225 -145 -176 -176 -232 -401 -144
-574 89 -174 298 -212 522 -94 70 36 187 140 187 166 0 35 -25 24 -83 -36 -94
-96 -231 -157 -353 -158 -63 0 -124 37 -153 95 -34 65 -33 180 2 316 49 190
128 313 239 374 44 25 64 30 123 30 75 0 138 -26 163 -66 10 -16 9 -19 -7 -19
-34 0 -72 -23 -87 -51 -19 -38 -18 -65 6 -89 50 -50 138 -1 147 81 16 141
-158 228 -337 170z"/>
<path d="M10740 2261 c-111 -36 -191 -135 -193 -237 0 -55 23 -84 70 -84 40 0
73 30 73 65 0 31 -41 75 -70 75 -26 0 -25 13 4 56 34 50 81 82 142 94 146 30
254 -83 254 -265 l0 -62 -77 -7 c-160 -14 -283 -58 -358 -127 -59 -54 -86
-107 -92 -178 -7 -86 23 -136 112 -181 63 -32 75 -35 159 -35 74 0 98 4 131
22 40 21 88 67 118 112 l16 23 12 -41 c7 -25 28 -55 51 -76 47 -43 106 -48
159 -12 52 34 72 85 73 186 1 74 -1 86 -16 89 -16 3 -18 -5 -18 -71 0 -94 -7
-130 -32 -156 -25 -28 -79 -28 -104 0 -17 19 -19 44 -25 303 -4 196 -9 294
-19 324 -33 104 -148 183 -275 188 -38 2 -81 0 -95 -5z m280 -514 c0 -143 -14
-204 -61 -260 -78 -95 -217 -111 -295 -33 -62 62 -66 155 -10 251 48 81 151
137 284 154 37 5 70 9 75 10 4 0 7 -54 7 -122z"/>
<path d="M12265 2252 c-263 -91 -367 -450 -204 -704 119 -185 370 -235 518
-102 69 62 127 180 94 191 -7 3 -23 -19 -37 -51 -54 -121 -129 -176 -240 -176
-193 0 -315 216 -279 498 27 212 119 322 269 322 73 0 146 -32 192 -84 39 -44
40 -56 7 -56 -34 0 -65 -33 -65 -70 0 -40 31 -70 73 -70 52 0 71 27 65 94 -13
162 -216 269 -393 208z"/>
<path d="M13083 2256 c-129 -42 -230 -149 -279 -296 -26 -77 -24 -225 4 -301
41 -114 117 -200 222 -252 58 -29 74 -32 155 -32 80 0 97 3 157 32 232 109
316 401 186 644 -39 74 -121 153 -195 186 -69 32 -184 41 -250 19z m214 -47
c79 -38 134 -121 154 -234 18 -103 7 -306 -20 -376 -48 -126 -130 -189 -243
-189 -71 0 -113 16 -167 65 -81 74 -119 216 -108 409 9 161 54 260 143 312 82
48 158 52 241 13z"/>
<path d="M14874 2249 c-136 -43 -201 -177 -143 -296 37 -77 120 -120 307 -159
105 -22 162 -56 191 -116 25 -52 27 -95 6 -145 -34 -81 -95 -116 -205 -117
-143 -1 -214 62 -263 234 -17 57 -30 86 -41 88 -14 3 -16 -16 -16 -177 0 -201
5 -213 53 -136 16 25 31 45 34 45 2 0 21 -14 42 -31 95 -76 270 -79 378 -6
116 78 139 258 47 365 -45 53 -113 86 -229 112 -173 38 -236 78 -251 155 -9
51 25 115 79 146 36 21 55 24 138 24 87 0 99 -2 136 -27 49 -32 88 -107 98
-186 6 -42 10 -52 24 -50 14 3 16 22 19 142 3 163 -4 180 -50 123 l-31 -38
-21 20 c-55 52 -192 66 -302 30z"/>
<path d="M16410 2261 c-111 -36 -191 -135 -193 -237 0 -55 23 -84 70 -84 40 0
73 30 73 65 0 31 -41 75 -70 75 -26 0 -25 13 4 56 34 50 81 82 142 94 146 30
254 -83 254 -265 l0 -62 -77 -7 c-160 -14 -283 -58 -358 -127 -59 -54 -86
-107 -92 -178 -7 -86 23 -136 112 -181 63 -32 75 -35 159 -35 74 0 98 4 131
22 40 21 88 67 118 112 l16 23 12 -41 c7 -25 28 -55 51 -76 47 -43 106 -48
159 -12 52 34 72 85 73 186 1 74 -1 86 -16 89 -16 3 -18 -5 -18 -71 0 -94 -7
-130 -32 -156 -25 -28 -79 -28 -104 0 -17 19 -19 44 -25 303 -4 196 -9 294
-19 324 -33 104 -148 183 -275 188 -38 2 -81 0 -95 -5z m280 -514 c0 -143 -14
-204 -61 -260 -78 -95 -217 -111 -295 -33 -62 62 -66 155 -10 251 48 81 151
137 284 154 37 5 70 9 75 10 4 0 7 -54 7 -122z"/>
<path d="M19623 2256 c-129 -42 -230 -149 -279 -296 -26 -77 -24 -225 4 -301
41 -114 117 -200 222 -252 58 -29 74 -32 155 -32 80 0 97 3 157 32 232 109
316 401 186 644 -39 74 -121 153 -195 186 -69 32 -184 41 -250 19z m214 -47
c79 -38 134 -121 154 -234 18 -103 7 -306 -20 -376 -48 -126 -130 -189 -243
-189 -71 0 -113 16 -167 65 -81 74 -119 216 -108 409 9 161 54 260 143 312 82
48 158 52 241 13z"/>
<path d="M22680 2261 c-111 -36 -191 -135 -193 -237 0 -55 23 -84 70 -84 40 0
73 30 73 65 0 31 -41 75 -70 75 -26 0 -25 13 4 56 34 50 81 82 142 94 146 30
254 -83 254 -265 l0 -62 -77 -7 c-160 -14 -283 -58 -358 -127 -59 -54 -86
-107 -92 -178 -7 -86 23 -136 112 -181 63 -32 75 -35 159 -35 74 0 98 4 131
22 40 21 88 67 118 112 l16 23 12 -41 c7 -25 28 -55 51 -76 47 -43 106 -48
159 -12 52 34 72 85 73 186 1 74 -1 86 -16 89 -16 3 -18 -5 -18 -71 0 -94 -7
-130 -32 -156 -25 -28 -79 -28 -104 0 -17 19 -19 44 -25 303 -4 196 -9 294
-19 324 -33 104 -148 183 -275 188 -38 2 -81 0 -95 -5z m280 -514 c0 -143 -14
-204 -61 -260 -78 -95 -217 -111 -295 -33 -62 62 -66 155 -10 251 48 81 151
137 284 154 37 5 70 9 75 10 4 0 7 -54 7 -122z"/>
<path d="M24800 2261 c-111 -36 -191 -135 -193 -237 0 -55 23 -84 70 -84 40 0
73 30 73 65 0 31 -41 75 -70 75 -26 0 -25 13 4 56 34 50 81 82 142 94 146 30
254 -83 254 -265 l0 -62 -77 -7 c-160 -14 -283 -58 -358 -127 -59 -54 -86
-107 -92 -178 -7 -86 23 -136 112 -181 63 -32 75 -35 159 -35 74 0 98 4 131
22 40 21 88 67 118 112 l16 23 12 -41 c7 -25 28 -55 51 -76 47 -43 106 -48
159 -12 52 34 72 85 73 186 1 74 -1 86 -16 89 -16 3 -18 -5 -18 -71 0 -94 -7
-130 -32 -156 -25 -28 -79 -28 -104 0 -17 19 -19 44 -25 303 -4 196 -9 294
-19 324 -33 104 -148 183 -275 188 -38 2 -81 0 -95 -5z m280 -514 c0 -143 -14
-204 -61 -260 -78 -95 -217 -111 -295 -33 -62 62 -66 155 -10 251 48 81 151
137 284 154 37 5 70 9 75 10 4 0 7 -54 7 -122z"/>
<path d="M27223 2250 c-293 -105 -365 -545 -127 -770 81 -77 149 -105 254
-105 102 0 157 22 222 87 67 67 111 169 76 176 -10 2 -18 -2 -18 -8 0 -21 -51
-114 -78 -144 -63 -67 -194 -96 -277 -62 -55 23 -120 91 -148 154 -28 61 -47
157 -47 234 l0 48 293 2 292 3 -3 63 c-7 119 -62 231 -140 286 -82 57 -202 71
-299 36z m197 -35 c33 -17 74 -62 95 -103 18 -37 45 -151 45 -194 l0 -28 -241
0 -241 0 6 48 c23 161 95 267 198 292 39 10 103 3 138 -15z"/>
<path d="M31193 2250 c-293 -105 -365 -545 -127 -770 81 -77 149 -105 254
-105 102 0 157 22 222 87 67 67 111 169 76 176 -10 2 -18 -2 -18 -8 0 -21 -51
-114 -78 -144 -63 -67 -194 -96 -277 -62 -55 23 -120 91 -148 154 -28 61 -47
157 -47 234 l0 48 293 2 292 3 -3 63 c-7 119 -62 231 -140 286 -82 57 -202 71
-299 36z m197 -35 c33 -17 74 -62 95 -103 18 -37 45 -151 45 -194 l0 -28 -241
0 -241 0 6 48 c23 161 95 267 198 292 39 10 103 3 138 -15z"/>
<path d="M32713 2250 c-293 -105 -365 -545 -127 -770 81 -77 149 -105 254
-105 102 0 157 22 222 87 67 67 111 169 76 176 -10 2 -18 -2 -18 -8 0 -21 -51
-114 -78 -144 -63 -67 -194 -96 -277 -62 -55 23 -120 91 -148 154 -28 61 -47
157 -47 234 l0 48 293 2 292 3 -3 63 c-7 119 -62 231 -140 286 -82 57 -202 71
-299 36z m197 -35 c33 -17 74 -62 95 -103 18 -37 45 -151 45 -194 l0 -28 -241
0 -241 0 6 48 c23 161 95 267 198 292 39 10 103 3 138 -15z"/>
<path d="M37083 2256 c-129 -42 -230 -149 -279 -296 -26 -77 -24 -225 4 -301
41 -114 117 -200 222 -252 58 -29 74 -32 155 -32 80 0 97 3 157 32 232 109
316 401 186 644 -39 74 -121 153 -195 186 -69 32 -184 41 -250 19z m214 -47
c79 -38 134 -121 154 -234 18 -103 7 -306 -20 -376 -48 -126 -130 -189 -243
-189 -71 0 -113 16 -167 65 -81 74 -119 216 -108 409 9 161 54 260 143 312 82
48 158 52 241 13z"/>
<path d="M40115 2247 c-89 -43 -185 -166 -211 -270 -6 -26 -4 -28 15 -25 16 2
28 18 45 60 77 188 261 283 329 169 29 -49 21 -123 -38 -362 -73 -293 -105
-362 -182 -395 -39 -17 -79 -18 -122 -3 l-32 11 31 19 c50 31 65 94 30 129
-29 29 -74 25 -112 -9 -28 -25 -33 -36 -33 -76 0 -40 5 -51 32 -75 54 -49 142
-63 211 -35 43 19 74 45 113 98 l28 38 16 -35 c52 -109 198 -147 310 -82 56
33 128 114 159 179 33 67 37 102 13 102 -13 0 -25 -17 -41 -57 -62 -153 -192
-247 -286 -208 -78 32 -79 115 -4 413 60 240 76 284 119 336 48 56 103 71 178
50 l38 -10 -33 -22 c-60 -41 -61 -128 -2 -143 39 -10 75 6 102 46 62 92 -38
191 -180 178 -59 -6 -119 -46 -156 -104 -15 -24 -29 -43 -32 -43 -3 0 -14 19
-26 42 -47 96 -175 134 -279 84z"/>
<path d="M7875 2254 c-11 -2 -50 -6 -87 -9 -63 -6 -68 -8 -68 -30 0 -20 6 -25
38 -30 72 -11 85 -19 94 -53 5 -18 7 -175 6 -348 -3 -354 3 -329 -85 -340 -47
-6 -53 -9 -53 -30 l0 -24 205 0 205 0 0 25 c0 22 -4 25 -37 25 -53 1 -114 16
-125 32 -5 7 -7 123 -5 258 3 221 6 252 26 313 28 87 94 159 160 177 23 6 50
9 58 6 12 -5 12 -9 -1 -28 -34 -48 -4 -108 52 -108 58 0 87 76 46 121 -89 99
-250 47 -324 -104 l-29 -62 -1 108 0 107 -27 -1 c-16 -1 -37 -3 -48 -5z"/>
<path d="M13805 2249 c-97 -10 -105 -13 -105 -38 0 -17 9 -22 51 -27 93 -12
89 3 89 -370 0 -200 -4 -333 -10 -344 -7 -14 -26 -21 -70 -26 -55 -6 -60 -9
-60 -30 l0 -24 190 0 190 0 0 24 c0 21 -6 24 -54 30 -30 4 -60 13 -66 21 -8 9
-10 94 -8 287 l3 273 27 52 c39 73 91 120 154 139 89 26 165 -2 200 -72 17
-35 19 -67 22 -346 2 -205 0 -314 -7 -327 -9 -15 -26 -22 -71 -27 -55 -6 -60
-9 -60 -30 l0 -24 190 0 190 0 0 24 c0 21 -6 24 -54 30 -30 4 -59 13 -64 19
-6 7 -12 135 -15 312 -2 196 -8 313 -16 337 -16 50 -54 94 -105 121 -57 30
-192 31 -251 2 -49 -24 -108 -82 -134 -132 l-20 -38 -1 98 0 97 -27 -1 c-16
-1 -64 -5 -108 -10z"/>
<path d="M17165 2249 c-97 -10 -105 -13 -105 -38 0 -17 9 -22 51 -27 93 -12
89 3 89 -370 0 -200 -4 -333 -10 -344 -7 -14 -26 -21 -70 -26 -55 -6 -60 -9
-60 -30 l0 -24 190 0 190 0 0 24 c0 21 -6 24 -54 30 -30 4 -60 13 -66 21 -8 9
-10 94 -8 287 l3 273 27 52 c39 73 91 120 154 139 89 26 165 -2 200 -72 17
-35 19 -67 22 -346 2 -205 0 -314 -7 -327 -9 -15 -26 -22 -71 -27 -55 -6 -60
-9 -60 -30 l0 -24 190 0 190 0 0 24 c0 21 -6 24 -54 30 -30 4 -59 13 -64 19
-6 7 -12 135 -15 312 -2 196 -8 313 -16 337 -16 50 -54 94 -105 121 -57 30
-192 31 -251 2 -49 -24 -108 -82 -134 -132 l-20 -38 -1 98 0 97 -27 -1 c-16
-1 -64 -5 -108 -10z"/>
<path d="M20405 2254 c-11 -2 -50 -6 -87 -9 -63 -6 -68 -8 -68 -30 0 -20 6
-25 38 -30 72 -11 85 -19 94 -53 5 -18 7 -175 6 -348 -3 -354 3 -329 -85 -340
-47 -6 -53 -9 -53 -30 l0 -24 205 0 205 0 0 25 c0 22 -4 25 -37 25 -53 1 -114
16 -125 32 -5 7 -7 123 -5 258 3 221 6 252 26 313 28 87 94 159 160 177 23 6
50 9 58 6 12 -5 12 -9 -1 -28 -34 -48 -4 -108 52 -108 58 0 87 76 46 121 -89
99 -250 47 -324 -104 l-29 -62 -1 108 0 107 -27 -1 c-16 -1 -37 -3 -48 -5z"/>
<path d="M23485 2254 c-11 -2 -50 -6 -87 -9 -63 -6 -68 -8 -68 -30 0 -20 6
-25 38 -30 72 -11 85 -19 94 -53 5 -18 7 -175 6 -348 -3 -354 3 -329 -85 -340
-47 -6 -53 -9 -53 -30 l0 -24 205 0 205 0 0 25 c0 22 -4 25 -37 25 -53 1 -114
16 -125 32 -5 7 -7 123 -5 258 3 221 6 252 26 313 28 87 94 159 160 177 23 6
50 9 58 6 12 -5 12 -9 -1 -28 -34 -48 -4 -108 52 -108 58 0 87 76 46 121 -89
99 -250 47 -324 -104 l-29 -62 -1 108 0 107 -27 -1 c-16 -1 -37 -3 -48 -5z"/>
<path d="M24140 2249 c-95 -11 -102 -14 -98 -41 2 -19 11 -24 52 -29 31 -3 53
-12 62 -24 11 -15 14 -84 14 -343 0 -196 -4 -331 -10 -342 -7 -13 -26 -21 -65
-25 -49 -7 -55 -10 -55 -31 l0 -24 180 0 180 0 0 24 c0 21 -6 24 -56 31 -46 5
-57 10 -65 31 -5 14 -9 191 -9 405 l0 379 -27 -1 c-16 -1 -62 -5 -103 -10z"/>
<path d="M29500 2249 c-95 -11 -102 -14 -98 -41 2 -19 11 -24 52 -29 31 -3 53
-12 62 -24 11 -15 14 -84 14 -343 0 -196 -4 -331 -10 -342 -7 -13 -26 -21 -65
-25 -49 -7 -55 -10 -55 -31 l0 -24 180 0 180 0 0 24 c0 21 -6 24 -56 31 -46 5
-57 10 -65 31 -5 14 -9 191 -9 405 l0 379 -27 -1 c-16 -1 -62 -5 -103 -10z"/>
<path d="M31895 2254 c-11 -2 -50 -6 -87 -9 -63 -6 -68 -8 -68 -30 0 -20 6
-25 38 -30 72 -11 85 -19 94 -53 5 -18 7 -175 6 -348 -3 -354 3 -329 -85 -340
-47 -6 -53 -9 -53 -30 l0 -24 205 0 205 0 0 25 c0 22 -4 25 -37 25 -53 1 -114
16 -125 32 -5 7 -7 123 -5 258 3 221 6 252 26 313 28 87 94 159 160 177 23 6
50 9 58 6 12 -5 12 -9 -1 -28 -34 -48 -4 -108 52 -108 58 0 87 76 46 121 -89
99 -250 47 -324 -104 l-29 -62 -1 108 0 107 -27 -1 c-16 -1 -37 -3 -48 -5z"/>
<path d="M33365 2249 c-97 -10 -105 -13 -105 -38 0 -17 9 -22 51 -27 93 -12
89 3 89 -370 0 -200 -4 -333 -10 -344 -7 -14 -26 -21 -70 -26 -55 -6 -60 -9
-60 -30 l0 -24 190 0 190 0 0 24 c0 21 -6 24 -54 30 -30 4 -60 13 -66 21 -8 9
-10 94 -8 287 l3 273 27 52 c39 73 91 120 154 139 89 26 165 -2 200 -72 17
-35 19 -67 22 -346 2 -205 0 -314 -7 -327 -9 -15 -26 -22 -71 -27 -55 -6 -60
-9 -60 -30 l0 -24 190 0 190 0 0 24 c0 21 -6 24 -54 30 -30 4 -59 13 -64 19
-6 7 -12 135 -15 312 -2 196 -8 313 -16 337 -16 50 -54 94 -105 121 -57 30
-192 31 -251 2 -49 -24 -108 -82 -134 -132 l-20 -38 -1 98 0 97 -27 -1 c-16
-1 -64 -5 -108 -10z"/>
<path d="M36235 2254 c-11 -2 -50 -6 -87 -9 -63 -6 -68 -8 -68 -30 0 -20 6
-25 38 -30 72 -11 85 -19 94 -53 5 -18 7 -175 6 -348 -3 -354 3 -329 -85 -340
-47 -6 -53 -9 -53 -30 l0 -24 205 0 205 0 0 25 c0 22 -4 25 -37 25 -53 1 -114
16 -125 32 -5 7 -7 123 -5 258 3 221 6 252 26 313 28 87 94 159 160 177 23 6
50 9 58 6 12 -5 12 -9 -1 -28 -34 -48 -4 -108 52 -108 58 0 87 76 46 121 -89
99 -250 47 -324 -104 l-29 -62 -1 108 0 107 -27 -1 c-16 -1 -37 -3 -48 -5z"/>
<path d="M37805 2249 c-97 -10 -105 -13 -105 -38 0 -17 9 -22 51 -27 93 -12
89 3 89 -370 0 -200 -4 -333 -10 -344 -7 -14 -26 -21 -70 -26 -55 -6 -60 -9
-60 -30 l0 -24 190 0 190 0 0 24 c0 21 -6 24 -54 30 -30 4 -60 13 -66 21 -8 9
-10 94 -8 287 l3 273 27 52 c39 73 91 120 154 139 89 26 165 -2 200 -72 17
-35 19 -67 22 -346 2 -205 0 -314 -7 -327 -9 -15 -26 -22 -71 -27 -55 -6 -60
-9 -60 -30 l0 -24 190 0 190 0 0 24 c0 21 -6 24 -54 30 -30 4 -60 13 -66 21
-8 9 -10 94 -8 287 l3 273 27 52 c39 73 91 120 154 139 89 26 165 -2 200 -72
17 -35 19 -67 22 -346 2 -205 0 -314 -7 -327 -9 -15 -26 -22 -71 -27 -55 -6
-60 -9 -60 -30 l0 -24 190 0 190 0 0 24 c0 21 -6 24 -54 30 -30 4 -59 13 -64
19 -6 7 -12 138 -14 317 -3 265 -6 310 -21 345 -37 83 -104 125 -208 133 -118
8 -211 -40 -267 -139 l-28 -48 -11 42 c-26 95 -133 155 -259 144 -103 -8 -185
-64 -237 -162 -16 -29 -16 -28 -17 68 l0 97 -27 -1 c-16 -1 -64 -5 -108 -10z"/>
<path d="M21510 2226 c0 -20 6 -24 48 -30 27 -3 56 -12 65 -19 9 -6 87 -191
174 -410 135 -343 159 -397 176 -395 15 2 49 77 161 358 78 195 150 370 160
388 19 38 63 67 112 77 28 5 34 10 34 30 l0 25 -140 0 -140 0 0 -25 c0 -18 7
-26 25 -31 30 -7 55 -40 55 -71 0 -17 -108 -300 -222 -583 -9 -22 -24 11 -134
285 -68 171 -123 317 -124 326 0 23 18 36 63 44 30 6 37 11 37 31 l0 24 -175
0 -175 0 0 -24z"/>
<path d="M2789 2084 c-9 -11 -10 -20 -2 -32 9 -16 63 -17 604 -20 327 -1 604
0 617 3 24 6 29 34 10 53 -9 9 -159 12 -614 12 -537 0 -603 -2 -615 -16z"/>
<path d="M0 1890 l0 -40 1065 0 1065 0 0 40 0 40 -1065 0 -1065 0 0 -40z"/>
<path d="M2789 1724 c-9 -11 -10 -20 -2 -32 9 -16 63 -17 613 -20 437 -1 607
1 616 9 19 15 18 45 -2 53 -9 3 -285 6 -614 6 -533 0 -599 -2 -611 -16z"/>
<path d="M825 1388 c-92 -9 -123 -24 -112 -52 5 -11 20 -16 49 -16 67 0 88 -9
88 -36 0 -13 -28 -134 -61 -269 l-61 -245 -28 44 c-82 128 -270 107 -425 -49
-242 -242 -261 -647 -34 -745 96 -41 197 -15 296 77 l51 48 21 -45 c29 -65 78
-95 154 -95 58 0 60 1 102 47 32 36 49 67 69 130 34 109 36 133 12 133 -14 0
-23 -17 -42 -83 -13 -46 -31 -97 -40 -114 -38 -73 -107 -101 -138 -56 -33 46
-20 112 134 724 83 327 148 599 145 604 -7 12 -54 11 -180 -2z m-207 -548 c36
-22 67 -68 82 -119 8 -29 0 -71 -46 -255 -30 -122 -62 -235 -71 -253 -20 -43
-113 -130 -165 -153 -67 -30 -114 -26 -153 13 -73 73 -71 207 6 462 47 155
107 246 193 295 60 35 108 38 154 10z"/>
<path d="M1355 877 c-89 -43 -185 -166 -211 -270 -6 -26 -4 -28 15 -25 16 2
28 18 45 60 77 188 261 283 329 169 29 -49 21 -123 -38 -362 -73 -293 -105
-362 -182 -395 -39 -17 -79 -18 -122 -3 l-32 11 31 19 c50 31 65 94 30 129
-29 29 -74 25 -112 -9 -28 -25 -33 -36 -33 -76 0 -40 5 -51 32 -75 54 -49 142
-63 211 -35 43 19 74 45 113 98 l28 38 16 -35 c52 -109 198 -147 310 -82 56
33 128 114 159 179 33 67 37 102 13 102 -13 0 -25 -17 -41 -57 -62 -153 -192
-247 -286 -208 -78 32 -79 115 -4 413 60 240 76 284 119 336 48 56 103 71 178
50 l38 -10 -33 -22 c-60 -41 -61 -128 -2 -143 39 -10 75 6 102 46 62 92 -38
191 -180 178 -59 -6 -119 -46 -156 -104 -15 -24 -29 -43 -32 -43 -3 0 -14 19
-26 42 -47 96 -175 134 -279 84z"/>
</g>
</svg>
