<?xml version="1.0" standalone="no"?>
<!DOCTYPE svg PUBLIC "-//W3C//DTD SVG 20010904//EN"
 "http://www.w3.org/TR/2001/REC-SVG-20010904/DTD/svg10.dtd">
<svg version="1.0" xmlns="http://www.w3.org/2000/svg"
 width="468pt" height="83pt" viewBox="0 0 468 83"
 preserveAspectRatio="xMidYMid meet">
<metadata>
Created by potrace 1.8, written by Peter Selinger 2001-2007
</metadata>
<g transform="translate(0,83) scale(0.230542,-0.230542)"
fill="#000000" stroke="none">
<path d="M944 330 c0 -13 4 -16 10 -10 7 7 7 13 0 20 -6 6 -10 3 -10 -10z"/>
<path d="M1467 343 c-2 -5 0 -21 4 -38 7 -29 7 -29 8 8 1 35 -3 46 -12 30z"/>
<path d="M858 259 c-3 -16 -1 -32 3 -34 4 -3 9 9 11 26 3 16 1 32 -3 34 -4 3
-9 -9 -11 -26z"/>
<path d="M928 283 c6 -2 18 -2 25 0 6 3 1 5 -13 5 -14 0 -19 -2 -12 -5z"/>
<path d="M1383 252 c-1 -37 -1 -37 8 -7 4 16 5 33 1 37 -4 4 -8 -10 -9 -30z"/>
<path d="M571 220 c-1 -3 -3 -29 -4 -58 -2 -46 0 -52 18 -52 13 0 16 3 8 8 -6
4 -13 30 -16 57 -2 28 -4 48 -6 45z"/>
<path d="M1081 178 c-1 -21 -7 -28 -28 -31 l-28 -4 27 -2 c19 -1 28 -7 31 -23
l4 -23 2 23 c1 15 8 22 24 23 l22 2 -22 4 c-14 3 -23 13 -26 31 l-4 27 -2 -27z"/>
<path d="M278 150 c-3 -17 -2 -33 2 -35 3 -2 7 12 8 31 3 42 -4 45 -10 4z"/>
<path d="M7 163 c-4 -3 -7 -16 -6 -27 0 -19 1 -19 10 3 10 24 8 36 -4 24z"/>
<path d="M77 163 c-4 -3 -7 -16 -6 -27 0 -19 1 -19 10 3 10 24 8 36 -4 24z"/>
<path d="M131 163 c0 -6 -4 -20 -7 -30 -5 -14 -4 -15 5 -7 7 7 11 20 8 30 -3
11 -5 14 -6 7z"/>
<path d="M160 162 c0 -4 9 -15 20 -25 14 -11 20 -13 20 -4 0 7 -9 18 -20 25
-11 7 -20 9 -20 4z"/>
<path d="M403 163 c15 -2 39 -2 55 0 15 2 2 4 -28 4 -30 0 -43 -2 -27 -4z"/>
<path d="M858 153 c23 -2 59 -2 80 0 20 2 1 4 -43 4 -44 0 -61 -2 -37 -4z"/>
<path d="M1303 153 c64 -2 170 -2 235 0 64 1 11 3 -118 3 -129 0 -182 -2 -117
-3z"/>
<path d="M683 143 c15 -2 39 -2 55 0 15 2 2 4 -28 4 -30 0 -43 -2 -27 -4z"/>
<path d="M1733 143 c15 -2 39 -2 55 0 15 2 2 4 -28 4 -30 0 -43 -2 -27 -4z"/>
<path d="M403 133 c15 -2 39 -2 55 0 15 2 2 4 -28 4 -30 0 -43 -2 -27 -4z"/>
<path d="M874 95 c-4 -9 -4 -19 0 -22 3 -4 6 1 6 10 0 18 25 23 35 7 3 -5 0
-20 -6 -32 -11 -21 -11 -22 5 -9 23 20 17 55 -12 59 -13 2 -25 -3 -28 -13z"/>
<path d="M1232 73 c-2 -33 -6 -43 -19 -44 -17 -1 -17 -2 0 -6 9 -2 15 -9 12
-14 -4 -5 4 -9 17 -9 18 0 20 2 8 10 -13 9 -13 10 0 10 10 0 11 3 3 8 -6 4
-13 25 -16 47 l-4 40 -1 -42z"/>
<path d="M1429 104 c15 -8 14 -20 -5 -38 -14 -15 -14 -16 0 -16 9 0 16 -8 16
-20 0 -20 -33 -29 -42 -12 -3 4 -4 3 -3 -3 1 -5 11 -11 23 -13 21 -3 48 29 34
43 -4 4 -7 18 -7 32 0 15 -6 27 -13 29 -8 2 -9 1 -3 -2z"/>
<path d="M1620 101 c12 -8 13 -16 3 -43 -11 -30 -11 -31 3 -13 18 24 15 57 -6
62 -13 4 -13 3 0 -6z"/>
<path d="M1315 40 c-3 -5 -1 -10 4 -10 6 0 11 5 11 10 0 6 -2 10 -4 10 -3 0
-8 -4 -11 -10z"/>
<path d="M1510 41 c0 -6 5 -11 10 -11 6 0 10 2 10 4 0 3 -4 8 -10 11 -5 3 -10
1 -10 -4z"/>
<path d="M1610 10 l-25 -8 28 -1 c15 -1 27 4 27 9 0 6 -1 10 -2 9 -2 -1 -14
-5 -28 -9z"/>
<path d="M883 3 c9 -2 25 -2 35 0 9 3 1 5 -18 5 -19 0 -27 -2 -17 -5z"/>
</g>
</svg>
