<?xml version="1.0" standalone="no"?>
<!DOCTYPE svg PUBLIC "-//W3C//DTD SVG 20010904//EN"
 "http://www.w3.org/TR/2001/REC-SVG-20010904/DTD/svg10.dtd">
<svg version="1.0" xmlns="http://www.w3.org/2000/svg"
 width="468pt" height="68pt" viewBox="0 0 468 68"
 preserveAspectRatio="xMidYMid meet">
<metadata>
Created by potrace 1.8, written by Peter Selinger 2001-2007
</metadata>
<g transform="translate(0,68) scale(0.015299,-0.015299)"
fill="#000000" stroke="none">
<path d="M23807 4076 c-114 -178 -207 -333 -207 -345 0 -21 4 -21 180 -21
l180 0 0 -84 c0 -103 -9 -116 -81 -116 -42 0 -49 -3 -49 -20 0 -19 7 -20 171
-20 157 0 170 1 167 18 -2 12 -16 18 -53 22 -28 3 -56 9 -62 13 -9 6 -13 37
-13 98 l0 89 70 0 c63 0 70 2 70 20 0 18 -7 20 -70 20 l-70 0 0 325 c0 264 -2
325 -13 325 -8 0 -107 -146 -220 -324z m150 -323 c-2 -2 -77 -2 -165 -1 l-161
3 162 257 162 256 3 -255 c1 -141 1 -258 -1 -260z"/>
<path d="M12125 4366 c-83 -38 -134 -111 -142 -206 -4 -44 -2 -60 12 -73 46
-46 121 16 86 71 -5 8 -22 17 -39 20 l-31 7 20 45 c11 24 28 53 37 63 29 32
89 57 136 57 120 0 195 -86 196 -222 0 -128 -37 -191 -265 -448 -85 -96 -155
-183 -155 -192 0 -17 18 -18 244 -18 l243 0 17 106 c9 59 15 109 12 111 -12
12 -25 -11 -31 -55 -11 -80 -1 -77 -215 -80 -182 -3 -191 -2 -182 15 6 10 85
91 176 181 177 174 221 228 242 300 31 102 12 184 -61 259 -80 82 -200 106
-300 59z"/>
<path d="M17020 4381 c-97 -32 -160 -103 -160 -180 0 -53 60 -80 93 -43 32 35
18 78 -27 90 l-27 7 21 28 c63 80 226 98 279 30 66 -83 36 -260 -53 -318 -13
-9 -52 -19 -87 -23 -91 -10 -91 -32 1 -32 97 0 141 -24 176 -97 24 -48 26 -62
22 -147 -3 -82 -7 -99 -32 -136 -54 -82 -150 -98 -258 -44 -39 20 -109 90 -97
97 2 1 18 9 34 17 24 13 31 23 33 53 3 32 -1 39 -23 49 -35 16 -77 0 -85 -32
-4 -14 -1 -48 6 -75 9 -39 23 -60 64 -97 63 -59 135 -83 221 -75 226 20 331
281 173 427 -41 37 -64 51 -129 74 -18 7 -17 9 12 21 50 21 120 92 139 141 38
100 1 200 -92 244 -50 25 -160 36 -204 21z"/>
<path d="M11155 3607 c-89 -43 -185 -166 -211 -270 -6 -26 -4 -28 15 -25 16 2
28 18 45 60 77 188 261 283 329 169 29 -49 21 -123 -38 -362 -73 -293 -105
-362 -182 -395 -39 -17 -79 -18 -122 -3 l-32 11 31 19 c50 31 65 94 30 129
-29 29 -74 25 -112 -9 -28 -25 -33 -36 -33 -76 0 -40 5 -51 32 -75 54 -49 142
-63 211 -35 43 19 74 45 113 98 l28 38 16 -35 c52 -109 198 -147 310 -82 56
33 128 114 159 179 33 67 37 102 13 102 -13 0 -25 -17 -41 -57 -62 -153 -192
-247 -286 -208 -78 32 -79 115 -4 413 60 240 76 284 119 336 48 56 103 71 178
50 l38 -10 -33 -22 c-60 -41 -61 -128 -2 -143 39 -10 75 6 102 46 62 92 -38
191 -180 178 -59 -6 -119 -46 -156 -104 -15 -24 -29 -43 -32 -43 -3 0 -14 19
-26 42 -47 96 -175 134 -279 84z"/>
<path d="M16005 3607 c-89 -43 -185 -166 -211 -270 -6 -26 -4 -28 15 -25 16 2
28 18 45 60 77 188 261 283 329 169 29 -49 21 -123 -38 -362 -73 -293 -105
-362 -182 -395 -39 -17 -79 -18 -122 -3 l-32 11 31 19 c50 31 65 94 30 129
-29 29 -74 25 -112 -9 -28 -25 -33 -36 -33 -76 0 -40 5 -51 32 -75 54 -49 142
-63 211 -35 43 19 74 45 113 98 l28 38 16 -35 c52 -109 198 -147 310 -82 56
33 128 114 159 179 33 67 37 102 13 102 -13 0 -25 -17 -41 -57 -62 -153 -192
-247 -286 -208 -78 32 -79 115 -4 413 60 240 76 284 119 336 48 56 103 71 178
50 l38 -10 -33 -22 c-60 -41 -61 -128 -2 -143 39 -10 75 6 102 46 62 92 -38
191 -180 178 -59 -6 -119 -46 -156 -104 -15 -24 -29 -43 -32 -43 -3 0 -14 19
-26 42 -47 96 -175 134 -279 84z"/>
<path d="M22795 3607 c-89 -43 -185 -166 -211 -270 -6 -26 -4 -28 15 -25 16 2
28 18 45 60 77 188 261 283 329 169 29 -49 21 -123 -38 -362 -73 -293 -105
-362 -182 -395 -39 -17 -79 -18 -122 -3 l-32 11 31 19 c50 31 65 94 30 129
-29 29 -74 25 -112 -9 -28 -25 -33 -36 -33 -76 0 -40 5 -51 32 -75 54 -49 142
-63 211 -35 43 19 74 45 113 98 l28 38 16 -35 c52 -109 198 -147 310 -82 56
33 128 114 159 179 33 67 37 102 13 102 -13 0 -25 -17 -41 -57 -62 -153 -192
-247 -286 -208 -78 32 -79 115 -4 413 60 240 76 284 119 336 48 56 103 71 178
50 l38 -10 -33 -22 c-60 -41 -61 -128 -2 -143 39 -10 75 6 102 46 62 92 -38
191 -180 178 -59 -6 -119 -46 -156 -104 -15 -24 -29 -43 -32 -43 -3 0 -14 19
-26 42 -47 96 -175 134 -279 84z"/>
<path d="M1055 2825 c-51 -28 -96 -77 -126 -139 -27 -56 -29 -76 -9 -76 5 0
20 26 35 58 42 91 101 142 165 142 45 0 70 -31 70 -85 0 -51 -71 -349 -96
-401 -23 -49 -69 -84 -109 -84 -59 0 -66 8 -34 40 33 32 36 51 13 74 -22 23
-51 20 -79 -9 -67 -66 18 -152 129 -131 22 4 48 21 74 50 l41 44 19 -32 c53
-89 188 -85 271 9 33 38 70 108 71 133 0 26 -29 10 -40 -22 -16 -48 -65 -113
-103 -136 -42 -26 -98 -26 -121 -1 -32 35 -29 87 14 261 59 237 90 290 169
290 55 0 66 -12 36 -40 -43 -40 -28 -90 26 -90 30 0 69 40 69 71 0 10 -13 33
-28 50 -56 63 -167 46 -219 -33 l-26 -38 -17 32 c-9 18 -29 41 -43 52 -35 26
-114 32 -152 11z"/>
<path d="M4610 2688 c-52 -45 -131 -79 -218 -92 -72 -11 -77 -13 -77 -36 0
-24 3 -25 50 -21 44 3 125 24 178 46 16 7 17 -22 17 -528 0 -303 -4 -546 -9
-560 -12 -32 -27 -37 -138 -44 -89 -6 -93 -7 -93 -30 l0 -23 295 0 295 0 0 25
c0 24 -3 25 -57 26 -77 0 -151 13 -166 28 -9 9 -13 167 -17 623 -3 395 -9 612
-15 614 -5 2 -26 -11 -45 -28z"/>
<path d="M6192 2508 c-9 -9 -12 -88 -12 -295 l0 -283 -286 -2 c-255 -3 -288
-5 -297 -20 -8 -12 -7 -21 2 -32 12 -14 51 -16 297 -16 l284 0 0 -279 c0 -154
3 -286 6 -295 7 -19 35 -21 52 -4 9 9 12 88 12 295 l0 283 279 0 c154 0 286 3
295 6 9 3 16 16 16 29 0 13 -7 26 -16 29 -9 3 -141 6 -295 6 l-279 0 0 283 c0
283 -3 307 -35 307 -6 0 -16 -5 -23 -12z"/>
<path d="M9622 2508 c-9 -9 -12 -88 -12 -295 l0 -283 -286 -2 c-255 -3 -288
-5 -297 -20 -8 -12 -7 -21 2 -32 12 -14 51 -16 297 -16 l284 0 0 -279 c0 -154
3 -286 6 -295 7 -19 35 -21 52 -4 9 9 12 88 12 295 l0 283 279 0 c154 0 286 3
295 6 9 3 16 16 16 29 0 13 -7 26 -16 29 -9 3 -141 6 -295 6 l-279 0 0 283 c0
283 -3 307 -35 307 -6 0 -16 -5 -23 -12z"/>
<path d="M13712 2508 c-9 -9 -12 -88 -12 -295 l0 -283 -286 -2 c-255 -3 -288
-5 -297 -20 -8 -12 -7 -21 2 -32 12 -14 51 -16 297 -16 l284 0 0 -279 c0 -154
3 -286 6 -295 7 -19 35 -21 52 -4 9 9 12 88 12 295 l0 283 279 0 c154 0 286 3
295 6 9 3 16 16 16 29 0 13 -7 26 -16 29 -9 3 -141 6 -295 6 l-279 0 0 283 c0
283 -3 307 -35 307 -6 0 -16 -5 -23 -12z"/>
<path d="M19322 2508 c-9 -9 -12 -88 -12 -295 l0 -283 -286 -2 c-255 -3 -288
-5 -297 -20 -8 -12 -7 -21 2 -32 12 -14 51 -16 297 -16 l284 0 0 -279 c0 -154
3 -286 6 -295 7 -19 35 -21 52 -4 9 9 12 88 12 295 l0 283 279 0 c154 0 286 3
295 6 9 3 16 16 16 29 0 13 -7 26 -16 29 -9 3 -141 6 -295 6 l-279 0 0 283 c0
283 -3 307 -35 307 -6 0 -16 -5 -23 -12z"/>
<path d="M27292 2508 c-9 -9 -12 -88 -12 -295 l0 -283 -286 -2 c-255 -3 -288
-5 -297 -20 -8 -12 -7 -21 2 -32 12 -14 51 -16 297 -16 l284 0 0 -279 c0 -154
3 -286 6 -295 7 -19 35 -21 52 -4 9 9 12 88 12 295 l0 283 279 0 c154 0 286 3
295 6 21 8 21 50 0 58 -9 3 -141 6 -295 6 l-279 0 0 283 c0 283 -3 307 -35
307 -6 0 -16 -5 -23 -12z"/>
<path d="M411 2264 c-86 -23 -171 -74 -242 -145 -229 -228 -207 -626 40 -720
71 -27 186 -22 276 11 141 53 303 195 255 225 -5 3 -38 -24 -73 -59 -93 -95
-232 -156 -354 -156 -124 0 -190 128 -163 315 20 138 6 125 129 125 260 1 407
67 442 200 17 65 5 114 -39 158 -61 61 -156 77 -271 46z m178 -40 c94 -37 104
-156 20 -236 -56 -54 -142 -78 -301 -85 l-127 -6 6 24 c11 48 72 165 107 206
83 96 201 135 295 97z"/>
<path d="M7715 2257 c-89 -43 -185 -166 -211 -270 -6 -26 -4 -28 15 -25 16 2
28 18 45 60 77 188 261 283 329 169 29 -49 21 -123 -38 -362 -73 -293 -105
-362 -182 -395 -39 -17 -79 -18 -122 -3 l-32 11 31 19 c50 31 65 94 30 129
-29 29 -74 25 -112 -9 -28 -25 -33 -36 -33 -76 0 -40 5 -51 32 -75 54 -49 142
-63 211 -35 43 19 74 45 113 98 l28 38 16 -35 c52 -109 198 -147 310 -82 56
33 128 114 159 179 33 67 37 102 13 102 -13 0 -25 -17 -41 -57 -62 -153 -192
-247 -286 -208 -78 32 -79 115 -4 413 60 240 76 284 119 336 48 56 103 71 178
50 l38 -10 -33 -22 c-60 -41 -61 -128 -2 -143 39 -10 75 6 102 46 62 92 -38
191 -180 178 -59 -6 -119 -46 -156 -104 -15 -24 -29 -43 -32 -43 -3 0 -14 19
-26 42 -47 96 -175 134 -279 84z"/>
<path d="M2249 2094 c-9 -11 -10 -20 -2 -32 9 -16 63 -17 604 -20 327 -1 604
0 617 3 24 6 29 34 10 53 -9 9 -159 12 -614 12 -537 0 -603 -2 -615 -16z"/>
<path d="M10810 1900 l0 -40 880 0 880 0 0 40 0 40 -880 0 -880 0 0 -40z"/>
<path d="M14910 1900 l0 -40 1635 0 1635 0 0 40 0 40 -1635 0 -1635 0 0 -40z"/>
<path d="M20520 1900 l0 -40 2810 0 2810 0 0 40 0 40 -2810 0 -2810 0 0 -40z"/>
<path d="M2249 1734 c-9 -11 -10 -20 -2 -32 9 -16 63 -17 613 -20 437 -1 607
1 616 9 19 15 18 45 -2 53 -9 3 -285 6 -614 6 -533 0 -599 -2 -611 -16z"/>
<path d="M28668 1560 c-27 -27 -30 -36 -25 -72 7 -52 33 -78 85 -85 36 -5 45
-2 72 25 41 42 42 92 1 133 -41 41 -91 40 -133 -1z"/>
<path d="M29548 1560 c-27 -27 -30 -36 -25 -72 7 -52 33 -78 85 -85 36 -5 45
-2 72 25 41 42 42 92 1 133 -41 41 -91 40 -133 -1z"/>
<path d="M30418 1560 c-27 -27 -30 -36 -25 -72 7 -52 33 -78 85 -85 36 -5 45
-2 72 25 41 42 42 92 1 133 -41 41 -91 40 -133 -1z"/>
<path d="M20856 891 c-188 -298 -296 -479 -296 -495 l0 -26 255 0 255 0 0
-130 c0 -151 2 -148 -111 -157 -64 -5 -69 -8 -69 -29 l0 -24 240 0 240 0 0 24
c0 22 -5 24 -72 30 -106 10 -108 13 -108 163 l0 123 100 0 c100 0 100 0 100
25 0 25 0 25 -100 25 l-100 0 -2 467 c-3 423 -5 468 -19 471 -12 2 -97 -124
-313 -467z m221 -468 c-2 -2 -110 -2 -239 -1 l-235 3 236 377 236 377 3 -376
c1 -207 1 -378 -1 -380z"/>
<path d="M11573 1336 c-136 -43 -237 -177 -250 -331 -4 -51 -2 -64 17 -87 16
-22 30 -28 59 -28 49 0 81 32 81 82 0 42 -36 78 -76 78 -71 0 34 173 134 221
62 30 158 31 222 2 176 -78 223 -325 104 -542 -50 -90 -95 -146 -334 -418
-143 -161 -210 -245 -210 -260 l0 -23 350 0 350 0 5 23 c5 22 45 272 45 282 0
3 -8 5 -18 5 -15 0 -20 -14 -31 -75 -20 -123 -1 -116 -316 -113 l-270 3 258
259 c142 143 276 286 297 319 108 161 104 361 -10 490 -88 101 -277 153 -407
113z"/>
<path d="M15248 1331 c-101 -33 -161 -82 -197 -161 -22 -48 -27 -110 -11 -140
15 -28 67 -43 99 -27 41 19 55 58 37 101 -14 34 -23 39 -79 48 -29 5 44 83
107 115 55 28 155 41 221 29 46 -9 110 -66 127 -114 20 -59 14 -187 -12 -257
-43 -112 -128 -175 -240 -175 -59 0 -90 -9 -90 -26 0 -11 21 -14 93 -14 100
-1 149 -14 201 -54 74 -56 118 -214 97 -353 -24 -164 -111 -253 -245 -253
-119 0 -252 69 -303 158 l-25 42 30 0 c46 0 86 39 86 83 0 93 -124 117 -160
31 -13 -31 -13 -42 1 -96 19 -74 43 -114 95 -162 167 -151 443 -137 590 30
174 198 85 492 -174 575 l-68 22 38 15 c142 56 239 188 239 328 0 61 -4 77
-30 119 -79 128 -266 187 -427 136z"/>
<path d="M17603 1336 c-136 -43 -237 -177 -250 -331 -4 -51 -2 -64 17 -87 16
-22 30 -28 59 -28 49 0 81 32 81 82 0 42 -36 78 -76 78 -71 0 34 173 134 221
62 30 158 31 222 2 176 -78 223 -325 104 -542 -50 -90 -95 -146 -334 -418
-143 -161 -210 -245 -210 -260 l0 -23 350 0 350 0 5 23 c5 22 45 272 45 282 0
3 -8 5 -18 5 -15 0 -20 -14 -31 -75 -20 -123 -1 -116 -316 -113 l-270 3 258
259 c142 143 276 286 297 319 108 161 104 361 -10 490 -88 101 -277 153 -407
113z"/>
<path d="M23218 1331 c-101 -33 -161 -82 -197 -161 -22 -48 -27 -110 -11 -140
15 -28 67 -43 99 -27 41 19 55 58 37 101 -14 34 -23 39 -79 48 -29 5 44 83
107 115 55 28 155 41 221 29 46 -9 110 -66 127 -114 20 -59 14 -187 -12 -257
-43 -112 -128 -175 -240 -175 -59 0 -90 -9 -90 -26 0 -11 21 -14 93 -14 100
-1 149 -14 201 -54 74 -56 118 -214 97 -353 -24 -164 -111 -253 -245 -253
-119 0 -252 69 -303 158 l-25 42 30 0 c46 0 86 39 86 83 0 93 -124 117 -160
31 -13 -31 -13 -42 1 -96 19 -74 43 -114 95 -162 167 -151 443 -137 590 30
174 198 85 492 -174 575 l-68 22 38 15 c142 56 239 188 239 328 0 61 -4 77
-30 119 -79 128 -266 187 -427 136z"/>
<path d="M25563 1336 c-136 -43 -237 -177 -250 -331 -4 -51 -2 -64 17 -87 16
-22 30 -28 59 -28 49 0 81 32 81 82 0 42 -36 78 -76 78 -71 0 34 173 134 221
62 30 158 31 222 2 176 -78 223 -325 104 -542 -50 -90 -95 -146 -334 -418
-143 -161 -210 -245 -210 -260 l0 -23 350 0 350 0 5 23 c5 22 45 272 45 282 0
3 -8 5 -18 5 -15 0 -20 -14 -31 -75 -20 -123 -1 -116 -316 -113 l-270 3 258
259 c142 143 276 286 297 319 108 161 104 361 -10 490 -88 101 -277 153 -407
113z"/>
<path d="M16474 596 c-26 -26 -34 -42 -34 -71 0 -52 53 -105 105 -105 29 0 45
8 71 34 70 70 24 176 -77 176 -22 0 -41 -10 -65 -34z"/>
<path d="M22084 596 c-26 -26 -34 -42 -34 -71 0 -52 53 -105 105 -105 29 0 45
8 71 34 70 70 24 176 -77 176 -22 0 -41 -10 -65 -34z"/>
<path d="M24434 596 c-26 -26 -34 -42 -34 -71 0 -52 53 -105 105 -105 29 0 45
8 71 34 70 70 24 176 -77 176 -22 0 -41 -10 -65 -34z"/>
</g>
</svg>
