<?xml version="1.0" standalone="no"?>
<!DOCTYPE svg PUBLIC "-//W3C//DTD SVG 20010904//EN"
 "http://www.w3.org/TR/2001/REC-SVG-20010904/DTD/svg10.dtd">
<svg version="1.0" xmlns="http://www.w3.org/2000/svg"
 width="468pt" height="119pt" viewBox="0 0 468 119"
 preserveAspectRatio="xMidYMid meet">
<metadata>
Created by potrace 1.8, written by Peter Selinger 2001-2007
</metadata>
<g transform="translate(0,119) scale(0.329577,-0.329577)"
fill="#000000" stroke="none">
<path d="M124 330 c0 -13 4 -16 10 -10 7 7 7 13 0 20 -6 6 -10 3 -10 -10z"/>
<path d="M74 313 c0 -10 -3 -36 -7 -58 -4 -25 -3 -32 2 -20 13 33 23 95 14 95
-5 0 -9 -8 -9 -17z"/>
<path d="M592 279 c-17 -70 -9 -73 10 -4 8 30 12 55 8 55 -3 0 -12 -23 -18
-51z"/>
<path d="M30 275 c-6 -8 -10 -21 -8 -31 2 -11 7 -6 15 15 13 34 11 38 -7 16z"/>
<path d="M108 283 c6 -2 18 -2 25 0 6 3 1 5 -13 5 -14 0 -19 -2 -12 -5z"/>
<path d="M175 260 c-4 -17 -5 -34 -2 -36 2 -3 7 10 11 27 8 42 0 50 -9 9z"/>
<path d="M211 254 c-6 -21 -9 -40 -6 -42 2 -2 8 13 14 34 6 21 9 40 6 42 -2 2
-8 -13 -14 -34z"/>
<path d="M636 264 c-4 -14 -5 -28 -3 -31 3 -2 8 8 11 23 4 14 5 28 3 31 -3 2
-8 -8 -11 -23z"/>
<path d="M671 249 c-7 -22 -10 -43 -7 -46 2 -3 10 14 16 37 15 55 7 63 -9 9z"/>
<path d="M547 273 c-4 -3 -7 -16 -6 -27 0 -19 1 -19 10 3 10 24 8 36 -4 24z"/>
<path d="M923 208 c0 -7 -4 -29 -8 -49 -4 -20 -3 -39 2 -42 4 -3 8 5 9 16 0
12 4 37 8 55 4 18 4 32 -2 32 -5 0 -9 -6 -9 -12z"/>
<path d="M1315 165 c0 -29 3 -51 8 -48 4 2 7 24 7 48 0 24 -3 46 -7 48 -5 3
-8 -19 -8 -48z"/>
<path d="M1277 203 c-9 -9 -9 -71 1 -76 4 -3 7 15 7 39 0 24 0 44 -1 44 0 0
-4 -3 -7 -7z"/>
<path d="M460 165 c-6 -8 -10 -21 -8 -31 2 -11 7 -6 15 15 13 34 11 38 -7 16z"/>
<path d="M501 166 c-1 -11 2 -17 5 -13 3 3 4 12 1 19 -3 8 -6 5 -6 -6z"/>
<path d="M995 150 c-4 -17 -5 -34 -2 -36 2 -3 7 10 11 27 8 42 0 50 -9 9z"/>
<path d="M1036 168 c-3 -7 -9 -29 -15 -48 -7 -19 -7 -30 -2 -25 10 11 32 85
25 85 -3 0 -6 -6 -8 -12z"/>
<path d="M1365 150 c-4 -17 -5 -34 -2 -36 2 -3 7 10 11 27 8 42 0 50 -9 9z"/>
<path d="M1406 168 c-3 -7 -9 -29 -15 -48 -7 -19 -7 -30 -2 -25 10 11 32 85
25 85 -3 0 -6 -6 -8 -12z"/>
<path d="M961 163 c0 -6 -4 -20 -7 -30 -5 -14 -4 -15 5 -7 7 7 11 20 8 30 -3
11 -5 14 -6 7z"/>
<path d="M1133 163 c15 -2 39 -2 55 0 15 2 2 4 -28 4 -30 0 -43 -2 -27 -4z"/>
<path d="M63 153 c31 -2 83 -2 115 0 31 2 5 3 -58 3 -63 0 -89 -1 -57 -3z"/>
<path d="M567 153 c23 -2 64 -2 90 0 26 2 8 3 -42 3 -49 0 -71 -1 -48 -3z"/>
<path d="M313 143 c15 -2 39 -2 55 0 15 2 2 4 -28 4 -30 0 -43 -2 -27 -4z"/>
<path d="M783 143 c15 -2 39 -2 55 0 15 2 2 4 -28 4 -30 0 -43 -2 -27 -4z"/>
<path d="M491 126 c-1 -11 2 -17 5 -13 3 3 4 12 1 19 -3 8 -6 5 -6 -6z"/>
<path d="M1133 133 c15 -2 39 -2 55 0 15 2 2 4 -28 4 -30 0 -43 -2 -27 -4z"/>
<path d="M194 100 c0 -13 4 -16 10 -10 7 7 7 13 0 20 -6 6 -10 3 -10 -10z"/>
<path d="M84 93 c0 -10 -3 -36 -7 -58 l-6 -40 14 40 c16 46 18 75 7 75 -4 0
-8 -8 -8 -17z"/>
<path d="M610 90 c0 -11 -3 -20 -7 -20 -5 0 -9 -16 -10 -36 -2 -46 1 -42 20
24 9 28 12 52 6 52 -5 0 -9 -9 -9 -20z"/>
<path d="M121 54 c-15 -61 -8 -68 9 -9 7 25 10 48 8 51 -3 2 -11 -16 -17 -42z"/>
<path d="M656 92 c-8 -14 -20 -98 -12 -91 6 6 26 99 20 99 -1 0 -5 -4 -8 -8z"/>
<path d="M37 53 c-4 -3 -7 -16 -6 -27 0 -19 1 -19 10 3 10 24 8 36 -4 24z"/>
<path d="M178 53 c6 -2 18 -2 25 0 6 3 1 5 -13 5 -14 0 -19 -2 -12 -5z"/>
<path d="M557 53 c-4 -3 -7 -16 -6 -27 0 -19 1 -19 10 3 10 24 8 36 -4 24z"/>
</g>
</svg>
