<?xml version="1.0" standalone="no"?>
<!DOCTYPE svg PUBLIC "-//W3C//DTD SVG 20010904//EN"
 "http://www.w3.org/TR/2001/REC-SVG-20010904/DTD/svg10.dtd">
<svg version="1.0" xmlns="http://www.w3.org/2000/svg"
 width="468pt" height="65pt" viewBox="0 0 468 65"
 preserveAspectRatio="xMidYMid meet">
<metadata>
Created by potrace 1.8, written by Peter Selinger 2001-2007
</metadata>
<g transform="translate(0,65) scale(0.179310,-0.179310)"
fill="#000000" stroke="none">
<path d="M1034 330 c0 -13 4 -16 10 -10 7 7 7 13 0 20 -6 6 -10 3 -10 -10z"/>
<path d="M2047 343 c-2 -5 0 -21 4 -38 7 -29 7 -29 8 8 1 35 -3 46 -12 30z"/>
<path d="M1469 338 c-5 -9 -4 -56 1 -52 5 6 8 54 3 54 -2 0 -4 -1 -4 -2z"/>
<path d="M953 252 c-1 -37 -1 -37 8 -7 4 16 5 33 1 37 -4 4 -8 -10 -9 -30z"/>
<path d="M1018 283 c6 -2 18 -2 25 0 6 3 1 5 -13 5 -14 0 -19 -2 -12 -5z"/>
<path d="M1378 259 c-3 -16 -1 -32 3 -34 4 -3 9 9 11 26 3 16 1 32 -3 34 -4 3
-9 -9 -11 -26z"/>
<path d="M1963 252 c-1 -37 -1 -37 8 -7 4 16 5 33 1 37 -4 4 -8 -10 -9 -30z"/>
<path d="M100 211 c0 -11 -6 -22 -12 -24 -8 -3 -6 -6 5 -6 12 -1 17 7 17 24 0
14 -2 25 -5 25 -3 0 -5 -9 -5 -19z"/>
<path d="M380 210 c-10 -6 -11 -10 -2 -10 7 0 12 -15 12 -39 0 -22 -5 -42 -12
-44 -7 -3 -4 -6 7 -6 18 -1 20 4 17 42 -5 66 -5 68 -22 57z"/>
<path d="M521 178 c-1 -21 -6 -28 -23 -29 l-23 -2 23 -4 c14 -3 22 -12 23 -26
2 -22 2 -22 6 1 3 14 12 22 26 23 l22 2 -22 4 c-14 3 -23 13 -26 31 l-4 27 -2
-27z"/>
<path d="M801 178 c-1 -21 -6 -28 -23 -29 l-23 -2 23 -4 c14 -3 22 -12 23 -26
2 -22 2 -22 6 1 3 14 12 22 26 23 l22 2 -22 4 c-14 3 -23 13 -26 31 l-4 27 -2
-27z"/>
<path d="M1171 178 c-1 -21 -6 -28 -23 -29 l-23 -2 23 -4 c14 -3 22 -12 23
-26 2 -22 2 -22 6 1 3 14 12 22 26 23 l22 2 -22 4 c-14 3 -23 13 -26 31 l-4
27 -2 -27z"/>
<path d="M1661 178 c-1 -21 -7 -28 -28 -31 l-28 -4 27 -2 c19 -1 28 -7 31 -23
l4 -23 2 23 c1 15 8 22 24 23 l22 2 -22 4 c-14 3 -23 13 -26 31 l-4 27 -2 -27z"/>
<path d="M2341 178 c-1 -21 -7 -28 -28 -31 l-28 -4 27 -2 c19 -1 28 -7 31 -23
l4 -23 2 23 c1 15 8 22 24 23 l22 2 -22 4 c-14 3 -23 13 -26 31 l-4 27 -2 -27z"/>
<path d="M658 149 c-3 -16 -1 -32 3 -34 4 -3 9 9 11 26 3 16 1 32 -3 34 -4 3
-9 -9 -11 -26z"/>
<path d="M17 163 c-9 -9 -9 -41 1 -46 4 -3 7 8 7 24 0 16 0 29 -1 29 0 0 -4
-3 -7 -7z"/>
<path d="M223 163 c15 -2 39 -2 55 0 15 2 2 4 -28 4 -30 0 -43 -2 -27 -4z"/>
<path d="M953 153 c20 -2 54 -2 75 0 20 2 3 4 -38 4 -41 0 -58 -2 -37 -4z"/>
<path d="M1348 153 c40 -2 103 -2 140 0 37 2 4 3 -73 3 -77 0 -107 -2 -67 -3z"/>
<path d="M1883 153 c64 -2 170 -2 235 0 64 1 11 3 -118 3 -129 0 -182 -2 -117
-3z"/>
<path d="M223 133 c15 -2 39 -2 55 0 15 2 2 4 -28 4 -30 0 -43 -2 -27 -4z"/>
<path d="M995 97 c18 -14 19 -18 6 -39 -13 -21 -13 -22 3 -9 22 19 17 55 -9
59 -20 4 -20 4 0 -11z"/>
<path d="M1295 99 c-4 -6 -4 -13 -1 -16 3 -4 6 -1 6 5 0 7 7 12 15 12 8 0 15
-7 15 -16 0 -8 4 -13 10 -9 5 3 7 12 3 20 -6 17 -39 20 -48 4z"/>
<path d="M1518 103 c9 -3 12 -14 9 -30 -3 -16 -1 -21 5 -15 14 14 6 47 -12 48
-11 1 -11 0 -2 -3z"/>
<path d="M1812 73 c-2 -33 -6 -43 -19 -44 -17 -1 -17 -2 0 -6 9 -2 15 -9 12
-14 -4 -5 4 -9 17 -9 18 0 20 2 8 10 -13 9 -13 10 0 10 10 0 11 3 3 8 -6 4
-13 25 -16 47 l-4 40 -1 -42z"/>
<path d="M1975 99 c-4 -6 -4 -13 -1 -16 3 -4 6 -1 6 5 0 7 7 12 15 12 8 0 15
-7 15 -16 0 -8 4 -13 10 -9 5 3 7 12 3 20 -6 17 -39 20 -48 4z"/>
<path d="M2200 101 c12 -8 13 -16 3 -43 -11 -30 -11 -31 3 -13 18 24 15 57 -6
62 -13 4 -13 3 0 -6z"/>
<path d="M1481 86 c-1 -11 2 -17 5 -13 3 3 4 12 1 19 -3 8 -6 5 -6 -6z"/>
<path d="M1318 54 c17 -8 15 -44 -2 -44 -8 0 -16 3 -18 8 -3 4 -4 3 -3 -3 1
-5 13 -10 26 -10 19 0 24 5 24 25 0 17 -6 25 -20 27 -11 2 -14 0 -7 -3z"/>
<path d="M1998 54 c17 -8 15 -44 -2 -44 -8 0 -16 3 -18 8 -3 4 -4 3 -3 -3 1
-5 13 -10 26 -10 19 0 24 5 24 25 0 17 -6 25 -20 27 -11 2 -14 0 -7 -3z"/>
<path d="M1410 41 c0 -6 5 -11 10 -11 6 0 10 2 10 4 0 3 -4 8 -10 11 -5 3 -10
1 -10 -4z"/>
<path d="M1895 40 c-3 -5 -1 -10 4 -10 6 0 11 5 11 10 0 6 -2 10 -4 10 -3 0
-8 -4 -11 -10z"/>
<path d="M2090 41 c0 -6 5 -11 10 -11 6 0 10 2 10 4 0 3 -4 8 -10 11 -5 3 -10
1 -10 -4z"/>
<path d="M985 10 l-30 -8 33 -1 c17 0 32 4 32 9 0 6 -1 9 -2 9 -2 -1 -16 -5
-33 -9z"/>
<path d="M1483 8 c-2 -5 10 -8 26 -8 17 0 31 3 31 8 0 4 -12 7 -26 7 -14 0
-28 -3 -31 -7z"/>
<path d="M2190 10 l-25 -8 28 -1 c15 -1 27 4 27 9 0 6 -1 10 -2 9 -2 -1 -14
-5 -28 -9z"/>
</g>
</svg>
