<?xml version="1.0" standalone="no"?>
<!DOCTYPE svg PUBLIC "-//W3C//DTD SVG 20010904//EN"
 "http://www.w3.org/TR/2001/REC-SVG-20010904/DTD/svg10.dtd">
<svg version="1.0" xmlns="http://www.w3.org/2000/svg"
 width="468pt" height="502pt" viewBox="0 0 468 502"
 preserveAspectRatio="xMidYMid meet">
<metadata>
Created by potrace 1.8, written by Peter Selinger 2001-2007
</metadata>
<g transform="translate(0,502) scale(0.550588,-0.550588)"
fill="#000000" stroke="none">
<path d="M656 863 c-4 -21 -10 -46 -13 -57 -3 -11 -1 -16 5 -12 5 3 13 22 16
42 4 19 10 42 13 50 3 8 1 14 -5 14 -5 0 -13 -17 -16 -37z"/>
<path d="M715 875 c0 -13 3 -21 8 -18 4 2 7 10 7 18 0 8 -3 16 -7 18 -5 3 -8
-5 -8 -18z"/>
<path d="M26 834 c-4 -14 -5 -28 -3 -31 3 -2 8 8 11 23 4 14 5 28 3 31 -3 2
-8 -8 -11 -23z"/>
<path d="M65 830 c-4 -17 -5 -34 -2 -36 3 -3 8 9 12 26 4 17 5 34 2 36 -3 3
-8 -9 -12 -26z"/>
<path d="M470 830 c-7 -17 -10 -33 -8 -36 3 -2 11 9 18 26 7 17 10 33 8 36 -3
2 -11 -9 -18 -26z"/>
<path d="M115 814 c-9 -50 0 -53 13 -4 5 22 6 40 2 40 -4 0 -11 -16 -15 -36z"/>
<path d="M293 843 c15 -2 39 -2 55 0 15 2 2 4 -28 4 -30 0 -43 -2 -27 -4z"/>
<path d="M523 810 c-5 -22 -7 -40 -2 -40 9 0 24 68 17 75 -2 2 -9 -13 -15 -35z"/>
<path d="M156 825 c-3 -9 -6 -26 -5 -38 1 -14 4 -9 9 13 9 37 7 52 -4 25z"/>
<path d="M702 815 c0 -16 2 -24 5 -18 2 7 2 21 0 30 -3 10 -5 5 -5 -12z"/>
<path d="M293 813 c15 -2 39 -2 55 0 15 2 2 4 -28 4 -30 0 -43 -2 -27 -4z"/>
<path d="M562 790 c0 -14 2 -19 5 -12 2 6 2 18 0 25 -3 6 -5 1 -5 -13z"/>
<path d="M622 649 c-17 -70 -9 -73 10 -4 8 30 12 55 8 55 -3 0 -12 -23 -18
-51z"/>
<path d="M665 630 c-4 -17 -5 -34 -2 -36 3 -3 8 9 12 26 4 17 5 34 2 36 -3 3
-8 -9 -12 -26z"/>
<path d="M577 643 c-4 -3 -7 -16 -6 -27 0 -19 1 -19 10 3 10 24 8 36 -4 24z"/>
<path d="M723 600 c-5 -22 -7 -40 -4 -40 4 0 12 18 18 40 5 22 7 40 4 40 -4 0
-12 -18 -18 -40z"/>
<path d="M484 535 c-5 -30 -7 -55 -3 -55 3 0 9 13 12 29 3 16 9 40 13 55 3 14
2 26 -3 26 -5 0 -13 -25 -19 -55z"/>
<path d="M35 520 c-4 -17 -5 -34 -2 -36 2 -3 7 10 11 27 8 42 0 50 -9 9z"/>
<path d="M75 520 c-4 -17 -5 -34 -2 -36 2 -3 7 10 11 27 8 42 0 50 -9 9z"/>
<path d="M127 503 c-9 -51 -2 -53 11 -3 5 22 6 40 2 40 -4 0 -10 -17 -13 -37z"/>
<path d="M293 533 c15 -2 39 -2 55 0 15 2 2 4 -28 4 -30 0 -43 -2 -27 -4z"/>
<path d="M617 513 c29 -2 78 -2 110 0 32 2 9 3 -52 3 -60 0 -87 -1 -58 -3z"/>
<path d="M293 503 c15 -2 39 -2 55 0 15 2 2 4 -28 4 -30 0 -43 -2 -27 -4z"/>
<path d="M525 490 c-3 -5 -1 -10 4 -10 6 0 11 5 11 10 0 6 -2 10 -4 10 -3 0
-8 -4 -11 -10z"/>
<path d="M664 463 c0 -10 -3 -36 -7 -58 l-6 -40 14 40 c16 46 18 75 7 75 -4 0
-8 -8 -8 -17z"/>
<path d="M701 424 c-15 -61 -8 -68 9 -9 7 25 10 48 8 51 -3 2 -11 -16 -17 -42z"/>
<path d="M617 423 c-4 -3 -7 -16 -6 -27 0 -19 1 -19 10 3 10 24 8 36 -4 24z"/>
<path d="M644 313 c0 -10 -3 -36 -7 -58 l-6 -40 14 40 c16 46 18 75 7 75 -4 0
-8 -8 -8 -17z"/>
<path d="M685 260 c-4 -17 -5 -34 -2 -36 2 -3 7 10 11 27 8 42 0 50 -9 9z"/>
<path d="M725 260 c-4 -17 -5 -34 -2 -36 2 -3 7 10 11 27 8 42 0 50 -9 9z"/>
<path d="M597 273 c-4 -3 -7 -16 -6 -27 0 -19 1 -19 10 3 10 24 8 36 -4 24z"/>
<path d="M764 245 c-3 -8 -4 -20 -2 -27 3 -7 7 -1 10 15 6 29 1 36 -8 12z"/>
<path d="M482 197 c-27 -28 -28 -60 -4 -78 14 -11 15 -11 5 1 -19 20 -16 44 8
74 25 32 20 34 -9 3z"/>
<path d="M553 205 c-3 -9 -3 -18 -1 -21 3 -3 8 4 11 16 6 23 -1 27 -10 5z"/>
<path d="M60 150 c-7 -17 -10 -33 -8 -36 3 -2 11 9 18 26 7 17 10 33 8 36 -3
2 -11 -9 -18 -26z"/>
<path d="M293 163 c15 -2 39 -2 55 0 15 2 2 4 -28 4 -30 0 -43 -2 -27 -4z"/>
<path d="M643 153 c37 -2 97 -2 135 0 37 2 6 3 -68 3 -74 0 -105 -1 -67 -3z"/>
<path d="M104 135 c-3 -8 -4 -20 -2 -27 3 -7 7 -1 10 15 6 29 1 36 -8 12z"/>
<path d="M293 133 c15 -2 39 -2 55 0 15 2 2 4 -28 4 -30 0 -43 -2 -27 -4z"/>
<path d="M702 59 c-17 -70 -9 -73 10 -4 8 30 12 55 8 55 -3 0 -12 -23 -18 -51z"/>
<path d="M741 54 c-15 -61 -8 -68 9 -9 7 25 10 48 8 51 -3 2 -11 -16 -17 -42z"/>
<path d="M657 53 c-4 -3 -7 -16 -6 -27 0 -19 1 -19 10 3 10 24 8 36 -4 24z"/>
</g>
</svg>
