<?xml version="1.0" standalone="no"?>
<!DOCTYPE svg PUBLIC "-//W3C//DTD SVG 20010904//EN"
 "http://www.w3.org/TR/2001/REC-SVG-20010904/DTD/svg10.dtd">
<svg version="1.0" xmlns="http://www.w3.org/2000/svg"
 width="468pt" height="96pt" viewBox="0 0 468 96"
 preserveAspectRatio="xMidYMid meet">
<metadata>
Created by potrace 1.8, written by Peter Selinger 2001-2007
</metadata>
<g transform="translate(0,96) scale(0.281928,-0.281928)"
fill="#000000" stroke="none">
<path d="M641 340 c-1 -3 -3 -29 -4 -58 -2 -46 0 -52 18 -52 13 0 16 3 8 8 -6
4 -13 30 -16 57 -2 28 -4 48 -6 45z"/>
<path d="M930 330 c-10 -6 -11 -10 -2 -10 7 0 12 -15 12 -39 0 -22 -5 -42 -12
-44 -7 -3 -4 -6 7 -6 18 -1 20 4 17 42 -5 66 -5 68 -22 57z"/>
<path d="M1230 330 c-10 -6 -11 -10 -2 -10 7 0 12 -15 12 -39 0 -22 -5 -42
-12 -44 -7 -3 -4 -6 7 -6 18 -1 20 4 17 42 -5 66 -5 68 -22 57z"/>
<path d="M32 293 c10 -2 28 -2 40 0 13 2 5 4 -17 4 -22 1 -32 -1 -23 -4z"/>
<path d="M62 255 c0 -16 2 -24 5 -18 2 7 2 21 0 30 -3 10 -5 5 -5 -12z"/>
<path d="M26 243 c-6 -14 -5 -15 5 -6 7 7 10 15 7 18 -3 3 -9 -2 -12 -12z"/>
<path d="M350 220 c-10 -6 -11 -10 -2 -10 7 0 12 -15 12 -39 0 -22 -5 -42 -12
-44 -7 -3 -4 -6 7 -6 18 -1 20 4 17 42 -5 66 -5 68 -22 57z"/>
<path d="M791 188 c-1 -21 -6 -28 -23 -29 l-23 -2 23 -4 c14 -3 22 -12 23 -26
2 -22 2 -22 6 1 3 14 12 22 26 23 l22 2 -22 4 c-14 3 -23 13 -26 31 l-4 27 -2
-27z"/>
<path d="M1381 188 c-1 -21 -6 -28 -23 -29 l-23 -2 23 -4 c14 -3 22 -12 23
-26 2 -22 2 -22 6 1 3 14 12 22 26 23 l22 2 -22 4 c-14 3 -23 13 -26 31 l-4
27 -2 -27z"/>
<path d="M193 173 c15 -2 39 -2 55 0 15 2 2 4 -28 4 -30 0 -43 -2 -27 -4z"/>
<path d="M33 153 c15 -2 37 -2 50 0 12 2 0 4 -28 4 -27 0 -38 -2 -22 -4z"/>
<path d="M473 153 c15 -2 39 -2 55 0 15 2 2 4 -28 4 -30 0 -43 -2 -27 -4z"/>
<path d="M622 153 c10 -2 28 -2 40 0 13 2 5 4 -17 4 -22 1 -32 -1 -23 -4z"/>
<path d="M922 153 c10 -2 28 -2 40 0 13 2 5 4 -17 4 -22 1 -32 -1 -23 -4z"/>
<path d="M1063 153 c15 -2 39 -2 55 0 15 2 2 4 -28 4 -30 0 -43 -2 -27 -4z"/>
<path d="M1212 153 c10 -2 28 -2 40 0 13 2 5 4 -17 4 -22 1 -32 -1 -23 -4z"/>
<path d="M193 143 c15 -2 39 -2 55 0 15 2 2 4 -28 4 -30 0 -43 -2 -27 -4z"/>
<path d="M59 109 c-1 -8 0 -26 1 -41 1 -20 -4 -27 -22 -31 l-23 -4 23 -2 c13
0 20 -5 17 -11 -3 -5 0 -10 8 -10 10 0 13 12 9 53 -4 51 -11 75 -13 46z"/>
<path d="M650 110 c12 -8 13 -13 2 -30 -7 -12 -8 -20 -2 -20 5 0 10 -9 10 -20
0 -22 -25 -27 -34 -7 -4 7 -5 6 -3 -3 2 -8 13 -16 25 -18 27 -4 40 23 24 49
-7 11 -8 20 -2 24 14 9 0 35 -19 35 -14 0 -14 -2 -1 -10z"/>
<path d="M921 87 c1 -23 3 -26 6 -10 2 12 12 23 21 25 13 3 12 5 -5 10 -21 5
-23 3 -22 -25z"/>
<path d="M1210 108 c0 -4 14 -8 30 -8 17 0 30 2 30 4 0 2 -13 6 -30 8 -16 3
-30 1 -30 -4z"/>
<path d="M958 51 c3 -22 0 -30 -14 -34 -16 -3 -16 -4 1 -3 22 1 34 41 18 57
-6 6 -8 -2 -5 -20z"/>
<path d="M1232 30 c0 -14 2 -19 5 -12 2 6 2 18 0 25 -3 6 -5 1 -5 -13z"/>
</g>
</svg>
