<?xml version="1.0" standalone="no"?>
<!DOCTYPE svg PUBLIC "-//W3C//DTD SVG 20010904//EN"
 "http://www.w3.org/TR/2001/REC-SVG-20010904/DTD/svg10.dtd">
<svg version="1.0" xmlns="http://www.w3.org/2000/svg"
 width="468pt" height="90pt" viewBox="0 0 468 90"
 preserveAspectRatio="xMidYMid meet">
<metadata>
Created by potrace 1.8, written by Peter Selinger 2001-2007
</metadata>
<g transform="translate(0,90) scale(0.264407,-0.264407)"
fill="#000000" stroke="none">
<path d="M761 340 c-1 -3 -3 -29 -4 -58 -2 -46 0 -52 18 -52 13 0 16 3 8 8 -6
4 -13 30 -16 57 -2 28 -4 48 -6 45z"/>
<path d="M1050 330 c-10 -6 -11 -10 -2 -10 7 0 12 -15 12 -39 0 -22 -5 -42
-12 -44 -7 -3 -4 -6 7 -6 18 -1 20 4 17 42 -5 66 -5 68 -22 57z"/>
<path d="M1351 340 c-1 -3 -3 -29 -4 -58 -2 -46 0 -52 18 -52 13 0 16 3 8 8
-6 4 -13 30 -16 57 -2 28 -4 48 -6 45z"/>
<path d="M11 178 c0 -32 2 -58 7 -58 4 0 6 19 4 43 -5 70 -10 76 -11 15z"/>
<path d="M198 223 c9 -3 12 -14 9 -30 -3 -16 -1 -21 5 -15 14 14 6 47 -12 48
-11 1 -11 0 -2 -3z"/>
<path d="M470 220 c-10 -6 -11 -10 -2 -10 7 0 12 -15 12 -39 0 -22 -5 -42 -12
-44 -7 -3 -4 -6 7 -6 18 -1 20 4 17 42 -5 66 -5 68 -22 57z"/>
<path d="M161 206 c-1 -11 2 -17 5 -13 3 3 4 12 1 19 -3 8 -6 5 -6 -6z"/>
<path d="M911 188 c-1 -21 -6 -28 -23 -29 l-23 -2 23 -4 c14 -3 22 -12 23 -26
2 -22 2 -22 6 1 3 14 12 22 26 23 l22 2 -22 4 c-14 3 -23 13 -26 31 l-4 27 -2
-27z"/>
<path d="M1501 188 c-1 -21 -6 -28 -23 -29 l-23 -2 23 -4 c14 -3 22 -12 23
-26 2 -22 2 -22 6 1 3 14 12 22 26 23 l22 2 -22 4 c-14 3 -23 13 -26 31 l-4
27 -2 -27z"/>
<path d="M55 155 c0 -19 5 -35 10 -35 7 0 9 15 7 35 -2 19 -7 35 -11 35 -3 0
-6 -16 -6 -35z"/>
<path d="M98 150 c-3 -19 0 -30 7 -30 7 0 10 11 7 30 -2 17 -5 30 -7 30 -2 0
-5 -13 -7 -30z"/>
<path d="M313 173 c15 -2 39 -2 55 0 15 2 2 4 -28 4 -30 0 -43 -2 -27 -4z"/>
<path d="M593 153 c15 -2 39 -2 55 0 15 2 2 4 -28 4 -30 0 -43 -2 -27 -4z"/>
<path d="M742 153 c10 -2 28 -2 40 0 13 2 5 4 -17 4 -22 1 -32 -1 -23 -4z"/>
<path d="M1038 153 c12 -2 32 -2 45 0 12 2 2 4 -23 4 -25 0 -35 -2 -22 -4z"/>
<path d="M1183 153 c15 -2 39 -2 55 0 15 2 2 4 -28 4 -30 0 -43 -2 -27 -4z"/>
<path d="M1332 153 c10 -2 28 -2 40 0 13 2 5 4 -17 4 -22 1 -32 -1 -23 -4z"/>
<path d="M313 143 c15 -2 39 -2 55 0 15 2 2 4 -28 4 -30 0 -43 -2 -27 -4z"/>
<path d="M163 128 c-2 -5 10 -8 26 -8 17 0 31 3 31 8 0 4 -12 7 -26 7 -14 0
-28 -3 -31 -7z"/>
<path d="M744 105 c-4 -9 -4 -19 0 -22 3 -4 6 1 6 10 0 18 25 23 35 7 3 -5 0
-20 -6 -32 -11 -21 -11 -22 5 -9 23 20 17 55 -12 59 -13 2 -25 -3 -28 -13z"/>
<path d="M1035 109 c-4 -6 -4 -13 -1 -16 3 -4 6 -1 6 5 0 7 7 12 15 12 8 0 15
-7 15 -16 0 -8 4 -13 10 -9 5 3 7 12 3 20 -6 17 -39 20 -48 4z"/>
<path d="M1362 83 c-2 -33 -6 -43 -19 -44 -17 -1 -17 -2 0 -6 9 -2 15 -9 12
-14 -4 -5 4 -9 17 -9 18 0 20 2 8 10 -13 9 -13 10 0 10 10 0 11 3 3 8 -6 4
-13 25 -16 47 l-4 40 -1 -42z"/>
<path d="M1058 64 c17 -8 15 -44 -2 -44 -8 0 -16 3 -18 8 -3 4 -4 3 -3 -3 1
-5 13 -10 26 -10 19 0 24 5 24 25 0 17 -6 25 -20 27 -11 2 -14 0 -7 -3z"/>
<path d="M753 13 c9 -2 25 -2 35 0 9 3 1 5 -18 5 -19 0 -27 -2 -17 -5z"/>
</g>
</svg>
