<?xml version="1.0" standalone="no"?>
<!DOCTYPE svg PUBLIC "-//W3C//DTD SVG 20010904//EN"
 "http://www.w3.org/TR/2001/REC-SVG-20010904/DTD/svg10.dtd">
<svg version="1.0" xmlns="http://www.w3.org/2000/svg"
 width="468pt" height="187pt" viewBox="0 0 468 187"
 preserveAspectRatio="xMidYMid meet">
<metadata>
Created by potrace 1.8, written by Peter Selinger 2001-2007
</metadata>
<g transform="translate(0,187) scale(0.380488,-0.380488)"
fill="#000000" stroke="none">
<path d="M771 453 c-1 -6 -4 -20 -7 -30 -5 -17 -5 -17 6 0 6 10 9 23 6 30 -3
9 -5 9 -5 0z"/>
<path d="M670 355 c0 -3 19 -30 41 -60 l41 -55 -28 -36 c-65 -82 -69 -75 41
-72 90 3 98 5 106 25 7 20 6 21 -19 7 -16 -8 -56 -14 -96 -14 l-70 0 30 33
c60 65 60 61 19 117 l-37 50 69 0 c47 0 76 -5 92 -16 22 -16 23 -16 12 5 -11
19 -20 21 -106 21 -52 0 -95 -2 -95 -5z"/>
<path d="M445 311 c-3 -5 -1 -12 5 -16 5 -3 10 1 10 9 0 18 -6 21 -15 7z"/>
<path d="M1150 300 c0 -11 -3 -20 -7 -20 -5 0 -9 -16 -10 -36 -2 -46 1 -42 20
24 9 28 12 52 6 52 -5 0 -9 -9 -9 -20z"/>
<path d="M367 292 c-22 -24 -22 -56 0 -73 15 -13 15 -12 3 7 -11 18 -10 26 3
53 18 36 17 38 -6 13z"/>
<path d="M1190 270 c-6 -23 -9 -47 -7 -53 2 -7 9 10 15 38 13 61 7 72 -8 15z"/>
<path d="M20 287 c0 -10 11 -22 26 -27 18 -7 24 -15 20 -26 -3 -8 -2 -12 4 -9
17 11 11 34 -12 46 -13 7 -26 17 -30 23 -5 7 -8 4 -8 -7z"/>
<path d="M561 278 c-1 -21 -6 -28 -23 -29 l-23 -2 23 -4 c14 -3 22 -12 23 -26
2 -22 2 -22 6 1 3 14 12 22 26 23 l22 2 -22 4 c-14 3 -23 13 -26 31 l-4 27 -2
-27z"/>
<path d="M953 242 c-1 -37 -1 -37 8 -7 4 16 5 33 1 37 -4 4 -8 -10 -9 -30z"/>
<path d="M213 263 c15 -2 39 -2 55 0 15 2 2 4 -28 4 -30 0 -43 -2 -27 -4z"/>
<path d="M1097 263 c-4 -3 -7 -16 -6 -27 0 -19 1 -19 10 3 10 24 8 36 -4 24z"/>
<path d="M6 223 c-6 -14 -5 -15 5 -6 7 7 10 15 7 18 -3 3 -9 -2 -12 -12z"/>
<path d="M106 225 c-3 -9 -6 -22 -5 -28 0 -7 5 -1 10 12 5 13 8 26 5 28 -2 2
-6 -3 -10 -12z"/>
<path d="M213 233 c15 -2 39 -2 55 0 15 2 2 4 -28 4 -30 0 -43 -2 -27 -4z"/>
<path d="M843 55 c-1 -22 1 -32 4 -23 2 10 2 28 0 40 -2 13 -4 5 -4 -17z"/>
<path d="M700 28 c0 -9 -6 -19 -12 -21 -10 -4 -10 -6 0 -6 14 -1 28 26 18 36
-3 4 -6 -1 -6 -9z"/>
</g>
</svg>
