<?xml version="1.0" standalone="no"?>
<!DOCTYPE svg PUBLIC "-//W3C//DTD SVG 20010904//EN"
 "http://www.w3.org/TR/2001/REC-SVG-20010904/DTD/svg10.dtd">
<svg version="1.0" xmlns="http://www.w3.org/2000/svg"
 width="468pt" height="106pt" viewBox="0 0 468 106"
 preserveAspectRatio="xMidYMid meet">
<metadata>
Created by potrace 1.8, written by Peter Selinger 2001-2007
</metadata>
<g transform="translate(0,106) scale(0.022170,-0.022170)"
fill="#000000" stroke="none">
<path d="M18205 4726 c-83 -38 -134 -111 -142 -206 -4 -44 -2 -60 12 -73 46
-46 121 16 86 71 -5 8 -22 17 -39 20 l-31 7 20 45 c11 24 28 53 37 63 29 32
89 57 136 57 120 0 195 -86 196 -222 0 -128 -37 -191 -265 -448 -85 -96 -155
-183 -155 -192 0 -17 18 -18 244 -18 l243 0 17 106 c9 59 15 109 12 111 -12
12 -25 -11 -31 -55 -11 -80 -1 -77 -215 -80 -182 -3 -191 -2 -182 15 6 10 85
91 176 181 177 174 221 228 242 300 31 102 12 184 -61 259 -80 82 -200 106
-300 59z"/>
<path d="M8999 4548 c-122 -118 -215 -271 -273 -449 -56 -172 -71 -278 -71
-494 0 -215 15 -322 70 -491 60 -184 146 -328 267 -446 50 -50 88 -72 88 -52
0 3 -26 36 -57 74 -191 226 -283 524 -283 915 0 389 86 672 276 906 35 43 64
81 64 84 0 18 -35 -2 -81 -47z"/>
<path d="M17397 4594 c-4 -4 14 -30 40 -58 212 -234 318 -592 300 -1011 -17
-374 -112 -646 -298 -849 -52 -57 -51 -83 0 -47 82 58 190 204 257 345 91 192
128 376 128 631 0 392 -109 698 -329 923 -68 69 -84 80 -98 66z"/>
<path d="M9901 4495 c-85 -24 -151 -64 -227 -140 -81 -80 -120 -151 -137 -248
-20 -118 31 -237 127 -296 18 -11 102 -39 187 -62 174 -47 218 -66 248 -107
98 -139 3 -386 -184 -478 -55 -27 -69 -29 -165 -29 -86 0 -114 4 -152 22 -141
64 -190 167 -165 346 8 53 7 57 -12 57 -15 0 -23 -10 -30 -37 -52 -196 -109
-439 -105 -445 11 -17 26 -5 82 66 l59 74 39 -41 c72 -74 193 -113 324 -104
213 15 405 185 456 404 29 124 -1 238 -82 313 -53 48 -52 48 -246 101 -84 22
-167 50 -185 60 -20 12 -43 41 -59 75 -23 46 -26 63 -21 111 12 112 96 227
207 281 65 32 184 42 256 22 60 -17 126 -77 154 -142 21 -46 24 -69 23 -165
-1 -102 1 -113 17 -113 15 0 28 40 78 240 39 156 56 243 49 247 -10 6 -41 -24
-104 -101 l-32 -40 -40 46 c-55 62 -123 90 -226 95 -50 2 -100 -3 -134 -12z"/>
<path d="M16001 4495 c-85 -24 -151 -64 -227 -140 -81 -80 -120 -151 -137
-248 -20 -118 31 -237 127 -296 18 -11 102 -39 187 -62 174 -47 218 -66 248
-107 98 -139 3 -386 -184 -478 -55 -27 -69 -29 -165 -29 -86 0 -114 4 -152 22
-141 64 -190 167 -165 346 8 53 7 57 -12 57 -15 0 -23 -10 -30 -37 -52 -196
-109 -439 -105 -445 11 -17 26 -5 82 66 l59 74 39 -41 c72 -74 193 -113 324
-104 213 15 405 185 456 404 29 124 -1 238 -82 313 -53 48 -52 48 -246 101
-84 22 -167 50 -185 60 -20 12 -43 41 -59 75 -23 46 -26 63 -21 111 12 112 96
227 207 281 65 32 184 42 256 22 60 -17 126 -77 154 -142 21 -46 24 -69 23
-165 -1 -102 1 -113 17 -113 15 0 28 40 78 240 39 156 56 243 49 247 -10 6
-41 -24 -104 -101 l-32 -40 -40 46 c-55 62 -123 90 -226 95 -50 2 -100 -3
-134 -12z"/>
<path d="M12525 3708 c-28 -29 -91 -56 -152 -64 -43 -5 -53 -10 -53 -25 0 -12
7 -19 18 -19 19 0 106 22 135 35 16 7 17 -15 17 -379 0 -442 9 -406 -99 -406
-54 0 -61 -2 -61 -20 0 -19 7 -20 206 -20 190 0 205 1 202 18 -3 14 -17 18
-76 22 -50 3 -76 10 -82 20 -6 9 -10 189 -10 438 0 447 0 447 -45 400z"/>
<path d="M13456 3634 c-9 -8 -16 -19 -16 -24 0 -5 7 -16 16 -24 14 -14 79 -16
601 -14 545 3 587 4 597 21 8 12 8 22 0 35 -10 16 -52 17 -597 20 -522 2 -587
0 -601 -14z"/>
<path d="M11677 3594 c-4 -4 -7 -99 -7 -211 l0 -203 -204 0 c-207 0 -221 -2
-209 -37 4 -10 54 -13 209 -13 l204 0 2 -202 c3 -195 4 -203 23 -203 19 0 20
8 23 202 l2 203 203 2 c194 3 202 4 202 23 0 19 -8 20 -202 23 l-203 2 -2 208
c-3 177 -5 207 -18 210 -9 1 -19 0 -23 -4z"/>
<path d="M10501 3404 c-31 -28 -81 -141 -81 -184 0 -41 27 -19 39 33 24 93 59
147 96 147 30 0 45 -19 45 -55 0 -17 -27 -139 -59 -270 -60 -246 -63 -275 -23
-275 40 0 51 25 102 230 52 208 71 254 129 308 70 65 164 82 200 36 36 -46 25
-122 -48 -341 -23 -67 -38 -129 -35 -140 20 -63 56 -93 111 -93 59 0 128 66
158 149 32 92 6 97 -30 6 -40 -98 -127 -158 -154 -107 -12 23 -10 35 46 207
74 226 69 316 -20 358 -77 37 -168 16 -243 -54 l-52 -50 -7 29 c-9 42 -55 83
-102 89 -34 4 -45 1 -72 -23z"/>
<path d="M16601 3404 c-31 -28 -81 -141 -81 -184 0 -41 27 -19 39 33 24 93 59
147 96 147 30 0 45 -19 45 -55 0 -17 -27 -139 -59 -270 -60 -246 -63 -275 -23
-275 40 0 51 25 102 230 52 208 71 254 129 308 70 65 164 82 200 36 36 -46 25
-122 -48 -341 -23 -67 -38 -129 -35 -140 20 -63 56 -93 111 -93 59 0 128 66
158 149 32 92 6 97 -30 6 -40 -98 -127 -158 -154 -107 -12 23 -10 35 46 207
74 226 69 316 -20 358 -77 37 -168 16 -243 -54 l-52 -50 -7 29 c-9 42 -55 83
-102 89 -34 4 -45 1 -72 -23z"/>
<path d="M621 3145 c-85 -24 -151 -64 -227 -140 -81 -80 -120 -151 -137 -248
-20 -118 31 -237 127 -296 18 -11 102 -39 187 -62 174 -47 218 -66 248 -107
98 -139 3 -386 -184 -478 -55 -27 -69 -29 -165 -29 -86 0 -114 4 -152 22 -141
64 -190 167 -165 346 8 53 7 57 -12 57 -15 0 -23 -10 -30 -37 -52 -196 -109
-439 -105 -445 11 -17 26 -5 82 66 l59 74 39 -41 c72 -74 193 -113 324 -104
213 15 405 185 456 404 29 124 -1 238 -82 313 -53 48 -52 48 -246 101 -84 22
-167 50 -185 60 -20 12 -43 41 -59 75 -23 46 -26 63 -21 111 12 112 96 227
207 281 65 32 184 42 256 22 60 -17 126 -77 154 -142 21 -46 24 -69 23 -165
-1 -102 1 -113 17 -113 15 0 28 40 78 240 39 156 56 243 49 247 -10 6 -41 -24
-104 -101 l-32 -40 -40 46 c-55 62 -123 90 -226 95 -50 2 -100 -3 -134 -12z"/>
<path d="M3245 2358 c-28 -29 -91 -56 -152 -64 -43 -5 -53 -10 -53 -25 0 -12
7 -19 18 -19 19 0 106 22 135 35 16 7 17 -15 17 -379 0 -442 9 -406 -99 -406
-54 0 -61 -2 -61 -20 0 -19 7 -20 206 -20 190 0 205 1 202 18 -3 14 -17 18
-76 22 -50 3 -76 10 -82 20 -6 9 -10 189 -10 438 0 447 0 447 -45 400z"/>
<path d="M4186 2284 c-9 -8 -16 -19 -16 -24 0 -5 7 -16 16 -24 14 -14 79 -16
601 -14 545 3 587 4 597 21 8 12 8 22 0 35 -10 16 -52 17 -597 20 -522 2 -587
0 -601 -14z"/>
<path d="M6010 2260 l0 -40 7550 0 7550 0 0 40 0 40 -7550 0 -7550 0 0 -40z"/>
<path d="M2397 2244 c-4 -4 -7 -99 -7 -211 l0 -203 -204 0 c-207 0 -221 -2
-209 -37 4 -10 54 -13 209 -13 l204 0 2 -202 c3 -195 4 -203 23 -203 19 0 20
8 23 202 l2 203 203 2 c194 3 202 4 202 23 0 19 -8 20 -202 23 l-203 2 -2 208
c-3 177 -5 207 -18 210 -9 1 -19 0 -23 -4z"/>
<path d="M1221 2054 c-31 -28 -81 -141 -81 -184 0 -41 27 -19 39 33 24 93 59
147 96 147 30 0 45 -19 45 -55 0 -17 -27 -139 -59 -270 -60 -246 -63 -275 -23
-275 40 0 51 25 102 230 52 208 71 254 129 308 70 65 164 82 200 36 36 -46 25
-122 -48 -341 -23 -67 -38 -129 -35 -140 20 -63 56 -93 111 -93 59 0 128 66
158 149 32 92 6 97 -30 6 -40 -98 -127 -158 -154 -107 -12 23 -10 35 46 207
74 226 69 316 -20 358 -77 37 -168 16 -243 -54 l-52 -50 -7 29 c-9 42 -55 83
-102 89 -34 4 -45 1 -72 -23z"/>
<path d="M6731 1775 c-85 -24 -151 -64 -227 -140 -81 -80 -120 -151 -137 -248
-20 -118 31 -237 127 -296 18 -11 102 -39 187 -62 174 -47 218 -66 248 -107
98 -139 3 -386 -184 -478 -55 -27 -69 -29 -165 -29 -86 0 -114 4 -152 22 -141
64 -190 167 -165 346 8 53 7 57 -12 57 -15 0 -23 -10 -30 -37 -52 -196 -109
-439 -105 -445 11 -17 26 -5 82 66 l59 74 39 -41 c72 -74 193 -113 324 -104
213 15 405 185 456 404 29 124 -1 238 -82 313 -53 48 -52 48 -246 101 -84 22
-167 50 -185 60 -20 12 -43 41 -59 75 -23 46 -26 63 -21 111 12 112 96 227
207 281 65 32 184 42 256 22 60 -17 126 -77 154 -142 21 -46 24 -69 23 -165
-1 -102 1 -113 17 -113 15 0 28 40 78 240 39 156 56 243 49 247 -10 6 -41 -24
-104 -101 l-32 -40 -40 46 c-55 62 -123 90 -226 95 -50 2 -100 -3 -134 -12z"/>
<path d="M13821 1775 c-85 -24 -151 -64 -227 -140 -81 -80 -120 -151 -137
-248 -20 -118 31 -237 127 -296 18 -11 102 -39 187 -62 174 -47 218 -66 248
-107 98 -139 3 -386 -184 -478 -55 -27 -69 -29 -165 -29 -86 0 -114 4 -152 22
-141 64 -190 167 -165 346 8 53 7 57 -12 57 -15 0 -23 -10 -30 -37 -52 -196
-109 -439 -105 -445 11 -17 26 -5 82 66 l59 74 39 -41 c72 -74 193 -113 324
-104 213 15 405 185 456 404 29 124 -1 238 -82 313 -53 48 -52 48 -246 101
-84 22 -167 50 -185 60 -20 12 -43 41 -59 75 -23 46 -26 63 -21 111 12 112 96
227 207 281 65 32 184 42 256 22 60 -17 126 -77 154 -142 21 -46 24 -69 23
-165 -1 -102 1 -113 17 -113 15 0 28 40 78 240 39 156 56 243 49 247 -10 6
-41 -24 -104 -101 l-32 -40 -40 46 c-55 62 -123 90 -226 95 -50 2 -100 -3
-134 -12z"/>
<path d="M18161 1775 c-85 -24 -151 -64 -227 -140 -81 -80 -120 -151 -137
-248 -20 -118 31 -237 127 -296 18 -11 102 -39 187 -62 174 -47 218 -66 248
-107 98 -139 3 -386 -184 -478 -55 -27 -69 -29 -165 -29 -86 0 -114 4 -152 22
-141 64 -190 167 -165 346 8 53 7 57 -12 57 -15 0 -23 -10 -30 -37 -52 -196
-109 -439 -105 -445 11 -17 26 -5 82 66 l59 74 39 -41 c72 -74 193 -113 324
-104 213 15 405 185 456 404 29 124 -1 238 -82 313 -53 48 -52 48 -246 101
-84 22 -167 50 -185 60 -20 12 -43 41 -59 75 -23 46 -26 63 -21 111 12 112 96
227 207 281 65 32 184 42 256 22 60 -17 126 -77 154 -142 21 -46 24 -69 23
-165 -1 -102 1 -113 17 -113 15 0 28 40 78 240 39 156 56 243 49 247 -10 6
-41 -24 -104 -101 l-32 -40 -40 46 c-55 62 -123 90 -226 95 -50 2 -100 -3
-134 -12z"/>
<path d="M12523 1696 c-136 -43 -237 -177 -250 -331 -4 -51 -2 -64 17 -87 16
-22 30 -28 59 -28 49 0 81 32 81 82 0 42 -36 78 -76 78 -71 0 34 173 134 221
62 30 158 31 222 2 176 -78 223 -325 104 -542 -50 -90 -95 -146 -334 -418
-143 -161 -210 -245 -210 -260 l0 -23 350 0 350 0 5 23 c5 22 45 272 45 282 0
3 -8 5 -18 5 -15 0 -20 -14 -31 -75 -20 -123 -1 -116 -316 -113 l-270 3 258
259 c142 143 276 286 297 319 108 161 104 361 -10 490 -88 101 -277 153 -407
113z"/>
<path d="M16262 1498 c-9 -9 -12 -88 -12 -295 l0 -283 -286 -2 c-255 -3 -288
-5 -297 -20 -8 -12 -7 -21 2 -32 12 -14 51 -16 297 -16 l284 0 0 -279 c0 -154
3 -286 6 -295 7 -19 35 -21 52 -4 9 9 12 88 12 295 l0 283 279 0 c154 0 286 3
295 6 9 3 16 16 16 29 0 13 -7 26 -16 29 -9 3 -141 6 -295 6 l-279 0 0 283 c0
283 -3 307 -35 307 -6 0 -16 -5 -23 -12z"/>
<path d="M9435 988 c-28 -29 -91 -56 -152 -64 -43 -5 -53 -10 -53 -25 0 -12 7
-19 18 -19 19 0 106 22 135 35 16 7 17 -15 17 -379 0 -442 9 -406 -99 -406
-54 0 -61 -2 -61 -20 0 -19 7 -20 206 -20 190 0 205 1 202 17 -3 15 -17 19
-76 23 -50 3 -76 10 -82 20 -6 9 -10 189 -10 438 0 447 0 447 -45 400z"/>
<path d="M20785 988 c-28 -29 -91 -56 -152 -64 -43 -5 -53 -10 -53 -25 0 -12
7 -19 18 -19 19 0 106 22 135 35 16 7 17 -15 17 -379 0 -442 9 -406 -99 -406
-54 0 -61 -2 -61 -20 0 -19 7 -20 206 -20 190 0 205 1 202 17 -3 15 -17 19
-76 23 -50 3 -76 10 -82 20 -6 9 -10 189 -10 438 0 447 0 447 -45 400z"/>
<path d="M10376 914 c-9 -8 -16 -19 -16 -24 0 -5 7 -16 16 -24 14 -14 79 -16
601 -14 545 3 587 4 597 21 8 12 8 22 0 35 -10 16 -52 17 -597 20 -522 2 -587
0 -601 -14z"/>
<path d="M19947 874 c-4 -4 -7 -99 -7 -211 l0 -203 -204 0 c-207 0 -221 -2
-209 -37 4 -10 54 -13 209 -13 l204 0 2 -202 c3 -195 4 -203 23 -203 19 0 20
8 23 202 l2 203 203 2 c194 3 202 4 202 23 0 19 -8 20 -202 23 l-203 2 -2 208
c-3 177 -5 207 -18 210 -9 1 -19 0 -23 -4z"/>
<path d="M7331 684 c-31 -28 -81 -141 -81 -184 0 -41 27 -19 39 33 24 93 59
147 96 147 30 0 45 -19 45 -55 0 -17 -27 -139 -59 -270 -60 -246 -63 -275 -23
-275 40 0 51 25 102 230 52 208 71 254 129 308 70 65 164 82 200 36 36 -46 25
-122 -48 -341 -23 -67 -38 -129 -35 -140 20 -63 56 -93 111 -93 59 0 128 66
158 149 32 92 6 97 -30 6 -40 -98 -127 -158 -154 -107 -12 23 -10 35 46 207
74 226 69 316 -20 358 -77 37 -168 16 -243 -54 l-52 -50 -7 29 c-9 42 -55 83
-102 89 -34 4 -45 1 -72 -23z"/>
<path d="M14421 684 c-31 -28 -81 -141 -81 -184 0 -41 27 -19 39 33 24 93 59
147 96 147 30 0 45 -19 45 -55 0 -17 -27 -139 -59 -270 -60 -246 -63 -275 -23
-275 40 0 51 25 102 230 52 208 71 254 129 308 70 65 164 82 200 36 36 -46 25
-122 -48 -341 -23 -67 -38 -129 -35 -140 20 -63 56 -93 111 -93 59 0 128 66
158 149 32 92 6 97 -30 6 -40 -98 -127 -158 -154 -107 -12 23 -10 35 46 207
74 226 69 316 -20 358 -77 37 -168 16 -243 -54 l-52 -50 -7 29 c-9 42 -55 83
-102 89 -34 4 -45 1 -72 -23z"/>
<path d="M18761 684 c-31 -28 -81 -141 -81 -184 0 -41 27 -19 39 33 24 93 59
147 96 147 30 0 45 -19 45 -55 0 -17 -27 -139 -59 -270 -60 -246 -63 -275 -23
-275 40 0 51 25 102 230 52 208 71 254 129 308 70 65 164 82 200 36 36 -46 25
-122 -48 -341 -23 -67 -38 -129 -35 -140 20 -63 56 -93 111 -93 59 0 128 66
158 149 32 92 6 97 -30 6 -40 -98 -127 -158 -154 -107 -12 23 -10 35 46 207
74 226 69 316 -20 358 -77 37 -168 16 -243 -54 l-52 -50 -7 29 c-9 42 -55 83
-102 89 -34 4 -45 1 -72 -23z"/>
<path d="M8167 463 c-12 -3 -17 -12 -15 -26 l3 -22 418 -3 c381 -2 418 -1 424
14 16 41 -11 44 -421 43 -215 -1 -399 -3 -409 -6z"/>
</g>
</svg>
