<?xml version="1.0" standalone="no"?>
<!DOCTYPE svg PUBLIC "-//W3C//DTD SVG 20010904//EN"
 "http://www.w3.org/TR/2001/REC-SVG-20010904/DTD/svg10.dtd">
<svg version="1.0" xmlns="http://www.w3.org/2000/svg"
 width="468pt" height="68pt" viewBox="0 0 468 68"
 preserveAspectRatio="xMidYMid meet">
<metadata>
Created by potrace 1.8, written by Peter Selinger 2001-2007
</metadata>
<g transform="translate(0,68) scale(0.187952,-0.187952)"
fill="#000000" stroke="none">
<path d="M1149 333 c0 -5 -2 -18 -3 -30 -1 -12 1 -20 4 -18 8 5 11 55 4 55 -2
0 -4 -3 -5 -7z"/>
<path d="M1827 301 c-4 -17 -3 -21 5 -13 5 5 8 16 6 23 -3 8 -7 3 -11 -10z"/>
<path d="M1063 252 c-1 -37 -1 -37 8 -7 4 16 5 33 1 37 -4 4 -8 -10 -9 -30z"/>
<path d="M1743 252 c-1 -37 -1 -37 8 -7 4 16 5 33 1 37 -4 4 -8 -10 -9 -30z"/>
<path d="M731 178 c-1 -21 -7 -28 -28 -31 l-28 -4 27 -2 c19 -1 28 -7 31 -23
l4 -23 2 23 c1 15 8 22 24 23 l22 2 -22 4 c-14 3 -23 13 -26 31 l-4 27 -2 -27z"/>
<path d="M1341 178 c-1 -21 -6 -28 -23 -29 l-23 -2 23 -4 c14 -3 22 -12 23
-26 2 -22 2 -22 6 1 3 14 12 22 26 23 l22 2 -22 4 c-14 3 -23 13 -26 31 l-4
27 -2 -27z"/>
<path d="M95 150 c-4 -17 -5 -34 -2 -36 3 -3 8 9 12 26 4 17 5 34 2 36 -3 3
-8 -9 -12 -26z"/>
<path d="M146 149 c-3 -18 -4 -34 -2 -36 2 -3 7 10 11 27 4 17 5 34 2 36 -2 3
-7 -10 -11 -27z"/>
<path d="M191 168 c0 -9 -4 -25 -7 -35 -5 -14 -4 -15 5 -7 7 7 11 22 8 35 -2
13 -5 16 -6 7z"/>
<path d="M22 159 c2 -6 14 -16 26 -20 29 -11 28 -5 -4 16 -17 11 -25 12 -22 4z"/>
<path d="M291 163 c-1 -6 -4 -20 -7 -30 -5 -17 -5 -17 6 0 6 10 9 23 6 30 -3
9 -5 9 -5 0z"/>
<path d="M413 163 c15 -2 39 -2 55 0 15 2 2 4 -28 4 -30 0 -43 -2 -27 -4z"/>
<path d="M591 163 c-1 -6 -4 -20 -7 -30 -5 -17 -5 -17 6 0 6 10 9 23 6 30 -3
9 -5 9 -5 0z"/>
<path d="M1028 153 c40 -2 103 -2 140 0 37 2 4 3 -73 3 -77 0 -107 -2 -67 -3z"/>
<path d="M1613 153 c92 -2 242 -2 335 0 92 1 16 3 -168 3 -184 0 -260 -2 -167
-3z"/>
<path d="M863 143 c15 -2 39 -2 55 0 15 2 2 4 -28 4 -30 0 -43 -2 -27 -4z"/>
<path d="M2193 143 c15 -2 39 -2 55 0 15 2 2 4 -28 4 -30 0 -43 -2 -27 -4z"/>
<path d="M413 133 c15 -2 39 -2 55 0 15 2 2 4 -28 4 -30 0 -43 -2 -27 -4z"/>
<path d="M1009 104 c15 -8 14 -20 -5 -38 -14 -15 -14 -16 0 -16 9 0 16 -8 16
-20 0 -20 -33 -29 -42 -12 -3 4 -4 3 -3 -3 1 -5 11 -11 23 -13 21 -3 48 29 34
43 -4 4 -7 18 -7 32 0 15 -6 27 -13 29 -8 2 -9 1 -3 -2z"/>
<path d="M1174 95 c-4 -9 -4 -19 0 -22 3 -4 6 1 6 10 0 18 25 23 35 7 3 -5 0
-20 -6 -32 -11 -21 -11 -22 5 -9 23 20 17 55 -12 59 -13 2 -25 -3 -28 -13z"/>
<path d="M1483 103 c-16 -3 -23 -11 -22 -26 1 -17 2 -18 6 -4 2 9 11 17 18 17
8 0 17 5 20 10 3 6 5 9 3 9 -2 -1 -13 -4 -25 -6z"/>
<path d="M1689 99 c-1 -8 0 -26 1 -41 1 -20 -4 -27 -22 -31 l-23 -4 23 -2 c13
0 20 -5 17 -11 -3 -5 0 -10 8 -10 10 0 13 12 9 53 -4 51 -11 75 -13 46z"/>
<path d="M1880 100 c12 -8 13 -13 2 -30 -7 -12 -8 -20 -2 -20 5 0 10 -9 10
-20 0 -22 -25 -27 -34 -7 -4 7 -5 6 -3 -3 2 -8 13 -16 25 -18 27 -4 40 23 24
49 -7 11 -8 20 -2 24 14 9 0 35 -19 35 -14 0 -14 -2 -1 -10z"/>
<path d="M2075 97 c18 -14 19 -18 6 -39 -13 -21 -13 -22 3 -9 22 19 17 55 -9
59 -20 4 -20 4 0 -11z"/>
<path d="M1506 46 c5 -21 2 -28 -17 -35 -14 -6 -18 -10 -8 -10 31 -2 54 49 29
64 -7 4 -9 -2 -4 -19z"/>
<path d="M1090 41 c0 -6 5 -11 10 -11 6 0 10 2 10 4 0 3 -4 8 -10 11 -5 3 -10
1 -10 -4z"/>
<path d="M1580 41 c0 -6 5 -11 10 -11 6 0 10 2 10 4 0 3 -4 8 -10 11 -5 3 -10
1 -10 -4z"/>
<path d="M1770 41 c0 -6 5 -11 10 -11 6 0 10 2 10 4 0 3 -4 8 -10 11 -5 3 -10
1 -10 -4z"/>
<path d="M1965 40 c-3 -5 -1 -10 4 -10 6 0 11 5 11 10 0 6 -2 10 -4 10 -3 0
-8 -4 -11 -10z"/>
<path d="M2065 10 l-30 -8 33 -1 c17 0 32 4 32 9 0 6 -1 9 -2 9 -2 -1 -16 -5
-33 -9z"/>
<path d="M1183 3 c9 -2 25 -2 35 0 9 3 1 5 -18 5 -19 0 -27 -2 -17 -5z"/>
</g>
</svg>
