<?xml version="1.0" standalone="no"?>
<!DOCTYPE svg PUBLIC "-//W3C//DTD SVG 20010904//EN"
 "http://www.w3.org/TR/2001/REC-SVG-20010904/DTD/svg10.dtd">
<svg version="1.0" xmlns="http://www.w3.org/2000/svg"
 width="468pt" height="138pt" viewBox="0 0 468 138"
 preserveAspectRatio="xMidYMid meet">
<metadata>
Created by potrace 1.8, written by Peter Selinger 2001-2007
</metadata>
<g transform="translate(0,138) scale(0.035481,-0.035481)"
fill="#000000" stroke="none">
<path d="M860 3857 c-14 -7 -33 -29 -44 -51 -18 -37 -18 -38 1 -64 36 -48 109
-38 139 20 19 37 18 64 -6 88 -23 23 -54 25 -90 7z"/>
<path d="M6230 3857 c-14 -7 -33 -29 -44 -51 -18 -37 -18 -38 1 -64 36 -48
109 -38 139 20 19 37 18 64 -6 88 -23 23 -54 25 -90 7z"/>
<path d="M11920 3857 c-14 -7 -33 -29 -44 -51 -18 -37 -18 -38 1 -64 36 -48
109 -38 139 20 19 37 18 64 -6 88 -23 23 -54 25 -90 7z"/>
<path d="M652 3419 c-52 -26 -113 -103 -146 -185 -33 -81 -36 -109 -12 -109
14 0 24 13 36 50 36 105 88 183 141 210 69 36 117 1 104 -77 -4 -24 -50 -158
-103 -298 -80 -212 -97 -265 -97 -312 0 -60 17 -94 66 -131 33 -24 98 -32 142
-18 54 18 115 84 153 165 43 90 54 146 30 146 -9 0 -20 -10 -25 -22 -46 -118
-67 -162 -96 -196 -58 -67 -126 -81 -154 -31 -21 37 -3 103 105 384 115 298
117 347 22 418 -40 30 -114 33 -166 6z"/>
<path d="M6022 3419 c-52 -26 -113 -103 -146 -185 -33 -81 -36 -109 -12 -109
14 0 24 13 36 50 36 105 88 183 141 210 69 36 117 1 104 -77 -4 -24 -50 -158
-103 -298 -80 -212 -97 -265 -97 -312 0 -60 17 -94 66 -131 33 -24 98 -32 142
-18 54 18 115 84 153 165 43 90 54 146 30 146 -9 0 -20 -10 -25 -22 -46 -118
-67 -162 -96 -196 -58 -67 -126 -81 -154 -31 -21 37 -3 103 105 384 115 298
117 347 22 418 -40 30 -114 33 -166 6z"/>
<path d="M11712 3419 c-52 -26 -113 -103 -146 -185 -33 -81 -36 -109 -12 -109
14 0 24 13 36 50 36 105 88 183 141 210 69 36 117 1 104 -77 -4 -24 -50 -158
-103 -298 -80 -212 -97 -265 -97 -312 0 -60 17 -94 66 -131 33 -24 98 -32 142
-18 54 18 115 84 153 165 43 90 54 146 30 146 -9 0 -20 -10 -25 -22 -46 -118
-67 -162 -96 -196 -58 -67 -126 -81 -154 -31 -21 37 -3 103 105 384 115 298
117 347 22 418 -40 30 -114 33 -166 6z"/>
<path d="M3349 3254 c-9 -11 -10 -20 -2 -32 9 -16 63 -17 604 -20 327 -1 604
0 617 3 24 6 29 34 10 53 -9 9 -159 12 -614 12 -537 0 -603 -2 -615 -16z"/>
<path d="M8039 3254 c-9 -11 -10 -20 -2 -32 9 -16 63 -17 604 -20 327 -1 604
0 617 3 24 6 29 34 10 53 -9 9 -159 12 -614 12 -537 0 -603 -2 -615 -16z"/>
<path d="M12703 3222 c-175 -52 -334 -187 -420 -355 -33 -66 -63 -188 -63
-256 0 -268 230 -439 483 -361 126 39 239 136 297 255 34 70 40 100 22 100 -8
0 -24 -26 -37 -58 -47 -113 -128 -198 -241 -248 -69 -31 -202 -32 -259 -2 -51
27 -91 67 -119 118 -32 60 -31 249 2 355 57 182 165 319 303 385 226 107 391
13 393 -222 1 -70 4 -83 17 -83 13 0 26 40 63 185 25 101 46 189 46 195 0 23
-22 7 -72 -54 l-52 -64 -34 39 c-19 22 -53 49 -76 61 -57 30 -170 34 -253 10z"/>
<path d="M1387 3197 c-8 -21 1 -27 44 -27 52 0 69 -8 69 -34 -1 -34 -198 -808
-209 -819 -6 -6 -37 -13 -70 -15 -39 -3 -62 -9 -65 -19 -3 -7 0 -16 7 -19 7
-2 91 -3 187 -2 148 3 175 5 175 18 0 11 -15 16 -52 20 -28 3 -55 9 -59 13 -5
4 14 98 41 207 l49 200 108 0 c126 0 168 -13 198 -62 25 -41 25 -60 -1 -161
-35 -138 -26 -189 42 -239 27 -20 105 -34 143 -24 52 13 126 102 126 151 0 27
-18 13 -43 -35 -40 -76 -114 -111 -153 -73 -15 15 -16 29 -8 118 4 55 8 132 9
172 0 66 -2 74 -30 103 -16 18 -43 39 -60 47 l-30 16 50 17 c115 39 200 102
234 173 50 102 5 197 -119 256 -54 26 -59 26 -316 29 -223 3 -262 1 -267 -11z
m526 -52 c70 -33 91 -100 63 -199 -21 -72 -78 -135 -149 -167 -43 -19 -74 -23
-184 -27 l-131 -4 50 198 c27 109 55 205 61 212 18 22 239 12 290 -13z"/>
<path d="M6755 3200 c-12 -19 6 -30 48 -30 81 0 82 23 -27 -417 -55 -219 -104
-408 -109 -420 -11 -24 -34 -33 -93 -33 -39 0 -63 -18 -47 -34 4 -3 160 -6
348 -6 l342 0 63 171 c44 121 59 174 51 182 -7 7 -17 -4 -32 -39 -66 -155
-108 -208 -192 -245 -44 -19 -74 -23 -189 -27 -123 -4 -138 -2 -138 12 0 37
202 822 215 835 9 9 44 17 87 20 59 5 73 9 76 24 3 16 -11 17 -197 17 -122 0
-202 -4 -206 -10z"/>
<path d="M10106 3084 c-9 -8 -16 -19 -16 -24 0 -5 7 -16 16 -24 14 -14 79 -16
601 -14 545 3 587 4 597 21 8 12 8 22 0 35 -10 16 -52 17 -597 20 -522 2 -587
0 -601 -14z"/>
<path d="M3349 2894 c-9 -11 -10 -20 -2 -32 9 -16 63 -17 613 -20 437 -1 607
1 616 9 19 15 18 45 -2 53 -9 3 -285 6 -614 6 -533 0 -599 -2 -611 -16z"/>
<path d="M8039 2894 c-9 -11 -10 -20 -2 -32 9 -16 63 -17 613 -20 437 -1 607
1 616 9 19 15 18 45 -2 53 -9 3 -285 6 -614 6 -533 0 -599 -2 -611 -16z"/>
<path d="M8972 1448 c-9 -9 -12 -88 -12 -295 l0 -283 -286 -2 c-255 -3 -288
-5 -297 -20 -8 -12 -7 -21 2 -32 12 -14 51 -16 297 -16 l284 0 0 -279 c0 -154
3 -286 6 -295 7 -19 35 -21 52 -4 9 9 12 88 12 295 l0 283 279 0 c154 0 286 3
295 6 9 3 16 16 16 29 0 13 -7 26 -16 29 -9 3 -141 6 -295 6 l-279 0 0 283 c0
283 -3 307 -35 307 -6 0 -16 -5 -23 -12z"/>
<path d="M180 1198 c-54 -29 -111 -102 -144 -183 -33 -83 -36 -110 -12 -110
14 0 24 13 36 50 48 142 120 225 193 225 66 0 66 -74 2 -255 -93 -262 -112
-372 -79 -468 30 -89 132 -146 242 -135 64 6 115 32 168 85 38 39 45 42 51 26
23 -64 93 -112 163 -113 77 0 132 62 174 198 31 99 32 122 9 122 -14 0 -25
-24 -50 -104 -46 -148 -107 -207 -167 -163 -41 30 -33 91 53 435 45 177 81
332 81 345 0 30 -18 47 -48 47 -63 0 -63 -1 -166 -415 -75 -301 -92 -338 -181
-390 -90 -53 -170 -43 -206 26 -40 80 -20 212 71 469 41 115 50 154 47 189
-12 113 -134 174 -237 119z"/>
<path d="M6020 1198 c-54 -29 -111 -102 -144 -183 -33 -83 -36 -110 -12 -110
14 0 24 13 36 50 48 142 120 225 193 225 66 0 66 -74 2 -255 -93 -262 -112
-372 -79 -468 30 -89 132 -146 242 -135 64 6 115 32 168 85 38 39 45 42 51 26
23 -64 93 -112 163 -113 77 0 132 62 174 198 31 99 32 122 9 122 -14 0 -25
-24 -50 -104 -46 -148 -107 -207 -167 -163 -41 30 -33 91 53 435 45 177 81
332 81 345 0 30 -18 47 -48 47 -63 0 -63 -1 -166 -415 -75 -301 -92 -338 -181
-390 -90 -53 -170 -43 -206 26 -40 80 -20 212 71 469 41 115 50 154 47 189
-12 113 -134 174 -237 119z"/>
<path d="M10390 1198 c-54 -29 -111 -102 -144 -183 -33 -83 -36 -110 -12 -110
14 0 24 13 36 50 48 142 120 225 193 225 66 0 66 -74 2 -255 -93 -262 -112
-372 -79 -468 30 -89 132 -146 242 -135 64 6 115 32 168 85 38 39 45 42 51 26
23 -64 93 -112 163 -113 77 0 132 62 174 198 31 99 32 122 9 122 -14 0 -25
-24 -50 -104 -46 -148 -107 -207 -167 -163 -41 30 -33 91 53 435 45 177 81
332 81 345 0 30 -18 47 -48 47 -63 0 -63 -1 -166 -415 -75 -301 -92 -338 -181
-390 -90 -53 -170 -43 -206 26 -40 80 -20 212 71 469 41 115 50 154 47 189
-12 113 -134 174 -237 119z"/>
<path d="M3349 1034 c-9 -11 -10 -20 -2 -32 9 -16 63 -17 604 -20 327 -1 604
0 617 3 24 6 29 34 10 53 -9 9 -159 12 -614 12 -537 0 -603 -2 -615 -16z"/>
<path d="M1613 1002 c-175 -52 -334 -187 -420 -355 -33 -66 -63 -188 -63 -256
0 -268 230 -439 483 -361 126 39 239 136 297 255 34 70 40 100 22 100 -8 0
-24 -26 -37 -58 -47 -113 -128 -198 -241 -248 -69 -31 -202 -32 -259 -2 -51
27 -91 67 -119 118 -32 60 -31 249 2 355 57 182 165 319 303 385 226 107 391
13 393 -222 1 -70 4 -83 17 -83 13 0 26 40 63 185 25 101 46 189 46 195 0 23
-22 7 -72 -54 l-52 -64 -34 39 c-19 22 -53 49 -76 61 -57 30 -170 34 -253 10z"/>
<path d="M7195 980 c-12 -19 6 -30 48 -30 81 0 82 23 -27 -417 -55 -219 -104
-408 -109 -420 -11 -24 -34 -33 -93 -33 -39 0 -63 -18 -47 -34 4 -3 160 -6
348 -6 l342 0 63 171 c44 121 59 174 51 182 -7 7 -17 -4 -32 -39 -66 -155
-108 -208 -192 -245 -44 -19 -74 -23 -189 -27 -123 -4 -138 -2 -138 12 0 37
202 822 215 835 9 9 44 17 87 20 59 5 73 9 76 24 3 16 -11 17 -197 17 -122 0
-202 -4 -206 -10z"/>
<path d="M11567 977 c-8 -21 1 -27 44 -27 52 0 69 -8 69 -34 -1 -34 -198 -808
-209 -819 -6 -6 -37 -13 -70 -15 -39 -3 -62 -9 -65 -19 -3 -7 0 -16 7 -19 7
-2 91 -3 187 -2 148 3 175 5 175 18 0 11 -15 16 -52 20 -28 3 -55 9 -59 13 -5
4 14 98 41 207 l49 200 108 0 c126 0 168 -13 198 -62 25 -41 25 -60 -1 -161
-35 -138 -26 -189 42 -239 27 -20 105 -34 143 -24 52 13 126 102 126 151 0 27
-18 13 -43 -35 -40 -76 -114 -111 -153 -73 -15 15 -16 29 -8 118 4 55 8 132 9
172 0 66 -2 74 -30 103 -16 18 -43 39 -60 47 l-30 16 50 17 c115 39 200 102
234 173 50 102 5 197 -119 256 -54 26 -59 26 -316 29 -223 3 -262 1 -267 -11z
m526 -52 c70 -33 91 -100 63 -199 -21 -72 -78 -135 -149 -167 -43 -19 -74 -23
-184 -27 l-131 -4 50 198 c27 109 55 205 61 212 18 22 239 12 290 -13z"/>
<path d="M3349 674 c-9 -11 -10 -20 -2 -32 9 -16 63 -17 613 -20 437 -1 607 1
616 9 19 15 18 45 -2 53 -9 3 -285 6 -614 6 -533 0 -599 -2 -611 -16z"/>
</g>
</svg>
