<?xml version="1.0" standalone="no"?>
<!DOCTYPE svg PUBLIC "-//W3C//DTD SVG 20010904//EN"
 "http://www.w3.org/TR/2001/REC-SVG-20010904/DTD/svg10.dtd">
<svg version="1.0" xmlns="http://www.w3.org/2000/svg"
 width="468pt" height="190pt" viewBox="0 0 468 190"
 preserveAspectRatio="xMidYMid meet">
<metadata>
Created by potrace 1.8, written by Peter Selinger 2001-2007
</metadata>
<g transform="translate(0,190) scale(0.031325,-0.031325)"
fill="#000000" stroke="none">
<path d="M9470 6020 c-22 -22 -26 -60 -8 -78 32 -32 101 4 101 52 0 48 -56 63
-93 26z"/>
<path d="M9333 5731 c-49 -31 -113 -143 -113 -197 0 -31 28 -11 39 29 17 55
56 122 83 142 33 22 75 20 83 -6 11 -32 0 -72 -71 -265 -76 -206 -78 -238 -23
-288 44 -39 105 -33 156 15 38 37 83 120 83 157 0 26 -18 30 -26 5 -18 -57
-68 -143 -90 -158 -14 -9 -37 -15 -52 -13 -47 5 -37 72 42 288 73 200 76 226
33 276 -31 36 -99 43 -144 15z"/>
<path d="M8097 4523 c-4 -3 -7 -21 -7 -39 0 -27 86 -151 525 -751 289 -395
523 -724 520 -731 -2 -7 -235 -283 -517 -613 -282 -330 -517 -608 -522 -616
-4 -8 -4 -19 1 -24 5 -5 500 -8 1208 -7 l1200 3 117 310 c65 171 118 313 118
318 0 4 -10 7 -23 7 -18 0 -28 -11 -46 -47 -85 -177 -286 -313 -546 -369 -192
-42 -277 -46 -1034 -51 -613 -4 -732 -3 -725 9 4 7 227 270 494 583 267 314
495 583 507 599 18 22 20 32 12 47 -8 16 -887 1223 -922 1267 -9 11 116 13
714 9 771 -5 793 -6 993 -58 223 -57 408 -183 496 -337 27 -47 40 -61 58 -62
13 0 22 4 20 10 -1 5 -55 131 -118 280 l-115 270 -1201 0 c-660 0 -1204 -3
-1207 -7z"/>
<path d="M631 4025 c-85 -24 -151 -64 -227 -140 -81 -80 -120 -151 -137 -248
-20 -118 31 -237 127 -296 18 -11 102 -39 187 -62 174 -47 218 -66 248 -107
98 -139 3 -386 -184 -478 -55 -27 -69 -29 -165 -29 -86 0 -114 4 -152 22 -141
64 -190 167 -165 346 8 53 7 57 -12 57 -15 0 -23 -10 -30 -37 -52 -196 -109
-439 -105 -445 11 -17 26 -5 82 66 l59 74 39 -41 c72 -74 193 -113 324 -104
213 15 405 185 456 404 29 124 -1 238 -82 313 -53 48 -52 48 -246 101 -84 22
-167 50 -185 60 -20 12 -43 41 -59 75 -23 46 -26 63 -21 111 12 112 96 227
207 281 65 32 184 42 256 22 60 -17 126 -77 154 -142 21 -46 24 -69 23 -165
-1 -102 1 -113 17 -113 15 0 28 40 78 240 39 156 56 243 49 247 -10 6 -41 -24
-104 -101 l-32 -40 -40 46 c-55 62 -123 90 -226 95 -50 2 -100 -3 -134 -12z"/>
<path d="M4971 4029 c-265 -52 -528 -261 -660 -525 -139 -278 -115 -580 59
-754 103 -103 249 -157 400 -147 167 10 294 71 431 207 73 73 94 101 134 183
45 93 53 136 28 145 -7 2 -18 -9 -24 -25 -52 -130 -95 -200 -168 -273 -126
-128 -274 -188 -433 -177 -244 16 -383 216 -348 499 42 348 210 626 452 746
346 173 600 25 587 -341 -3 -81 -3 -82 21 -82 24 0 27 7 92 270 36 148 64 273
61 277 -10 17 -26 4 -98 -81 l-75 -88 -68 67 c-59 59 -77 71 -136 89 -72 22
-173 26 -255 10z"/>
<path d="M14105 4008 c-92 -9 -123 -24 -112 -52 5 -11 20 -16 49 -16 67 0 88
-9 88 -36 0 -13 -28 -134 -61 -269 l-61 -245 -28 44 c-82 128 -270 107 -425
-49 -242 -242 -261 -647 -34 -745 96 -41 197 -15 296 77 l51 48 21 -45 c29
-65 78 -95 154 -95 58 0 60 1 102 47 32 36 49 67 69 130 34 109 36 133 12 133
-14 0 -23 -17 -42 -83 -13 -46 -31 -97 -40 -114 -38 -73 -107 -101 -138 -56
-33 46 -20 112 134 724 83 327 148 599 145 604 -7 12 -54 11 -180 -2z m-207
-548 c36 -22 67 -68 82 -119 8 -29 0 -71 -46 -255 -30 -122 -62 -235 -71 -253
-20 -43 -113 -130 -165 -153 -67 -30 -114 -26 -153 13 -73 73 -71 207 6 462
47 155 107 246 193 295 60 35 108 38 154 10z"/>
<path d="M14686 3867 c-17 -17 -34 -67 -65 -195 l-43 -172 -113 0 c-88 0 -115
-3 -125 -15 -10 -12 -10 -18 0 -30 10 -12 36 -15 116 -15 57 0 104 -2 104 -5
0 -2 -34 -140 -75 -306 -41 -165 -75 -316 -75 -335 0 -50 22 -95 63 -131 114
-100 287 -19 387 180 22 43 37 83 34 88 -14 23 -35 3 -68 -63 -45 -92 -104
-160 -159 -187 -85 -41 -137 -17 -137 63 0 33 125 578 156 679 5 15 19 17 109
17 121 0 135 4 135 36 0 24 -1 24 -110 24 -70 0 -110 4 -110 10 0 6 18 83 40
172 38 149 40 162 25 184 -20 31 -59 31 -89 1z"/>
<path d="M6792 3748 c-9 -9 -12 -88 -12 -295 l0 -283 -286 -2 c-255 -3 -288
-5 -297 -20 -8 -12 -7 -21 2 -32 12 -14 51 -16 297 -16 l284 0 0 -279 c0 -154
3 -286 6 -295 7 -19 35 -21 52 -4 9 9 12 88 12 295 l0 283 279 0 c154 0 286 3
295 6 9 3 16 16 16 29 0 13 -7 26 -16 29 -9 3 -141 6 -295 6 l-279 0 0 283 c0
283 -3 307 -35 307 -6 0 -16 -5 -23 -12z"/>
<path d="M11525 3497 c-89 -43 -185 -166 -211 -270 -6 -26 -4 -28 15 -25 16 2
28 18 45 60 77 188 261 283 329 169 29 -49 21 -123 -38 -362 -73 -293 -105
-362 -182 -395 -39 -17 -79 -18 -122 -3 l-32 11 31 19 c50 31 65 94 30 129
-29 29 -74 25 -112 -9 -28 -25 -33 -36 -33 -76 0 -40 5 -51 32 -75 54 -49 142
-63 211 -35 43 19 74 45 113 98 l28 38 16 -35 c52 -109 198 -147 310 -82 56
33 128 114 159 179 33 67 37 102 13 102 -13 0 -25 -17 -41 -57 -62 -153 -192
-247 -286 -208 -78 32 -79 115 -4 413 60 240 76 284 119 336 48 56 103 71 178
50 l38 -10 -33 -22 c-60 -41 -61 -128 -2 -143 39 -10 75 6 102 46 62 92 -38
191 -180 178 -59 -6 -119 -46 -156 -104 -15 -24 -29 -43 -32 -43 -3 0 -14 19
-26 42 -47 96 -175 134 -279 84z"/>
<path d="M2229 3334 c-9 -11 -10 -20 -2 -32 9 -16 63 -17 604 -20 327 -1 604
0 617 3 24 6 29 34 10 53 -9 9 -159 12 -614 12 -537 0 -603 -2 -615 -16z"/>
<path d="M1400 3230 c-22 -22 -26 -60 -8 -78 32 -32 101 4 101 52 0 48 -56 63
-93 26z"/>
<path d="M12751 3226 c-26 -27 -25 -63 1 -80 24 -14 70 3 84 33 30 59 -39 97
-85 47z"/>
<path d="M2229 2974 c-9 -11 -10 -20 -2 -32 9 -16 63 -17 613 -20 437 -1 607
1 616 9 19 15 18 45 -2 53 -9 3 -285 6 -614 6 -533 0 -599 -2 -611 -16z"/>
<path d="M1263 2941 c-49 -31 -113 -143 -113 -197 0 -31 28 -11 39 29 17 55
56 122 83 142 33 22 75 20 83 -6 11 -32 0 -72 -71 -265 -76 -206 -78 -238 -23
-288 44 -39 105 -33 156 15 38 37 83 120 83 157 0 26 -18 30 -26 5 -18 -57
-68 -143 -90 -158 -14 -9 -37 -15 -52 -13 -47 5 -37 72 42 288 73 200 76 226
33 276 -31 36 -99 43 -144 15z"/>
<path d="M12599 2940 c-20 -11 -49 -34 -63 -51 -32 -37 -76 -122 -76 -144 0
-31 20 -13 46 40 44 93 100 145 157 145 32 0 47 -18 47 -57 0 -59 -149 -634
-178 -688 -34 -63 -81 -95 -138 -95 -24 0 -44 3 -44 6 0 3 11 15 25 26 31 24
33 63 4 78 -29 16 -65 5 -85 -25 -50 -76 70 -143 183 -102 54 20 120 73 146
119 29 48 167 583 167 643 0 102 -97 155 -191 105z"/>
<path d="M10245 1188 c-28 -29 -91 -56 -152 -64 -43 -5 -53 -10 -53 -25 0 -12
7 -19 18 -19 19 0 106 22 135 35 16 7 17 -15 17 -379 0 -442 9 -406 -99 -406
-54 0 -61 -2 -61 -20 0 -19 7 -20 206 -20 190 0 205 1 202 17 -3 15 -17 19
-76 23 -50 3 -76 10 -82 20 -6 9 -10 189 -10 438 0 447 0 447 -45 400z"/>
<path d="M8721 1176 c-26 -27 -25 -63 1 -80 24 -14 70 3 84 33 30 59 -39 97
-85 47z"/>
<path d="M8569 890 c-20 -11 -49 -34 -63 -51 -32 -37 -76 -122 -76 -144 0 -31
20 -13 46 40 44 93 100 145 157 145 32 0 47 -18 47 -57 0 -59 -149 -634 -178
-688 -34 -63 -81 -95 -138 -95 -24 0 -44 3 -44 6 0 3 11 15 25 26 31 24 33 63
4 78 -29 16 -65 5 -85 -25 -50 -76 70 -143 183 -102 54 20 120 73 146 119 29
48 167 583 167 643 0 102 -97 155 -191 105z"/>
<path d="M8987 777 c-14 -36 0 -37 439 -35 421 3 429 3 429 23 0 20 -8 20
-431 23 -355 2 -433 0 -437 -11z"/>
<path d="M8987 527 c-14 -36 0 -37 439 -35 421 3 429 3 429 23 0 20 -8 20
-431 23 -355 2 -433 0 -437 -11z"/>
</g>
</svg>
