<?xml version="1.0" standalone="no"?>
<!DOCTYPE svg PUBLIC "-//W3C//DTD SVG 20010904//EN"
 "http://www.w3.org/TR/2001/REC-SVG-20010904/DTD/svg10.dtd">
<svg version="1.0" xmlns="http://www.w3.org/2000/svg"
 width="468pt" height="244pt" viewBox="0 0 468 244"
 preserveAspectRatio="xMidYMid meet">
<metadata>
Created by potrace 1.8, written by Peter Selinger 2001-2007
</metadata>
<g transform="translate(0,244) scale(0.029397,-0.029397)"
fill="#000000" stroke="none">
<path d="M825 8248 c-92 -9 -123 -24 -112 -52 5 -11 20 -16 49 -16 67 0 88 -9
88 -36 0 -13 -28 -134 -61 -269 l-61 -245 -28 44 c-82 128 -270 107 -425 -49
-242 -242 -261 -647 -34 -745 96 -41 197 -15 296 77 l51 48 21 -45 c29 -65 78
-95 154 -95 58 0 60 1 102 47 32 36 49 67 69 130 34 109 36 133 12 133 -14 0
-23 -17 -42 -83 -13 -46 -31 -97 -40 -114 -38 -73 -107 -101 -138 -56 -33 46
-20 112 134 724 83 327 148 599 145 604 -7 12 -54 11 -180 -2z m-207 -548 c36
-22 67 -68 82 -119 8 -29 0 -71 -46 -255 -30 -122 -62 -235 -71 -253 -20 -43
-113 -130 -165 -153 -67 -30 -114 -26 -153 13 -73 73 -71 207 6 462 47 155
107 246 193 295 60 35 108 38 154 10z"/>
<path d="M8870 8177 c-14 -7 -33 -29 -44 -51 -18 -37 -18 -38 1 -64 36 -48
109 -38 139 20 19 37 18 64 -6 88 -23 23 -54 25 -90 7z"/>
<path d="M1240 7738 c-54 -29 -111 -102 -144 -183 -33 -83 -36 -110 -12 -110
14 0 24 13 36 50 48 142 120 225 193 225 66 0 66 -74 2 -255 -93 -262 -112
-372 -79 -468 30 -89 132 -146 242 -135 64 6 115 32 168 85 38 39 45 42 51 26
23 -64 93 -112 163 -113 77 0 132 62 174 198 31 99 32 122 9 122 -14 0 -25
-24 -50 -104 -46 -148 -107 -207 -167 -163 -41 30 -33 91 53 435 45 177 81
332 81 345 0 30 -18 47 -48 47 -63 0 -63 -1 -166 -415 -75 -301 -92 -338 -181
-390 -90 -53 -170 -43 -206 26 -40 80 -20 212 71 469 41 115 50 154 47 189
-12 113 -134 174 -237 119z"/>
<path d="M8662 7739 c-52 -26 -113 -103 -146 -185 -33 -81 -36 -109 -12 -109
14 0 24 13 36 50 36 105 88 183 141 210 69 36 117 1 104 -77 -4 -24 -50 -158
-103 -298 -80 -212 -97 -265 -97 -312 0 -60 17 -94 66 -131 33 -24 98 -32 142
-18 54 18 115 84 153 165 43 90 54 146 30 146 -9 0 -20 -10 -25 -22 -46 -118
-67 -162 -96 -196 -58 -67 -126 -81 -154 -31 -21 37 -3 103 105 384 115 298
117 347 22 418 -40 30 -114 33 -166 6z"/>
<path d="M2673 7542 c-175 -52 -334 -187 -420 -355 -33 -66 -63 -188 -63 -256
0 -268 230 -439 483 -361 126 39 239 136 297 255 34 70 40 100 22 100 -8 0
-24 -26 -37 -58 -47 -113 -128 -198 -241 -248 -69 -31 -202 -32 -259 -2 -51
27 -91 67 -119 118 -32 60 -31 249 2 355 57 182 165 319 303 385 226 107 391
13 393 -222 1 -70 4 -83 17 -83 13 0 26 40 63 185 25 101 46 189 46 195 0 23
-22 7 -72 -54 l-52 -64 -34 39 c-19 22 -53 49 -76 61 -57 30 -170 34 -253 10z"/>
<path d="M9385 7520 c-12 -19 6 -30 48 -30 81 0 82 23 -27 -417 -55 -219 -104
-408 -109 -420 -11 -24 -34 -33 -93 -33 -39 0 -63 -18 -47 -34 4 -3 160 -6
348 -6 l342 0 63 171 c44 121 59 174 51 182 -7 7 -17 -4 -32 -39 -66 -155
-108 -208 -192 -245 -44 -19 -74 -23 -189 -27 -123 -4 -138 -2 -138 12 0 37
202 822 215 835 9 9 44 17 87 20 59 5 73 9 76 24 3 16 -11 17 -197 17 -122 0
-202 -4 -206 -10z"/>
<path d="M4429 6224 c-9 -11 -10 -20 -2 -32 9 -16 63 -17 604 -20 327 -1 604
0 617 3 24 6 29 34 10 53 -9 9 -159 12 -614 12 -537 0 -603 -2 -615 -16z"/>
<path d="M0 6030 l0 -40 1605 0 1605 0 0 40 0 40 -1605 0 -1605 0 0 -40z"/>
<path d="M7046 6054 c-9 -8 -16 -19 -16 -24 0 -5 7 -16 16 -24 14 -14 79 -16
601 -14 545 3 587 4 597 21 8 12 8 22 0 35 -10 16 -52 17 -597 20 -522 2 -587
0 -601 -14z"/>
<path d="M8430 6030 l0 -40 800 0 800 0 0 40 0 40 -800 0 -800 0 0 -40z"/>
<path d="M4429 5864 c-9 -11 -10 -20 -2 -32 9 -16 63 -17 613 -20 437 -1 607
1 616 9 19 15 18 45 -2 53 -9 3 -285 6 -614 6 -533 0 -599 -2 -611 -16z"/>
<path d="M9311 5549 c-265 -52 -528 -261 -660 -525 -139 -278 -115 -580 59
-754 103 -103 249 -157 400 -147 167 10 294 71 431 207 73 73 94 101 134 183
45 93 53 136 28 145 -7 2 -18 -9 -24 -25 -52 -130 -95 -200 -168 -273 -126
-128 -274 -188 -433 -177 -244 16 -383 216 -348 499 42 348 210 626 452 746
346 173 600 25 587 -341 -3 -81 -3 -82 21 -82 24 0 27 7 92 270 36 148 64 273
61 277 -10 17 -26 4 -98 -81 l-75 -88 -68 67 c-59 59 -77 71 -136 89 -72 22
-173 26 -255 10z"/>
<path d="M1565 5528 c-92 -9 -123 -24 -112 -52 5 -11 20 -16 49 -16 67 0 88
-9 88 -36 0 -13 -28 -134 -61 -269 l-61 -245 -28 44 c-82 128 -270 107 -425
-49 -242 -242 -261 -647 -34 -745 96 -41 197 -15 296 77 l51 48 21 -45 c29
-65 78 -95 154 -95 58 0 60 1 102 47 32 36 49 67 69 130 34 109 36 133 12 133
-14 0 -23 -17 -42 -83 -13 -46 -31 -97 -40 -114 -38 -73 -107 -101 -138 -56
-33 46 -20 112 134 724 83 327 148 599 145 604 -7 12 -54 11 -180 -2z m-207
-548 c36 -22 67 -68 82 -119 8 -29 0 -71 -46 -255 -30 -122 -62 -235 -71 -253
-20 -43 -113 -130 -165 -153 -67 -30 -114 -26 -153 13 -73 73 -71 207 6 462
47 155 107 246 193 295 60 35 108 38 154 10z"/>
<path d="M2156 5387 c-17 -17 -34 -67 -65 -195 l-43 -172 -113 0 c-88 0 -115
-3 -125 -15 -10 -12 -10 -18 0 -30 10 -12 36 -15 116 -15 57 0 104 -2 104 -5
0 -2 -34 -140 -75 -306 -41 -165 -75 -316 -75 -335 0 -50 22 -95 63 -131 114
-100 287 -19 387 180 22 43 37 83 34 88 -14 23 -35 3 -68 -63 -45 -92 -104
-160 -159 -187 -85 -41 -137 -17 -137 63 0 33 125 578 156 679 5 15 19 17 109
17 121 0 135 4 135 36 0 24 -1 24 -110 24 -70 0 -110 4 -110 10 0 6 18 83 40
172 38 149 40 162 25 184 -20 31 -59 31 -89 1z"/>
<path d="M1415 4108 c-92 -9 -123 -24 -112 -52 5 -11 20 -16 49 -16 67 0 88
-9 88 -36 0 -13 -28 -134 -61 -269 l-61 -245 -28 44 c-82 128 -270 107 -425
-49 -242 -242 -261 -647 -34 -745 96 -41 197 -15 296 77 l51 48 21 -45 c29
-65 78 -95 154 -95 58 0 60 1 102 47 32 36 49 67 69 130 34 109 36 133 12 133
-14 0 -23 -17 -42 -83 -13 -46 -31 -97 -40 -114 -38 -73 -107 -101 -138 -56
-33 46 -20 112 134 724 83 327 148 599 145 604 -7 12 -54 11 -180 -2z m-207
-548 c36 -22 67 -68 82 -119 8 -29 0 -71 -46 -255 -30 -122 -62 -235 -71 -253
-20 -43 -113 -130 -165 -153 -67 -30 -114 -26 -153 13 -73 73 -71 207 6 462
47 155 107 246 193 295 60 35 108 38 154 10z"/>
<path d="M13284 4085 c-13 -34 3 -45 69 -45 119 0 123 54 -42 -602 -79 -315
-150 -585 -157 -599 -16 -31 -38 -39 -120 -39 -65 0 -92 -15 -80 -45 5 -13 40
-15 263 -13 l258 3 0 25 c0 23 -4 25 -55 28 -89 4 -100 8 -100 42 0 17 30 149
66 295 l66 265 142 0 c154 0 204 -9 254 -46 71 -55 78 -117 31 -310 -29 -118
-30 -133 -19 -182 16 -71 68 -125 141 -146 112 -34 199 -10 265 69 36 45 78
138 67 149 -19 19 -41 -1 -71 -65 -25 -52 -44 -77 -74 -97 -53 -35 -112 -36
-139 -3 -24 29 -24 77 -2 282 14 130 14 163 4 201 -17 61 -60 111 -121 141
l-50 25 79 27 c98 32 181 82 247 146 189 186 108 418 -171 489 -71 18 -111 20
-412 20 -287 0 -334 -2 -339 -15z m685 -56 c129 -27 186 -121 161 -262 -31
-170 -154 -288 -330 -316 -36 -6 -126 -11 -201 -11 l-137 0 71 283 c38 155 77
290 85 300 13 15 34 17 158 17 79 0 166 -5 193 -11z"/>
<path d="M7560 4028 c-52 -45 -131 -79 -218 -92 -72 -11 -77 -13 -77 -36 0
-24 3 -25 50 -21 44 3 125 24 178 46 16 7 17 -22 17 -528 0 -303 -4 -546 -9
-560 -12 -32 -27 -37 -138 -44 -89 -6 -93 -7 -93 -30 l0 -23 295 0 295 0 0 25
c0 24 -3 25 -57 26 -77 0 -151 13 -166 28 -9 9 -13 167 -17 623 -3 395 -9 612
-15 614 -5 2 -26 -11 -45 -28z"/>
<path d="M2050 4037 c-14 -7 -33 -29 -44 -51 -18 -37 -18 -38 1 -64 36 -48
109 -38 139 20 19 37 18 64 -6 88 -23 23 -54 25 -90 7z"/>
<path d="M1842 3599 c-52 -26 -113 -103 -146 -185 -33 -81 -36 -109 -12 -109
14 0 24 13 36 50 36 105 88 183 141 210 69 36 117 1 104 -77 -4 -24 -50 -158
-103 -298 -80 -212 -97 -265 -97 -312 0 -60 17 -94 66 -131 33 -24 98 -32 142
-18 54 18 115 84 153 165 43 90 54 146 30 146 -9 0 -20 -10 -25 -22 -46 -118
-67 -162 -96 -196 -58 -67 -126 -81 -154 -31 -21 37 -3 103 105 384 115 298
117 347 22 418 -40 30 -114 33 -166 6z"/>
<path d="M2565 3380 c-12 -19 6 -30 48 -30 81 0 82 23 -27 -417 -55 -219 -104
-408 -109 -420 -11 -24 -34 -33 -93 -33 -39 0 -63 -18 -47 -34 4 -3 160 -6
348 -6 l342 0 63 171 c44 121 59 174 51 182 -7 7 -17 -4 -32 -39 -66 -155
-108 -208 -192 -245 -44 -19 -74 -23 -189 -27 -123 -4 -138 -2 -138 12 0 37
202 822 215 835 9 9 44 17 87 20 59 5 73 9 76 24 3 16 -11 17 -197 17 -122 0
-202 -4 -206 -10z"/>
<path d="M14810 2687 c-14 -7 -33 -29 -44 -51 -18 -37 -18 -38 1 -64 36 -48
109 -38 139 20 19 37 18 64 -6 88 -23 23 -54 25 -90 7z"/>
<path d="M8450 2248 c-54 -29 -111 -102 -144 -183 -33 -83 -36 -110 -12 -110
14 0 24 13 36 50 48 142 120 225 193 225 66 0 66 -74 2 -255 -93 -262 -112
-372 -79 -468 30 -89 132 -146 242 -135 64 6 115 32 168 85 38 39 45 42 51 26
23 -64 93 -112 163 -113 77 0 132 62 174 198 31 99 32 122 9 122 -14 0 -25
-24 -50 -104 -46 -148 -107 -207 -167 -163 -41 30 -33 91 53 435 45 177 81
332 81 345 0 30 -18 47 -48 47 -63 0 -63 -1 -166 -415 -75 -301 -92 -338 -181
-390 -90 -53 -170 -43 -206 26 -40 80 -20 212 71 469 41 115 50 154 47 189
-12 113 -134 174 -237 119z"/>
<path d="M14602 2249 c-52 -26 -113 -103 -146 -185 -33 -81 -36 -109 -12 -109
14 0 24 13 36 50 36 105 88 183 141 210 69 36 117 1 104 -77 -4 -24 -50 -158
-103 -298 -80 -212 -97 -265 -97 -312 0 -60 17 -94 66 -131 33 -24 98 -32 142
-18 54 18 115 84 153 165 43 90 54 146 30 146 -9 0 -20 -10 -25 -22 -46 -118
-67 -162 -96 -196 -58 -67 -126 -81 -154 -31 -21 37 -3 103 105 384 115 298
117 347 22 418 -40 30 -114 33 -166 6z"/>
<path d="M4429 2084 c-9 -11 -10 -20 -2 -32 9 -16 63 -17 604 -20 327 -1 604
0 617 3 24 6 29 34 10 53 -9 9 -159 12 -614 12 -537 0 -603 -2 -615 -16z"/>
<path d="M9883 2052 c-175 -52 -334 -187 -420 -355 -33 -66 -63 -188 -63 -256
0 -268 230 -439 483 -361 126 39 239 136 297 255 34 70 40 100 22 100 -8 0
-24 -26 -37 -58 -47 -113 -128 -198 -241 -248 -69 -31 -202 -32 -259 -2 -51
27 -91 67 -119 118 -32 60 -31 249 2 355 57 182 165 319 303 385 226 107 391
13 393 -222 1 -70 4 -83 17 -83 13 0 26 40 63 185 25 101 46 189 46 195 0 23
-22 7 -72 -54 l-52 -64 -34 39 c-19 22 -53 49 -76 61 -57 30 -170 34 -253 10z"/>
<path d="M15335 2030 c-12 -19 6 -30 48 -30 81 0 82 23 -27 -417 -55 -219
-104 -408 -109 -420 -11 -24 -34 -33 -93 -33 -39 0 -63 -18 -47 -34 4 -3 160
-6 348 -6 l342 0 63 171 c44 121 59 174 51 182 -7 7 -17 -4 -32 -39 -66 -155
-108 -208 -192 -245 -44 -19 -74 -23 -189 -27 -123 -4 -138 -2 -138 12 0 37
202 822 215 835 9 9 44 17 87 20 59 5 73 9 76 24 3 16 -11 17 -197 17 -122 0
-202 -4 -206 -10z"/>
<path d="M590 1890 l0 -40 1310 0 1310 0 0 40 0 40 -1310 0 -1310 0 0 -40z"/>
<path d="M6880 1890 l0 -40 665 0 665 0 0 40 0 40 -665 0 -665 0 0 -40z"/>
<path d="M11026 1914 c-9 -8 -16 -19 -16 -24 0 -5 7 -16 16 -24 14 -14 79 -16
601 -14 545 3 587 4 597 21 8 12 8 22 0 35 -10 16 -52 17 -597 20 -522 2 -587
0 -601 -14z"/>
<path d="M12860 1890 l0 -40 750 0 750 0 0 40 0 40 -750 0 -750 0 0 -40z"/>
<path d="M4429 1724 c-9 -11 -10 -20 -2 -32 9 -16 63 -17 613 -20 437 -1 607
1 616 9 19 15 18 45 -2 53 -9 3 -285 6 -614 6 -533 0 -599 -2 -611 -16z"/>
<path d="M1865 1388 c-92 -9 -123 -24 -112 -52 5 -11 20 -16 49 -16 67 0 88
-9 88 -36 0 -13 -28 -134 -61 -269 l-61 -245 -28 44 c-82 128 -270 107 -425
-49 -242 -242 -261 -647 -34 -745 96 -41 197 -15 296 77 l51 48 21 -45 c29
-65 78 -95 154 -95 58 0 60 1 102 47 32 36 49 67 69 130 34 109 36 133 12 133
-14 0 -23 -17 -42 -83 -13 -46 -31 -97 -40 -114 -38 -73 -107 -101 -138 -56
-33 46 -20 112 134 724 83 327 148 599 145 604 -7 12 -54 11 -180 -2z m-207
-548 c36 -22 67 -68 82 -119 8 -29 0 -71 -46 -255 -30 -122 -62 -235 -71 -253
-20 -43 -113 -130 -165 -153 -67 -30 -114 -26 -153 13 -73 73 -71 207 6 462
47 155 107 246 193 295 60 35 108 38 154 10z"/>
<path d="M7304 1365 c-13 -34 3 -45 69 -45 114 0 118 55 -48 -610 -105 -420
-151 -590 -165 -604 -14 -14 -37 -21 -82 -23 -97 -6 -110 -10 -106 -36 l3 -22
494 0 494 0 89 244 c48 134 85 247 82 252 -15 25 -35 1 -69 -83 -84 -210 -172
-301 -332 -343 -40 -11 -109 -15 -230 -15 -152 0 -173 2 -173 16 0 23 289
1163 300 1184 14 27 64 40 150 40 81 0 109 13 96 45 -8 23 -564 23 -572 0z"/>
<path d="M13374 1365 c-13 -34 3 -45 69 -45 114 0 118 55 -48 -610 -105 -420
-151 -590 -165 -604 -14 -14 -37 -21 -82 -23 -97 -6 -110 -10 -106 -36 l3 -22
494 0 494 0 89 244 c48 134 85 247 82 252 -15 25 -35 1 -69 -83 -84 -210 -172
-301 -332 -343 -40 -11 -109 -15 -230 -15 -152 0 -173 2 -173 16 0 23 289
1163 300 1184 14 27 64 40 150 40 81 0 109 13 96 45 -8 23 -564 23 -572 0z"/>
<path d="M2446 1247 c-17 -17 -34 -67 -65 -195 l-43 -172 -113 0 c-88 0 -115
-3 -125 -15 -10 -12 -10 -18 0 -30 10 -12 36 -15 116 -15 57 0 104 -2 104 -5
0 -2 -34 -140 -75 -306 -41 -165 -75 -316 -75 -335 0 -50 22 -95 63 -131 114
-100 287 -19 387 180 22 43 37 83 34 88 -14 23 -35 3 -68 -63 -45 -92 -104
-160 -159 -187 -85 -41 -137 -17 -137 63 0 33 125 578 156 679 5 15 19 17 109
17 121 0 135 4 135 36 0 24 -1 24 -110 24 -70 0 -110 4 -110 10 0 6 18 83 40
172 38 149 40 162 25 184 -20 31 -59 31 -89 1z"/>
</g>
</svg>
