<?xml version="1.0" standalone="no"?>
<!DOCTYPE svg PUBLIC "-//W3C//DTD SVG 20010904//EN"
 "http://www.w3.org/TR/2001/REC-SVG-20010904/DTD/svg10.dtd">
<svg version="1.0" xmlns="http://www.w3.org/2000/svg"
 width="468pt" height="209pt" viewBox="0 0 468 209"
 preserveAspectRatio="xMidYMid meet">
<metadata>
Created by potrace 1.8, written by Peter Selinger 2001-2007
</metadata>
<g transform="translate(0,209) scale(0.267429,-0.267429)"
fill="#000000" stroke="none">
<path d="M750 720 c11 -28 20 -53 20 -55 0 -3 4 -5 9 -5 5 0 2 17 -6 38 -7 20
-16 45 -20 55 -3 9 -9 17 -14 17 -5 0 0 -23 11 -50z"/>
<path d="M1060 760 c-10 -6 -11 -10 -2 -10 7 0 12 -15 12 -39 0 -22 -5 -42
-12 -44 -7 -3 1 -6 17 -6 17 0 25 3 18 7 -6 4 -13 29 -15 54 -2 39 -6 46 -18
38z"/>
<path d="M490 737 c0 -10 11 -22 26 -27 18 -7 24 -15 20 -26 -3 -8 -2 -12 4
-9 17 11 11 34 -12 46 -13 7 -26 17 -30 23 -5 7 -8 4 -8 -7z"/>
<path d="M903 713 c15 -2 39 -2 55 0 15 2 2 4 -28 4 -30 0 -43 -2 -27 -4z"/>
<path d="M615 700 c-3 -5 -1 -10 4 -10 6 0 11 5 11 10 0 6 -2 10 -4 10 -3 0
-8 -4 -11 -10z"/>
<path d="M903 683 c15 -2 39 -2 55 0 15 2 2 4 -28 4 -30 0 -43 -2 -27 -4z"/>
<path d="M80 550 c-10 -6 -11 -10 -2 -10 7 0 12 -15 12 -39 0 -22 -5 -42 -12
-44 -7 -3 -4 -6 7 -6 18 -1 20 4 17 42 -5 66 -5 68 -22 57z"/>
<path d="M411 546 c-1 -11 2 -17 5 -13 3 3 4 12 1 19 -3 8 -6 5 -6 -6z"/>
<path d="M750 510 c11 -28 20 -53 20 -55 0 -3 4 -5 9 -5 5 0 2 17 -6 38 -7 20
-16 45 -20 55 -3 9 -9 17 -14 17 -5 0 0 -23 11 -50z"/>
<path d="M1060 550 c-10 -6 -11 -10 -2 -10 7 0 12 -15 12 -39 0 -22 -5 -42
-12 -44 -7 -3 1 -6 17 -6 17 0 25 3 18 7 -6 4 -13 29 -15 54 -2 39 -6 46 -18
38z"/>
<path d="M221 518 c-1 -21 -6 -28 -23 -29 l-23 -2 23 -4 c14 -3 22 -12 23 -26
2 -22 2 -22 6 1 3 14 12 22 26 23 l22 2 -22 4 c-14 3 -23 13 -26 31 l-4 27 -2
-27z"/>
<path d="M350 527 c0 -10 11 -22 26 -27 18 -7 24 -15 20 -26 -3 -8 -2 -12 4
-9 17 11 11 34 -12 46 -13 7 -26 17 -30 23 -5 7 -8 4 -8 -7z"/>
<path d="M543 490 c0 -25 2 -35 4 -22 2 12 2 32 0 45 -2 12 -4 2 -4 -23z"/>
<path d="M2 490 c0 -19 2 -27 5 -17 2 9 2 25 0 35 -3 9 -5 1 -5 -18z"/>
<path d="M441 474 c-6 -21 -9 -40 -6 -42 2 -2 8 13 14 34 6 21 9 40 6 42 -2 2
-8 -13 -14 -34z"/>
<path d="M903 503 c15 -2 39 -2 55 0 15 2 2 4 -28 4 -30 0 -43 -2 -27 -4z"/>
<path d="M615 490 c-3 -5 -1 -10 4 -10 6 0 11 5 11 10 0 6 -2 10 -4 10 -3 0
-8 -4 -11 -10z"/>
<path d="M331 466 c-1 -11 2 -17 5 -13 3 3 4 12 1 19 -3 8 -6 5 -6 -6z"/>
<path d="M903 473 c15 -2 39 -2 55 0 15 2 2 4 -28 4 -30 0 -43 -2 -27 -4z"/>
<path d="M472 450 c0 -14 2 -19 5 -12 2 6 2 18 0 25 -3 6 -5 1 -5 -13z"/>
<path d="M110 300 c11 -28 20 -53 20 -55 0 -3 4 -5 9 -5 5 0 2 17 -6 38 -7 20
-16 45 -20 55 -3 9 -9 17 -14 17 -5 0 0 -23 11 -50z"/>
<path d="M471 336 c-1 -11 2 -17 5 -13 3 3 4 12 1 19 -3 8 -6 5 -6 -6z"/>
<path d="M750 300 c11 -28 20 -53 20 -55 0 -3 4 -5 9 -5 5 0 2 17 -6 38 -7 20
-16 45 -20 55 -3 9 -9 17 -14 17 -5 0 0 -23 11 -50z"/>
<path d="M1060 340 c-10 -6 -11 -10 -2 -10 7 0 12 -15 12 -39 0 -22 -5 -42
-12 -44 -7 -3 1 -6 17 -6 17 0 25 3 18 7 -6 4 -13 29 -15 54 -2 39 -6 46 -18
38z"/>
<path d="M281 308 c-1 -21 -6 -28 -23 -29 l-23 -2 23 -4 c14 -3 22 -12 23 -26
2 -22 2 -22 6 1 3 14 12 22 26 23 l22 2 -22 4 c-14 3 -23 13 -26 31 l-4 27 -2
-27z"/>
<path d="M410 317 c0 -10 11 -22 26 -27 18 -7 24 -15 20 -26 -3 -8 -2 -12 4
-9 17 11 11 34 -12 46 -13 7 -26 17 -30 23 -5 7 -8 4 -8 -7z"/>
<path d="M502 260 c-5 -22 -6 -40 -2 -40 7 0 22 71 16 77 -2 2 -8 -14 -14 -37z"/>
<path d="M903 293 c15 -2 39 -2 55 0 15 2 2 4 -28 4 -30 0 -43 -2 -27 -4z"/>
<path d="M615 280 c-3 -5 -1 -10 4 -10 6 0 11 5 11 10 0 6 -2 10 -4 10 -3 0
-8 -4 -11 -10z"/>
<path d="M391 256 c-1 -11 2 -17 5 -13 3 3 4 12 1 19 -3 8 -6 5 -6 -6z"/>
<path d="M903 263 c15 -2 39 -2 55 0 15 2 2 4 -28 4 -30 0 -43 -2 -27 -4z"/>
<path d="M535 241 c-3 -5 -1 -12 5 -16 5 -3 10 1 10 9 0 18 -6 21 -15 7z"/>
<path d="M750 90 c11 -28 20 -53 20 -55 0 -3 4 -5 9 -5 5 0 2 17 -6 38 -7 20
-16 45 -20 55 -3 9 -9 17 -14 17 -5 0 0 -23 11 -50z"/>
<path d="M1060 130 c-10 -6 -11 -10 -2 -10 7 0 12 -15 12 -39 0 -22 -5 -42
-12 -44 -7 -3 1 -6 17 -6 17 0 25 3 18 7 -6 4 -13 29 -15 54 -2 39 -6 46 -18
38z"/>
<path d="M1670 90 c11 -28 20 -53 20 -55 0 -3 4 -5 9 -5 5 0 2 17 -6 38 -7 20
-16 45 -20 55 -3 9 -9 17 -14 17 -5 0 0 -23 11 -50z"/>
<path d="M1340 105 c0 -8 9 -19 21 -25 12 -7 18 -18 15 -26 -3 -9 -1 -12 4 -9
16 10 11 26 -15 51 -17 16 -25 19 -25 9z"/>
<path d="M903 83 c15 -2 39 -2 55 0 15 2 2 4 -28 4 -30 0 -43 -2 -27 -4z"/>
<path d="M1425 54 c-9 -50 0 -53 13 -4 5 22 6 40 2 40 -4 0 -11 -16 -15 -36z"/>
<path d="M1466 65 c-3 -9 -6 -26 -5 -38 1 -14 4 -9 9 13 9 37 7 52 -4 25z"/>
<path d="M1545 70 c-3 -5 -1 -10 4 -10 6 0 11 5 11 10 0 6 -2 10 -4 10 -3 0
-8 -4 -11 -10z"/>
<path d="M1183 63 c15 -2 39 -2 55 0 15 2 2 4 -28 4 -30 0 -43 -2 -27 -4z"/>
<path d="M903 53 c15 -2 39 -2 55 0 15 2 2 4 -28 4 -30 0 -43 -2 -27 -4z"/>
</g>
</svg>
