<?xml version="1.0" standalone="no"?>
<!DOCTYPE svg PUBLIC "-//W3C//DTD SVG 20010904//EN"
 "http://www.w3.org/TR/2001/REC-SVG-20010904/DTD/svg10.dtd">
<svg version="1.0" xmlns="http://www.w3.org/2000/svg"
 width="468pt" height="186pt" viewBox="0 0 468 186"
 preserveAspectRatio="xMidYMid meet">
<metadata>
Created by potrace 1.8, written by Peter Selinger 2001-2007
</metadata>
<g transform="translate(0,186) scale(0.022075,-0.022075)"
fill="#000000" stroke="none">
<path d="M6131 8385 c-85 -24 -151 -64 -227 -140 -81 -80 -120 -151 -137 -248
-20 -118 31 -237 127 -296 18 -11 102 -39 187 -62 174 -47 218 -66 248 -107
98 -139 3 -386 -184 -478 -55 -27 -69 -29 -165 -29 -86 0 -114 4 -152 22 -141
64 -190 167 -165 346 8 53 7 57 -12 57 -15 0 -23 -10 -30 -37 -52 -196 -109
-439 -105 -445 11 -17 26 -5 82 66 l59 74 39 -41 c72 -74 193 -113 324 -104
213 15 405 185 456 404 29 124 -1 238 -82 313 -53 48 -52 48 -246 101 -84 22
-167 50 -185 60 -20 12 -43 41 -59 75 -23 46 -26 63 -21 111 12 112 96 227
207 281 65 32 184 42 256 22 60 -17 126 -77 154 -142 21 -46 24 -69 23 -165
-1 -102 1 -113 17 -113 15 0 28 40 78 240 39 156 56 243 49 247 -10 6 -41 -24
-104 -101 l-32 -40 -40 46 c-55 62 -123 90 -226 95 -50 2 -100 -3 -134 -12z"/>
<path d="M8565 8339 c-4 -11 -4 -23 0 -27 3 -3 38 -9 77 -13 50 -4 75 -11 84
-23 24 -33 256 -586 251 -598 -2 -7 -115 -130 -249 -273 -265 -281 -309 -317
-414 -336 -32 -6 -69 -13 -82 -15 -17 -4 -22 -10 -20 -27 3 -22 5 -22 209 -25
167 -2 208 0 218 12 15 18 3 46 -21 46 -38 0 -58 19 -58 56 0 31 18 54 168
217 92 100 192 208 222 241 l56 59 107 -252 c59 -138 107 -258 107 -266 0 -20
-58 -55 -92 -55 -30 0 -57 -35 -41 -51 5 -5 114 -8 249 -7 l239 3 0 25 c0 24
-4 25 -67 31 -37 3 -74 11 -82 18 -13 11 -296 661 -296 679 0 9 192 216 334
360 125 127 192 169 289 179 59 6 83 22 73 48 -4 13 -37 15 -215 15 -201 0
-210 -1 -216 -20 -8 -27 1 -40 29 -40 26 0 56 -29 56 -54 0 -32 -22 -59 -198
-248 l-176 -189 -11 28 c-7 16 -49 112 -93 215 -45 103 -79 194 -76 202 6 16
63 46 87 46 31 0 47 13 47 36 l0 24 -244 0 c-239 0 -245 0 -251 -21z"/>
<path d="M12950 8288 c-52 -45 -131 -79 -218 -92 -72 -11 -77 -13 -77 -36 0
-24 3 -25 50 -21 44 3 125 24 178 46 16 7 17 -22 17 -528 0 -303 -4 -546 -9
-560 -12 -32 -27 -37 -138 -44 -89 -6 -93 -7 -93 -30 l0 -23 295 0 295 0 0 25
c0 24 -3 25 -57 26 -77 0 -151 13 -166 28 -9 9 -13 167 -17 623 -3 395 -9 612
-15 614 -5 2 -26 -11 -45 -28z"/>
<path d="M10589 7694 c-9 -11 -10 -20 -2 -32 9 -16 63 -17 604 -20 327 -1 604
0 617 3 24 6 29 34 10 53 -9 9 -159 12 -614 12 -537 0 -603 -2 -615 -16z"/>
<path d="M7374 7566 c-26 -26 -34 -42 -34 -71 0 -29 8 -45 34 -71 26 -26 42
-34 71 -34 29 0 45 8 71 34 70 70 24 176 -77 176 -22 0 -41 -10 -65 -34z"/>
<path d="M10589 7334 c-9 -11 -10 -20 -2 -32 9 -16 63 -17 613 -20 437 -1 607
1 616 9 19 15 18 45 -2 53 -9 3 -285 6 -614 6 -533 0 -599 -2 -611 -16z"/>
<path d="M349 6218 c-164 -159 -274 -381 -325 -653 -27 -140 -27 -440 0 -580
37 -201 115 -394 212 -525 78 -107 194 -211 194 -174 0 3 -26 36 -57 74 -191
226 -283 524 -283 915 0 389 86 672 276 906 35 43 64 81 64 84 0 18 -35 -2
-81 -47z"/>
<path d="M6117 6264 c-4 -4 14 -30 40 -58 212 -234 318 -592 300 -1011 -17
-374 -112 -646 -298 -849 -52 -57 -51 -83 0 -47 82 58 190 204 257 345 91 192
128 376 128 631 0 392 -109 698 -329 923 -68 69 -84 80 -98 66z"/>
<path d="M4481 6165 c-85 -24 -151 -64 -227 -140 -81 -80 -120 -151 -137 -248
-20 -118 31 -237 127 -296 18 -11 102 -39 187 -62 174 -47 218 -66 248 -107
98 -139 3 -386 -184 -478 -55 -27 -69 -29 -165 -29 -86 0 -114 4 -152 22 -141
64 -190 167 -165 346 8 53 7 57 -12 57 -15 0 -23 -10 -30 -37 -52 -196 -109
-439 -105 -445 11 -17 26 -5 82 66 l59 74 39 -41 c72 -74 193 -113 324 -104
213 15 405 185 456 404 29 124 -1 238 -82 313 -53 48 -52 48 -246 101 -84 22
-167 50 -185 60 -20 12 -43 41 -59 75 -23 46 -26 63 -21 111 12 112 96 227
207 281 65 32 184 42 256 22 60 -17 126 -77 154 -142 21 -46 24 -69 23 -165
-1 -102 1 -113 17 -113 15 0 28 40 78 240 39 156 56 243 49 247 -10 6 -41 -24
-104 -101 l-32 -40 -40 46 c-55 62 -123 90 -226 95 -50 2 -100 -3 -134 -12z"/>
<path d="M8565 6119 c-4 -11 -4 -23 0 -27 3 -3 38 -9 77 -13 50 -4 75 -11 84
-23 24 -33 256 -586 251 -598 -2 -7 -115 -130 -249 -273 -265 -281 -309 -317
-414 -336 -32 -6 -69 -13 -82 -15 -17 -4 -22 -10 -20 -27 3 -22 5 -22 209 -25
167 -2 208 0 218 12 15 18 3 46 -21 46 -38 0 -58 19 -58 56 0 31 18 54 168
217 92 100 192 208 222 241 l56 59 107 -252 c59 -138 107 -258 107 -266 0 -20
-58 -55 -92 -55 -30 0 -57 -35 -41 -51 5 -5 114 -8 249 -7 l239 3 0 25 c0 24
-4 25 -67 31 -37 3 -74 11 -82 18 -13 11 -296 661 -296 679 0 9 192 216 334
360 125 127 192 169 289 179 59 6 83 22 73 48 -4 13 -37 15 -215 15 -201 0
-210 -1 -216 -20 -8 -27 1 -40 29 -40 26 0 56 -29 56 -54 0 -32 -22 -59 -198
-248 l-176 -189 -11 28 c-7 16 -49 112 -93 215 -45 103 -79 194 -76 202 6 16
63 46 87 46 31 0 47 13 47 36 l0 24 -244 0 c-239 0 -245 0 -251 -21z"/>
<path d="M1000 6068 c-52 -45 -131 -79 -218 -92 -72 -11 -77 -13 -77 -36 0
-24 3 -25 50 -21 44 3 125 24 178 46 16 7 17 -22 17 -528 0 -303 -4 -546 -9
-560 -12 -32 -27 -37 -138 -44 -89 -6 -93 -7 -93 -30 l0 -23 295 0 295 0 0 25
c0 24 -3 25 -57 26 -77 0 -151 13 -166 28 -9 9 -13 167 -17 623 -3 395 -9 612
-15 614 -5 2 -26 -11 -45 -28z"/>
<path d="M12950 6068 c-52 -45 -131 -79 -218 -92 -72 -11 -77 -13 -77 -36 0
-24 3 -25 50 -21 44 3 125 24 178 46 16 7 17 -22 17 -528 0 -303 -4 -546 -9
-560 -12 -32 -27 -37 -138 -44 -89 -6 -93 -7 -93 -30 l0 -23 295 0 295 0 0 25
c0 24 -3 25 -57 26 -77 0 -151 13 -166 28 -9 9 -13 167 -17 623 -3 395 -9 612
-15 614 -5 2 -26 -11 -45 -28z"/>
<path d="M2572 5888 c-9 -9 -12 -88 -12 -295 l0 -283 -286 -2 c-255 -3 -288
-5 -297 -20 -8 -12 -7 -21 2 -32 12 -14 51 -16 297 -16 l284 0 0 -279 c0 -154
3 -286 6 -295 7 -19 35 -21 52 -4 9 9 12 88 12 295 l0 283 279 0 c154 0 286 3
295 6 9 3 16 16 16 29 0 13 -7 26 -16 29 -9 3 -141 6 -295 6 l-279 0 0 283 c0
283 -3 307 -35 307 -6 0 -16 -5 -23 -12z"/>
<path d="M10589 5474 c-9 -11 -10 -20 -2 -32 9 -16 63 -17 604 -20 327 -1 604
0 617 3 24 6 29 34 10 53 -9 9 -159 12 -614 12 -537 0 -603 -2 -615 -16z"/>
<path d="M5257 5417 c-8 -21 1 -27 44 -27 52 0 69 -8 69 -34 -1 -34 -198 -808
-209 -819 -6 -6 -37 -13 -70 -15 -39 -3 -62 -9 -65 -19 -3 -7 0 -16 7 -19 7
-2 91 -3 187 -2 148 3 175 5 175 18 0 11 -15 16 -52 20 -28 3 -55 9 -59 13 -5
4 14 98 41 207 l49 200 108 0 c126 0 168 -13 198 -62 25 -41 25 -60 -1 -161
-35 -138 -26 -189 42 -239 27 -20 105 -34 143 -24 52 13 126 102 126 151 0 27
-18 13 -43 -35 -40 -76 -114 -111 -153 -73 -15 15 -16 29 -8 118 4 55 8 132 9
172 0 66 -2 74 -30 103 -16 18 -43 39 -60 47 l-30 16 50 17 c115 39 200 102
234 173 50 102 5 197 -119 256 -54 26 -59 26 -316 29 -223 3 -262 1 -267 -11z
m526 -52 c70 -33 91 -100 63 -199 -21 -72 -78 -135 -149 -167 -43 -19 -74 -23
-184 -27 l-131 -4 50 198 c27 109 55 205 61 212 18 22 239 12 290 -13z"/>
<path d="M7374 5346 c-26 -26 -34 -42 -34 -71 0 -29 8 -45 34 -71 26 -26 42
-34 71 -34 29 0 45 8 71 34 70 70 24 176 -77 176 -22 0 -41 -10 -65 -34z"/>
<path d="M10589 5114 c-9 -11 -10 -20 -2 -32 9 -16 63 -17 613 -20 437 -1 607
1 616 9 19 15 18 45 -2 53 -9 3 -285 6 -614 6 -533 0 -599 -2 -611 -16z"/>
<path d="M5191 3945 c-85 -24 -151 -64 -227 -140 -81 -80 -120 -151 -137 -248
-20 -118 31 -237 127 -296 18 -11 102 -39 187 -62 174 -47 218 -66 248 -107
98 -139 3 -386 -184 -478 -55 -27 -69 -29 -165 -29 -86 0 -114 4 -152 22 -141
64 -190 167 -165 346 8 53 7 57 -12 57 -15 0 -23 -10 -30 -37 -52 -196 -109
-439 -105 -445 11 -17 26 -5 82 66 l59 74 39 -41 c72 -74 193 -113 324 -104
213 15 405 185 456 404 29 124 -1 238 -82 313 -53 48 -52 48 -246 101 -84 22
-167 50 -185 60 -20 12 -43 41 -59 75 -23 46 -26 63 -21 111 12 112 96 227
207 281 65 32 184 42 256 22 60 -17 126 -77 154 -142 21 -46 24 -69 23 -165
-1 -102 1 -113 17 -113 15 0 28 40 78 240 39 156 56 243 49 247 -10 6 -41 -24
-104 -101 l-32 -40 -40 46 c-55 62 -123 90 -226 95 -50 2 -100 -3 -134 -12z"/>
<path d="M775 3899 c-4 -11 -4 -23 0 -27 3 -3 38 -9 77 -13 50 -4 75 -11 84
-23 24 -33 256 -586 251 -598 -2 -7 -115 -130 -249 -273 -265 -281 -309 -317
-414 -336 -32 -6 -69 -13 -82 -15 -17 -4 -22 -10 -20 -27 3 -22 5 -22 209 -25
167 -2 208 0 218 12 15 18 3 46 -21 46 -38 0 -58 19 -58 56 0 31 18 54 168
217 92 100 192 208 222 241 l56 59 107 -252 c59 -138 107 -258 107 -266 0 -20
-58 -55 -92 -55 -30 0 -57 -35 -41 -51 5 -5 114 -8 249 -7 l239 3 0 25 c0 24
-4 25 -67 31 -37 3 -74 11 -82 18 -13 11 -296 661 -296 679 0 9 192 216 334
360 125 127 192 169 289 179 59 6 83 22 73 48 -4 13 -37 15 -215 15 -201 0
-210 -1 -216 -20 -8 -27 1 -40 29 -40 26 0 56 -29 56 -54 0 -32 -22 -59 -198
-248 l-176 -189 -11 28 c-7 16 -49 112 -93 215 -45 103 -79 194 -76 202 6 16
63 46 87 46 31 0 47 13 47 36 l0 24 -244 0 c-239 0 -245 0 -251 -21z"/>
<path d="M8565 3899 c-4 -11 -4 -23 0 -27 3 -3 38 -9 77 -13 50 -4 75 -11 84
-23 24 -33 256 -586 251 -598 -2 -7 -115 -130 -249 -273 -265 -281 -309 -317
-414 -336 -32 -6 -69 -13 -82 -15 -17 -4 -22 -10 -20 -27 3 -22 5 -22 209 -25
167 -2 208 0 218 12 15 18 3 46 -21 46 -38 0 -58 19 -58 56 0 31 18 54 168
217 92 100 192 208 222 241 l56 59 107 -252 c59 -138 107 -258 107 -266 0 -20
-58 -55 -92 -55 -30 0 -57 -35 -41 -51 5 -5 114 -8 249 -7 l239 3 0 25 c0 24
-4 25 -67 31 -37 3 -74 11 -82 18 -13 11 -296 661 -296 679 0 9 192 216 334
360 125 127 192 169 289 179 59 6 83 22 73 48 -4 13 -37 15 -215 15 -201 0
-210 -1 -216 -20 -8 -27 1 -40 29 -40 26 0 56 -29 56 -54 0 -32 -22 -59 -198
-248 l-176 -189 -11 28 c-7 16 -49 112 -93 215 -45 103 -79 194 -76 202 6 16
63 46 87 46 31 0 47 13 47 36 l0 24 -244 0 c-239 0 -245 0 -251 -21z"/>
<path d="M12950 3848 c-52 -45 -131 -79 -218 -92 -72 -11 -77 -13 -77 -36 0
-24 3 -25 50 -21 44 3 125 24 178 46 16 7 17 -22 17 -528 0 -303 -4 -546 -9
-560 -12 -32 -27 -37 -138 -44 -89 -6 -93 -7 -93 -30 l0 -23 295 0 295 0 0 25
c0 24 -3 25 -57 26 -77 0 -151 13 -166 28 -9 9 -13 167 -17 623 -3 395 -9 612
-15 614 -5 2 -26 -11 -45 -28z"/>
<path d="M3282 3668 c-9 -9 -12 -88 -12 -295 l0 -283 -286 -2 c-255 -3 -288
-5 -297 -20 -8 -12 -7 -21 2 -32 12 -14 51 -16 297 -16 l284 0 0 -279 c0 -154
3 -286 6 -295 7 -19 35 -21 52 -4 9 9 12 88 12 295 l0 283 279 0 c154 0 286 3
295 6 9 3 16 16 16 29 0 13 -7 26 -16 29 -9 3 -141 6 -295 6 l-279 0 0 283 c0
283 -3 307 -35 307 -6 0 -16 -5 -23 -12z"/>
<path d="M10589 3254 c-9 -11 -10 -20 -2 -32 9 -16 63 -17 604 -20 327 -1 604
0 617 3 24 6 29 34 10 53 -9 9 -159 12 -614 12 -537 0 -603 -2 -615 -16z"/>
<path d="M5967 3197 c-8 -21 1 -27 44 -27 52 0 69 -8 69 -34 -1 -34 -198 -808
-209 -819 -6 -6 -37 -13 -70 -15 -39 -3 -62 -9 -65 -19 -3 -7 0 -16 7 -19 7
-2 91 -3 187 -2 148 3 175 5 175 18 0 11 -15 16 -52 20 -28 3 -55 9 -59 13 -5
4 14 98 41 207 l49 200 108 0 c126 0 168 -13 198 -62 25 -41 25 -60 -1 -161
-35 -138 -26 -189 42 -239 27 -20 105 -34 143 -24 52 13 126 102 126 151 0 27
-18 13 -43 -35 -40 -76 -114 -111 -153 -73 -15 15 -16 29 -8 118 4 55 8 132 9
172 0 66 -2 74 -30 103 -16 18 -43 39 -60 47 l-30 16 50 17 c115 39 200 102
234 173 50 102 5 197 -119 256 -54 26 -59 26 -316 29 -223 3 -262 1 -267 -11z
m526 -52 c70 -33 91 -100 63 -199 -21 -72 -78 -135 -149 -167 -43 -19 -74 -23
-184 -27 l-131 -4 50 198 c27 109 55 205 61 212 18 22 239 12 290 -13z"/>
<path d="M7374 3126 c-26 -26 -34 -42 -34 -71 0 -52 53 -105 105 -105 29 0 45
8 71 34 70 70 24 176 -77 176 -22 0 -41 -10 -65 -34z"/>
<path d="M10589 2894 c-9 -11 -10 -20 -2 -32 9 -16 63 -17 613 -20 437 -1 607
1 616 9 19 15 18 45 -2 53 -9 3 -285 6 -614 6 -533 0 -599 -2 -611 -16z"/>
<path d="M16551 1715 c-85 -24 -151 -64 -227 -140 -81 -80 -120 -151 -137
-248 -20 -118 31 -237 127 -296 18 -11 102 -39 187 -62 174 -47 218 -66 248
-107 98 -139 3 -386 -184 -478 -55 -27 -69 -29 -165 -29 -86 0 -114 4 -152 22
-141 64 -190 167 -165 346 8 53 7 57 -12 57 -15 0 -23 -10 -30 -37 -52 -196
-109 -439 -105 -445 11 -17 26 -5 82 66 l59 74 39 -41 c72 -74 193 -113 324
-104 213 15 405 185 456 404 29 124 -1 238 -82 313 -53 48 -52 48 -246 101
-84 22 -167 50 -185 60 -20 12 -43 41 -59 75 -23 46 -26 63 -21 111 12 112 96
227 207 281 65 32 184 42 256 22 60 -17 126 -77 154 -142 21 -46 24 -69 23
-165 -1 -102 1 -113 17 -113 15 0 28 40 78 240 39 156 56 243 49 247 -10 6
-41 -24 -104 -101 l-32 -40 -40 46 c-55 62 -123 90 -226 95 -50 2 -100 -3
-134 -12z"/>
<path d="M8565 1669 c-4 -11 -4 -23 0 -27 3 -3 38 -9 77 -13 50 -4 75 -11 84
-23 24 -33 256 -586 251 -598 -2 -7 -115 -130 -249 -273 -265 -281 -309 -317
-414 -336 -32 -6 -69 -13 -82 -15 -17 -4 -22 -10 -20 -27 3 -22 5 -22 209 -25
167 -2 208 0 218 12 15 18 3 46 -21 46 -38 0 -58 19 -58 56 0 31 18 54 168
217 92 100 192 208 222 241 l56 59 107 -252 c59 -138 107 -258 107 -266 0 -20
-58 -55 -92 -55 -30 0 -57 -35 -41 -51 5 -5 114 -8 249 -7 l239 3 0 25 c0 24
-4 25 -67 31 -37 3 -74 11 -82 18 -13 11 -296 661 -296 679 0 9 192 216 334
360 125 127 192 169 289 179 59 6 83 22 73 48 -4 13 -37 15 -215 15 -201 0
-210 -1 -216 -20 -8 -27 1 -40 29 -40 26 0 56 -29 56 -54 0 -32 -22 -59 -198
-248 l-176 -189 -11 28 c-7 16 -49 112 -93 215 -45 103 -79 194 -76 202 6 16
63 46 87 46 31 0 47 13 47 36 l0 24 -244 0 c-239 0 -245 0 -251 -21z"/>
<path d="M19925 1669 c-4 -11 -4 -23 0 -27 3 -3 38 -9 77 -13 50 -4 75 -11 84
-23 24 -33 256 -586 251 -598 -2 -7 -115 -130 -249 -273 -265 -281 -309 -317
-414 -336 -32 -6 -69 -13 -82 -15 -17 -4 -22 -10 -20 -27 3 -22 5 -22 209 -25
167 -2 208 0 218 12 15 18 3 46 -21 46 -38 0 -58 19 -58 56 0 31 18 54 168
217 92 100 192 208 222 241 l56 59 107 -252 c59 -138 107 -258 107 -266 0 -20
-58 -55 -92 -55 -30 0 -57 -35 -41 -51 5 -5 114 -8 249 -7 l239 3 0 25 c0 24
-4 25 -67 31 -37 3 -74 11 -82 18 -13 11 -296 661 -296 679 0 9 192 216 334
360 125 127 192 169 289 179 59 6 83 22 73 48 -4 13 -37 15 -215 15 -201 0
-210 -1 -216 -20 -8 -27 1 -40 29 -40 26 0 56 -29 56 -54 0 -32 -22 -59 -198
-248 l-176 -189 -11 28 c-7 16 -49 112 -93 215 -45 103 -79 194 -76 202 6 16
63 46 87 46 31 0 47 13 47 36 l0 24 -244 0 c-239 0 -245 0 -251 -21z"/>
<path d="M12950 1618 c-52 -45 -131 -79 -218 -92 -72 -11 -77 -13 -77 -36 0
-24 3 -25 50 -21 44 3 125 24 178 46 16 7 17 -22 17 -528 0 -303 -4 -546 -9
-560 -12 -32 -27 -37 -138 -44 -89 -6 -93 -7 -93 -30 l0 -23 295 0 295 0 0 25
c0 24 -3 25 -57 26 -77 0 -151 13 -166 28 -9 9 -13 167 -17 623 -3 395 -9 612
-15 614 -5 2 -26 -11 -45 -28z"/>
<path d="M10589 1024 c-9 -11 -10 -20 -2 -32 9 -16 63 -17 604 -20 327 -1 604
0 617 3 24 6 29 34 10 53 -9 9 -159 12 -614 12 -537 0 -603 -2 -615 -16z"/>
<path d="M17327 977 c-8 -21 1 -27 44 -27 52 0 69 -8 69 -34 -1 -34 -198 -808
-209 -819 -6 -6 -37 -13 -70 -15 -39 -3 -62 -9 -65 -19 -3 -7 0 -16 7 -19 7
-2 91 -3 187 -2 148 3 175 5 175 18 0 11 -15 16 -52 20 -28 3 -55 9 -59 13 -5
4 14 98 41 207 l49 200 108 0 c126 0 168 -13 198 -62 25 -41 25 -60 -1 -161
-35 -138 -26 -189 42 -239 27 -20 105 -34 143 -24 52 13 126 102 126 151 0 27
-18 13 -43 -35 -40 -76 -114 -111 -153 -73 -15 15 -16 29 -8 118 4 55 8 132 9
172 0 66 -2 74 -30 103 -16 18 -43 39 -60 47 l-30 16 50 17 c115 39 200 102
234 173 50 102 5 197 -119 256 -54 26 -59 26 -316 29 -223 3 -262 1 -267 -11z
m526 -52 c70 -33 91 -100 63 -199 -21 -72 -78 -135 -149 -167 -43 -19 -74 -23
-184 -27 l-131 -4 50 198 c27 109 55 205 61 212 18 22 239 12 290 -13z"/>
<path d="M18734 896 c-26 -26 -34 -42 -34 -71 0 -52 53 -105 105 -105 29 0 45
8 71 34 70 70 24 176 -77 176 -22 0 -41 -10 -65 -34z"/>
<path d="M14016 854 c-9 -8 -16 -19 -16 -24 0 -5 7 -16 16 -24 14 -14 79 -16
601 -14 545 3 587 4 597 21 8 12 8 22 0 35 -10 16 -52 17 -597 20 -522 2 -587
0 -601 -14z"/>
<path d="M10589 664 c-9 -11 -10 -20 -2 -32 9 -16 63 -17 613 -20 437 -1 607
1 616 9 19 15 18 45 -2 53 -9 3 -285 6 -614 6 -533 0 -599 -2 -611 -16z"/>
</g>
</svg>
