<?xml version="1.0" standalone="no"?>
<!DOCTYPE svg PUBLIC "-//W3C//DTD SVG 20010904//EN"
 "http://www.w3.org/TR/2001/REC-SVG-20010904/DTD/svg10.dtd">
<svg version="1.0" xmlns="http://www.w3.org/2000/svg"
 width="468pt" height="37pt" viewBox="0 0 468 37"
 preserveAspectRatio="xMidYMid meet">
<metadata>
Created by potrace 1.8, written by Peter Selinger 2001-2007
</metadata>
<g transform="translate(0,37) scale(0.281928,-0.281928)"
fill="#000000" stroke="none">
<path d="M140 120 c-10 -6 -11 -10 -2 -10 7 0 12 -15 12 -39 0 -22 -5 -42 -12
-44 -7 -3 1 -6 17 -6 17 0 25 3 18 7 -6 4 -13 29 -15 54 -2 39 -6 46 -18 38z"/>
<path d="M430 120 c-10 -6 -11 -10 -2 -10 7 0 12 -15 12 -39 0 -22 -5 -42 -12
-44 -7 -3 1 -6 17 -6 17 0 25 3 18 7 -6 4 -13 29 -15 54 -2 39 -6 46 -18 38z"/>
<path d="M720 121 c12 -8 13 -16 3 -43 -11 -30 -11 -31 3 -13 18 24 15 57 -6
62 -13 4 -13 3 0 -6z"/>
<path d="M989 119 c-1 -8 0 -26 1 -41 1 -20 -4 -27 -22 -31 l-23 -4 23 -2 c13
0 20 -5 17 -11 -3 -5 0 -10 8 -10 10 0 13 12 9 53 -4 51 -11 75 -13 46z"/>
<path d="M1257 123 c6 -2 14 -10 16 -16 2 -7 3 -5 3 3 -1 8 -8 15 -16 16 -8 0
-10 -1 -3 -3z"/>
<path d="M571 88 c-1 -21 -6 -28 -23 -29 l-23 -2 23 -4 c14 -3 22 -12 23 -26
2 -22 2 -22 6 1 3 16 12 22 31 23 l27 2 -27 4 c-20 3 -28 11 -31 31 l-4 27 -2
-27z"/>
<path d="M841 88 c-1 -21 -6 -28 -23 -29 l-23 -2 23 -4 c14 -3 22 -12 23 -26
2 -22 2 -22 6 1 3 16 12 22 31 23 l27 2 -27 4 c-20 3 -28 11 -31 31 l-4 27 -2
-27z"/>
<path d="M1111 88 c-1 -21 -6 -28 -23 -29 l-23 -2 23 -4 c14 -3 22 -12 23 -26
2 -22 2 -22 6 1 3 16 12 22 31 23 l27 2 -27 4 c-20 3 -28 11 -31 31 l-4 27 -2
-27z"/>
<path d="M1381 88 c-1 -21 -6 -28 -23 -29 l-23 -2 23 -4 c14 -3 22 -12 23 -26
2 -22 2 -22 6 1 3 16 12 22 31 23 l27 2 -27 4 c-20 3 -28 11 -31 31 l-4 27 -2
-27z"/>
<path d="M1233 87 c3 -9 2 -19 -3 -22 -6 -4 -10 -11 -10 -18 0 -6 6 -2 14 8
14 19 15 19 35 1 12 -11 21 -14 21 -8 0 6 -14 21 -32 33 -25 18 -30 19 -25 6z"/>
<path d="M273 73 c15 -2 39 -2 55 0 15 2 2 4 -28 4 -30 0 -43 -2 -27 -4z"/>
<path d="M22 53 c16 -2 40 -2 56 0 15 2 2 4 -28 4 -30 0 -43 -2 -28 -4z"/>
<path d="M273 43 c15 -2 39 -2 55 0 15 2 2 4 -28 4 -30 0 -43 -2 -27 -4z"/>
<path d="M710 30 l-25 -8 28 -1 c15 -1 27 4 27 9 0 6 -1 10 -2 9 -2 -1 -14 -5
-28 -9z"/>
<path d="M1243 24 c3 -3 12 -4 19 -1 8 3 5 6 -6 6 -11 1 -17 -2 -13 -5z"/>
</g>
</svg>
