<?xml version="1.0" standalone="no"?>
<!DOCTYPE svg PUBLIC "-//W3C//DTD SVG 20010904//EN"
 "http://www.w3.org/TR/2001/REC-SVG-20010904/DTD/svg10.dtd">
<svg version="1.0" xmlns="http://www.w3.org/2000/svg"
 width="468pt" height="21pt" viewBox="0 0 468 21"
 preserveAspectRatio="xMidYMid meet">
<metadata>
Created by potrace 1.8, written by Peter Selinger 2001-2007
</metadata>
<g transform="translate(0,21) scale(0.010004,-0.010004)"
fill="#000000" stroke="none">
<path d="M11996 1958 c-8 -18 -166 -458 -351 -978 -243 -682 -334 -949 -327
-960 5 -8 19 -16 31 -18 16 -3 25 4 35 30 8 18 165 458 351 978 240 675 334
949 327 960 -5 8 -19 16 -31 18 -16 3 -25 -4 -35 -30z"/>
<path d="M19399 1938 c-122 -118 -215 -271 -273 -449 -56 -172 -71 -278 -71
-494 0 -215 15 -322 70 -491 60 -184 146 -328 267 -446 50 -50 88 -72 88 -52
0 3 -26 36 -57 74 -191 226 -283 524 -283 915 0 389 86 672 276 906 35 43 64
81 64 84 0 18 -35 -2 -81 -47z"/>
<path d="M24626 1958 c-8 -18 -166 -458 -351 -978 -243 -682 -334 -949 -327
-960 5 -8 19 -16 31 -18 16 -3 25 4 35 30 8 18 165 458 351 978 240 675 334
949 327 960 -5 8 -19 16 -31 18 -16 3 -25 -4 -35 -30z"/>
<path d="M25817 1984 c-4 -4 14 -30 40 -58 212 -234 318 -592 300 -1011 -17
-374 -112 -646 -298 -849 -52 -57 -51 -83 0 -47 82 58 190 204 257 345 91 192
128 376 128 631 0 392 -109 698 -329 923 -68 69 -84 80 -98 66z"/>
<path d="M27216 1958 c-8 -18 -166 -458 -351 -978 -243 -682 -334 -949 -327
-960 5 -8 19 -16 31 -18 16 -3 25 4 35 30 8 18 165 458 351 978 240 675 334
949 327 960 -5 8 -19 16 -31 18 -16 3 -25 -4 -35 -30z"/>
<path d="M35796 1958 c-8 -18 -166 -458 -351 -978 -243 -682 -334 -949 -327
-960 5 -8 19 -16 31 -18 16 -3 25 4 35 30 8 18 165 458 351 978 240 675 334
949 327 960 -5 8 -19 16 -31 18 -16 3 -25 -4 -35 -30z"/>
<path d="M41026 1958 c-8 -18 -166 -458 -351 -978 -243 -682 -334 -949 -327
-960 5 -8 19 -16 31 -18 16 -3 25 4 35 30 8 18 165 458 351 978 240 675 334
949 327 960 -5 8 -19 16 -31 18 -16 3 -25 -4 -35 -30z"/>
<path d="M41546 1361 c-188 -298 -296 -479 -296 -495 l0 -26 255 0 255 0 0
-130 c0 -151 2 -148 -111 -157 -64 -5 -69 -8 -69 -29 l0 -24 240 0 240 0 0 24
c0 22 -5 24 -72 30 -106 10 -108 13 -108 163 l0 123 100 0 c100 0 100 0 100
25 0 25 0 25 -100 25 l-100 0 -2 467 c-3 423 -5 468 -19 471 -12 2 -97 -124
-313 -467z m221 -468 c-2 -2 -110 -2 -239 -1 l-235 3 236 377 236 377 3 -376
c1 -207 1 -378 -1 -380z"/>
<path d="M263 1806 c-136 -43 -237 -177 -250 -331 -4 -51 -2 -64 17 -87 16
-22 30 -28 59 -28 49 0 81 32 81 82 0 42 -36 78 -76 78 -71 0 34 173 134 221
62 30 158 31 222 2 176 -78 223 -325 104 -542 -50 -90 -95 -146 -334 -418
-143 -161 -210 -245 -210 -260 l0 -23 350 0 350 0 5 23 c5 22 45 272 45 282 0
3 -8 5 -18 5 -15 0 -20 -14 -31 -75 -20 -123 -1 -116 -316 -113 l-270 3 258
259 c142 143 276 286 297 319 108 161 104 361 -10 490 -88 101 -277 153 -407
113z"/>
<path d="M7420 1788 c-52 -45 -131 -79 -218 -92 -72 -11 -77 -13 -77 -36 0
-24 3 -25 50 -21 44 3 125 24 178 46 16 7 17 -22 17 -528 0 -303 -4 -546 -9
-560 -12 -32 -27 -37 -138 -44 -89 -6 -93 -7 -93 -30 l0 -23 295 0 295 0 0 25
c0 24 -3 25 -57 26 -77 0 -151 13 -166 28 -9 9 -13 167 -17 623 -3 395 -9 612
-15 614 -5 2 -26 -11 -45 -28z"/>
<path d="M12513 1806 c-136 -43 -237 -177 -250 -331 -4 -51 -2 -64 17 -87 16
-22 30 -28 59 -28 49 0 81 32 81 82 0 42 -36 78 -76 78 -71 0 34 173 134 221
62 30 158 31 222 2 176 -78 223 -325 104 -542 -50 -90 -95 -146 -334 -418
-143 -161 -210 -245 -210 -260 l0 -23 350 0 350 0 5 23 c5 22 45 272 45 282 0
3 -8 5 -18 5 -15 0 -20 -14 -31 -75 -20 -123 -1 -116 -316 -113 l-270 3 258
259 c142 143 276 286 297 319 108 161 104 361 -10 490 -88 101 -277 153 -407
113z"/>
<path d="M16100 1788 c-52 -45 -131 -79 -218 -92 -72 -11 -77 -13 -77 -36 0
-24 3 -25 50 -21 44 3 125 24 178 46 16 7 17 -22 17 -528 0 -303 -4 -546 -9
-560 -12 -32 -27 -37 -138 -44 -89 -6 -93 -7 -93 -30 l0 -23 295 0 295 0 0 25
c0 24 -3 25 -57 26 -77 0 -151 13 -166 28 -9 9 -13 167 -17 623 -3 395 -9 612
-15 614 -5 2 -26 -11 -45 -28z"/>
<path d="M20040 1788 c-52 -45 -131 -79 -218 -92 -72 -11 -77 -13 -77 -36 0
-24 3 -25 50 -21 44 3 125 24 178 46 16 7 17 -22 17 -528 0 -303 -4 -546 -9
-560 -12 -32 -27 -37 -138 -44 -89 -6 -93 -7 -93 -30 l0 -23 295 0 295 0 0 25
c0 24 -3 25 -57 26 -77 0 -151 13 -166 28 -9 9 -13 167 -17 623 -3 395 -9 612
-15 614 -5 2 -26 -11 -45 -28z"/>
<path d="M25133 1806 c-136 -43 -237 -177 -250 -331 -4 -51 -2 -64 17 -87 16
-22 30 -28 59 -28 49 0 81 32 81 82 0 42 -36 78 -76 78 -71 0 34 173 134 221
62 30 158 31 222 2 176 -78 223 -325 104 -542 -50 -90 -95 -146 -334 -418
-143 -161 -210 -245 -210 -260 l0 -23 350 0 350 0 5 23 c5 22 45 272 45 282 0
3 -8 5 -18 5 -15 0 -20 -14 -31 -75 -20 -123 -1 -116 -316 -113 l-270 3 258
259 c142 143 276 286 297 319 108 161 104 361 -10 490 -88 101 -277 153 -407
113z"/>
<path d="M27733 1806 c-136 -43 -237 -177 -250 -331 -4 -51 -2 -64 17 -87 16
-22 30 -28 59 -28 49 0 81 32 81 82 0 42 -36 78 -76 78 -71 0 34 173 134 221
62 30 158 31 222 2 176 -78 223 -325 104 -542 -50 -90 -95 -146 -334 -418
-143 -161 -210 -245 -210 -260 l0 -23 350 0 350 0 5 23 c5 22 45 272 45 282 0
3 -8 5 -18 5 -15 0 -20 -14 -31 -75 -20 -123 -1 -116 -316 -113 l-270 3 258
259 c142 143 276 286 297 319 108 161 104 361 -10 490 -88 101 -277 153 -407
113z"/>
<path d="M31320 1788 c-52 -45 -131 -79 -218 -92 -72 -11 -77 -13 -77 -36 0
-24 3 -25 50 -21 44 3 125 24 178 46 16 7 17 -22 17 -528 0 -303 -4 -546 -9
-560 -12 -32 -27 -37 -138 -44 -89 -6 -93 -7 -93 -30 l0 -23 295 0 295 0 0 25
c0 24 -3 25 -57 26 -77 0 -151 13 -166 28 -9 9 -13 167 -17 623 -3 395 -9 612
-15 614 -5 2 -26 -11 -45 -28z"/>
<path d="M34560 1788 c-52 -45 -131 -79 -218 -92 -72 -11 -77 -13 -77 -36 0
-24 3 -25 50 -21 44 3 125 24 178 46 16 7 17 -22 17 -528 0 -303 -4 -546 -9
-560 -12 -32 -27 -37 -138 -44 -89 -6 -93 -7 -93 -30 l0 -23 295 0 295 0 0 25
c0 24 -3 25 -57 26 -77 0 -151 13 -166 28 -9 9 -13 167 -17 623 -3 395 -9 612
-15 614 -5 2 -26 -11 -45 -28z"/>
<path d="M36313 1806 c-136 -43 -237 -177 -250 -331 -4 -51 -2 -64 17 -87 16
-22 30 -28 59 -28 49 0 81 32 81 82 0 42 -36 78 -76 78 -71 0 34 173 134 221
62 30 158 31 222 2 176 -78 223 -325 104 -542 -50 -90 -95 -146 -334 -418
-143 -161 -210 -245 -210 -260 l0 -23 350 0 350 0 5 23 c5 22 45 272 45 282 0
3 -8 5 -18 5 -15 0 -20 -14 -31 -75 -20 -123 -1 -116 -316 -113 l-270 3 258
259 c142 143 276 286 297 319 108 161 104 361 -10 490 -88 101 -277 153 -407
113z"/>
<path d="M8992 1608 c-9 -9 -12 -88 -12 -295 l0 -283 -286 -2 c-255 -3 -288
-5 -297 -20 -8 -12 -7 -21 2 -32 12 -14 51 -16 297 -16 l284 0 0 -279 c0 -154
3 -286 6 -295 7 -19 35 -21 52 -4 9 9 12 88 12 295 l0 283 279 0 c154 0 286 3
295 6 9 3 16 16 16 29 0 13 -7 26 -16 29 -9 3 -141 6 -295 6 l-279 0 0 283 c0
283 -3 307 -35 307 -6 0 -16 -5 -23 -12z"/>
<path d="M17682 1608 c-9 -9 -12 -88 -12 -295 l0 -283 -286 -2 c-255 -3 -288
-5 -297 -20 -8 -12 -7 -21 2 -32 12 -14 51 -16 297 -16 l284 0 0 -279 c0 -154
3 -286 6 -295 7 -19 35 -21 52 -4 9 9 12 88 12 295 l0 283 279 0 c154 0 286 3
295 6 9 3 16 16 16 29 0 13 -7 26 -16 29 -9 3 -141 6 -295 6 l-279 0 0 283 c0
283 -3 307 -35 307 -6 0 -16 -5 -23 -12z"/>
<path d="M21622 1608 c-9 -9 -12 -88 -12 -295 l0 -283 -286 -2 c-255 -3 -288
-5 -297 -20 -8 -12 -7 -21 2 -32 12 -14 51 -16 297 -16 l284 0 0 -279 c0 -154
3 -286 6 -295 7 -19 35 -21 52 -4 9 9 12 88 12 295 l0 283 279 0 c154 0 286 3
295 6 21 8 21 50 0 58 -9 3 -141 6 -295 6 l-279 0 0 283 c0 283 -3 307 -35
307 -6 0 -16 -5 -23 -12z"/>
<path d="M32902 1608 c-9 -9 -12 -88 -12 -295 l0 -283 -286 -2 c-255 -3 -288
-5 -297 -20 -8 -12 -7 -21 2 -32 12 -14 51 -16 297 -16 l284 0 0 -279 c0 -154
3 -286 6 -295 7 -19 35 -21 52 -4 9 9 12 88 12 295 l0 283 279 0 c154 0 286 3
295 6 21 8 21 50 0 58 -9 3 -141 6 -295 6 l-279 0 0 283 c0 283 -3 307 -35
307 -6 0 -16 -5 -23 -12z"/>
<path d="M38022 1608 c-9 -9 -12 -88 -12 -295 l0 -283 -286 -2 c-255 -3 -288
-5 -297 -20 -8 -12 -7 -21 2 -32 12 -14 51 -16 297 -16 l284 0 0 -279 c0 -154
3 -286 6 -295 7 -19 35 -21 52 -4 9 9 12 88 12 295 l0 283 279 0 c154 0 286 3
295 6 21 8 21 50 0 58 -9 3 -141 6 -295 6 l-279 0 0 283 c0 283 -3 307 -35
307 -6 0 -16 -5 -23 -12z"/>
<path d="M3612 1359 c-52 -26 -113 -103 -146 -185 -33 -81 -36 -109 -12 -109
14 0 24 13 36 50 48 141 121 225 194 225 37 0 60 -40 51 -87 -3 -21 -36 -125
-72 -232 -50 -148 -66 -213 -70 -271 -7 -94 13 -162 60 -208 86 -84 249 -81
340 5 32 31 32 30 11 -51 -51 -201 -198 -366 -327 -366 -50 0 -99 21 -125 55
-29 36 -28 45 4 45 35 0 94 59 94 94 0 65 -77 86 -132 37 -31 -27 -33 -34 -33
-93 0 -55 4 -70 28 -101 43 -57 79 -72 173 -72 72 0 87 3 156 37 94 47 200
154 246 249 22 44 65 199 137 486 58 233 105 434 105 448 0 57 -90 59 -115 2
-8 -17 -49 -169 -91 -337 -41 -168 -84 -318 -94 -335 -28 -45 -70 -81 -120
-104 -86 -39 -156 -21 -184 49 -34 87 -15 210 74 460 41 115 50 154 47 189
-12 111 -132 173 -235 120z"/>
<path d="M10412 1359 c-52 -26 -113 -103 -146 -185 -33 -81 -36 -109 -12 -109
14 0 24 13 36 50 48 141 121 225 194 225 37 0 60 -40 51 -87 -3 -21 -36 -125
-72 -232 -50 -148 -66 -213 -70 -271 -7 -94 13 -162 60 -208 86 -84 249 -81
340 5 32 31 32 30 11 -51 -51 -201 -198 -366 -327 -366 -50 0 -99 21 -125 55
-29 36 -28 45 4 45 35 0 94 59 94 94 0 65 -77 86 -132 37 -31 -27 -33 -34 -33
-93 0 -55 4 -70 28 -101 43 -57 79 -72 173 -72 72 0 87 3 156 37 94 47 200
154 246 249 22 44 65 199 137 486 58 233 105 434 105 448 0 57 -90 59 -115 2
-8 -17 -49 -169 -91 -337 -41 -168 -84 -318 -94 -335 -28 -45 -70 -81 -120
-104 -86 -39 -156 -21 -184 49 -34 87 -15 210 74 460 41 115 50 154 47 189
-12 111 -132 173 -235 120z"/>
<path d="M23042 1359 c-52 -26 -113 -103 -146 -185 -33 -81 -36 -109 -12 -109
14 0 24 13 36 50 48 141 121 225 194 225 37 0 60 -40 51 -87 -3 -21 -36 -125
-72 -232 -50 -148 -66 -213 -70 -271 -7 -94 13 -162 60 -208 86 -84 249 -81
340 5 32 31 32 30 11 -51 -51 -201 -198 -366 -327 -366 -50 0 -99 21 -125 55
-29 36 -28 45 4 45 35 0 94 59 94 94 0 65 -77 86 -132 37 -31 -27 -33 -34 -33
-93 0 -55 4 -70 28 -101 43 -57 79 -72 173 -72 72 0 87 3 156 37 94 47 200
154 246 249 22 44 65 199 137 486 58 233 105 434 105 448 0 57 -90 59 -115 2
-8 -17 -49 -169 -91 -337 -41 -168 -84 -318 -94 -335 -28 -45 -70 -81 -120
-104 -86 -39 -156 -21 -184 49 -34 87 -15 210 74 460 41 115 50 154 47 189
-12 111 -132 173 -235 120z"/>
<path d="M39442 1359 c-52 -26 -113 -103 -146 -185 -33 -81 -36 -109 -12 -109
14 0 24 13 36 50 48 141 121 225 194 225 37 0 60 -40 51 -87 -3 -21 -36 -125
-72 -232 -50 -148 -66 -213 -70 -271 -7 -94 13 -162 60 -208 86 -84 249 -81
340 5 32 31 32 30 11 -51 -51 -201 -198 -366 -327 -366 -50 0 -99 21 -125 55
-29 36 -28 45 4 45 35 0 94 59 94 94 0 65 -77 86 -132 37 -31 -27 -33 -34 -33
-93 0 -55 4 -70 28 -101 43 -57 79 -72 173 -72 72 0 87 3 156 37 94 47 200
154 246 249 22 44 65 199 137 486 58 233 105 434 105 448 0 57 -90 59 -115 2
-8 -17 -49 -169 -91 -337 -41 -168 -84 -318 -94 -335 -28 -45 -70 -81 -120
-104 -86 -39 -156 -21 -184 49 -34 87 -15 210 74 460 41 115 50 154 47 189
-12 111 -132 173 -235 120z"/>
<path d="M1489 1194 c-9 -11 -10 -20 -2 -32 9 -16 63 -17 604 -20 327 -1 604
0 617 3 24 6 29 34 10 53 -9 9 -159 12 -614 12 -537 0 -603 -2 -615 -16z"/>
<path d="M5059 1194 c-9 -11 -10 -20 -2 -32 9 -16 63 -17 604 -20 327 -1 604
0 617 3 24 6 29 34 10 53 -9 9 -159 12 -614 12 -537 0 -603 -2 -615 -16z"/>
<path d="M13749 1194 c-9 -11 -10 -20 -2 -32 9 -16 63 -17 604 -20 327 -1 604
0 617 3 24 6 29 34 10 53 -9 9 -159 12 -614 12 -537 0 -603 -2 -615 -16z"/>
<path d="M28969 1194 c-9 -11 -10 -20 -2 -32 9 -16 63 -17 604 -20 327 -1 604
0 617 3 24 6 29 34 10 53 -9 9 -159 12 -614 12 -537 0 -603 -2 -615 -16z"/>
<path d="M42779 1194 c-9 -11 -10 -20 -2 -32 9 -16 63 -17 604 -20 327 -1 604
0 617 3 24 6 29 34 10 53 -9 9 -159 12 -614 12 -537 0 -603 -2 -615 -16z"/>
<path d="M1489 834 c-9 -11 -10 -20 -2 -32 9 -16 63 -17 613 -20 437 -1 607 1
616 9 19 15 18 45 -2 53 -9 3 -285 6 -614 6 -533 0 -599 -2 -611 -16z"/>
<path d="M5059 834 c-9 -11 -10 -20 -2 -32 9 -16 63 -17 613 -20 437 -1 607 1
616 9 19 15 18 45 -2 53 -9 3 -285 6 -614 6 -533 0 -599 -2 -611 -16z"/>
<path d="M13749 834 c-9 -11 -10 -20 -2 -32 9 -16 63 -17 613 -20 437 -1 607
1 616 9 19 15 18 45 -2 53 -9 3 -285 6 -614 6 -533 0 -599 -2 -611 -16z"/>
<path d="M28969 834 c-9 -11 -10 -20 -2 -32 9 -16 63 -17 613 -20 437 -1 607
1 616 9 19 15 18 45 -2 53 -9 3 -285 6 -614 6 -533 0 -599 -2 -611 -16z"/>
<path d="M42779 834 c-9 -11 -10 -20 -2 -32 9 -16 63 -17 613 -20 437 -1 607
1 616 9 19 15 18 45 -2 53 -9 3 -285 6 -614 6 -533 0 -599 -2 -611 -16z"/>
<path d="M44858 660 c-27 -27 -30 -36 -25 -72 7 -52 33 -78 85 -85 36 -5 45
-2 72 25 41 42 42 92 1 133 -41 41 -91 40 -133 -1z"/>
<path d="M45738 660 c-27 -27 -30 -36 -25 -72 7 -52 33 -78 85 -85 36 -5 45
-2 72 25 41 42 42 92 1 133 -41 41 -91 40 -133 -1z"/>
<path d="M46608 660 c-27 -27 -30 -36 -25 -72 7 -52 33 -78 85 -85 36 -5 45
-2 72 25 41 42 42 92 1 133 -41 41 -91 40 -133 -1z"/>
</g>
</svg>
