<?xml version="1.0" standalone="no"?>
<!DOCTYPE svg PUBLIC "-//W3C//DTD SVG 20010904//EN"
 "http://www.w3.org/TR/2001/REC-SVG-20010904/DTD/svg10.dtd">
<svg version="1.0" xmlns="http://www.w3.org/2000/svg"
 width="468pt" height="40pt" viewBox="0 0 468 40"
 preserveAspectRatio="xMidYMid meet">
<metadata>
Created by potrace 1.8, written by Peter Selinger 2001-2007
</metadata>
<g transform="translate(0,40) scale(0.232836,-0.232836)"
fill="#000000" stroke="none">
<path d="M45 137 c18 -14 19 -18 6 -39 -13 -21 -13 -22 3 -9 22 19 17 55 -9
59 -20 4 -20 4 0 -11z"/>
<path d="M321 150 c-1 -3 -3 -29 -4 -58 -2 -46 0 -52 18 -52 13 0 16 3 8 8 -6
4 -13 30 -16 57 -2 28 -4 48 -6 45z"/>
<path d="M591 150 c-1 -3 -3 -29 -4 -58 -2 -46 0 -52 18 -52 13 0 16 3 8 8 -6
4 -13 30 -16 57 -2 28 -4 48 -6 45z"/>
<path d="M760 141 c12 -8 13 -16 3 -43 -11 -30 -11 -31 3 -13 18 24 15 57 -6
62 -13 4 -13 3 0 -6z"/>
<path d="M1010 140 c-10 -6 -11 -10 -2 -10 7 0 12 -15 12 -39 0 -22 -5 -42
-12 -44 -7 -3 1 -6 17 -6 17 0 25 3 18 7 -6 4 -13 29 -15 54 -2 39 -6 46 -18
38z"/>
<path d="M1181 128 c-7 -11 -8 -17 -2 -13 7 4 11 -4 11 -19 0 -20 -5 -26 -22
-27 -18 -1 -19 -2 -5 -6 9 -2 15 -9 12 -14 -4 -5 2 -9 13 -9 16 0 18 6 14 53
-2 28 -5 53 -6 54 -1 1 -8 -7 -15 -19z"/>
<path d="M1440 140 c-10 -6 -11 -10 -2 -10 7 0 12 -15 12 -39 0 -22 -5 -42
-12 -44 -7 -3 -4 -6 7 -6 18 -1 20 4 17 42 -5 66 -5 68 -22 57z"/>
<path d="M1585 140 c-3 -5 -4 -19 0 -29 3 -11 1 -22 -5 -26 -5 -3 -10 -12 -10
-18 0 -7 5 -4 11 6 12 21 23 22 43 1 13 -12 16 -13 16 -1 0 7 -11 20 -25 27
-14 7 -25 19 -25 27 0 17 36 17 44 1 4 -8 5 -7 3 2 -4 18 -42 26 -52 10z"/>
<path d="M461 108 c-1 -21 -7 -28 -28 -31 l-28 -4 27 -2 c19 -1 28 -7 31 -23
l4 -23 2 23 c1 15 8 22 24 23 l22 2 -22 4 c-14 3 -23 13 -26 31 l-4 27 -2 -27z"/>
<path d="M881 108 c-1 -21 -6 -28 -23 -29 l-23 -2 23 -4 c14 -3 22 -12 23 -26
2 -22 2 -22 6 1 3 16 12 22 31 23 l27 2 -27 4 c-20 3 -28 11 -31 31 l-4 27 -2
-27z"/>
<path d="M1311 108 c-1 -21 -6 -28 -23 -29 l-23 -2 23 -4 c14 -3 22 -12 23
-26 2 -22 2 -22 6 1 3 14 12 22 26 23 l22 2 -22 4 c-14 3 -23 13 -26 31 l-4
27 -2 -27z"/>
<path d="M1741 108 c-1 -21 -7 -28 -28 -31 l-28 -4 27 -2 c19 -1 28 -7 31 -23
l4 -23 2 23 c1 15 8 22 24 23 l22 2 -22 4 c-14 3 -23 13 -26 31 l-4 27 -2 -27z"/>
<path d="M153 93 c15 -2 39 -2 55 0 15 2 2 4 -28 4 -30 0 -43 -2 -27 -4z"/>
<path d="M153 63 c15 -2 39 -2 55 0 15 2 2 4 -28 4 -30 0 -43 -2 -27 -4z"/>
<path d="M35 50 l-30 -8 33 -1 c17 0 32 4 32 9 0 6 -1 9 -2 9 -2 -1 -16 -5
-33 -9z"/>
<path d="M750 50 l-25 -8 28 -1 c15 -1 27 4 27 9 0 6 -1 10 -2 9 -2 -1 -14 -5
-28 -9z"/>
<path d="M1593 44 c3 -3 12 -4 19 -1 8 3 5 6 -6 6 -11 1 -17 -2 -13 -5z"/>
</g>
</svg>
